<?xml version="1.0" standalone="no"?>
<!DOCTYPE svg PUBLIC "-//W3C//DTD SVG 1.1//EN" "http://www.w3.org/Graphics/SVG/1.1/DTD/svg11.dtd" >
<svg xmlns="http://www.w3.org/2000/svg">
<metadata></metadata>
<defs>
<font id="americansans_lightregular" horiz-adv-x="1107" >
<font-face units-per-em="2048" ascent="1536" descent="-512" />
<missing-glyph horiz-adv-x="512" />
<glyph unicode="&#xfb01;" horiz-adv-x="962" d="M41 926v86h178v90q0 188 91 282.5t257 94.5q72 0 114 -7.5t50 -9.5q-2 -8 -2 -18t-2 -21q-2 -10 -4 -22q-2 -27 -23 -27q-16 0 -54 7.5t-89 7.5q-121 0 -176 -66t-55 -199v-112h473v-1012h-107v926h-366v-926h-107v926h-178z" />
<glyph unicode="&#xfb02;" horiz-adv-x="1019" d="M41 926v86h178v90q0 188 102.5 282.5t296.5 94.5q90 0 160 -11.5t78 -13.5v-1454h-106v1374q-20 4 -56.5 9.5t-85.5 5.5q-135 0 -208.5 -66t-73.5 -199v-112h258v-86h-258v-926h-107v926h-178z" />
<glyph unicode="&#xfb03;" horiz-adv-x="1556" d="M41 926v86h176v88q0 190 91 284.5t259 94.5q72 0 113 -7.5t51 -11.5q-2 -8 -3 -17t-3 -20q-2 -10 -2 -22q-4 -16 -8 -22.5t-17 -6.5q-16 0 -54 7t-87 7q-123 0 -177 -65.5t-54 -198.5v-110h485v88q0 190 91 284.5t259 94.5q72 0 114 -7.5t50 -11.5q-2 -8 -2 -17t-2 -20 q-2 -10 -4 -22q-4 -16 -8 -22.5t-17 -6.5q-16 0 -53 7t-88 7q-121 0 -176 -65.5t-55 -198.5v-110h473v-1012h-107v926h-366v-926h-109v926h-485v-926h-109v926h-176z" />
<glyph unicode="&#xfb04;" horiz-adv-x="1611" d="M41 926v86h178v90q0 188 91 282.5t257 94.5q72 0 114 -7.5t50 -9.5q-2 -8 -2 -18t-2 -21q-2 -10 -4 -22q-2 -27 -23 -27q-16 0 -54 7.5t-89 7.5q-121 0 -176 -66t-55 -199v-112h485v90q0 377 389 377q45 0 88 -3t77 -8.5t56.5 -9.5t26.5 -4v-1454h-107v1374 q-20 4 -61 9.5t-90 5.5q-143 0 -207.5 -66t-64.5 -199v-112h258v-86h-258v-926h-107v926h-485v-926h-107v926h-178z" />
<glyph horiz-adv-x="2048" />
<glyph horiz-adv-x="2048" />
<glyph unicode="&#xd;" horiz-adv-x="737" />
<glyph unicode=" "  horiz-adv-x="512" />
<glyph unicode="&#x09;" horiz-adv-x="512" />
<glyph unicode="&#xa0;" horiz-adv-x="512" />
<glyph unicode="!" horiz-adv-x="618" d="M225 0h137v137h-137v-137zM231 1380h123l-22 -974h-78z" />
<glyph unicode="&#x22;" horiz-adv-x="559" d="M123 1382h106l-28 -346h-51zM330 1382l26 -346h52l28 346h-106z" />
<glyph unicode="#" horiz-adv-x="1267" d="M74 358v88h243l56 488h-242v88h250l39 358h108l-39 -358h359l39 358h108l-39 -358h238v-88h-246l-55 -488h246v-88h-254l-37 -358h-109l37 358h-358l-37 -358h-109l39 358h-237zM426 446h358l56 488h-359z" />
<glyph unicode="$" horiz-adv-x="1097" d="M164 29l22 94q27 -10 96.5 -28.5t174.5 -18.5q80 0 147.5 20.5t116.5 58.5t76.5 90t27.5 117q0 100 -66.5 162t-185.5 111l-127 55q-53 23 -101 52.5t-84 70.5t-56.5 93t-20.5 120q0 61 18.5 117.5t58.5 102.5t102.5 78t150.5 44v172h104v-164q8 0 14.5 1t12.5 1 q98 0 166 -13t90 -19l-20 -95q-25 8 -88.5 21.5t-153.5 13.5q-74 0 -137.5 -17.5t-109.5 -49t-71.5 -78.5t-25.5 -109q0 -96 54 -151.5t132 -87.5l150 -64q59 -25 114.5 -56.5t97.5 -73.5t66.5 -98t24.5 -132q0 -137 -80 -236.5t-236 -132.5v-211h-104v197h-33 q-123 0 -202.5 16t-114.5 27z" />
<glyph unicode="%" horiz-adv-x="1525" d="M123 1036q0 66 13.5 129.5t44 113.5t78.5 81t120 31q68 0 116 -29t79.5 -77t47 -112.5t15.5 -136.5q0 -76 -16.5 -140.5t-48 -112.5t-81 -75.5t-112.5 -27.5q-68 0 -116 28.5t-78.5 77t-46 113t-15.5 137.5zM203 1036q0 -137 45 -211.5t131 -74.5q94 0 136 80.5t42 205.5 q0 123 -42 205t-136 82q-61 0 -96 -33t-53.5 -79t-22.5 -95t-4 -80zM295 0l825 1380h99l-824 -1380h-100zM889 346q0 66 13 129.5t44 113.5t79 80.5t120 30.5q68 0 116 -28.5t79.5 -76.5t47 -112.5t15.5 -136.5q0 -76 -16.5 -140.5t-48 -112.5t-81 -75.5t-112.5 -27.5 q-68 0 -116 28.5t-78.5 76.5t-46 112.5t-15.5 138.5zM969 346q0 -139 45 -213t131 -74q94 0 136 81t42 206q0 123 -42 205t-136 82q-61 0 -96 -33t-53.5 -79t-22.5 -95t-4 -80z" />
<glyph unicode="&#x26;" horiz-adv-x="1486" d="M139 373q0 72 25.5 131t63.5 106t84 84t87 64q-23 29 -48 67.5t-46.5 83.5t-37 94.5t-15.5 100.5q0 68 24.5 122t67.5 92t103.5 58.5t132.5 20.5q80 0 137 -23.5t94 -60.5t54.5 -83t17.5 -91q0 -72 -28 -127.5t-75 -101.5t-108.5 -86t-128.5 -81q33 -43 88 -102 t118.5 -121.5t126 -122t111.5 -104.5q68 98 103.5 226t35.5 261h105q0 -90 -15.5 -172t-40 -153.5t-54 -129t-60.5 -96.5q18 -16 56 -47.5t79 -64.5q47 -37 100 -82l-79 -82q-49 45 -93 82q-37 33 -74.5 65.5t-56.5 49.5q-8 -8 -37.5 -35t-80 -55.5t-123 -51t-166.5 -22.5 t-175 23.5t-141.5 71.5t-95.5 120.5t-35 171.5zM254 375q0 -72 24.5 -127t68.5 -94t103.5 -58.5t129.5 -19.5q74 0 131 16.5t100 39t70.5 46t40.5 37.5q-47 41 -107.5 97.5t-124 119t-125 128t-110.5 126.5q-18 -14 -52 -41t-67 -64.5t-57.5 -89t-24.5 -116.5zM367 1096 q0 -66 36.5 -139.5t85.5 -141.5q49 31 98.5 63.5t90.5 71.5t66.5 82t25.5 96q0 33 -12.5 65t-36 56.5t-60 40t-86.5 15.5q-90 0 -149 -55.5t-59 -153.5z" />
<glyph unicode="'" horiz-adv-x="352" d="M123 1382h106l-30 -346h-52z" />
<glyph unicode="(" horiz-adv-x="626" d="M164 455q0 178 31.5 329.5t75.5 269t91.5 201.5t75.5 127h86q-25 -45 -67.5 -132t-82.5 -206.5t-70 -268t-30 -320.5q0 -170 30 -319.5t70 -269.5t82 -207t66 -130h-86q-29 45 -75 130t-90 203t-75.5 267.5t-31.5 325.5z" />
<glyph unicode=")" horiz-adv-x="626" d="M102 1382h86q29 -43 76 -127t91 -201.5t76 -269t32 -329.5q0 -176 -32 -325.5t-76 -267.5t-90 -203t-75 -130h-86q25 43 67 130t82 207t69.5 269.5t29.5 319.5q0 172 -29.5 320.5t-69.5 268t-83 206.5t-68 132z" />
<glyph unicode="*" horiz-adv-x="806" d="M154 1161l32 101l193 -86l-25 206h107l-23 -208l191 88l33 -101l-207 -45l143 -153l-86 -62l-106 182l-103 -182l-84 62l139 157z" />
<glyph unicode="+" horiz-adv-x="1267" d="M111 573v89h469v460h106v-460h471v-89h-471v-462h-106v462h-469z" />
<glyph unicode="," horiz-adv-x="421" d="M123 -166q35 23 64.5 65t29.5 101h-78v160h160v-160q0 -37 -15.5 -68.5t-38 -58.5t-49 -46.5t-46.5 -29.5z" />
<glyph unicode="-" horiz-adv-x="821" d="M143 463v88h535v-88h-535z" />
<glyph unicode="." horiz-adv-x="405" d="M123 0v160h160v-160h-160z" />
<glyph unicode="/" horiz-adv-x="823" d="M57 0l527 1382h114l-526 -1382h-115z" />
<glyph unicode="0" horiz-adv-x="1267" d="M123 690q0 131 27.5 258t88 226.5t158 160t238.5 60.5q131 0 227 -56.5t159.5 -154t93.5 -225.5t30 -269q0 -150 -32 -278.5t-95.5 -223t-158.5 -148.5t-224 -54q-133 0 -230.5 56t-160 151.5t-92 223.5t-29.5 273zM236 690q0 -295 100 -453.5t297 -158.5q106 0 182 46 t124 127t70.5 193.5t22.5 245.5q0 131 -22.5 244t-69.5 194.5t-124 128t-183 46.5q-92 0 -156.5 -33t-108.5 -86.5t-71 -120t-40 -134t-17 -131t-4 -108.5z" />
<glyph unicode="1" horiz-adv-x="669" d="M0 1229q55 6 108.5 22.5t99.5 39t82 51t56 57.5h98v-1399h-108v1253q-49 -33 -128 -67.5t-194 -42.5z" />
<glyph unicode="2" horiz-adv-x="880" d="M41 1307q4 2 28.5 16t65.5 30.5t99.5 29t132.5 12.5q106 0 183 -35t127 -90.5t73.5 -126t23.5 -142.5q0 -80 -20.5 -146.5t-55 -127.5t-82 -120.5t-100.5 -123.5q-12 -14 -32.5 -38.5t-46 -55.5t-54.5 -65.5t-57 -67.5q-68 -80 -142 -172h656v-84h-789v102 q88 102 160 187q31 37 61.5 72.5t57 66.5t46 53.5t27.5 32.5q68 80 117 143.5t82 120t48.5 110.5t15.5 118q0 53 -17.5 106t-56.5 95t-98.5 69t-145.5 27q-57 0 -101 -9.5t-76 -23t-54.5 -25.5t-34.5 -18z" />
<glyph unicode="3" horiz-adv-x="843" d="M41 1337q41 16 108.5 37t182.5 21q94 0 167.5 -28t124 -75t76 -111.5t25.5 -140.5q0 -78 -25.5 -134t-62.5 -94t-76 -60.5t-65 -30.5v-8q31 -8 72.5 -31t79.5 -61.5t65.5 -97t27.5 -140.5q0 -84 -34.5 -156.5t-98 -126t-152.5 -84t-196 -30.5q-82 0 -131 8t-61 12l-7 90 q23 -4 72 -11t121 -7q88 0 158.5 25.5t120 67.5t75 97.5t25.5 116.5q0 55 -19.5 106.5t-60.5 91.5t-106.5 63.5t-159.5 23.5h-127v88h131q70 0 129 21.5t102 58t67.5 87t24.5 109.5q0 55 -20.5 104.5t-60 85.5t-99 57.5t-139.5 21.5q-92 0 -149.5 -24t-73.5 -32z" />
<glyph unicode="4" horiz-adv-x="1091" d="M61 504l568 878h172v-915h250v-88h-250v-379h-107v379h-602zM160 467h534v823h-8z" />
<glyph unicode="5" horiz-adv-x="970" d="M123 98q16 -4 67.5 -12t126.5 -8q98 0 180.5 25.5t140.5 71.5t90 109.5t32 141.5q0 68 -24.5 126t-77 102t-132.5 69t-188 25q-51 0 -94 -7.5t-54 -11.5v653h646v-88h-537v-467q6 4 32.5 8.5t67.5 4.5q100 0 186.5 -29t149 -82t98 -131t35.5 -176q0 -90 -38.5 -170 t-109.5 -139.5t-170 -93t-222 -33.5q-31 0 -64 2t-60.5 5t-48 6t-26.5 5z" />
<glyph unicode="6" horiz-adv-x="1177" d="M123 567q0 219 51 376t140 257t206 147.5t250 47.5q74 0 128 -8.5t71 -12.5l-15 -94q-10 4 -63 13.5t-131 9.5q-96 0 -172 -30t-132.5 -78t-96.5 -109.5t-65.5 -127t-37.5 -129t-16 -114.5l6 -2l39.5 39.5t74 55.5t109.5 49.5t145 21.5q109 0 194 -33t144.5 -91.5 t91 -139t31.5 -175.5q0 -31 -7 -77t-25.5 -97t-52.5 -101t-87 -90t-128 -64.5t-177 -24.5q-152 0 -245 53t-144 137t-68.5 187.5t-17.5 203.5zM246 432q0 -76 26.5 -140.5t74.5 -112.5t112.5 -74.5t142.5 -26.5q80 0 146.5 26.5t114.5 73.5t75 111.5t27 140.5 q0 80 -29 145.5t-78 113.5t-115.5 73.5t-142.5 25.5q-74 0 -139.5 -25.5t-112.5 -71.5t-74.5 -111.5t-27.5 -147.5z" />
<glyph unicode="7" horiz-adv-x="833" d="M0 1294v88h834v-94q-72 -121 -148 -273.5t-144.5 -321.5t-124 -346t-85.5 -347h-123q29 174 86 348t130 339t152.5 318.5t153.5 288.5h-731z" />
<glyph unicode="8" horiz-adv-x="995" d="M82 334q0 117 80 205t215 170l-2 6q-72 39 -122 76.5t-83 79.5t-48.5 91.5t-15.5 112.5q0 74 29 133.5t80 100.5t124 63.5t159 22.5q104 0 178 -28t119 -71t65.5 -96t20.5 -106q0 -63 -18.5 -113.5t-53.5 -94.5t-86 -83t-119 -82v-6q162 -86 235.5 -179.5t73.5 -207.5 q0 -154 -110.5 -248t-308.5 -94q-90 0 -166 22.5t-130.5 67.5t-85 109.5t-30.5 148.5zM193 313q0 -106 81.5 -170.5t223.5 -64.5q74 0 131 19.5t96 51t58.5 73.5t19.5 87q0 47 -14.5 88t-50.5 82t-95 83t-151 91q-66 -39 -120.5 -74.5t-94 -75.5t-62 -86t-22.5 -104z M217 1094q0 -59 19.5 -103.5t55.5 -81.5t86 -68.5t109 -64.5q55 35 106.5 70t90.5 72.5t62.5 81.5t23.5 98q0 37 -16.5 73.5t-51 66.5t-90 47.5t-131.5 17.5q-61 0 -109 -17.5t-83 -47.5t-53.5 -67.5t-18.5 -76.5z" />
<glyph unicode="9" horiz-adv-x="1177" d="M102 940q0 47 17.5 124t70 150.5t145.5 127t247 53.5q152 0 245 -53.5t143 -137.5t67.5 -187.5t17.5 -203.5q0 -219 -51.5 -375.5t-140.5 -257t-206.5 -147.5t-248.5 -47q-74 0 -128.5 8t-70.5 12l14 94q10 -4 63.5 -13t131.5 -9q98 0 174 29.5t132 77.5t95 109.5 t64.5 127t39 129t17.5 115.5l-6 2q-12 -12 -41 -40t-75 -55.5t-108.5 -49t-144.5 -21.5q-109 0 -194.5 32.5t-145 91t-91.5 139.5t-32 175zM215 950q0 -80 28.5 -145.5t78 -113.5t116 -73.5t142.5 -25.5q74 0 138 25.5t111.5 71.5t75 111.5t27.5 147.5q0 76 -26.5 140.5 t-75 112.5t-113 75t-139.5 27q-80 0 -146.5 -27t-115 -74t-75 -111.5t-26.5 -140.5z" />
<glyph unicode=":" horiz-adv-x="405" d="M123 0v160h160v-160h-160zM123 618v160h160v-160h-160z" />
<glyph unicode=";" horiz-adv-x="421" d="M123 -166q35 23 64.5 65t29.5 101h-78v160h160v-160q0 -37 -15.5 -68.5t-38 -58.5t-49 -46.5t-46.5 -29.5zM139 618v160h160v-160h-160z" />
<glyph unicode="&#x3c;" horiz-adv-x="655" d="M123 547l344 414l65 -58l-292 -356l292 -357l-65 -57z" />
<glyph unicode="=" horiz-adv-x="1267" d="M154 387h960v88h-960v-88zM154 768v88h960v-88h-960z" />
<glyph unicode="&#x3e;" horiz-adv-x="655" d="M123 190l293 357l-293 356l65 58l344 -414l-344 -414z" />
<glyph unicode="?" horiz-adv-x="937" d="M197 1262l8 92q23 8 89 24.5t157 16.5q104 0 179 -29t123 -75t69.5 -107.5t21.5 -124.5q0 -57 -16.5 -103.5t-43 -84t-59.5 -71.5t-63 -67q-66 -66 -111 -132t-45 -163v-39h-109v41q0 70 18.5 126.5t44 99.5t54.5 72.5t49 49.5q31 31 61.5 61t55.5 63.5t40 71.5t15 83 q0 104 -77.5 170t-231.5 66q-74 0 -140.5 -16.5t-88.5 -24.5zM383 -2v137h137v-137h-137z" />
<glyph unicode="@" horiz-adv-x="1837" d="M158 655q0 170 63.5 307.5t172 233.5t251.5 147.5t303 51.5q174 0 303 -49.5t215 -128t128 -178t42 -199.5q0 -117 -35.5 -207t-94 -151.5t-134.5 -93.5t-155 -32q-55 0 -93.5 13.5t-63 35t-36.5 46t-16 49.5h-7q-8 -16 -26.5 -40t-47 -46.5t-67.5 -39t-88 -16.5 q-45 0 -88 15.5t-76 47.5t-53 82t-20 120q0 92 34.5 174t95 144.5t142.5 98t176 35.5q86 0 143.5 -14t73.5 -21q-18 -102 -35 -188q-14 -74 -27.5 -142.5t-15.5 -88.5q-4 -18 -10 -50t-6 -67q0 -47 32.5 -78t96.5 -31q49 0 103.5 21.5t100.5 71t75.5 131t29.5 202.5 q0 100 -37 197.5t-110.5 173.5t-186 122t-262.5 46q-137 0 -263 -48t-221 -138.5t-151.5 -221.5t-56.5 -299q0 -137 42 -253.5t122 -200.5t193.5 -132.5t254.5 -48.5q123 0 208 27t116 39l-6 -59q-35 -10 -120 -30t-218 -20q-135 0 -260 45.5t-220.5 131.5t-152.5 213 t-57 290zM639 602q0 -88 46 -139t106 -51q111 0 167 77.5t80 208.5q4 29 14.5 81t20.5 106q10 61 25 131q-10 4 -36 13t-73 9q-68 0 -131 -32.5t-112.5 -90t-78 -138.5t-28.5 -175z" />
<glyph unicode="A" horiz-adv-x="1167" d="M0 0l522 1382h129l516 -1382h-129l-133 362h-651l-133 -362h-121zM285 453h589l-290 800h-9z" />
<glyph unicode="B" horiz-adv-x="1189" d="M225 0v1382h336q119 0 204 -25.5t138 -71.5t79 -109.5t26 -137.5q0 -88 -33 -147.5t-78 -96t-91 -55t-71 -24.5v-4q23 -2 75 -15.5t104.5 -49.5t92.5 -101.5t40 -171.5q0 -176 -127 -274.5t-357 -98.5h-338zM336 92q18 -2 78.5 -5t126.5 -3q195 0 294 82t99 213 t-100.5 211t-292.5 80h-205v-578zM336 758h174q100 0 173 20.5t121 57t71.5 87t23.5 107.5q0 135 -99.5 201.5t-291.5 66.5q-59 0 -104.5 -2t-67.5 -2v-536z" />
<glyph unicode="C" horiz-adv-x="1249" d="M154 688q0 137 38.5 265t119.5 226.5t205 157t296 58.5q78 0 137.5 -7.5t100.5 -16.5t64.5 -17t29.5 -11l-25 -96q-8 2 -36.5 11.5t-71.5 19.5t-100.5 17.5t-120.5 7.5q-137 0 -235.5 -51.5t-161 -137.5t-92.5 -196.5t-30 -229.5q0 -121 30 -231.5t92.5 -196.5 t160.5 -137t236 -51q63 0 120.5 7t100.5 17t71.5 19t36.5 12l27 -98q-6 -2 -30.5 -9.5t-66.5 -16.5t-101.5 -16t-135.5 -7q-172 0 -296 58t-205 156.5t-119.5 226.5t-38.5 267z" />
<glyph unicode="D" horiz-adv-x="1474" d="M225 0v1370q14 2 112.5 7t256.5 5q352 0 539.5 -180t187.5 -518q0 -168 -49 -298t-142.5 -219t-228.5 -135t-307 -46q-59 0 -118.5 2t-111 4t-89 4t-50.5 4zM336 92q18 -4 78.5 -9t132.5 -5q315 0 487 151.5t172 454.5q0 299 -168 452.5t-491 153.5q-78 0 -133.5 -5 t-77.5 -9v-1184z" />
<glyph unicode="E" horiz-adv-x="999" d="M225 0v1382h672v-88h-561v-536h530v-88h-530v-582h561v-88h-672z" />
<glyph unicode="F" horiz-adv-x="1019" d="M225 0v1382h672v-88h-561v-536h530v-88h-530v-670h-111z" />
<glyph unicode="G" horiz-adv-x="1406" d="M154 686q0 137 37.5 265t118.5 226.5t206 157t299 58.5q145 0 229 -23.5t101 -30.5l-25 -94q-6 2 -32.5 11.5t-70.5 18.5t-103.5 17t-127.5 8q-133 0 -230 -51t-160.5 -136t-93.5 -195.5t-30 -231.5q0 -129 32 -240.5t96.5 -194.5t160.5 -131t225 -48q57 0 108.5 6 t90.5 13t63.5 14.5t32.5 9.5v549h-336v88h447v-709q-12 -6 -42 -16.5t-77 -20.5t-112.5 -18t-147.5 -8q-166 0 -290 56t-205.5 152.5t-122.5 224.5t-41 273z" />
<glyph unicode="H" horiz-adv-x="1492" d="M225 0v1382h111v-624h821v624h111v-1382h-111v670h-821v-670h-111z" />
<glyph unicode="I" horiz-adv-x="561" d="M225 0v1382h111v-1382h-111z" />
<glyph unicode="J" horiz-adv-x="657" d="M-41 -4v98q10 -4 44 -13t91 -9q119 0 174.5 65.5t55.5 175.5v1069h108v-1069q0 -170 -93 -251.5t-245 -81.5q-53 0 -86 6t-49 10z" />
<glyph unicode="K" horiz-adv-x="1122" d="M225 0v1382h111v-669l645 669h141l-659 -669l680 -713h-162l-645 700v-700h-111z" />
<glyph unicode="L" horiz-adv-x="897" d="M225 0v1382h111v-1294h541v-88h-652z" />
<glyph unicode="M" horiz-adv-x="1855" d="M143 0l172 1382h162l434 -1286h4l431 1286h165l201 -1382h-119l-176 1284h-4l-428 -1284h-149l-437 1284h-2l-143 -1284h-111z" />
<glyph unicode="N" horiz-adv-x="1507" d="M225 0v1382h137l805 -1200h4v1200h111v-1382h-121l-821 1229h-4v-1229h-111z" />
<glyph unicode="O" horiz-adv-x="1548" d="M154 686q0 141 36.5 269t113.5 226.5t193.5 156t276.5 57.5t276.5 -57.5t193.5 -156t114 -226.5t37 -269q0 -145 -39 -273t-117 -224.5t-194.5 -152.5t-272.5 -56q-147 0 -262 52t-193.5 145t-120.5 223t-42 286zM272 686q0 -137 33 -250.5t96.5 -194.5t157.5 -125 t215 -44q129 0 224.5 50t157 134t91 195.5t29.5 234.5t-29.5 234.5t-91 196.5t-156 135.5t-225.5 50.5q-129 0 -224 -49.5t-156.5 -133.5t-91.5 -195.5t-30 -238.5z" />
<glyph unicode="P" horiz-adv-x="1155" d="M225 0v1382h297q119 0 211 -33.5t153.5 -92t93.5 -136.5t32 -166q0 -213 -133 -331.5t-373 -118.5q-16 0 -42 1t-52.5 2t-48 3t-27.5 2v-512h-111zM336 598q6 0 27.5 -1t49 -2t56.5 -2t49 -1q190 0 285.5 99.5t95.5 252.5q0 76 -25.5 140.5t-73.5 111.5t-119 72.5 t-163 25.5q-66 0 -119 -2t-63 -4v-690z" />
<glyph unicode="Q" horiz-adv-x="1548" d="M154 686q0 141 36.5 269t113.5 226.5t193.5 156t276.5 57.5t276.5 -57.5t193.5 -156t114 -226.5t37 -269q0 -125 -29 -238.5t-87 -204.5t-145 -155.5t-204 -91.5l102 -236h-92l-98 224q-16 -2 -33.5 -3t-36.5 -1q-147 0 -262 52t-193.5 145t-120.5 223t-42 286zM272 686 q0 -137 33 -250.5t96.5 -194.5t157.5 -125t215 -44h29l-125 282h96l117 -270q98 23 171 79t121 137t70.5 179.5t22.5 206.5q0 123 -29.5 234.5t-91 196.5t-156 135.5t-225.5 50.5q-129 0 -224 -49.5t-156.5 -133.5t-91.5 -195.5t-30 -238.5z" />
<glyph unicode="R" horiz-adv-x="1241" d="M225 0v1382h367q117 0 202 -32.5t140 -88t80.5 -129t25.5 -157.5q0 -98 -36.5 -166t-86 -111t-96.5 -64.5t-65 -27.5l362 -606h-133l-334 571h-315v-571h-111zM336 666q6 0 31.5 -1t57.5 -2t64.5 -2.5t53.5 -1.5q98 0 169.5 26t120 69t72 101t23.5 126q0 63 -21.5 120.5 t-67.5 100.5t-120 67.5t-176 24.5q-23 0 -56.5 -1t-66.5 -2t-56.5 -2t-27.5 -1v-622z" />
<glyph unicode="S" horiz-adv-x="1028" d="M123 23l22 96q29 -10 99.5 -28.5t175.5 -18.5q82 0 151.5 20.5t119.5 59t78 92t28 118.5q0 102 -67.5 165t-188.5 114l-131 53q-55 23 -103.5 54.5t-84.5 72.5t-57.5 95.5t-21.5 121.5q0 80 26 145.5t83 112.5t145 73t215 26q102 0 170 -13.5t90 -17.5l-20 -98 q-25 8 -89.5 22.5t-156.5 14.5q-76 0 -139.5 -17.5t-110.5 -50.5t-73.5 -82t-26.5 -111q0 -49 15.5 -86.5t41 -66.5t60.5 -50.5t73 -37.5l152 -64q61 -27 116.5 -58.5t97.5 -74.5t67.5 -101.5t25.5 -133.5q0 -84 -28.5 -155t-87 -123t-144.5 -81.5t-199 -29.5 q-123 0 -205.5 16t-117.5 27z" />
<glyph unicode="T" horiz-adv-x="1013" d="M20 1294v88h973v-88h-432v-1294h-110v1294h-431z" />
<glyph unicode="U" horiz-adv-x="1458" d="M225 479v903h111v-882q0 -209 99.5 -316.5t293.5 -107.5q104 0 179 30.5t122 87t69.5 134.5t22.5 172v882h111v-903q0 -104 -29.5 -195t-91 -159t-157 -106.5t-226.5 -38.5q-133 0 -228 38.5t-156.5 106.5t-90.5 159t-29 195z" />
<glyph unicode="V" horiz-adv-x="1191" d="M20 1382h119l457 -1267h4l463 1267h108l-509 -1382h-140z" />
<glyph unicode="W" horiz-adv-x="1748" d="M41 1382h113l303 -1255h4l325 1255h160l340 -1255h6l297 1255h119l-346 -1382h-160l-336 1255h-4l-330 -1255h-157z" />
<glyph unicode="X" horiz-adv-x="1105" d="M20 0l469 711l-432 671h140l362 -575l371 575h123l-435 -667l467 -715h-135l-401 625l-406 -625h-123z" />
<glyph unicode="Y" horiz-adv-x="1019" d="M20 1382h123l367 -761l377 761h112l-444 -876v-506h-111v506z" />
<glyph unicode="Z" horiz-adv-x="1040" d="M61 0v98l783 1196h-756v88h883v-96l-787 -1198h795v-88h-918z" />
<glyph unicode="[" horiz-adv-x="729" d="M225 1382h398v-88h-291l4 -1677h291v-88h-398z" />
<glyph unicode="\" horiz-adv-x="802" d="M74 1382h104l539 -1382h-111z" />
<glyph unicode="]" horiz-adv-x="727" d="M102 1294v88h398l2 -1853h-398v88h291l-2 1677h-291z" />
<glyph unicode="^" horiz-adv-x="942" d="M86 803l330 579h94l332 -579h-115l-266 487l-266 -487h-109z" />
<glyph unicode="_" horiz-adv-x="1040" d="M-4 -362h1048v-111h-1048v111z" />
<glyph unicode="`" horiz-adv-x="466" d="M88 1380h174l164 -301h-92z" />
<glyph unicode="a" horiz-adv-x="1024" d="M82 307q0 90 38 151.5t100.5 99.5t144 54.5t170.5 16.5h239v41q0 117 -83 191.5t-232 74.5q-55 0 -102.5 -9t-83 -20.5t-61.5 -20.5t-38 -9q-16 0 -16 20q-2 16 -3 40t-3 34q8 2 35.5 11t70.5 18.5t98.5 17.5t114.5 8q102 0 180 -27.5t129 -76t77 -115t26 -145.5v-402 q0 -68 1 -138.5t5 -121.5h-72q-27 0 -32 13.5t-7 31.5l-2 100h-4q-12 -18 -38.5 -44.5t-68.5 -53.5t-101.5 -45t-139.5 -18q-82 0 -145.5 24.5t-107.5 67.5t-66.5 102.5t-22.5 128.5zM193 307q0 -96 62 -163.5t183 -67.5q84 0 147.5 30.5t105.5 83t62.5 121t20.5 144.5v88 h-235q-100 0 -167 -22.5t-107 -56.5t-56 -76t-16 -81z" />
<glyph unicode="b" horiz-adv-x="1116" d="M164 18v1450h108v-632h4q6 12 27 43.5t59.5 64.5t96 58.5t139.5 25.5q98 0 176 -40t131 -105.5t81 -150.5t28 -175q0 -115 -37 -218t-109.5 -182t-181 -125t-252.5 -46q-102 0 -173 13t-97 19zM272 98q12 -4 60.5 -13t122.5 -9q96 0 178 33.5t142.5 97t94 155t33.5 205.5 q0 63 -19.5 129t-59.5 120t-99 88t-139 34q-61 0 -117.5 -28.5t-99.5 -87t-70 -147.5t-27 -208v-369z" />
<glyph unicode="c" horiz-adv-x="925" d="M102 506q0 113 31 208t92.5 164.5t153.5 109.5t215 40q111 0 180.5 -23.5t91.5 -33.5q0 -14 -1 -32.5t-3 -39.5q0 -23 -20 -22q-12 0 -34 9t-52.5 21.5t-70.5 21.5t-91 9q-96 0 -169 -35t-120 -94t-70.5 -137t-23.5 -166q0 -86 24.5 -165t71.5 -137.5t119 -93t168 -34.5 q51 0 93 10t73 21.5t52.5 21.5t33.5 10q16 0 16 -20q2 -20 2 -40v-36q-25 -10 -91 -33.5t-179 -23.5q-115 0 -206 35.5t-154.5 103.5t-97.5 164t-34 217z" />
<glyph unicode="d" horiz-adv-x="1110" d="M102 451q0 127 36 233.5t105.5 183t168 118.5t225.5 42q33 0 65.5 -4t59 -9t46.5 -9.5t26 -6.5v469h108v-1155v-84t1 -88t2 -79.5t1 -61.5h-84q-27 0 -26 27q0 10 -1 32.5t-1 49.5v65h-5q-8 -14 -29.5 -46t-59.5 -63.5t-94 -55t-134 -23.5q-109 0 -186.5 42t-126.5 108.5 t-73 149.5t-24 165zM213 463q0 -76 18.5 -145.5t56.5 -124t94 -86t132 -31.5q68 0 126 30.5t101 92t68 151.5t25 211v346q-10 4 -63.5 17.5t-125.5 13.5q-102 0 -182 -36t-135.5 -99.5t-85 -150.5t-29.5 -189z" />
<glyph unicode="e" d="M102 508q0 121 34 217t94.5 163.5t145.5 103.5t187 36q121 0 206 -40t137 -101.5t76 -137t24 -145.5q0 -37 -4.5 -79t-4.5 -54h-784q2 -80 25.5 -151.5t70.5 -125t119 -85t170 -31.5q72 0 125 7t90 16.5t59.5 17.5t34.5 8q20 0 23 -23q0 -12 1 -31.5t1 -33.5 q-14 -4 -46 -13.5t-76 -18.5t-96 -15t-106 -6q-129 0 -224 37.5t-157.5 106.5t-93.5 165t-31 213zM213 557h682q2 4 2 15.5v21.5q0 51 -15.5 110.5t-52 111.5t-100 87t-162.5 35q-100 0 -166.5 -41t-108.5 -100.5t-59.5 -125t-19.5 -114.5z" />
<glyph unicode="f" horiz-adv-x="628" d="M41 928v84h176v90q0 188 91 282.5t259 94.5q72 0 114 -7.5t50 -9.5q-2 -8 -2 -18t-2 -21q-2 -10 -4 -22q-4 -29 -23 -29q-16 0 -54 8.5t-89 8.5q-121 0 -176 -66t-55 -199v-112h299v-84h-299v-928h-109v928h-176z" />
<glyph unicode="g" horiz-adv-x="1015" d="M61 -174q0 68 24 116t54.5 79.5t60 49t42.5 23.5q-10 4 -26.5 14.5t-31 27t-24.5 42t-10 60.5q0 39 15 66.5t37.5 48t45 31.5t39.5 17q-16 8 -43 29t-53.5 54.5t-45 81.5t-18.5 114q0 158 105.5 253t295.5 95q41 0 75 -6t48 -10h305q-2 -10 -2 -24.5t-2 -29.5 q-2 -16 -8 -26t-24 -10h-103q6 -6 21.5 -24.5t31 -47.5t27.5 -68t12 -86q0 -86 -28.5 -151.5t-80.5 -110.5t-124 -67.5t-158 -22.5q-66 0 -105.5 10.5t-52.5 14.5q-8 -4 -26.5 -11.5t-36.5 -20.5t-31.5 -33.5t-13.5 -49.5q0 -49 40 -78t105 -29h267q98 0 164.5 -24.5 t108.5 -64.5t60.5 -94t18.5 -111q0 -74 -37 -139.5t-105.5 -112.5t-167 -75t-223.5 -28q-113 0 -192.5 28t-130.5 73t-75 104t-24 123zM176 -158q0 -49 20.5 -95t61.5 -82t103.5 -56.5t146.5 -20.5q102 0 176 25t122 63.5t71.5 87t23.5 97.5q0 33 -11 67.5t-42 63t-82 46 t-131 17.5h-197q-49 0 -77.5 1t-38.5 3q-25 -10 -50.5 -29.5t-47 -46t-35 -62.5t-13.5 -79zM238 684q0 -104 69.5 -178t212.5 -74q127 0 204 67.5t77 184.5q0 115 -73 186.5t-206 71.5q-137 0 -210.5 -70.5t-73.5 -187.5z" />
<glyph unicode="h" horiz-adv-x="1114" d="M164 0v1470h108v-622h4q8 16 30 46t61 59.5t95 52t134 22.5q82 0 148.5 -27.5t114.5 -77t75 -119t27 -153.5v-651h-109v643q0 129 -70.5 212t-195.5 83q-66 0 -122 -24.5t-99 -73.5t-68 -120t-25 -163v-557h-108z" />
<glyph unicode="i" horiz-adv-x="440" d="M164 1303v112h112v-112h-112zM166 0v1012h108v-1012h-108z" />
<glyph unicode="j" horiz-adv-x="430" d="M-164 -483q0 16 4 37q2 8 2 18q6 29 25 29q14 0 40.5 -8.5t65.5 -8.5q92 0 137.5 53.5t45.5 151.5v1223h108v-1190q0 -92 -21.5 -155.5t-59.5 -101.5t-89 -54.5t-110 -16.5q-63 0 -100.5 9.5t-47.5 13.5zM154 1303v112h112v-112h-112z" />
<glyph unicode="k" horiz-adv-x="892" d="M164 0v1468h106v-903l435 447h131l-437 -457l514 -555h-149l-494 532v-532h-106z" />
<glyph unicode="l" horiz-adv-x="436" d="M164 0v1468h108v-1468h-108z" />
<glyph unicode="m" horiz-adv-x="1724" d="M154 1012h79q23 0 26 -9.5t3 -19.5v-78q0 -31 2 -67h6q6 10 24.5 41.5t54.5 64.5t92.5 58.5t136.5 25.5t135 -24.5t91 -58.5t55.5 -69.5t27.5 -58.5q8 20 28.5 55t59.5 70t98.5 60.5t143.5 25.5q74 0 138 -24.5t112.5 -70.5t76 -109.5t27.5 -139.5v-684h-109v676 q0 53 -17.5 100t-49 83t-77.5 57.5t-101 21.5q-137 0 -218 -98.5t-81 -270.5v-569h-107v664q0 131 -67.5 202.5t-172.5 71.5q-72 0 -128 -28.5t-96 -80t-60.5 -124t-20.5 -160.5v-545h-108v705q0 88 -1 171t-3 136z" />
<glyph unicode="n" d="M154 1012h79q29 0 29 -27v-84q0 -31 2 -63h6q6 12 23.5 43.5t53.5 64.5t94.5 57.5t148.5 24.5q84 0 151.5 -27.5t114.5 -77t72.5 -119t25.5 -151.5v-653h-106v645q0 61 -17.5 114.5t-51.5 93.5t-85 62.5t-121 22.5q-66 0 -121 -26.5t-97 -76t-65.5 -121t-23.5 -159.5 v-555h-108v702q0 78 -1 167t-3 143z" />
<glyph unicode="o" horiz-adv-x="1177" d="M102 506q0 98 26 191.5t83 167t150.5 118.5t228.5 45q123 0 214 -40t151.5 -109.5t90 -166t29.5 -206.5q0 -104 -27.5 -198.5t-86 -166t-150.5 -113.5t-221 -42q-227 0 -357.5 136t-130.5 384zM211 506q0 -74 19.5 -150.5t63.5 -139t116.5 -101.5t177.5 -39 q88 0 158.5 30.5t119.5 87t75 136.5t26 176q0 88 -23.5 167t-71 138t-118 93t-166.5 34q-172 0 -274.5 -114.5t-102.5 -317.5z" />
<glyph unicode="p" horiz-adv-x="1099" d="M154 1012h84q27 0 26 -27v-82q0 -29 2 -63h6q8 14 30 46t59.5 63.5t93 55t133.5 23.5q109 0 186.5 -42t126.5 -108.5t72.5 -149.5t23.5 -165q0 -127 -35.5 -233.5t-104.5 -183t-168 -118.5t-224 -42q-33 0 -65.5 4t-60.5 9t-47.5 9t-25.5 6v-485h-106v1171q0 39 -1 83 t-2 87t-2 80t-1 62zM266 106q6 -2 22.5 -7t42 -10t58.5 -9t68 -4q100 0 181 35.5t136 99t85 151t30 189.5q0 76 -18.5 145.5t-56.5 122.5t-95 86t-133 33q-143 0 -231.5 -122t-88.5 -363v-347z" />
<glyph unicode="q" horiz-adv-x="1116" d="M102 457q0 115 37 218t110 182t181.5 125t253.5 46q92 0 163 -13.5t105 -23.5v-1462h-108v661h-4q-10 -20 -34 -54t-64 -67.5t-99 -58t-141 -24.5q-100 0 -175 40t-125 105.5t-75 150.5t-25 175zM213 446q0 -63 17.5 -128.5t54.5 -120t93 -88t134 -33.5q70 0 130 27.5 t105.5 86t71 147.5t25.5 210v371q-10 4 -55.5 12t-124.5 8q-96 0 -179.5 -34t-143.5 -97.5t-94 -154.5t-34 -206z" />
<glyph unicode="r" horiz-adv-x="702" d="M154 1012h82q20 0 23 -8.5t3 -18.5q0 -8 1 -28.5t1 -43v-43v-28.5h8q6 12 25.5 42.5t55.5 62.5t88.5 56.5t125.5 24.5q59 0 95 -8t40 -12q0 -10 -1 -31t-1 -33q-2 -20 -22 -20q-18 0 -36.5 7t-74.5 7q-59 0 -113.5 -25.5t-95.5 -73.5t-66.5 -116t-25.5 -152v-571h-108 v727v82t-1 82t-2 71t-1 50z" />
<glyph unicode="s" horiz-adv-x="780" d="M82 10q0 10 1 27.5t3 36.5q4 27 25 26q16 0 70.5 -11t146.5 -11q111 0 186.5 47t75.5 139q0 72 -54.5 117t-146.5 80l-72 26q-43 14 -85 38t-74.5 56.5t-53 76.5t-20.5 104q0 125 92 195.5t248 70.5q92 0 159.5 -11t78.5 -16q0 -10 -1.5 -28.5t-3.5 -32.5 q-2 -18 -6 -24.5t-14 -6.5q-27 0 -73 14.5t-140 14.5q-100 0 -164.5 -47t-64.5 -129q0 -61 46 -105.5t132 -74.5l96 -37q98 -35 163.5 -100.5t65.5 -170.5q0 -82 -32.5 -137t-87 -89t-126 -48t-149.5 -14q-90 0 -148.5 10t-72.5 14z" />
<glyph unicode="t" horiz-adv-x="657" d="M20 926v86h187v223h108v-223h308v-86h-308v-662q0 -96 49.5 -142t141.5 -46q37 0 59.5 7t42.5 7q23 0 23 -29q0 -10 2 -18t2 -18.5t2 -20.5q-18 -4 -57 -12t-82 -8q-147 0 -219 72.5t-72 238.5v631h-187z" />
<glyph unicode="u" horiz-adv-x="1105" d="M154 360v652h106v-641q0 -61 17.5 -114.5t51 -93.5t85 -63.5t121.5 -23.5q63 0 119.5 26.5t98.5 75.5t65.5 121t23.5 162v551h108v-703q0 -78 1 -167t1 -142h-78q-29 0 -30 27v149h-6q-6 -12 -23.5 -44t-53.5 -64.5t-95.5 -57t-147.5 -24.5q-84 0 -151.5 27.5 t-114.5 76.5t-72.5 117.5t-25.5 152.5z" />
<glyph unicode="v" horiz-adv-x="897" d="M20 1012h113l311 -885h11l323 885h99l-371 -1012h-123z" />
<glyph unicode="w" horiz-adv-x="1429" d="M41 1012h106l226 -871h12l270 871h123l236 -871h6l272 871h97l-314 -1012h-133l-225 862h-12l-267 -862h-137z" />
<glyph unicode="x" horiz-adv-x="948" d="M20 0l394 537l-338 475h133l270 -385l279 385h121l-336 -471l385 -541h-133l-318 451l-334 -451h-123z" />
<glyph unicode="y" horiz-adv-x="915" d="M-61 -492q0 12 2 25q2 10 2 20.5t2 20.5q2 25 20 25q12 0 39 -7.5t80 -7.5q111 0 173 66.5t103 189.5q10 29 20.5 57.5t18.5 51.5q8 25 19 49l-400 1014h117l336 -865h4l311 865h109q-90 -256 -172 -482q-35 -96 -71 -194t-67.5 -187.5t-58 -164t-43.5 -119.5 q-31 -90 -66.5 -158.5t-83.5 -116t-112.5 -72t-154.5 -24.5q-51 0 -81 5t-46 9z" />
<glyph unicode="z" horiz-adv-x="794" d="M41 0v98l575 830h-573v84h702v-88l-581 -838h590v-86h-713z" />
<glyph unicode="{" horiz-adv-x="753" d="M102 401v115q117 14 164 77.5t47 160.5v69.5t-1 85.5t-1 77v44q0 188 76 270t207 82h51v-75q-106 0 -165.5 -50.5t-59.5 -173.5q0 -113 1 -185.5t1 -125.5q0 -35 -9.5 -80t-33 -90t-64.5 -82t-106 -57v-8q66 -20 106.5 -58.5t64 -82.5t33 -90t9.5 -81q0 -51 2 -125.5 t2 -189.5q0 -123 59.5 -173t165.5 -50v-76h-51q-131 0 -207 83t-76 271q0 8 -1 44t-1 79t-1 87t-1 71q0 96 -47 159.5t-164 77.5z" />
<glyph unicode="|" horiz-adv-x="559" d="M225 -471v1853h109v-1853h-109z" />
<glyph unicode="}" horiz-adv-x="753" d="M102 -395q106 0 166 50t60 173q0 115 2 189.5t2 125.5q0 35 9 81t32.5 90t64.5 82t107 59v8q-66 20 -107 57t-64.5 82t-32.5 90t-9 80q0 53 1 126t1 185q0 123 -59.5 173.5t-165.5 50.5v75h51q131 0 206.5 -81.5t75.5 -270.5v-44t-1 -77t-1 -86v-69q0 -96 47.5 -160 t163.5 -78v-115q-117 -14 -164 -77.5t-47 -159.5q0 -27 -1 -71t-1 -87t-1 -79t-1 -44q0 -188 -75.5 -271t-206.5 -83h-52v76z" />
<glyph unicode="~" horiz-adv-x="1241" d="M139 602q14 12 38 29.5t56.5 33t73.5 26.5t92 11q74 0 129.5 -19t104.5 -42t98 -42t111 -19q37 0 69.5 9t59 22.5t45 25.5t26.5 18l45 -67q-14 -12 -36.5 -28.5t-55 -33t-73.5 -28t-93 -11.5q-72 0 -128 19.5t-106 42t-99.5 42t-106.5 19.5q-37 0 -69.5 -9t-59.5 -21.5 t-45 -24.5t-31 -20z" />
<glyph unicode="&#xa1;" horiz-adv-x="372" d="M123 803v137h137v-137h-137zM131 -440l23 975h77l23 -975h-123z" />
<glyph unicode="&#xa2;" horiz-adv-x="1009" d="M123 508q0 104 26.5 193.5t80 158t132 112.5t185.5 54v207h106v-205q94 -4 154.5 -25.5t79.5 -31.5q0 -12 -1 -39t-3 -41q0 -6 -3 -13.5t-16 -7.5q-14 0 -32.5 10.5t-47 24t-69.5 23.5t-101 10q-96 0 -168.5 -35t-119.5 -93t-71 -136t-24 -166q0 -86 24 -165t72 -137.5 t119.5 -93t167.5 -34.5q57 0 98.5 10t71 23.5t49 23.5t31.5 10q20 0 21 -24v-76q-23 -10 -80 -30.5t-152 -26.5v-224h-106v226q-203 23 -313.5 159t-110.5 359z" />
<glyph unicode="&#xa3;" horiz-adv-x="950" d="M123 0v90q55 33 94 81t61.5 103.5t33 115t10.5 116.5q0 47 -4.5 86t-8.5 59h-182v88h166q-12 51 -30.5 123t-18.5 172q0 168 115.5 265.5t318.5 97.5q74 0 119 -5.5t61 -9.5l-14 -94q-10 2 -60.5 9.5t-97.5 7.5q-72 0 -132 -19.5t-105.5 -57.5t-70 -93.5t-24.5 -124.5 q0 -37 6.5 -77t15.5 -77t19.5 -67.5t16.5 -49.5h370v-88h-354q2 -14 3 -48t1 -62q0 -98 -18.5 -171t-46 -126.5t-61.5 -91t-64 -66.5h667v-86h-786z" />
<glyph unicode="&#xa4;" horiz-adv-x="1267" d="M168 238l129 122q-39 51 -60.5 114t-21.5 132q0 76 24.5 142.5t67.5 119.5l-125 131l78 74l125 -131q53 37 113.5 57.5t130.5 20.5q74 0 141.5 -24.5t120.5 -69.5l133 127l74 -78l-133 -127q37 -51 57 -112.5t20 -129.5q0 -72 -24.5 -138.5t-67.5 -119.5l125 -131 l-78 -74l-125 131q-51 -39 -112.5 -60t-130.5 -21q-74 0 -139.5 24.5t-118.5 65.5l-129 -123zM305 606q0 -68 25.5 -126t69.5 -101t102.5 -68.5t126.5 -25.5t126 25.5t102 68.5t69.5 101t25.5 126t-25.5 126.5t-69.5 102.5t-102.5 69.5t-125.5 25.5q-68 0 -126.5 -25.5 t-102.5 -69.5t-69.5 -102.5t-25.5 -126.5z" />
<glyph unicode="&#xa5;" horiz-adv-x="1140" d="M123 1380h125l325 -692l332 692h113l-365 -749h279v-88h-307v-137h307v-89h-307v-317h-107v317h-307v89h307v137h-307v88h278z" />
<glyph unicode="&#xa6;" horiz-adv-x="559" d="M225 354h109v-825h-109v825zM225 555v825h109v-825h-109z" />
<glyph unicode="&#xa7;" horiz-adv-x="976" d="M96 512q0 63 18.5 109.5t47 82t63.5 63.5t68 52q-43 43 -79 100.5t-36 147.5q0 78 31 138.5t83 102.5t122.5 64.5t148.5 22.5q98 0 170 -18.5t96 -26.5l-24 -97q-16 6 -81 28t-157 22q-78 0 -130 -21.5t-85 -54.5t-47 -73t-14 -77q0 -51 15.5 -88t42 -66.5t62 -56 t78.5 -53.5q20 -14 57.5 -38.5t63.5 -41.5q55 -37 102.5 -76t82 -83t54 -94t19.5 -107q0 -63 -18.5 -109.5t-47 -82.5t-63 -64.5t-67.5 -53.5q43 -41 78.5 -98t35.5 -147q0 -78 -30.5 -138.5t-84 -102.5t-123 -64.5t-149.5 -22.5q-98 0 -168.5 17.5t-97.5 27.5l27 96 q16 -6 80.5 -27.5t154.5 -21.5q76 0 128 20.5t85 52.5t48.5 72t15.5 78q0 51 -15.5 88t-41 68t-61.5 56.5t-79 54.5q-23 14 -59.5 38.5t-63.5 41.5q-109 72 -182.5 158.5t-73.5 201.5zM211 532q0 -37 6 -69.5t25.5 -66.5t59.5 -69.5t108 -80.5l192 -125q66 45 108 108.5 t42 120.5q0 39 -5.5 72t-26 65.5t-60 69.5t-107.5 82l-191 125q-66 -45 -108.5 -109.5t-42.5 -122.5z" />
<glyph unicode="&#xa8;" horiz-adv-x="729" d="M104 1116v160h160v-160h-160zM483 1116v160h160v-160h-160z" />
<glyph unicode="&#xa9;" horiz-adv-x="833" d="M102 1087q0 63 25 121t68 101t99 67.5t122 24.5t123 -24.5t100 -67.5t67.5 -100.5t24.5 -121.5q0 -66 -24.5 -123t-67.5 -99t-100.5 -66.5t-122.5 -24.5q-66 0 -122 24.5t-99 66.5t-68 99.5t-25 122.5zM152 1087q0 -55 20.5 -103t56 -85t83.5 -57.5t104 -20.5 q55 0 103 20.5t85 57.5t57.5 85t20.5 103t-20.5 103.5t-57.5 84.5t-85 56.5t-103 20.5t-103.5 -20.5t-84 -56.5t-56 -84t-20.5 -104zM268 1083q0 63 37 112.5t127 49.5q27 0 46.5 -5t25.5 -9l-6 -49q-8 4 -27.5 9t-42.5 5q-41 0 -69.5 -26.5t-28.5 -86.5q0 -18 5 -37.5 t16 -36t29.5 -26.5t47.5 -10q25 0 45.5 4t24.5 8l6 -47q-4 -2 -25.5 -8t-46.5 -6q-86 0 -125 46t-39 113z" />
<glyph unicode="&#xaa;" horiz-adv-x="874" d="M164 930q0 55 24.5 95t66.5 65.5t99.5 39t122.5 13.5h125v39q0 59 -44 101t-140 42q-57 0 -101.5 -15.5t-60.5 -21.5q-4 -2 -11 -5t-12 -3q-10 0 -11 5t-1 9q0 12 -1 33t-1 31q16 8 72.5 25.5t132.5 17.5q135 0 201.5 -64.5t66.5 -171.5v-266q0 -45 3 -90t10 -80h-70 q-16 0 -19.5 9.5t-5.5 19.5l-4 78h-2q-8 -12 -24.5 -32t-44 -39.5t-68.5 -33.5t-96 -14q-94 0 -150.5 60.5t-56.5 152.5zM170 535h541v79h-541v-79zM250 926q0 -57 39 -95t110 -38q49 0 87 17t63.5 48t39 72t13.5 86v57h-108q-72 0 -119 -13t-75 -33.5t-39 -47.5t-11 -53z " />
<glyph unicode="&#xab;" horiz-adv-x="976" d="M123 483l344 414l65 -57l-292 -357l292 -354l-65 -59zM444 483l344 414l66 -57l-293 -357l293 -354l-66 -59z" />
<glyph unicode="&#xac;" horiz-adv-x="1267" d="M113 594v88h1048v-551h-106v463h-942z" />
<glyph unicode="&#xad;" horiz-adv-x="821" d="M143 463v88h535v-88h-535z" />
<glyph unicode="&#xae;" horiz-adv-x="831" d="M102 1083q0 63 25 121t68 101t99 67.5t122 24.5t123 -24.5t99 -67.5t66.5 -100.5t24.5 -121.5q0 -66 -24.5 -123t-66.5 -99t-99.5 -66.5t-122.5 -24.5q-66 0 -122 24.5t-99 66.5t-68 99.5t-25 122.5zM152 1083q0 -55 20.5 -103t56 -85t83.5 -57.5t104 -20.5 q55 0 103 20.5t85 57.5t57.5 85t20.5 103t-20.5 103.5t-57.5 84.5t-85 56.5t-103 20.5t-103.5 -20.5t-84 -56.5t-56 -84t-20.5 -104zM324 934v311h92q53 0 81.5 -25.5t28.5 -66.5q0 -25 -8 -40t-18.5 -24.5t-20.5 -13.5t-14 -6l76 -135h-64l-67 129h-31v-129h-55zM379 1104 q4 -2 10 -2h12q70 0 70 53q0 51 -70 51q-10 0 -15 -1t-7 -1v-100z" />
<glyph unicode="&#xaf;" horiz-adv-x="534" d="M41 1313v84h453v-84h-453z" />
<glyph unicode="&#xb0;" horiz-adv-x="796" d="M123 1118q0 57 21.5 107.5t59.5 88.5t88 59.5t107 21.5t107.5 -21.5t87.5 -59.5t58.5 -88.5t21.5 -107.5t-21.5 -107t-58.5 -87t-87 -58.5t-108 -21.5q-57 0 -107 21.5t-88 58.5t-59.5 87t-21.5 107zM205 1118q0 -41 15.5 -75.5t42 -60.5t61 -41t75.5 -15q39 0 75 15 t61.5 41t41 60.5t15.5 75.5q0 39 -15.5 75t-41 61.5t-61.5 41t-75 15.5q-41 0 -75.5 -15.5t-61 -41t-42 -61.5t-15.5 -75z" />
<glyph unicode="&#xb1;" horiz-adv-x="1267" d="M111 0v88h1046v-88h-1046zM111 643v88h469v461h106v-461h471v-88h-471v-463h-106v463h-469z" />
<glyph unicode="&#xb2;" horiz-adv-x="563" d="M82 1346l47 23.5t115 21.5q57 0 100 -17.5t71.5 -47.5t43 -65.5t14.5 -72.5q0 -72 -38 -132.5t-91 -123.5q-12 -14 -37.5 -44t-52.5 -59q-31 -35 -66 -73h293v-66h-395v68q43 47 80 86q31 35 59.5 64.5t36.5 39.5q33 39 57.5 70t41 56.5t23.5 52t7 57.5q0 53 -38 95 t-109 42q-49 0 -86 -16.5t-49 -24.5z" />
<glyph unicode="&#xb3;" horiz-adv-x="532" d="M82 1360q23 10 58.5 20.5t95.5 10.5q98 0 151 -52.5t53 -128.5q0 -41 -15 -69.5t-34.5 -47t-40 -29.5t-31.5 -15v-2q16 -2 39 -12.5t43.5 -31t35 -52t14.5 -74.5q0 -86 -71 -141.5t-187 -55.5q-41 0 -66 4t-31 6l-6 68q10 -2 37 -6t61 -4q90 0 136.5 39.5t46.5 95.5 q0 47 -37 89t-123 42h-70v63h66q66 0 108.5 35t42.5 88q0 45 -31.5 84t-109.5 39q-41 0 -74.5 -13.5t-40.5 -17.5z" />
<glyph unicode="&#xb4;" horiz-adv-x="466" d="M41 1079l164 301h176l-246 -301h-94z" />
<glyph unicode="&#xb5;" horiz-adv-x="1128" d="M164 -506v1518h108v-643q0 -61 16.5 -114.5t50.5 -93.5t86 -62.5t122 -22.5q63 0 119.5 26.5t97.5 75.5t65.5 120t24.5 161v553h107v-703v-83t1 -85t2 -77.5t1 -63.5h-80q-29 0 -29 27q0 8 -1 32.5t-1 51.5v65h-6q-6 -12 -23.5 -44t-53.5 -64.5t-94.5 -58t-148.5 -25.5 q-80 0 -144.5 25.5t-111.5 70.5v-586h-108z" />
<glyph unicode="&#xb6;" horiz-adv-x="1177" d="M102 950q0 98 35 177t101.5 136.5t161 88t214.5 30.5h441v-88h-144v-1794h-106v1794h-279v-1794h-108v1073q-43 4 -98.5 26t-103.5 67t-81 114.5t-33 169.5z" />
<glyph unicode="&#xb7;" horiz-adv-x="546" d="M205 575v138h137v-138h-137z" />
<glyph unicode="&#xb8;" horiz-adv-x="415" d="M68 -473q31 8 68.5 22.5t71.5 38t56.5 58.5t22.5 82q0 43 -30 72.5t-81 29.5q-23 0 -44 -4t-28 -6q2 6 10.5 34.5t18.5 61.5q10 37 23 84h75l-65 -129q4 0 18.5 4t38.5 4q61 0 106.5 -41t45.5 -112q0 -49 -22.5 -90.5t-60.5 -72t-88 -50t-104 -25.5z" />
<glyph unicode="&#xb9;" horiz-adv-x="391" d="M20 1305q55 6 104.5 30.5t70.5 55.5h73v-701h-80v606q-23 -14 -62.5 -27.5t-92.5 -19.5z" />
<glyph unicode="&#xba;" horiz-adv-x="966" d="M164 1059q0 63 16.5 124.5t54 109.5t99 78t149.5 30q82 0 141.5 -26.5t99.5 -73t59.5 -109t19.5 -133.5q0 -68 -18.5 -130.5t-56.5 -109.5t-98.5 -74.5t-146.5 -27.5q-147 0 -233 89t-86 253zM213 535v79h559v-79h-559zM250 1059q0 -47 11 -96.5t38 -88t72 -63.5t112 -25 q111 0 172.5 72t61.5 201q0 117 -57.5 193.5t-176.5 76.5q-104 0 -168.5 -68.5t-64.5 -201.5z" />
<glyph unicode="&#xbb;" horiz-adv-x="976" d="M123 129l291 354l-291 357l65 57l344 -414l-344 -413zM444 129l291 354l-291 357l66 57l344 -414l-344 -413z" />
<glyph unicode="&#xbc;" horiz-adv-x="1366" d="M41 1305q55 6 104.5 30.5t69.5 55.5h74v-701h-80v606q-23 -14 -63 -27.5t-93 -19.5zM150 0l825 1380h100l-825 -1380h-100zM750 266l249 424h119v-436h125v-64h-125v-190h-80v190h-266zM821 254h217v360h-4z" />
<glyph unicode="&#xbd;" horiz-adv-x="1390" d="M41 1305q55 6 104.5 30.5t69.5 55.5h74v-701h-80v606q-23 -14 -63 -27.5t-93 -19.5zM150 0l823 1380h100l-825 -1380h-98zM868 655l47 23.5t115 21.5q57 0 100.5 -17t72 -47t43 -67t14.5 -73q0 -70 -38 -130.5t-92 -123.5q-12 -14 -37.5 -44t-52.5 -59q-31 -35 -65 -73 h293v-66h-396v68q43 47 80 86q31 35 59.5 64.5t37.5 39.5q33 39 57 69.5t40.5 56.5t24 52.5t7.5 57.5q0 53 -38 95t-110 42q-49 0 -86 -16.5t-49 -24.5z" />
<glyph unicode="&#xbe;" horiz-adv-x="1439" d="M82 1360q20 10 57 20.5t94 10.5q98 0 151.5 -52.5t53.5 -128.5q0 -41 -14 -69.5t-34.5 -47t-40 -29.5t-30.5 -15v-2q14 -2 37 -12.5t44.5 -31t36 -52t14.5 -74.5q0 -86 -72 -141.5t-189 -55.5q-41 0 -65.5 4t-30.5 6l-6 68q12 -2 39 -6t61 -4q90 0 135.5 39.5t45.5 95.5 q0 47 -37 89t-123 42h-68v63h66q66 0 108.5 35t42.5 88q0 45 -31.5 84t-109.5 39q-41 0 -74.5 -13.5t-42.5 -17.5zM231 0l826 1380h100l-825 -1380h-101zM823 266l252 424h117v-436h125v-64h-125v-190h-80v190h-264zM895 254h217v360h-2z" />
<glyph unicode="&#xbf;" horiz-adv-x="714" d="M16 -121q0 -66 21.5 -126t70 -106t123 -75t179.5 -29q92 0 158.5 16.5t88.5 24.5l9 90q-12 -4 -36 -10t-54.5 -12t-66.5 -11.5t-73 -5.5q-154 0 -231.5 66t-77.5 170q0 45 15.5 83t40 71.5t55 63.5t61.5 61q20 20 48 49.5t54.5 72.5t45 98.5t18.5 127.5v41h-109v-39 q0 -96 -45 -163t-110 -132q-33 -33 -66 -67t-59.5 -71.5t-43 -83.5t-16.5 -104zM342 803v137h137v-137h-137z" />
<glyph unicode="&#xc0;" horiz-adv-x="1163" d="M0 0l520 1382h129l514 -1382h-127l-131 362h-653l-133 -362h-119zM285 453h587l-290 798h-9zM307 1808h135l164 -301h-53z" />
<glyph unicode="&#xc1;" horiz-adv-x="1163" d="M0 0l520 1382h129l514 -1382h-129l-131 362h-651l-133 -362h-119zM285 453h585l-288 798h-9zM549 1507l166 301h135l-246 -301h-55z" />
<glyph unicode="&#xc2;" horiz-adv-x="1165" d="M0 0l520 1382h129l516 -1382h-129l-131 362h-653l-133 -362h-119zM285 453h587l-290 798h-9zM317 1507l183 301h157l185 -301h-56l-206 238l-209 -238h-54z" />
<glyph unicode="&#xc3;" horiz-adv-x="1165" d="M0 0l520 1382h131l514 -1382h-129l-131 362h-653l-133 -362h-119zM252 1649q6 6 21.5 22.5t39 33.5t55 30.5t72.5 13.5q45 0 80 -10t64.5 -22.5t57.5 -23t63 -10.5q70 0 109.5 24t51.5 36l39 -45q-12 -14 -30.5 -31.5t-42 -33t-52 -26t-61.5 -10.5q-47 0 -81 10.5 t-64.5 22.5t-59.5 22.5t-61 10.5q-61 0 -102.5 -20.5t-59.5 -38.5zM285 453h587l-288 798h-11z" />
<glyph unicode="&#xc4;" horiz-adv-x="1163" d="M0 0l520 1382h129l514 -1382h-127l-131 362h-653l-133 -362h-119zM285 453h587l-290 798h-9zM328 1606v104h102v-104h-102zM727 1606h104v104h-104v-104z" />
<glyph unicode="&#xc5;" horiz-adv-x="1165" d="M0 0l520 1382h129l516 -1382h-129l-131 362h-653l-133 -362h-119zM285 453h587l-288 798h-11zM373 1616q0 41 16.5 77t44 63.5t64.5 43t80 15.5q41 0 77.5 -15.5t64.5 -43t44 -63.5t16 -77q0 -84 -59 -141.5t-143 -57.5q-43 0 -80 15.5t-64.5 42t-44 63.5t-16.5 78z M442 1616q0 -57 40 -97t98 -40q57 0 97 40t40 97t-40 97t-97 40t-97.5 -40t-40.5 -97z" />
<glyph unicode="&#xc6;" horiz-adv-x="1607" d="M-61 0l880 1382h686v-88h-522v-538h490v-88h-490v-580h522v-88h-633v362h-575l-229 -362h-129zM354 453h518v800h-10z" />
<glyph unicode="&#xc7;" horiz-adv-x="1247" d="M154 688q0 137 38.5 265t119.5 226.5t205 157t296 58.5q158 0 237.5 -23.5t94.5 -30.5l-25 -96q-8 4 -36.5 13.5t-71.5 19.5t-100.5 17.5t-120.5 7.5q-137 0 -235.5 -51.5t-161 -137.5t-92.5 -196.5t-30 -229.5t30 -230.5t92.5 -197.5t160.5 -137t236 -51q63 0 120.5 7 t100.5 17t71.5 19.5t36.5 13.5l25 -98q-10 -4 -82 -24.5t-201 -24.5l-53 -109q4 2 18 5t39 3q61 0 106.5 -40t45.5 -111q0 -49 -22.5 -91t-60.5 -73t-88 -50.5t-104 -25.5l-32 39q31 8 68.5 22.5t71.5 39t56.5 59.5t22.5 82q0 43 -30 71.5t-81 28.5q-23 0 -44 -3t-27 -5 q2 6 7 24.5t12 42t14 48t12 43.5q-166 2 -287 62t-199 157.5t-115.5 223.5t-37.5 263z" />
<glyph unicode="&#xc8;" horiz-adv-x="997" d="M225 0v1382h670v-88h-559v-536h528v-88h-528v-582h559v-88h-670zM418 1808h135l166 -301h-55z" />
<glyph unicode="&#xc9;" horiz-adv-x="997" d="M225 0v1382h670v-88h-559v-536h528v-88h-528v-582h559v-88h-670zM541 1507l164 301h135l-246 -301h-53z" />
<glyph unicode="&#xca;" horiz-adv-x="997" d="M225 0v1382h670v-88h-559v-536h528v-88h-528v-582h559v-88h-670zM285 1507l182 301h158l184 -301h-55l-207 238l-209 -238h-53z" />
<glyph unicode="&#xcb;" horiz-adv-x="997" d="M225 0v1382h670v-88h-559v-536h528v-88h-528v-582h559v-88h-670zM311 1606v104h103v-104h-103zM711 1606v104h104v-104h-104z" />
<glyph unicode="&#xcc;" horiz-adv-x="561" d="M10 1808h135l164 -301h-53zM225 0v1382h111v-1382h-111z" />
<glyph unicode="&#xcd;" horiz-adv-x="561" d="M225 0v1382h111v-1382h-111zM252 1507l164 301h137l-246 -301h-55z" />
<glyph unicode="&#xce;" horiz-adv-x="561" d="M18 1507l183 301h159l183 -301h-54l-208 238l-209 -238h-54zM225 0v1382h111v-1382h-111z" />
<glyph unicode="&#xcf;" horiz-adv-x="561" d="M29 1606v104h104v-104h-104zM225 0v1382h111v-1382h-111zM430 1606v104h102v-104h-102z" />
<glyph unicode="&#xd0;" horiz-adv-x="1474" d="M131 664v88h96v616q12 2 110.5 8t256.5 6q352 0 539.5 -180t187.5 -518q0 -168 -49 -298t-142.5 -218t-228.5 -134t-307 -46q-57 0 -116.5 1t-111 3t-89 4t-50.5 4v664h-96zM338 94q16 -4 76.5 -10t134.5 -6q313 0 485 151.5t172 454.5q0 299 -167 452.5t-490 153.5 q-80 0 -134.5 -5t-76.5 -9v-524h420v-88h-420v-570z" />
<glyph unicode="&#xd1;" horiz-adv-x="1505" d="M225 0v1382h137l803 -1200h4v1200h111v-1382h-121l-821 1231h-2v-1231h-111zM428 1649q6 6 21.5 22.5t40 33.5t56.5 30.5t70 13.5q45 0 80 -10t65 -22.5t58.5 -23t63.5 -10.5q70 0 108.5 24t50.5 36l39 -45q-12 -14 -30.5 -31.5t-42 -33t-52 -26t-61.5 -10.5 q-47 0 -81 10.5t-64.5 22.5t-59 22.5t-61.5 10.5q-61 0 -101.5 -20.5t-60.5 -38.5z" />
<glyph unicode="&#xd2;" horiz-adv-x="1546" d="M154 686q0 -156 42 -286t120.5 -223t193.5 -145t262 -52q156 0 271.5 56t193.5 152.5t117 224.5t39 273q0 141 -37 269t-114 225.5t-193.5 156t-276.5 58.5t-275.5 -58.5t-192.5 -156t-113.5 -225.5t-36.5 -269zM272 686q0 127 30 238.5t91.5 195.5t155.5 133.5t223 49.5 q131 0 225.5 -50.5t155.5 -135.5t91 -196.5t30 -234.5t-30 -234.5t-91 -195.5t-156.5 -134t-224.5 -50q-121 0 -214 44t-156.5 125t-96.5 194.5t-33 250.5zM532 1808h136l166 -301h-56z" />
<glyph unicode="&#xd3;" horiz-adv-x="1546" d="M154 686q0 -156 42 -286t120.5 -223t193.5 -145t262 -52q156 0 271.5 56t193.5 152.5t117 224.5t39 273q0 141 -37 269t-114 225.5t-193.5 156t-276.5 58.5t-275.5 -58.5t-192.5 -156t-113.5 -225.5t-36.5 -269zM272 686q0 127 30 238.5t91.5 195.5t155.5 133.5t223 49.5 q131 0 225.5 -50.5t155.5 -135.5t91 -196.5t30 -234.5t-30 -234.5t-91 -195.5t-156.5 -134t-224.5 -50q-121 0 -214 44t-156.5 125t-96.5 194.5t-33 250.5zM741 1503l164 299h135l-245 -299h-54z" />
<glyph unicode="&#xd4;" horiz-adv-x="1546" d="M154 686q0 141 36.5 269t113.5 225.5t192.5 156t275.5 58.5t276.5 -58.5t193.5 -156t114 -225.5t37 -269q0 -145 -39 -273t-117 -224.5t-193.5 -152.5t-271.5 -56q-147 0 -262 52t-193.5 145t-120.5 223t-42 286zM272 686q0 -137 33 -250.5t96.5 -194.5t156.5 -125 t214 -44q129 0 224.5 50t156.5 134t91 195.5t30 234.5t-30 234.5t-91 196.5t-155.5 135.5t-225.5 50.5q-129 0 -223 -49.5t-155.5 -133.5t-91.5 -195.5t-30 -238.5zM526 1507l183 301h159l183 -301h-54l-209 236l-208 -236h-54z" />
<glyph unicode="&#xd5;" horiz-adv-x="1544" d="M152 686q0 -156 42 -286t120.5 -223t194.5 -145t263 -52q154 0 270.5 56t193.5 152.5t116 224.5t39 273q0 141 -37 269t-114 225.5t-193.5 156t-274.5 58.5q-160 0 -276.5 -58.5t-193.5 -156t-113.5 -225.5t-36.5 -269zM270 686q0 127 30 238.5t91.5 195.5t156.5 133.5 t224 49.5q131 0 225.5 -50.5t155.5 -135.5t90 -196.5t29 -234.5t-30 -234.5t-91 -195.5t-155.5 -134t-223.5 -50q-121 0 -215 44t-157.5 125t-96.5 194.5t-33 250.5zM465 1642q6 6 21.5 22.5t40 34t56 31t72.5 13.5q45 0 79 -10.5t63.5 -21.5t58.5 -21.5t64 -10.5 q70 0 108.5 23.5t50.5 34.5l39 -45q-12 -14 -30.5 -32t-42 -33t-51 -25.5t-60.5 -10.5q-47 0 -82 10.5t-65.5 22.5t-59.5 22.5t-61 10.5q-61 0 -101.5 -20.5t-58.5 -39.5z" />
<glyph unicode="&#xd6;" horiz-adv-x="1546" d="M154 686q0 -156 42 -286t120.5 -223t193.5 -145t262 -52q156 0 271.5 56t193.5 152.5t117 224.5t39 273q0 141 -37 269t-114 225.5t-193.5 156t-276.5 58.5t-275.5 -58.5t-192.5 -156t-113.5 -225.5t-36.5 -269zM272 686q0 127 30 238.5t91.5 195.5t155.5 133.5t223 49.5 q131 0 225.5 -50.5t155.5 -135.5t91 -196.5t30 -234.5t-30 -234.5t-91 -195.5t-156.5 -134t-224.5 -50q-121 0 -214 44t-156.5 125t-96.5 194.5t-33 250.5zM514 1599v105h104v-105h-104zM915 1599h103v105h-103v-105z" />
<glyph unicode="&#xd7;" horiz-adv-x="1130" d="M164 274l332 332l-326 326l76 78l325 -328l334 334l62 -64l-332 -331l328 -328l-76 -76l-328 328l-334 -332z" />
<glyph unicode="&#xd8;" horiz-adv-x="1546" d="M154 692q0 141 36.5 269.5t113.5 225.5t193.5 154.5t276.5 57.5q115 0 211 -31l78 191l102 -41l-80 -195q158 -92 233 -261t75 -370q0 -145 -39 -273t-116 -224.5t-193.5 -152.5t-270.5 -56q-59 0 -112.5 8t-100.5 24l-78 -190l-102 41l80 194q-150 86 -228.5 249 t-78.5 380zM272 692q0 -186 58.5 -324t173.5 -214l450 1122q-41 16 -85 24.5t-95 8.5q-129 0 -224 -49.5t-156.5 -133.5t-91.5 -195.5t-30 -238.5zM592 109q41 -14 86 -22.5t96 -8.5q129 0 223.5 50t155.5 134t91 195.5t30 234.5q0 84 -13.5 164t-42 149.5t-72 127 t-102.5 98.5z" />
<glyph unicode="&#xd9;" horiz-adv-x="1458" d="M225 481v901h111v-880q0 -209 99.5 -316.5t293.5 -107.5q104 0 179 30.5t122 87t69.5 134.5t22.5 172v880h111v-901q0 -104 -29.5 -195t-91 -159t-157 -106.5t-226.5 -38.5q-133 0 -228 38.5t-156.5 106.5t-90.5 159t-29 195zM459 1808h135l164 -301h-53z" />
<glyph unicode="&#xda;" horiz-adv-x="1458" d="M225 479v903h111v-882q0 -209 99.5 -316.5t293.5 -107.5q104 0 179 30.5t123 87t69.5 134.5t21.5 172v882h111v-903q0 -104 -29.5 -195t-91 -159t-157 -106.5t-226.5 -38.5q-133 0 -228 38.5t-156.5 106.5t-90.5 159t-29 195zM702 1507l164 301h135l-245 -301h-54z" />
<glyph unicode="&#xdb;" horiz-adv-x="1458" d="M225 479v903h111v-882q0 -209 99.5 -316.5t293.5 -107.5q104 0 179 30.5t123 87t69.5 134.5t21.5 172v882h111v-903q0 -104 -29.5 -195t-91 -159t-157 -106.5t-226.5 -38.5q-133 0 -228 38.5t-156.5 106.5t-90.5 159t-29 195zM467 1507l184 301h158l184 -301h-55 l-209 238l-207 -238h-55z" />
<glyph unicode="&#xdc;" horiz-adv-x="1458" d="M225 479v903h111v-882q0 -209 99.5 -316.5t293.5 -107.5q104 0 179 30.5t123 87t69.5 134.5t21.5 172v882h111v-903q0 -104 -29.5 -195t-91 -159t-157 -106.5t-226.5 -38.5q-133 0 -228 38.5t-156.5 106.5t-90.5 159t-29 195zM479 1606v102h103v-102h-103zM879 1606v102 h104v-102h-104z" />
<glyph unicode="&#xdd;" horiz-adv-x="1019" d="M20 1382h123l367 -761l379 761h110l-444 -878v-504h-111v504zM471 1507l164 299h135l-246 -299h-53z" />
<glyph unicode="&#xde;" horiz-adv-x="1200" d="M225 0v1382h111v-258h184q119 0 211 -33.5t153.5 -91t93.5 -135.5t32 -166q0 -213 -133 -330.5t-373 -117.5q-16 0 -42 1t-51.5 2t-47 3t-27.5 2v-258h-111zM336 342q6 0 27.5 -1t48 -1t55.5 -1t49 -1q190 0 285.5 98.5t95.5 253.5q0 76 -24.5 139.5t-73.5 109.5 t-120 71.5t-163 25.5q-66 0 -119 -2t-61 -2v-690z" />
<glyph unicode="&#xdf;" horiz-adv-x="1083" d="M164 0v1104q0 102 34.5 178t91 126t130.5 74.5t151 24.5q102 0 171 -26.5t110 -65.5t58.5 -86t17.5 -86q0 -49 -13.5 -87t-35 -68.5t-49 -55t-54.5 -49.5q-6 -6 -13 -12t-15 -13q-39 -33 -76 -72.5t-37 -99.5q0 -49 25.5 -85.5t68.5 -65.5l111 -70q98 -59 150 -128.5 t52 -162.5q0 -70 -31.5 -124t-84 -90.5t-120 -55t-140.5 -18.5q-78 0 -133.5 9t-71.5 13q0 16 1 33.5t3 36.5q2 23 18 22q16 0 63.5 -12t115.5 -12q121 0 196.5 53t75.5 135q0 78 -45 126t-98 79l-99 61q-25 14 -54.5 37t-54 52.5t-42 69.5t-17.5 89t13.5 86t35 68t47 56.5 t52.5 47.5q10 8 16 13.5t17 13.5q43 39 78.5 78t35.5 98q0 27 -15.5 56.5t-47 55t-78.5 42t-111 16.5q-55 0 -107 -16.5t-94 -52t-68 -93t-26 -137.5v-1110h-108z" />
<glyph unicode="&#xe0;" horiz-adv-x="1024" d="M82 307q0 90 38 151.5t100.5 99.5t144 54.5t170.5 16.5h239v41q0 117 -83 191.5t-232 74.5q-55 0 -102.5 -9t-83 -20.5t-61.5 -20.5t-38 -9q-16 0 -16 20q-2 16 -3 40t-3 34q8 2 35.5 11t70.5 18.5t98.5 17.5t114.5 8q102 0 180 -27.5t129 -76t77 -115t26 -145.5v-402 q0 -68 1 -138.5t5 -121.5h-72q-27 0 -32 13.5t-7 31.5l-2 100h-4q-12 -18 -38.5 -44.5t-68.5 -53.5t-101.5 -45t-139.5 -18q-82 0 -145.5 24.5t-107.5 67.5t-66.5 102.5t-22.5 128.5zM193 307q0 -96 62 -163.5t183 -67.5q84 0 147.5 30.5t105.5 83t62.5 121t20.5 144.5v88 h-235q-100 0 -167 -22.5t-107 -56.5t-56 -76t-16 -81zM205 1520h135l164 -301h-53z" />
<glyph unicode="&#xe1;" horiz-adv-x="1024" d="M82 307q0 90 38 151.5t100.5 99.5t144 54.5t170.5 16.5h239v41q0 117 -83 191.5t-232 74.5q-55 0 -102.5 -9t-83 -20.5t-61.5 -20.5t-38 -9q-16 0 -16 20q-2 16 -3 40t-3 34q8 2 35.5 11t70.5 18.5t98.5 17.5t114.5 8q102 0 180 -27.5t129 -76t77 -115t26 -145.5v-402 q0 -68 1 -138.5t5 -121.5h-72q-27 0 -32 13.5t-7 31.5l-2 100h-4q-12 -18 -38.5 -44.5t-68.5 -53.5t-101.5 -45t-139.5 -18q-82 0 -145.5 24.5t-107.5 67.5t-66.5 102.5t-22.5 128.5zM193 307q0 -96 62 -163.5t183 -67.5q84 0 147.5 30.5t105.5 83t62.5 121t20.5 144.5v88 h-235q-100 0 -167 -22.5t-107 -56.5t-56 -76t-16 -81zM440 1219l164 301h137l-245 -301h-56z" />
<glyph unicode="&#xe2;" horiz-adv-x="1024" d="M82 307q0 90 38 151.5t100.5 99.5t144 54.5t170.5 16.5h239v41q0 117 -83 191.5t-232 74.5q-55 0 -102.5 -9t-83 -20.5t-61.5 -20.5t-38 -9q-16 0 -16 20q-2 16 -3 40t-3 34q8 2 35.5 11t70.5 18.5t98.5 17.5t114.5 8q102 0 180 -27.5t129 -76t77 -115t26 -145.5v-402 q0 -68 1 -138.5t5 -121.5h-72q-27 0 -32 13.5t-7 31.5l-2 100h-4q-12 -18 -38.5 -44.5t-68.5 -53.5t-101.5 -45t-139.5 -18q-82 0 -145.5 24.5t-107.5 67.5t-66.5 102.5t-22.5 128.5zM193 307q0 -96 62 -163.5t183 -67.5q84 0 147.5 30.5t105.5 83t62.5 121t20.5 144.5v88 h-235q-100 0 -167 -22.5t-107 -56.5t-56 -76t-16 -81zM221 1219l182 301h160l182 -301h-53l-209 235l-209 -235h-53z" />
<glyph unicode="&#xe3;" horiz-adv-x="1024" d="M82 307q0 90 38 151.5t100.5 99.5t144 54.5t170.5 16.5h239v41q0 117 -83 191.5t-232 74.5q-55 0 -102.5 -9t-83 -20.5t-61.5 -20.5t-38 -9q-16 0 -16 20q-2 16 -3 40t-3 34q8 2 35.5 11t70.5 18.5t98.5 17.5t114.5 8q102 0 180 -27.5t129 -76t77 -115t26 -145.5v-402 q0 -68 1 -138.5t5 -121.5h-72q-27 0 -32 13.5t-7 31.5l-2 100h-4q-12 -18 -38.5 -44.5t-68.5 -53.5t-101.5 -45t-139.5 -18q-82 0 -145.5 24.5t-107.5 67.5t-66.5 102.5t-22.5 128.5zM162 1358q6 6 21.5 23.5t40 34t56 29.5t72.5 13q45 0 79 -10t63.5 -21.5t58.5 -21.5 t63 -10q70 0 110 23.5t50 33.5l41 -45q-12 -14 -30.5 -31.5t-42 -33t-52 -25.5t-61.5 -10q-47 0 -82 10t-64.5 22.5t-59.5 22.5t-63 10q-61 0 -101 -20.5t-58 -38.5zM193 307q0 -96 62 -163.5t183 -67.5q84 0 147.5 30.5t105.5 83t62.5 121t20.5 144.5v88h-235 q-100 0 -167 -22.5t-107 -56.5t-56 -76t-16 -81z" />
<glyph unicode="&#xe4;" horiz-adv-x="1024" d="M82 307q0 90 38 151.5t100.5 99.5t144 54.5t170.5 16.5h239v41q0 117 -83 191.5t-232 74.5q-55 0 -102.5 -9t-83 -20.5t-61.5 -20.5t-38 -9q-16 0 -16 20q-2 16 -3 40t-3 34q8 2 35.5 11t70.5 18.5t98.5 17.5t114.5 8q102 0 180 -27.5t129 -76t77 -115t26 -145.5v-402 q0 -68 1 -138.5t5 -121.5h-72q-27 0 -32 13.5t-7 31.5l-2 100h-4q-12 -18 -38.5 -44.5t-68.5 -53.5t-101.5 -45t-139.5 -18q-82 0 -145.5 24.5t-107.5 67.5t-66.5 102.5t-22.5 128.5zM193 307q0 -96 62 -163.5t183 -67.5q84 0 147.5 30.5t105.5 83t62.5 121t20.5 144.5v88 h-235q-100 0 -167 -22.5t-107 -56.5t-56 -76t-16 -81zM227 1317v102h105v-102h-105zM600 1317v102h105v-102h-105z" />
<glyph unicode="&#xe5;" horiz-adv-x="1024" d="M82 307q0 90 38 151.5t100.5 99.5t144 54.5t170.5 16.5h239v41q0 117 -83 191.5t-232 74.5q-55 0 -102.5 -9t-83 -20.5t-61.5 -20.5t-38 -9q-16 0 -16 20q-2 16 -3 40t-3 34q8 2 35.5 11t70.5 18.5t98.5 17.5t114.5 8q102 0 180 -27.5t129 -76t77 -115t26 -145.5v-402 q0 -68 1 -138.5t5 -121.5h-72q-27 0 -32 13.5t-7 31.5l-2 100h-4q-12 -18 -38.5 -44.5t-68.5 -53.5t-101.5 -45t-139.5 -18q-82 0 -145.5 24.5t-107.5 67.5t-66.5 102.5t-22.5 128.5zM193 307q0 -96 62 -163.5t183 -67.5q84 0 147.5 30.5t105.5 83t62.5 121t20.5 144.5v88 h-235q-100 0 -167 -22.5t-107 -56.5t-56 -76t-16 -81zM270 1327q0 41 15.5 77t43 63.5t64.5 43t80 15.5t80 -15.5t64.5 -43t43 -63.5t15.5 -77q0 -84 -58.5 -142.5t-144.5 -58.5t-144.5 58.5t-58.5 142.5zM336 1327q0 -57 40 -97t97 -40t97 40t40 97t-40 97t-97 40t-97 -40 t-40 -97z" />
<glyph unicode="&#xe6;" horiz-adv-x="1779" d="M82 295q0 127 87 206t267 79h338v90q0 117 -83 191.5t-230 74.5q-55 0 -102.5 -9t-83 -21.5t-61.5 -22t-38 -9.5q-18 0 -18 21q0 16 -1 39.5t-1 34.5q6 2 33.5 12t69.5 20.5t96.5 18.5t115.5 8q152 0 246 -56.5t135 -152.5q59 100 157.5 154.5t225.5 54.5q121 0 206 -40 t137 -102.5t75.5 -138t23.5 -145.5q0 -29 -2 -63.5t-4 -44.5h-788q0 -86 23.5 -163t71.5 -133.5t120.5 -89t171.5 -32.5q61 0 113.5 7t92.5 16.5t65.5 17.5t37.5 8q20 0 23 -23q2 -12 3 -32.5t1 -30.5q-14 -6 -47 -14.5t-76 -17.5t-95.5 -15t-107.5 -6q-170 0 -280.5 63.5 t-168.5 177.5h-2q-14 -25 -43.5 -65.5t-79 -79.5t-122 -67.5t-170.5 -28.5q-78 0 -139.5 23.5t-104.5 65.5t-65.5 98t-22.5 122zM193 303q0 -96 60 -161.5t175 -65.5q90 0 155.5 31.5t107.5 84t62.5 121t20.5 142.5v39h-348q-121 0 -177 -58.5t-56 -132.5zM887 580h682 q0 49 -15.5 111.5t-52.5 116.5t-100.5 91t-161.5 37q-96 0 -161.5 -37t-106.5 -92t-60.5 -116.5t-23.5 -110.5z" />
<glyph unicode="&#xe7;" horiz-adv-x="925" d="M102 506q0 113 31 208t92.5 164.5t154.5 109.5t216 40q111 0 179.5 -23.5t90.5 -33.5q0 -14 -1 -32.5t-3 -39.5q0 -23 -20 -22q-12 0 -34 9t-52.5 21.5t-70.5 21.5t-89 9q-98 0 -170 -35t-119 -94t-70.5 -137t-23.5 -166q0 -86 23.5 -165t71.5 -137.5t120 -93t168 -34.5 q51 0 92 10t72 21.5t52.5 21.5t33.5 10q16 0 16 -20q2 -20 3 -40t1 -36q-23 -10 -84 -31.5t-161 -25.5l-58 -115q4 2 18.5 5t39.5 3q61 0 106 -40t45 -111q0 -51 -22.5 -92.5t-60.5 -72t-88 -50t-103 -25.5l-33 39q31 8 68.5 22.5t71.5 39t56.5 58.5t22.5 81 q0 43 -29.5 72.5t-81.5 29.5q-23 0 -44 -4t-27 -6q2 6 8 27.5t13 47t14.5 51t11.5 42.5q-211 14 -329 151t-118 367z" />
<glyph unicode="&#xe8;" d="M102 508q0 121 34 217t94.5 163.5t145.5 103.5t187 36q121 0 206 -40t137 -101.5t76 -137t24 -145.5q0 -37 -4.5 -79t-4.5 -54h-784q2 -80 25.5 -151.5t70.5 -125t119 -85t170 -31.5q72 0 125 7t90 16.5t59.5 17.5t34.5 8q20 0 23 -23q0 -12 1 -31.5t1 -33.5 q-14 -4 -46 -13.5t-76 -18.5t-96 -15t-106 -6q-129 0 -224 37.5t-157.5 106.5t-93.5 165t-31 213zM213 557h682q2 4 2 15.5v21.5q0 51 -15.5 110.5t-52 111.5t-100 87t-162.5 35q-100 0 -166.5 -41t-108.5 -100.5t-59.5 -125t-19.5 -114.5zM293 1520h135l164 -301h-53z" />
<glyph unicode="&#xe9;" d="M102 508q0 121 34 217t94.5 163.5t145.5 103.5t187 36q121 0 206 -40t137 -101.5t76 -137t24 -145.5q0 -37 -4.5 -79t-4.5 -54h-784q2 -80 25.5 -151.5t70.5 -125t119 -85t170 -31.5q72 0 125 7t90 16.5t59.5 17.5t34.5 8q20 0 23 -23q0 -12 1 -31.5t1 -33.5 q-14 -4 -46 -13.5t-76 -18.5t-96 -15t-106 -6q-129 0 -224 37.5t-157.5 106.5t-93.5 165t-31 213zM213 557h682q2 4 2 15.5v21.5q0 51 -15.5 110.5t-52 111.5t-100 87t-162.5 35q-100 0 -166.5 -41t-108.5 -100.5t-59.5 -125t-19.5 -114.5zM530 1219l164 301h135l-245 -301 h-54z" />
<glyph unicode="&#xea;" d="M102 508q0 121 34 217t94.5 163.5t145.5 103.5t187 36q121 0 206 -40t137 -101.5t76 -137t24 -145.5q0 -37 -4.5 -79t-4.5 -54h-784q2 -80 25.5 -151.5t70.5 -125t119 -85t170 -31.5q72 0 125 7t90 16.5t59.5 17.5t34.5 8q20 0 23 -23q0 -12 1 -31.5t1 -33.5 q-14 -4 -46 -13.5t-76 -18.5t-96 -15t-106 -6q-129 0 -224 37.5t-157.5 106.5t-93.5 165t-31 213zM213 557h682q2 4 2 15.5v21.5q0 51 -15.5 110.5t-52 111.5t-100 87t-162.5 35q-100 0 -166.5 -41t-108.5 -100.5t-59.5 -125t-19.5 -114.5zM303 1219l182 301h160l182 -301 h-55l-207 237l-209 -237h-53z" />
<glyph unicode="&#xeb;" d="M102 508q0 121 34 217t94.5 163.5t145.5 103.5t187 36q121 0 206 -40t137 -101.5t76 -137t24 -145.5q0 -37 -4.5 -79t-4.5 -54h-784q2 -80 25.5 -151.5t70.5 -125t119 -85t170 -31.5q72 0 125 7t90 16.5t59.5 17.5t34.5 8q20 0 23 -23q0 -12 1 -31.5t1 -33.5 q-14 -4 -46 -13.5t-76 -18.5t-96 -15t-106 -6q-129 0 -224 37.5t-157.5 106.5t-93.5 165t-31 213zM213 557h682q2 4 2 15.5v21.5q0 51 -15.5 110.5t-52 111.5t-100 87t-162.5 35q-100 0 -166.5 -41t-108.5 -100.5t-59.5 -125t-19.5 -114.5zM317 1315v104h103v-104h-103z M688 1315v104h105v-104h-105z" />
<glyph unicode="&#xec;" horiz-adv-x="440" d="M-47 1520h135l164 -301h-53zM170 0v1012h106v-1012h-106z" />
<glyph unicode="&#xed;" horiz-adv-x="440" d="M164 0v1012h106v-1012h-106zM184 1219l164 301h135l-243 -301h-56z" />
<glyph unicode="&#xee;" horiz-adv-x="440" d="M-41 1219l182 301h160l182 -301h-53l-209 237l-209 -237h-53zM162 0v1012h108v-1012h-108z" />
<glyph unicode="&#xef;" horiz-adv-x="440" d="M-18 1315v104h104v-104h-104zM174 0v1012h109v-1012h-109zM354 1315v104h105v-104h-105z" />
<glyph unicode="&#xf0;" horiz-adv-x="1179" d="M102 506q0 98 26 191.5t84 167t150.5 118.5t227.5 45q68 0 116 -11t83.5 -27.5t59 -35t40.5 -32.5l6 2q-29 86 -72 170t-102 149l-234 -145l-43 71l211 136q-23 23 -52.5 43t-55.5 38q-12 8 -12 25q0 12 16 39q6 8 15 22.5t14 18.5q31 -16 73.5 -43t102.5 -80l172 111 l49 -76l-160 -100q117 -139 188.5 -342t71.5 -455q0 -104 -27.5 -198.5t-86 -166t-151.5 -113.5t-222 -42q-227 0 -357.5 136t-130.5 384zM213 506q0 -74 19.5 -150.5t63.5 -139t115.5 -101.5t178.5 -39q88 0 157.5 30.5t118.5 87t75 136.5t26 176q0 88 -23.5 167t-70 137 t-118 92t-165.5 34q-172 0 -274.5 -113.5t-102.5 -316.5z" />
<glyph unicode="&#xf1;" d="M154 1012h79q29 0 29 -27v-84q0 -31 2 -65h4q6 12 23.5 43.5t54.5 64.5t95.5 58.5t148.5 25.5q82 0 149.5 -27.5t115.5 -78t73.5 -119t25.5 -150.5v-653h-108v643q0 61 -16.5 114.5t-50.5 93.5t-86 62.5t-122 22.5q-63 0 -119.5 -26.5t-97.5 -76t-65.5 -121t-24.5 -159.5 v-553h-106v702v83t-1 85t-2 78t-1 64zM240 1356q6 6 21 22.5t40 34t56.5 30.5t72.5 13q45 0 79 -10t63.5 -22.5t58 -22.5t63.5 -10q70 0 109 24.5t51 34.5l39 -45q-12 -14 -30.5 -31.5t-41 -33t-51.5 -25.5t-61 -10q-47 0 -82 10t-66 22.5t-59.5 22.5t-61.5 10 q-61 0 -101 -20.5t-58 -38.5z" />
<glyph unicode="&#xf2;" horiz-adv-x="1177" d="M102 508q0 96 26 189.5t83 167t149.5 118.5t227.5 45q123 0 215 -40t152.5 -109.5t90 -165t29.5 -205.5q0 -104 -27.5 -198.5t-86 -167t-151.5 -114.5t-222 -42q-225 0 -355.5 136t-130.5 386zM211 508q0 -76 19.5 -152.5t63.5 -139t116.5 -101.5t177.5 -39 q88 0 158.5 30.5t119.5 88t75 136.5t26 177q0 88 -23.5 167t-71 137t-118 92t-166.5 34q-172 0 -274.5 -113.5t-102.5 -316.5zM319 1520h136l163 -301h-55z" />
<glyph unicode="&#xf3;" horiz-adv-x="1179" d="M102 508q0 96 26 189.5t83 167t150.5 118.5t228.5 45q123 0 214 -40t152.5 -109.5t91 -165t29.5 -205.5q0 -104 -27.5 -198.5t-87 -167t-151.5 -114.5t-221 -42q-227 0 -357.5 136t-130.5 386zM211 508q0 -76 19.5 -152.5t63.5 -139t116.5 -101.5t179.5 -39 q88 0 157.5 30.5t118.5 88t75 136.5t26 177q0 88 -23.5 167t-70 137t-118 92t-165.5 34q-172 0 -275.5 -113.5t-103.5 -316.5zM557 1219l164 301h135l-246 -301h-53z" />
<glyph unicode="&#xf4;" horiz-adv-x="1177" d="M102 508q0 96 26 189.5t83 167t149.5 118.5t227.5 45q123 0 215 -40t152.5 -109.5t90 -165t29.5 -205.5q0 -104 -27.5 -198.5t-86 -167t-151.5 -114.5t-222 -42q-225 0 -355.5 136t-130.5 386zM211 508q0 -76 19.5 -152.5t63.5 -139t116.5 -101.5t177.5 -39 q88 0 158.5 30.5t119.5 88t75 136.5t26 177q0 88 -23.5 167t-71 137t-119 92t-165.5 34q-172 0 -274.5 -113.5t-102.5 -316.5zM328 1219l182 301h160l182 -301h-53l-209 237l-209 -237h-53z" />
<glyph unicode="&#xf5;" horiz-adv-x="1177" d="M102 508q0 96 26 189.5t83 167t149.5 118.5t227.5 45q123 0 215 -40t152.5 -109.5t90 -165t29.5 -205.5q0 -104 -27.5 -198.5t-86 -167t-151.5 -114.5t-222 -42q-225 0 -355.5 136t-130.5 386zM211 508q0 -76 19.5 -152.5t63.5 -139t116.5 -101.5t177.5 -39 q88 0 158.5 30.5t119.5 88t75 136.5t26 177q0 88 -23.5 167t-71 137t-118 92t-166.5 34q-172 0 -274.5 -113.5t-102.5 -316.5zM266 1358q6 6 21.5 22.5t39 34t55.5 30.5t73 13q45 0 79.5 -10t64.5 -22.5t57.5 -22.5t62.5 -10q70 0 109.5 23.5t52.5 35.5l39 -45 q-12 -14 -31 -31.5t-42.5 -33t-52 -25.5t-61.5 -10q-47 0 -81 10t-64.5 22.5t-59 22.5t-61.5 10q-61 0 -102 -20.5t-60 -38.5z" />
<glyph unicode="&#xf6;" horiz-adv-x="1179" d="M102 508q0 96 26 189.5t83 167t150.5 118.5t228.5 45q123 0 214 -40t152.5 -109.5t91 -165t29.5 -205.5q0 -104 -27.5 -198.5t-86 -167t-151.5 -114.5t-222 -42q-227 0 -357.5 136t-130.5 386zM211 508q0 -76 19.5 -152.5t63.5 -139t116.5 -101.5t179.5 -39 q88 0 157.5 30.5t118.5 88t75 136.5t26 177q0 88 -23.5 167t-70 137t-118 92t-165.5 34q-172 0 -275.5 -113.5t-103.5 -316.5zM344 1315v104h102v-104h-102zM715 1315v104h104v-104h-104z" />
<glyph unicode="&#xf7;" horiz-adv-x="1267" d="M111 573v89h1046v-89h-1046zM549 215v160h160v-160h-160zM551 848v160h160v-160h-160z" />
<glyph unicode="&#xf8;" horiz-adv-x="1179" d="M102 506q0 96 26 190.5t83 168t150.5 118.5t228.5 45q115 0 205 -37l69 131l76 -39l-70 -131q104 -68 155.5 -184.5t51.5 -261.5q0 -104 -27.5 -198.5t-87 -166t-151.5 -113.5t-221 -42q-115 0 -207 37l-70 -136l-75 41l69 133q-98 63 -151.5 176t-53.5 269zM211 506 q0 -98 33.5 -195.5t113.5 -160.5l396 753q-68 33 -164 33q-172 0 -275.5 -113.5t-103.5 -316.5zM424 109q72 -33 166 -33q88 0 157.5 30.5t118.5 87t75 135.5t26 177q0 113 -37 206t-111 152z" />
<glyph unicode="&#xf9;" d="M154 358v654h108v-643q0 -61 16.5 -114.5t50 -93.5t86 -62.5t122.5 -22.5q63 0 118.5 26.5t97.5 75.5t65.5 120t23.5 161v553h108v-703v-83t1 -85t2 -77.5t1 -63.5h-80q-29 0 -28 27q0 10 -1 33.5t-1 50.5v65h-6q-6 -12 -23.5 -44t-53.5 -64.5t-94.5 -57t-148.5 -24.5 q-84 0 -151.5 27.5t-114.5 76.5t-72.5 117.5t-25.5 150.5zM270 1520h136l163 -301h-53z" />
<glyph unicode="&#xfa;" d="M154 358v654h108v-643q0 -61 16.5 -114.5t50 -93.5t86 -62.5t122.5 -22.5q63 0 119.5 26.5t97.5 75.5t65.5 120t24.5 161v553h106v-703v-83t1 -85t2 -77.5t1 -63.5h-80q-29 0 -28 27q0 10 -1 33.5t-1 50.5v65h-4q-6 -12 -23.5 -44t-54.5 -64.5t-95.5 -57t-148.5 -24.5 q-84 0 -150.5 27.5t-114.5 76.5t-73.5 117.5t-25.5 150.5zM504 1219l164 301h137l-246 -301h-55z" />
<glyph unicode="&#xfb;" d="M154 358v654h108v-643q0 -61 16.5 -114.5t50 -93.5t86 -62.5t122.5 -22.5q63 0 118.5 26.5t97.5 75.5t65.5 120t23.5 161v553h108v-703v-83t1 -85t2 -77.5t1 -63.5h-80q-29 0 -28 27q0 10 -1 33.5t-1 50.5v65h-6q-6 -12 -23.5 -44t-53.5 -64.5t-94.5 -57t-148.5 -24.5 q-84 0 -151.5 27.5t-114.5 76.5t-72.5 117.5t-25.5 150.5zM283 1219l182 301h160l182 -301h-53l-209 235l-209 -235h-53z" />
<glyph unicode="&#xfc;" d="M154 358v654h108v-643q0 -61 16.5 -114.5t50 -93.5t86 -62.5t122.5 -22.5q63 0 118.5 26.5t97.5 75.5t65.5 120t23.5 161v553h108v-703v-83t1 -85t2 -77.5t1 -63.5h-80q-29 0 -28 27q0 10 -1 33.5t-1 50.5v65h-6q-6 -12 -23.5 -44t-53.5 -64.5t-94.5 -57t-148.5 -24.5 q-84 0 -151.5 27.5t-114.5 76.5t-72.5 117.5t-25.5 150.5zM293 1315v102h104v-102h-104zM666 1315v102h104v-102h-104z" />
<glyph unicode="&#xfd;" horiz-adv-x="915" d="M-61 -489q0 12 2 24q2 10 2 20.5t2 18.5q0 27 20 27q10 0 37 -8.5t80 -8.5q111 0 173 66.5t103 189.5q10 29 20.5 57.5t18.5 51.5q8 27 19 51l-400 1012h117l336 -865h4l313 865h109q-90 -256 -172 -482q-35 -96 -71 -194t-67.5 -187.5t-58 -164t-43.5 -119.5 q-33 -90 -68.5 -158.5t-83.5 -116t-112.5 -72t-155.5 -24.5q-49 0 -79.5 6t-44.5 11zM440 1219l166 301h135l-245 -301h-56z" />
<glyph unicode="&#xfe;" horiz-adv-x="1103" d="M164 -471v1939h108v-628h4q8 14 30 46t59.5 63.5t93 55t133.5 23.5q109 0 186.5 -42t126.5 -108.5t72.5 -148.5t23.5 -164q0 -129 -35.5 -235.5t-104 -183t-168 -118.5t-224.5 -42q-33 0 -65.5 4t-59.5 9t-46 10t-26 7v-487h-108zM272 106q10 -4 63.5 -16t125.5 -12 q100 0 181 36t136.5 99t85 150.5t29.5 189.5q0 74 -18.5 143.5t-56.5 123.5t-95 86t-133 32q-143 0 -230.5 -122t-87.5 -361v-349z" />
<glyph unicode="&#xff;" horiz-adv-x="913" d="M-61 -489q2 12 2 24v20.5t2 18.5q4 27 22 27q10 0 37 -8.5t80 -8.5q111 0 173 66.5t103 189.5q10 29 20.5 57.5t18.5 51.5q8 27 19 51l-400 1012h117l336 -865h4l311 865h109q-90 -256 -172 -482q-35 -96 -71 -194t-67.5 -187.5t-58 -164t-43.5 -119.5 q-31 -90 -66.5 -158.5t-83.5 -116t-112.5 -72t-155.5 -24.5q-51 0 -80.5 6t-43.5 11zM227 1313v104h105v-104h-105zM600 1313v104h105v-104h-105z" />
<glyph unicode="&#x152;" horiz-adv-x="2048" d="M154 690q0 141 36.5 269t113.5 225.5t193.5 155t276.5 57.5q176 0 300 -71t200 -187v243h672v-88h-562v-536h529v-88h-529v-582h562v-88h-672v242q-78 -119 -202 -188.5t-300 -69.5q-147 0 -262 51t-193.5 145t-120.5 223t-42 287zM272 690q0 -137 33 -250.5t96.5 -194.5 t157.5 -125t215 -44q129 0 223.5 50t155.5 134t91 195.5t30 234.5t-28.5 234.5t-90 195.5t-156 134.5t-225.5 50.5q-129 0 -224 -49.5t-156.5 -132.5t-91.5 -195.5t-30 -237.5z" />
<glyph unicode="&#x153;" horiz-adv-x="1972" d="M102 506q0 96 26 190.5t83 168t150.5 118.5t228.5 45q164 0 271.5 -68.5t160.5 -183.5q55 121 159.5 186.5t245.5 65.5q121 0 206 -40t137.5 -102.5t76 -138t23.5 -145.5q0 -37 -4 -79t-4 -52h-785q2 -80 25.5 -151.5t71 -126t119 -86t169.5 -31.5q66 0 117 7t89 16.5 t63.5 17.5t40.5 8q20 0 22 -23q2 -12 3 -30.5t1 -32.5q-14 -6 -47 -14.5t-76 -17.5t-95 -15t-107 -6q-174 0 -286 65.5t-165 181.5q-53 -111 -158.5 -179t-273.5 -68q-227 0 -357.5 136t-130.5 384zM213 506q0 -74 19.5 -150.5t63.5 -139t115.5 -101.5t178.5 -39 q88 0 157.5 30.5t118.5 87t75 135.5t26 177q0 88 -23.5 167t-70 137t-118 92t-165.5 34q-172 0 -274.5 -113.5t-102.5 -316.5zM1079 557h682v37q0 49 -15 109.5t-52 111.5t-100.5 86t-161.5 35q-100 0 -167 -41t-108 -99.5t-59.5 -124t-18.5 -114.5z" />
<glyph unicode="&#x178;" horiz-adv-x="1019" d="M20 1382h123l367 -761l377 761h112l-444 -878v-504h-111v504zM248 1604v104h102v-104h-102zM647 1604v104h105v-104h-105z" />
<glyph unicode="&#x2c6;" horiz-adv-x="655" d="M70 1135l182 301h158l184 -301h-55l-207 237l-209 -237h-53z" />
<glyph unicode="&#x2dc;" horiz-adv-x="819" d="M78 1335q6 6 21.5 22.5t40 34t56 31t70.5 13.5q45 0 80 -10.5t64.5 -22.5t58.5 -22.5t63 -10.5q70 0 109 23.5t51 36.5l39 -46q-12 -14 -30.5 -31.5t-42 -32.5t-52 -25.5t-61.5 -10.5q-47 0 -81 10.5t-64.5 22.5t-59.5 22.5t-61 10.5q-61 0 -101.5 -20.5t-60.5 -39.5z " />
<glyph unicode="&#x2000;" horiz-adv-x="907" />
<glyph unicode="&#x2001;" horiz-adv-x="1815" />
<glyph unicode="&#x2002;" horiz-adv-x="907" />
<glyph unicode="&#x2003;" horiz-adv-x="1815" />
<glyph unicode="&#x2004;" horiz-adv-x="605" />
<glyph unicode="&#x2005;" horiz-adv-x="453" />
<glyph unicode="&#x2006;" horiz-adv-x="302" />
<glyph unicode="&#x2007;" horiz-adv-x="302" />
<glyph unicode="&#x2008;" horiz-adv-x="226" />
<glyph unicode="&#x2009;" horiz-adv-x="363" />
<glyph unicode="&#x200a;" horiz-adv-x="100" />
<glyph unicode="&#x2010;" horiz-adv-x="821" d="M143 463v88h535v-88h-535z" />
<glyph unicode="&#x2011;" horiz-adv-x="821" d="M143 463v88h535v-88h-535z" />
<glyph unicode="&#x2012;" horiz-adv-x="821" d="M143 463v88h535v-88h-535z" />
<glyph unicode="&#x2013;" horiz-adv-x="1181" d="M143 463v88h895v-88h-895z" />
<glyph unicode="&#x2014;" horiz-adv-x="1544" d="M143 463v88h1258v-88h-1258z" />
<glyph unicode="&#x2018;" horiz-adv-x="395" d="M123 1067v96q0 43 8 76t25.5 60.5t45 53t68.5 54.5l23 -27q-47 -35 -75 -83t-25 -95h65v-135h-135z" />
<glyph unicode="&#x2019;" horiz-adv-x="395" d="M102 1069q47 35 75 83t26 95h-68v135h137v-96q0 -43 -8 -75.5t-25.5 -60.5t-46 -53.5t-67.5 -54.5z" />
<glyph unicode="&#x201a;" horiz-adv-x="415" d="M123 -178q47 35 74.5 83t25.5 95h-67v135h137v-96q0 -43 -8.5 -76t-25.5 -60.5t-46 -53t-68 -54.5z" />
<glyph unicode="&#x201c;" horiz-adv-x="634" d="M123 1067h137v135h-67q-2 47 25.5 95.5t74.5 82.5l-23 27q-41 -29 -68.5 -54.5t-45 -53t-25.5 -60.5t-8 -76v-96zM362 1067v96q0 43 8.5 76t26 60.5t45 53t68.5 54.5l22 -27q-47 -35 -74.5 -83t-25.5 -95h68v-135h-138z" />
<glyph unicode="&#x201d;" horiz-adv-x="634" d="M102 1069q47 35 75 83t26 95h-68v135h137v-96q0 -43 -8 -75.5t-25.5 -60.5t-46 -53.5t-67.5 -54.5zM342 1069l23 -27q39 29 67.5 54.5t46 53.5t25.5 60.5t8 75.5v96h-137v-135h67q2 -47 -25.5 -95t-74.5 -83z" />
<glyph unicode="&#x201e;" horiz-adv-x="655" d="M123 -178q47 35 74.5 83t25.5 95h-67v135h137v-96q0 -43 -8.5 -76t-25.5 -60.5t-46 -53t-68 -54.5zM362 -178l23 -27q39 29 67.5 54.5t46 53t25.5 60.5t8 76v96h-137v-135h68q2 -47 -25.5 -95t-75.5 -83z" />
<glyph unicode="&#x2022;" horiz-adv-x="591" d="M205 553v182h182v-182h-182z" />
<glyph unicode="&#x2026;" horiz-adv-x="1435" d="M123 0h137v137h-137v-137zM649 0h137v137h-137v-137zM1176 0v137h137v-137h-137z" />
<glyph unicode="&#x202f;" horiz-adv-x="363" />
<glyph unicode="&#x2039;" horiz-adv-x="655" d="M123 483l344 414l65 -57l-292 -357l292 -354l-65 -59z" />
<glyph unicode="&#x203a;" horiz-adv-x="798" d="M195 129l290 354l-290 357l65 57l344 -414l-344 -413z" />
<glyph unicode="&#x205f;" horiz-adv-x="453" />
<glyph unicode="&#x20ac;" horiz-adv-x="1267" d="M61 514l48 88h96q-4 23 -4 45.5v44.5q0 57 6 117h-146l48 88h114q25 104 75 196.5t128 160t185.5 106.5t246.5 39q158 0 239 -23.5t93 -29.5l-23 -95q-10 2 -38.5 11.5t-71.5 19.5t-99.5 17.5t-119.5 7.5q-106 0 -189.5 -32t-145 -87t-101.5 -130t-60 -161h735l-22 -88 h-729q-6 -59 -7 -117v-45t5 -45h677l-20 -88h-645q18 -90 57 -170t100.5 -139.5t147.5 -93t197 -33.5q63 0 119.5 7t99.5 17.5t71.5 18.5t38.5 12l25 -98q-6 -2 -30.5 -9.5t-66.5 -16.5t-101.5 -16t-135.5 -7q-143 0 -252.5 41t-188.5 112.5t-129 167.5t-71 207h-156z" />
<glyph unicode="&#x2122;" horiz-adv-x="917" d="M102 1327v53h279v-53h-111v-356h-57v356h-111zM381 971h61l37 301h2l94 -301h39l99 301h2l39 -301h61l-61 409h-60l-94 -297l-96 297h-60z" />
<glyph unicode="&#xe000;" horiz-adv-x="1013" d="M0 0v1014h1014v-1014h-1014z" />
</font>
</defs>
</svg>
