<?xml version="1.0" standalone="no"?>
<!DOCTYPE svg PUBLIC "-//W3C//DTD SVG 1.1//EN" "http://www.w3.org/Graphics/SVG/1.1/DTD/svg11.dtd" >
<svg xmlns="http://www.w3.org/2000/svg">
<metadata></metadata>
<defs>
<font id="americansansitalic" horiz-adv-x="1138" >
<font-face units-per-em="2048" ascent="1536" descent="-512" />
<missing-glyph horiz-adv-x="471" />
<glyph unicode="&#xfb01;" horiz-adv-x="1124" d="M92 883l25 129h178q4 29 10 51q4 20 7 39.5t5 30.5q74 375 445 374q94 0 162.5 -17t91.5 -26q-4 -14 -11.5 -44.5t-13.5 -47.5q-12 -29 -30 -29q-16 0 -34 6.5t-43.5 12.5t-59 12t-81.5 6q-121 0 -186 -72.5t-88 -183.5q-2 -10 -5 -28.5t-7 -36.5q-6 -23 -11 -47h617 l-199 -1012h-151l172 883h-463q-25 -127 -54.5 -279.5t-56.5 -288.5q-31 -158 -61 -315h-152q31 156 62 313q12 68 26.5 140.5t28.5 146.5t28.5 145.5t26.5 137.5h-178z" />
<glyph unicode="&#xfb02;" horiz-adv-x="1110" d="M92 883l25 129h180q4 31 10 57q4 23 7 43.5t8 30.5q35 188 153.5 276t298.5 88q70 0 137.5 -6t120.5 -14q63 -8 119 -19l-287 -1468h-151l264 1358l-19 4q-18 4 -47.5 8t-66.5 7t-74 3q-74 0 -126 -20.5t-88 -56t-56.5 -81.5t-30.5 -98l-20 -112h231l-27 -129h-231 q-25 -127 -54.5 -279.5t-56.5 -288.5q-31 -158 -61 -315h-152q31 156 62 313q12 68 26.5 140.5t28.5 146.5t28.5 145.5t26.5 137.5h-178z" />
<glyph unicode="&#xfb03;" horiz-adv-x="1796" d="M92 883l25 129h176q6 33 12 59q4 23 8 44.5t6 31.5q35 182 152 271t293 89q61 0 100 -8t56 -14q-4 -18 -10.5 -48t-10.5 -44q-6 -27 -31 -27q-16 0 -42.5 7t-80.5 7q-68 0 -115.5 -20.5t-80.5 -56t-52.5 -81.5t-29.5 -98q-2 -10 -5 -28.5t-7 -36.5q-6 -23 -11 -47h523 q4 31 10 55q4 23 8 42t6 30q37 188 151.5 278t301.5 90q102 0 163.5 -17t80.5 -26q-4 -20 -12.5 -49t-12.5 -43q-4 -10 -8 -19.5t-19 -9.5q-16 0 -34.5 6.5t-44 12.5t-60.5 12t-82 6q-121 0 -186.5 -72.5t-87.5 -183.5q-2 -10 -5 -28.5t-8 -36.5q-6 -23 -10 -47h617 l-199 -1012h-152l172 883h-462l-170 -883h-152l170 883h-522l-170 -883h-152l170 883h-176z" />
<glyph unicode="&#xfb04;" horiz-adv-x="1781" d="M92 883l25 129h176q4 27 10 49q4 20 7 38.5t5 28.5q37 188 145.5 283.5t303.5 95.5q66 0 102.5 -8t53.5 -14l-11.5 -46l-11.5 -46q-4 -10 -9 -18.5t-20 -8.5q-16 0 -41.5 7t-78.5 7q-66 0 -114 -20.5t-82 -56t-54.5 -81.5t-30.5 -98q-2 -10 -5 -28.5t-7 -36.5 q-6 -23 -11 -47h525q4 29 10 53q4 23 7 42t5 30q74 370 465 370q51 0 114.5 -6t120 -13t94.5 -14l38 -6l-287 -1468h-152l265 1358l-21 4q-22 4 -54 8t-68 7t-64 3q-74 0 -127 -20.5t-88 -56t-55.5 -81.5t-30.5 -98l-21 -112h232l-27 -129h-231q-25 -127 -54.5 -279.5 t-56.5 -288.5q-31 -158 -59 -315h-154l172 883h-522q-25 -127 -54.5 -279.5t-56.5 -288.5q-31 -158 -61 -315h-152q31 156 62 313q12 68 26.5 140.5t28.5 146.5t28.5 145.5t26.5 137.5h-176z" />
<glyph horiz-adv-x="2048" />
<glyph horiz-adv-x="2048" />
<glyph unicode="&#xd;" horiz-adv-x="737" />
<glyph unicode=" "  horiz-adv-x="471" />
<glyph unicode="&#x09;" horiz-adv-x="471" />
<glyph unicode="&#xa0;" horiz-adv-x="471" />
<glyph unicode="!" horiz-adv-x="677" d="M164 0h160l30 160h-159zM264 406l168 974h164l-213 -974h-119z" />
<glyph unicode="&#x22;" horiz-adv-x="571" d="M205 1012h76l114 368h-162zM463 1012l29 368h161l-114 -368h-76z" />
<glyph unicode="#" horiz-adv-x="1331" d="M41 358l25 127h247l125 414h-235l24 125h250l109 356h139l-109 -356h295l109 356h139l-106 -356h237l-24 -125h-252l-125 -414h239l-24 -127h-252l-109 -358h-139l107 358h-293l-109 -358h-139l106 358h-235zM455 485h295l124 414h-294z" />
<glyph unicode="$" d="M41 16l29 150q27 -10 96.5 -29.5t171.5 -19.5q82 0 155.5 19.5t127 54t85 84t31.5 108.5q0 90 -55 145.5t-133 98.5l-119 63q-94 51 -157.5 126t-63.5 200q0 147 100.5 246.5t286.5 128.5l33 172h157l-30 -162q100 -2 167.5 -13.5t92.5 -19.5l-29 -143q-18 6 -91.5 22.5 t-186.5 16.5q-68 0 -129.5 -15.5t-107.5 -46.5t-72.5 -76t-26.5 -104q0 -80 47 -129t108 -84l111 -59q123 -66 191.5 -147t68.5 -195q0 -86 -29.5 -157t-85 -123t-132.5 -87t-171 -49l-39 -207h-157l37 195q-94 0 -168 11t-113 25z" />
<glyph unicode="%" horiz-adv-x="1665" d="M205 948q0 98 26.5 181t72.5 143.5t110.5 94.5t138.5 34q61 0 107.5 -21.5t77 -57.5t46 -83t15.5 -98q0 -102 -28 -186.5t-76 -143.5t-111 -91t-133 -32q-63 0 -109.5 21.5t-77.5 57.5t-45 83t-14 98zM252 0l1094 1380h137l-1094 -1380h-137zM322 958q0 -70 32.5 -125 t104.5 -55q43 0 83 26.5t70.5 74t49 112t18.5 142.5q0 74 -33 126t-102 52q-47 0 -88 -29t-71 -77t-47 -112.5t-17 -134.5zM948 238q0 98 26.5 181t73 143.5t111 94t137.5 33.5q61 0 107.5 -21.5t77 -57.5t46 -83t15.5 -98q0 -102 -27.5 -185t-74.5 -142.5t-110.5 -91 t-133.5 -31.5q-63 0 -110.5 21.5t-78 57t-45 81.5t-14.5 98zM1067 248q0 -70 31.5 -125t103.5 -55q43 0 84 26.5t72 73.5t49 111.5t18 142.5q0 74 -33.5 127t-101.5 53q-49 0 -90 -28.5t-70.5 -78t-46 -114t-16.5 -133.5z" />
<glyph unicode="&#x26;" horiz-adv-x="1372" d="M41 367q0 100 43 171.5t101.5 121t120 79t97.5 45.5q-31 49 -67.5 122t-36.5 165q0 82 26.5 143.5t73.5 102.5t110.5 62.5t135.5 21.5q84 0 145.5 -22.5t101.5 -59.5t59.5 -83t19.5 -95q0 -84 -37 -145.5t-91.5 -106.5t-116.5 -77t-116 -56q27 -43 65 -94.5t81 -105.5 t89 -107.5t91 -98.5q76 98 127 209t78 242h149q-4 -70 -27.5 -146.5t-58.5 -150.5t-79 -139.5t-89 -114.5l160 -162l-123 -115l-63 64q-27 27 -52.5 54.5t-42.5 43.5q-16 -12 -53 -38.5t-93 -52.5t-130 -45t-162 -19q-90 0 -170 30.5t-139 82.5t-93 123t-34 151zM207 367 q0 -47 17.5 -93.5t54 -81t93 -56t134.5 -21.5q57 0 107.5 14t90 32.5t70.5 39t47 32.5q-39 39 -84 92.5t-91 113t-90 121t-83 116.5q-25 -12 -70 -39t-88 -66t-75.5 -90t-32.5 -114zM459 1087q0 -66 25.5 -123t54.5 -104q39 20 86 45t87 57.5t67.5 72.5t27.5 89 q0 23 -8 47.5t-27.5 45t-51.5 34t-79 13.5q-78 0 -130 -47.5t-52 -129.5z" />
<glyph unicode="'" horiz-adv-x="313" d="M205 1012l31 368h159l-112 -368h-78z" />
<glyph unicode="(" horiz-adv-x="636" d="M164 289q0 186 41 353t102.5 306t133 249t132.5 183h146q-61 -74 -133 -181t-132.5 -246.5t-101.5 -312.5t-41 -376q0 -125 14.5 -241.5t35 -214t42 -171t33.5 -110.5h-117q-14 35 -40.5 106.5t-52 170t-44 222.5t-18.5 263z" />
<glyph unicode=")" horiz-adv-x="700" d="M-102 -473q61 74 132.5 180.5t133 246.5t102.5 312t41 377q0 125 -14 241.5t-34.5 215t-42 171t-34.5 109.5h117q14 -35 41 -105.5t52.5 -168.5t44 -222t18.5 -263q0 -188 -41 -354.5t-102.5 -306.5t-134.5 -249.5t-134 -183.5h-145z" />
<glyph unicode="*" horiz-adv-x="808" d="M205 1135l59 110l203 -94v229h127l-68 -231l230 96l12 -104l-236 -58l123 -170l-100 -63l-86 199l-154 -203l-75 61l184 183z" />
<glyph unicode="+" horiz-adv-x="1421" d="M164 555l24 127h453l86 442h158l-86 -442h438l-25 -127h-438l-86 -442h-158l86 442h-452z" />
<glyph unicode="," horiz-adv-x="362" d="M-41 -166q41 23 78 65t49 101h-78l31 160h160l-31 -160q-8 -45 -30.5 -80t-50.5 -60.5t-57.5 -41t-49.5 -21.5z" />
<glyph unicode="-" horiz-adv-x="784" d="M123 432l24 127h494l-25 -127h-493z" />
<glyph unicode="." horiz-adv-x="354" d="M0 0l31 160h159l-30 -160h-160z" />
<glyph unicode="/" horiz-adv-x="675" d="M-82 0l795 1380h147l-794 -1380h-148z" />
<glyph unicode="0" horiz-adv-x="1361" d="M143 498q0 197 47.5 362.5t132.5 285.5t200.5 187.5t250.5 67.5q113 0 197 -42t139 -113.5t82 -166t27 -196.5q0 -205 -50.5 -372t-136.5 -284.5t-199.5 -182t-242.5 -64.5q-115 0 -199 43t-139 114.5t-82 164.5t-27 196zM303 504q0 -74 16.5 -144.5t51.5 -124t89 -86 t130 -32.5q92 0 177 56t149.5 157.5t103.5 241t39 307.5q0 80 -17.5 149.5t-53.5 121.5t-90 83t-126 31q-100 0 -186 -61.5t-148.5 -166t-98.5 -243t-36 -289.5z" />
<glyph unicode="1" horiz-adv-x="733" d="M82 1106l6 135q55 4 110.5 18.5t105.5 36t91 48t68 57.5h147l-272 -1401h-156l234 1206q-53 -27 -140.5 -57.5t-193.5 -42.5z" />
<glyph unicode="2" horiz-adv-x="970" d="M-82 0l29 152q102 90 186 167q37 33 73 66t66.5 60.5t54 49t33.5 31.5q70 63 135.5 125t117 123.5t81 124t29.5 127.5q0 43 -18.5 85t-54.5 76t-89 55.5t-121 21.5q-47 0 -88 -10.5t-72.5 -25t-55 -27.5t-31.5 -19l-33 133q6 4 30.5 18.5t64.5 29.5t95.5 26.5t122.5 11.5 q109 0 187.5 -32t129 -84t75 -119.5t24.5 -137.5q0 -92 -37 -170t-92 -144.5t-118.5 -122.5t-115.5 -106q-29 -29 -90 -87t-125 -117q-74 -70 -157 -150h577l-26 -131h-787z" />
<glyph unicode="3" horiz-adv-x="974" d="M0 4l14 135q6 -2 29 -6t52.5 -8t63.5 -7t64 -3q90 0 165 25.5t127 68.5t81 98t29 113q0 41 -15.5 82t-49.5 72.5t-88 51t-134 19.5h-123l25 127h131q74 0 138 20.5t113.5 56.5t78 87t28.5 113q0 39 -14.5 76.5t-45 68.5t-79.5 49.5t-117 18.5q-39 0 -77 -8.5t-69.5 -18.5 t-54 -19.5t-28.5 -13.5l-13 135q6 4 31 14.5t60.5 21.5t82 19.5t97.5 8.5q100 0 174 -29t122 -77t71.5 -107.5t23.5 -120.5q0 -86 -29.5 -150.5t-76 -107.5t-99.5 -68.5t-98 -33.5v-9q20 -4 53 -21.5t65.5 -50t56 -83.5t23.5 -125q0 -98 -43 -179t-118.5 -138.5t-179 -89 t-222.5 -31.5q-90 0 -152.5 10t-72.5 14z" />
<glyph unicode="4" horiz-adv-x="1169" d="M61 537l732 843h233l-170 -872h252l-25 -127h-252l-73 -381h-156l74 381h-602zM213 508h487l142 723h-8z" />
<glyph unicode="5" horiz-adv-x="972" d="M0 0l18 141q14 -4 80 -14t146 -10q92 0 172 24.5t139 68.5t93 103.5t34 126.5q0 49 -18.5 98.5t-61.5 89.5t-111.5 65.5t-168.5 25.5q-23 0 -47.5 -3t-47 -6t-38 -6.5t-19.5 -3.5l131 680h672l-25 -127h-514l-80 -417q4 2 23.5 4t40.5 2q117 0 197.5 -35t132 -91.5 t75 -127t23.5 -139.5q0 -98 -41 -183.5t-121 -149t-196.5 -100t-266.5 -36.5q-86 0 -147.5 8t-73.5 12z" />
<glyph unicode="6" horiz-adv-x="1261" d="M123 459q0 176 51 345t155.5 302t261.5 214t367 81q76 0 138.5 -7.5t83.5 -11.5l-47 -141q-16 4 -76 13.5t-131 9.5q-141 0 -242.5 -55.5t-171.5 -134.5t-106.5 -163t-49.5 -139l6 -2q8 6 32 24.5t63 37t94 33t127 14.5q109 0 190.5 -34t136 -90.5t81 -129t26.5 -150.5 q0 -96 -34 -185t-100.5 -158t-164.5 -110.5t-227 -41.5q-131 0 -219 40.5t-142.5 108.5t-78 154t-23.5 176zM305 399q0 -53 18.5 -103t55.5 -90t92 -63.5t129 -23.5t137.5 27.5t108.5 74.5t70.5 109.5t25.5 132.5q0 51 -18.5 100t-55.5 88t-90 63.5t-123 24.5 q-82 0 -146.5 -28.5t-109.5 -75.5t-69.5 -108.5t-24.5 -127.5z" />
<glyph unicode="7" horiz-adv-x="884" d="M41 0q51 158 136 331t186.5 341t208 318.5t200.5 262.5h-684l25 127h833l-26 -135q-94 -121 -194.5 -266t-196 -306t-176.5 -332t-134 -341h-178z" />
<glyph unicode="8" horiz-adv-x="1171" d="M82 328q0 100 45 170.5t105.5 118t121 73t90.5 37.5q-29 18 -62.5 45t-63 66t-49 89t-19.5 117q0 78 29.5 143.5t88 113t141.5 74t191 26.5q98 0 172 -27.5t122 -73t72 -99.5t24 -107q0 -86 -34 -148.5t-85 -108.5t-109.5 -78t-109.5 -57q43 -27 85 -60.5t75.5 -74.5 t55 -89t21.5 -103q0 -88 -37 -161t-102.5 -125t-157.5 -80.5t-205 -28.5q-96 0 -170.5 27.5t-127 75.5t-80 110.5t-27.5 134.5zM248 330q0 -41 19.5 -80t54 -68.5t85 -47t111.5 -17.5q63 0 118.5 18.5t95.5 51t62.5 75.5t22.5 90q0 86 -62.5 151.5t-170.5 127.5 q-39 -12 -96.5 -35t-110.5 -59.5t-91 -88t-38 -118.5zM420 1055q0 -86 53 -144.5t139 -115.5q45 18 98.5 44.5t100.5 61.5t79 81t32 103q0 72 -58.5 126.5t-175.5 54.5q-55 0 -104 -15.5t-85 -43t-57.5 -66.5t-21.5 -86z" />
<glyph unicode="9" horiz-adv-x="1259" d="M82 -2l45 141q16 -4 75.5 -13t131.5 -9q141 0 243.5 55t171 134t106.5 163t48 139l-6 2q-8 -6 -31.5 -24.5t-62.5 -37t-94 -32.5t-127 -14q-109 0 -190 33.5t-135 90t-82 129t-28 150.5q0 94 35 184.5t101.5 159t165 110.5t225.5 42q131 0 220 -42t142.5 -109.5 t77 -153.5t23.5 -174q0 -176 -51.5 -345t-155 -302.5t-260 -214t-367.5 -80.5q-76 0 -139.5 7t-81.5 11zM317 918q0 -51 18.5 -101.5t55.5 -89.5t90 -62.5t123 -23.5q82 0 146.5 28.5t110.5 76t70.5 108.5t24.5 127q0 53 -18 103.5t-55 90t-92.5 63.5t-128.5 24 q-76 0 -138.5 -28t-108.5 -75t-72 -109.5t-26 -131.5z" />
<glyph unicode=":" horiz-adv-x="473" d="M41 0l31 160h159l-30 -160h-160zM160 618l30 160h160l-31 -160h-159z" />
<glyph unicode=";" horiz-adv-x="524" d="M41 -166q41 23 78 65t49 101h-78l31 160h160l-31 -160q-8 -45 -30.5 -80t-50.5 -60.5t-57.5 -41t-50.5 -21.5zM209 618l33 160h159l-32 -160h-160z" />
<glyph unicode="&#x3c;" horiz-adv-x="1009" d="M123 614l719 570l86 -103l-594 -473l397 -481l-123 -98z" />
<glyph unicode="=" horiz-adv-x="1265" d="M123 348h895l24 127h-895zM203 768l24 125h895l-24 -125h-895z" />
<glyph unicode="&#x3e;" horiz-adv-x="1009" d="M82 147l594 474l-397 481l122 98l486 -586l-717 -569z" />
<glyph unicode="?" horiz-adv-x="858" d="M123 0h160l30 160h-159zM147 1219l48 141q23 8 87 24.5t154 16.5q94 0 166 -29t120 -73t71.5 -99t23.5 -108q0 -59 -16.5 -105.5t-42 -83.5t-56 -65.5t-59.5 -53.5q-16 -14 -34.5 -30.5t-30.5 -26.5q-29 -25 -64 -56.5t-66.5 -67.5t-56 -76t-33.5 -83q-2 -4 -2 -9t-2 -13 t-4 -19h-157q2 6 4 15q2 6 2 13t2 13q14 74 42.5 132.5t62.5 102.5t68 75.5t58 52.5q35 31 74 60.5t70.5 63.5t53 70.5t21.5 81.5q0 70 -67.5 125.5t-216.5 55.5q-35 0 -71 -6.5t-66.5 -13.5t-52 -15t-30.5 -10z" />
<glyph unicode="@" horiz-adv-x="1724" d="M123 612q0 168 67.5 311.5t187.5 250t284.5 167t359.5 60.5q162 0 281.5 -49t199.5 -126t120 -170t40 -182v-4q0 -123 -47 -217t-119 -159.5t-158 -99.5t-165 -34q-61 0 -101.5 13.5t-64 35t-32.5 47t-9 50.5h-9q-12 -16 -32.5 -41t-51 -47.5t-71.5 -39t-94 -16.5 q-92 0 -150.5 65t-58.5 169q0 94 41 182t111.5 155.5t162.5 108.5t195 41q111 0 173 -17t77 -24q-39 -102 -72 -188q-14 -37 -27.5 -74t-26 -68.5t-21.5 -55t-13 -33.5q-6 -18 -19.5 -51t-13.5 -58q0 -37 28.5 -58.5t69.5 -21.5q63 0 129 33t117 94.5t84 147.5t33 190 q0 84 -33 163t-97.5 139.5t-159.5 96t-222 35.5q-154 0 -290 -53t-239.5 -150.5t-163 -231.5t-59.5 -294q0 -111 37 -211t106.5 -176t171 -121t232.5 -45q113 0 174.5 19.5t89.5 29.5l-18 -96q-10 -4 -78 -14t-195 -10q-145 0 -266 49t-209 134t-137 200.5t-49 248.5z M647 596q0 -59 31 -96t90 -37q39 0 71.5 20.5t61.5 54t51.5 76.5t40.5 91q10 25 26.5 68.5t33.5 86.5q20 51 43 107q-8 4 -38 10t-73 6q-63 0 -123.5 -31.5t-108.5 -85t-77 -123t-29 -147.5z" />
<glyph unicode="A" horiz-adv-x="1200" d="M-102 0l786 1380h166l248 -1380h-170l-56 338h-614l-186 -338h-174zM328 465h524l-121 729h-8z" />
<glyph unicode="B" horiz-adv-x="1257" d="M123 0l268 1380h350q115 0 194 -29.5t128 -76.5t70.5 -104.5t21.5 -112.5q0 -96 -40 -159.5t-92 -102.5t-102.5 -57.5t-70.5 -22.5l-2 -8q10 -2 45 -19.5t73 -51.5t67.5 -87t29.5 -129q0 -90 -38 -167t-111.5 -133.5t-180 -88t-241.5 -31.5h-369zM303 129q12 -2 33.5 -4 t47.5 -3t52.5 -1h46.5q78 0 153 23.5t132 64.5t92 99.5t35 125.5q0 45 -17.5 85t-54.5 69.5t-96 47t-141 17.5h-180zM430 776h180q70 0 138.5 19.5t121 55.5t85 87t32.5 115q0 86 -68.5 145t-216.5 59q-63 0 -118.5 -2t-61.5 -2z" />
<glyph unicode="C" horiz-adv-x="1179" d="M123 594q0 188 61.5 337.5t168 254t249.5 160t307 55.5q55 0 112.5 -7.5t106 -16.5t84 -19t50.5 -17l-62 -145q-33 16 -112.5 42t-194.5 26q-102 0 -207.5 -39t-194 -121t-143.5 -206t-55 -296q0 -98 30.5 -186t89 -154.5t142.5 -105.5t190 -39q51 0 96.5 9t81 21.5 t58.5 22.5t27 12v-143q-4 -2 -25.5 -11.5t-59.5 -20.5t-88.5 -19t-109.5 -8q-139 0 -251 50t-189.5 134t-119.5 195.5t-42 234.5z" />
<glyph unicode="D" horiz-adv-x="1507" d="M123 0l268 1380h318q176 0 304 -46t211 -127t121.5 -190.5t38.5 -236.5q0 -131 -46 -269t-149.5 -252t-268 -186.5t-404.5 -72.5h-393zM305 141q4 0 24.5 -3t50.5 -5t65.5 -4t70.5 -2q176 0 308 56.5t219 147.5t131.5 206.5t44.5 236.5q0 100 -32 188.5t-97.5 154 t-166 102t-239.5 36.5q-18 0 -43 -1t-49.5 -3t-44 -3t-27.5 -3z" />
<glyph unicode="E" horiz-adv-x="1085" d="M123 0l268 1380h694l-26 -127h-537l-92 -477h510l-25 -127h-509l-101 -518h541l-25 -131h-698z" />
<glyph unicode="F" horiz-adv-x="1040" d="M123 0l268 1380h690l-26 -127h-533l-92 -477h504l-25 -127h-503l-125 -649h-158z" />
<glyph unicode="G" horiz-adv-x="1501" d="M123 610q0 180 61.5 325.5t170 249t260 160t331.5 56.5q104 0 180 -9.5t128.5 -22.5t82 -25.5t41.5 -18.5l-65 -137q-8 4 -38 16.5t-78 25.5t-113.5 23.5t-141.5 10.5q-145 0 -265 -45t-206 -129t-134 -204t-48 -270q0 -98 31.5 -188t95 -158.5t155 -110.5t211.5 -42 q78 0 142.5 18.5t83.5 26.5l94 487h-271l25 127h428l-141 -725q-10 -4 -45 -15t-86 -23.5t-113.5 -22.5t-126.5 -10q-160 0 -281.5 52t-203.5 139t-123 200.5t-41 238.5z" />
<glyph unicode="H" horiz-adv-x="1576" d="M123 0l268 1380h158l-119 -604h748l118 604h158l-268 -1380h-158l125 649h-747l-125 -649h-158z" />
<glyph unicode="I" horiz-adv-x="669" d="M123 0l268 1380h156l-268 -1380h-156z" />
<glyph unicode="J" horiz-adv-x="731" d="M-123 2l27 135q10 -4 41.5 -12t79.5 -8q94 0 157.5 48t83.5 152q2 8 11.5 58.5t24.5 127.5t33.5 171t37.5 192q45 229 100 514h156q-49 -250 -90 -462q-18 -90 -36 -181.5t-33 -170.5t-26.5 -139t-17.5 -89q-35 -174 -126 -266t-259 -92q-66 0 -106.5 8t-57.5 14z" />
<glyph unicode="K" horiz-adv-x="1161" d="M123 0l268 1380h158l-127 -657l620 657h201l-647 -678l473 -702h-203l-450 694l-135 -694h-158z" />
<glyph unicode="L" horiz-adv-x="897" d="M123 0l268 1380h156l-244 -1253h512l-24 -127h-668z" />
<glyph unicode="M" horiz-adv-x="1888" d="M20 0l461 1380h199l170 -1165l625 1165h208l-61 -1380h-164l66 1176h-8l-621 -1176h-172l-160 1176h-8l-373 -1176h-162z" />
<glyph unicode="N" horiz-adv-x="1595" d="M123 0l268 1380h205l489 -1155h11l223 1155h154l-269 -1380h-190l-502 1184h-8l-230 -1184h-151z" />
<glyph unicode="O" horiz-adv-x="1536" d="M123 557q0 193 59.5 349.5t158.5 267t229.5 170t271.5 59.5q156 0 265.5 -52.5t177 -135t98 -185t30.5 -205.5q0 -195 -59.5 -351.5t-159.5 -266t-231.5 -168.5t-274.5 -59q-133 0 -237.5 43t-177 119.5t-111.5 182t-39 232.5zM287 555q0 -98 29.5 -179t84 -138.5 t128 -89t161.5 -31.5q125 0 227.5 55t176 151.5t114.5 224.5t41 275q0 100 -30.5 182t-85 140.5t-129 89.5t-162.5 31q-117 0 -217.5 -52.5t-176 -145.5t-118.5 -224t-43 -289z" />
<glyph unicode="P" horiz-adv-x="1185" d="M123 0l268 1380h283q137 0 227 -33.5t144.5 -89t77 -126t22.5 -142.5q0 -117 -46 -207t-127 -151.5t-191.5 -93t-237.5 -31.5q-16 0 -41 1t-49.5 2t-45 3t-26.5 2l-100 -514h-158zM401 627q14 -4 51 -5t78 -1q100 0 184.5 26.5t145 75.5t93 117.5t32.5 154.5 q0 57 -22.5 106.5t-66.5 86.5t-108.5 57.5t-146.5 20.5q-29 0 -69 -2t-48 -2z" />
<glyph unicode="Q" horiz-adv-x="1533" d="M123 555q0 193 59.5 349.5t158.5 266t229 169t272 59.5q156 0 264 -52.5t176 -134.5t98.5 -185.5t30.5 -203.5q0 -176 -49 -320.5t-132 -252t-194.5 -175t-236.5 -87.5l22 -224h-153l-23 216q-123 6 -220 52t-163.5 121.5t-102.5 178t-36 223.5zM287 553q0 -90 24.5 -165 t70.5 -132t108.5 -92t140.5 -45l-25 237h156l22 -233q104 20 189.5 82.5t147 155t94 210t32.5 250.5q0 100 -30.5 182t-84 139.5t-128 88.5t-162.5 31q-117 0 -217.5 -51.5t-176 -144.5t-118.5 -224t-43 -289z" />
<glyph unicode="R" horiz-adv-x="1232" d="M123 0l268 1380h318q125 0 217 -28.5t150.5 -77.5t87 -114.5t28.5 -139.5q0 -86 -24.5 -149.5t-62.5 -109.5t-84 -76t-88 -48.5t-75 -26.5t-43 -10l217 -600h-164l-202 573h-273l-112 -573h-158zM418 696q6 0 27.5 -1t49 -2t56.5 -2t49 -1q92 0 170 23.5t136.5 66.5 t91 102.5t32.5 133.5q0 117 -87 181.5t-261 64.5q-12 0 -36.5 -1t-50.5 -2.5t-45.5 -2.5t-23.5 -1z" />
<glyph unicode="S" horiz-adv-x="1054" d="M41 16l29 150q25 -12 94 -30.5t174 -18.5q82 0 154.5 19.5t127 54t85 84t30.5 108.5q0 90 -55 145.5t-133 98.5l-117 63q-96 51 -158.5 126t-62.5 198q0 86 36 157.5t104.5 123t166.5 79t223 27.5q106 0 178 -12.5t97 -20.5l-29 -143q-16 6 -91 22.5t-187 16.5 q-68 0 -129.5 -15.5t-107.5 -46.5t-72.5 -76t-26.5 -104q0 -80 48 -130t107 -83l111 -59q125 -66 193.5 -147t68.5 -195q0 -104 -43 -184.5t-118.5 -134.5t-180 -81.5t-229.5 -27.5q-98 0 -173 11t-114 25z" />
<glyph unicode="T" horiz-adv-x="1011" d="M123 1255l24 125h988l-25 -125h-416l-243 -1255h-156l244 1255h-416z" />
<glyph unicode="U" horiz-adv-x="1507" d="M184 420q0 90 12.5 159.5t22.5 116.5l133 684h158l-137 -708q-4 -14 -10.5 -41t-12.5 -60.5t-10 -73.5t-4 -79q0 -135 87 -218t234 -83q98 0 170 31.5t124.5 88t85 134.5t50.5 172l162 837h156l-162 -837q-25 -121 -69 -224.5t-114.5 -178t-172 -117.5t-240.5 -43 q-113 0 -200 33.5t-145 93t-88 139.5t-30 174z" />
<glyph unicode="V" horiz-adv-x="1216" d="M143 1380h168l191 -1169h8l655 1169h174l-786 -1380h-174z" />
<glyph unicode="W" horiz-adv-x="1878" d="M164 1380h160l75 -1175h9l548 1175h201l105 -1175h8l524 1175h166l-631 -1380h-201l-100 1190h-8l-559 -1190h-195z" />
<glyph unicode="X" horiz-adv-x="1144" d="M-123 0l596 715l-291 665h183l221 -540h8l446 540h187l-561 -657l331 -723h-194l-254 590h-8l-475 -590h-189z" />
<glyph unicode="Y" horiz-adv-x="1028" d="M123 1380h162l209 -700h8l475 700h174l-610 -872l-99 -508h-157l98 508z" />
<glyph unicode="Z" horiz-adv-x="1097" d="M-41 0l25 135l938 1120h-703l25 125h895l-27 -133l-934 -1116h725l-24 -131h-920z" />
<glyph unicode="[" horiz-adv-x="686" d="M0 -473l362 1853h447l-27 -127h-293l-311 -1599h293l-25 -127h-446z" />
<glyph unicode="\" horiz-adv-x="667" d="M123 1380h151l271 -1380h-158z" />
<glyph unicode="]" horiz-adv-x="724" d="M-205 -473l25 127h293l313 1599h-297l27 127h446l-362 -1853h-445z" />
<glyph unicode="^" horiz-adv-x="1282" d="M229 799l457 581h143l224 -581h-138l-172 483l-362 -483h-152z" />
<glyph unicode="_" horiz-adv-x="1046" d="M-10 -473l20 111h1047l-21 -111h-1046z" />
<glyph unicode="`" horiz-adv-x="466" d="M334 1380h172l170 -305h-101z" />
<glyph unicode="a" d="M102 375q0 139 50.5 260t141.5 209t218 138t281 50q49 0 97 -5t86 -12t64.5 -13.5t36.5 -8.5q-33 -172 -61 -315q-12 -61 -24.5 -121.5t-23 -111t-17.5 -87.5t-9 -49q-16 -94 -28.5 -182t-16.5 -127h-121q-18 0 -23 10t-5 21q0 8 2 24.5t6 32.5q4 20 10 43h-8 q-4 -4 -22.5 -27.5t-55.5 -51t-90 -50t-123 -22.5q-84 0 -151.5 29.5t-114.5 81.5t-73 125t-26 159zM262 389q0 -55 16.5 -105.5t47 -87t77 -58t105.5 -21.5q121 0 205 110.5t127 327.5q4 23 14 74t20 104q12 63 27 137q-14 4 -55 15.5t-98 11.5q-96 0 -183.5 -37 t-155 -103.5t-107.5 -159.5t-40 -208z" />
<glyph unicode="b" horiz-adv-x="1157" d="M82 18l283 1450h151l-110 -561h8q4 6 24.5 26.5t54 42t82 39t109.5 17.5q86 0 155.5 -33.5t117 -89t73 -126t25.5 -144.5q0 -150 -50.5 -271.5t-139.5 -207.5t-212 -133t-270 -47q-47 0 -93 4t-87 10t-73 13t-48 11zM256 135q10 -4 47 -11t107 -7q86 0 172 33.5t154.5 99 t112.5 162t44 221.5q0 51 -14.5 99t-43 85t-70.5 58.5t-95 21.5q-123 0 -215.5 -105.5t-137.5 -336.5z" />
<glyph unicode="c" horiz-adv-x="948" d="M102 457q0 141 49.5 248.5t131.5 180t188 109.5t219 37q117 0 186.5 -24.5t92.5 -34.5q-2 -10 -5 -25.5t-6.5 -32t-6.5 -31t-5 -22.5q-2 -6 -7 -16t-19 -10q-12 0 -31 9t-46.5 21.5t-66.5 21.5t-94 9q-92 0 -169 -39t-132 -101.5t-86 -141t-31 -158.5q0 -70 19.5 -132.5 t59.5 -108.5t97.5 -72.5t134.5 -26.5q43 0 76 8t58.5 18.5t45 18.5t33.5 8q18 0 19 -18q0 -8 -2 -23.5t-5 -34t-7.5 -37t-6.5 -30.5q-20 -10 -84.5 -28.5t-169.5 -18.5q-98 0 -178 37.5t-135 103t-86 152.5t-31 184z" />
<glyph unicode="d" horiz-adv-x="1126" d="M102 391q0 139 49.5 257t135.5 203t201.5 133t248.5 48q66 0 122.5 -11t66.5 -15l90 462h151q-57 -305 -106 -553q-20 -104 -41 -207.5t-37 -187.5t-27.5 -141t-13.5 -70q-8 -39 -15 -81t-13.5 -83t-11.5 -78.5t-7 -66.5h-125q-25 0 -25 25q0 20 11 61q4 23 10 45h-8 q-4 -4 -22.5 -27.5t-54.5 -51t-86 -50t-114 -22.5q-90 0 -160.5 31.5t-118.5 87t-74 131t-26 161.5zM262 403q0 -53 15.5 -104t46 -91t78 -65.5t110.5 -25.5q113 0 199 110.5t129 327.5q4 23 14 74t20 104q12 63 27 137q-16 4 -63.5 15.5t-110.5 11.5q-86 0 -170 -34 t-149.5 -98.5t-105.5 -155.5t-40 -206z" />
<glyph unicode="e" horiz-adv-x="1112" d="M102 473q0 109 34 210t99.5 179t158.5 124t214 46q119 0 200 -34.5t130 -90t70.5 -123t21.5 -133.5q0 -31 -4 -63.5t-8 -61t-9 -49t-8 -26.5h-739q0 -59 21.5 -119t65.5 -107t109.5 -77.5t153.5 -30.5q61 0 102.5 10t70 22.5t47 22.5t30.5 10q14 0 15 -16 q0 -10 -2.5 -27.5t-5.5 -38t-7 -41t-6 -32.5q-20 -8 -97 -27.5t-173 -19.5q-129 0 -220.5 43t-149.5 112.5t-86 157.5t-28 180zM272 573h596q4 10 7.5 33t3.5 51q0 39 -16.5 82t-49.5 78t-83 57.5t-116 22.5q-88 0 -149.5 -33t-102 -82t-62.5 -105.5t-28 -103.5z" />
<glyph unicode="f" horiz-adv-x="602" d="M82 883l24 129h177q4 29 10 53q4 23 8 41t6 29q35 190 150.5 281t287.5 91q61 0 104.5 -8t59.5 -14q-2 -10 -5 -24.5t-7 -30.5q-4 -18 -8 -37q-8 -27 -31 -27q-14 0 -43 7t-80 7q-66 0 -114 -20.5t-80.5 -56t-53 -81.5t-30.5 -98q-2 -10 -5 -28.5t-8 -36.5 q-6 -23 -10 -47h279l-25 -129h-278q-25 -127 -54.5 -279.5t-56.5 -288.5q-31 -158 -61 -315h-152q31 156 61 313q12 68 26.5 140.5t29 146.5t29 145.5t26.5 137.5h-176z" />
<glyph unicode="g" horiz-adv-x="1146" d="M41 -459q2 18 4 35q4 33 10 55q6 39 39 39q16 0 36 -6t47.5 -13t66.5 -13.5t92 -6.5q156 0 258 73t137 245q8 35 13.5 64.5t9.5 49.5q4 23 8 41h-8q-4 -6 -25.5 -26.5t-58.5 -42t-88.5 -38.5t-116.5 -17q-88 0 -154.5 29.5t-110.5 81.5t-65.5 122t-21.5 147q0 150 49 273 t138 212t213 138t271 49q111 0 195 -16.5t106 -22.5q-45 -219 -81 -418q-16 -84 -34 -173t-34 -172t-29.5 -155.5t-23.5 -123.5q-25 -129 -77 -217t-128 -140.5t-172 -75t-207 -22.5q-106 0 -173 18.5t-85 26.5zM274 379q0 -53 13.5 -100.5t41 -84t69.5 -58t100 -21.5 q123 0 215 105.5t137 336.5l61 320q-10 4 -50 12t-101 8q-86 0 -172 -35t-156 -100.5t-114 -161.5t-44 -221z" />
<glyph unicode="h" horiz-adv-x="1157" d="M82 0l287 1468h151l-114 -585h8q14 23 38.5 48t61.5 47.5t86 38t115 15.5q76 0 139.5 -24.5t107.5 -65.5t68.5 -95t24.5 -114q0 -25 -3 -53.5t-8.5 -56t-9.5 -51t-6 -33.5q-12 -66 -30.5 -157t-34.5 -177q-20 -98 -39 -205h-152q25 133 47 246q8 47 18.5 94t17.5 87 t13 69.5t9 42.5q4 20 12 71.5t8 94.5q0 76 -53 134t-158 58q-66 0 -123 -28.5t-103 -81t-79 -126t-49 -161.5q-10 -61 -26.5 -147.5t-33.5 -164.5q-18 -92 -39 -188h-151z" />
<glyph unicode="i" horiz-adv-x="475" d="M82 0l197 1012h153l-196 -1012h-154zM326 1276l30 160h160l-31 -160h-159z" />
<glyph unicode="j" horiz-adv-x="501" d="M-307 -483q4 14 7 30.5t7 30.5q4 16 10 33q8 29 29 29q12 0 35.5 -8.5t64.5 -8.5q88 0 147 43t75 131q6 33 19 103.5t31.5 163t39 199t41.5 210.5q49 248 104 539h152q-51 -258 -95 -486q-18 -96 -37.5 -196.5t-37 -190.5t-32.5 -165.5t-24 -123.5q-37 -188 -125 -272 t-251 -84q-55 0 -99.5 8.5t-60.5 14.5zM352 1276l31 160h160l-31 -160h-160z" />
<glyph unicode="k" horiz-adv-x="921" d="M82 0l287 1468h151l-176 -905l475 449h185l-504 -473l368 -539h-172l-358 532l-105 -532h-151z" />
<glyph unicode="l" horiz-adv-x="477" d="M82 0l285 1468h151l-285 -1468h-151z" />
<glyph unicode="m" horiz-adv-x="1792" d="M102 0q33 166 60 309q12 61 23.5 123t22.5 115t19.5 95t12.5 65q8 43 15 88t13 86t10.5 74.5t6.5 56.5h116q18 0 24.5 -4t6.5 -15q-2 -23 -6 -43q-4 -16 -6 -35.5t-6 -31.5h8q8 12 26.5 36.5t52.5 49t84 44t122 19.5q80 0 132 -24.5t83.5 -57t47 -65.5t21.5 -47 q6 10 28.5 41.5t64.5 65.5t104.5 60.5t148.5 26.5q84 0 149.5 -27.5t110.5 -72.5t69 -103.5t24 -121.5q0 -23 -3.5 -44.5t-7.5 -44.5q-4 -18 -11 -55t-15 -84t-18.5 -100t-20.5 -107q-23 -125 -53 -272h-152q25 125 47 236q8 47 17.5 94t17.5 90t14 76.5t11 54.5q6 35 11 75 t5 74q0 82 -52.5 139.5t-152.5 57.5q-117 0 -198.5 -91t-116.5 -271q-10 -49 -27.5 -138.5t-34.5 -177.5q-20 -102 -43 -219h-151q27 137 49 252q8 49 18.5 98t17.5 91t13 75t10 49q6 35 10.5 67t4.5 70q0 78 -49.5 136.5t-153.5 58.5q-111 0 -197 -89t-121 -273 q-4 -14 -9 -44t-13 -70t-17.5 -87t-17.5 -94q-23 -111 -47 -240h-152z" />
<glyph unicode="n" horiz-adv-x="1177" d="M102 0q33 178 62 324q12 61 24.5 123.5t21.5 114.5t16 89t12 51q16 78 29.5 164t21.5 146h129q23 0 22 -19q0 -6 -4 -25.5t-8 -41.5q-6 -25 -10 -54h8q14 23 38.5 50.5t61.5 52t89.5 41t119.5 16.5q76 0 139.5 -24.5t107.5 -65.5t68.5 -95t24.5 -114q0 -25 -3 -53.5 t-8 -56t-9 -51t-6 -33.5q-14 -66 -32 -157t-34 -177q-20 -98 -39 -205h-151q25 133 47 246q8 47 18 94t17.5 87t13.5 69.5t8 42.5q4 20 12.5 71.5t8.5 94.5q0 76 -53.5 134t-157.5 58q-129 0 -224.5 -103.5t-132.5 -293.5q-12 -59 -27.5 -145.5t-31.5 -164.5 q-18 -92 -37 -190h-152z" />
<glyph unicode="o" horiz-adv-x="1218" d="M102 446q0 123 38 229.5t111 185.5t175 125t231 46q119 0 206 -41t143.5 -107.5t83 -150.5t26.5 -168q0 -125 -40 -231.5t-111.5 -185t-174 -123.5t-227.5 -45t-212 41.5t-142 109.5t-81 150.5t-26 164.5zM262 440q0 -55 17.5 -112.5t54.5 -104.5t96 -77.5t145 -30.5 q90 0 161 39t120 102t74.5 144t25.5 165q0 57 -17 116.5t-56 107t-98.5 78t-145.5 30.5t-155.5 -37t-119 -99.5t-76 -145.5t-26.5 -175z" />
<glyph unicode="p" horiz-adv-x="1173" d="M0 -473q59 311 109 561q20 106 40.5 210.5t37 189.5t27.5 142.5t15 71.5q8 39 15.5 81t13.5 83t11 79t10 67h131q23 0 22 -17q0 -10 -3 -29.5t-7 -39.5q-6 -23 -10 -52h8q8 14 30.5 40t57.5 52.5t83 46t109 19.5q94 0 165 -33.5t116 -89t67.5 -127t22.5 -147.5 q0 -152 -48 -272.5t-131 -205.5t-195.5 -131t-239.5 -46q-33 0 -68 3t-64.5 8t-51 9t-27.5 6l-94 -479h-152zM272 141q14 -4 64.5 -15t116.5 -11q88 0 171 37.5t146.5 105.5t101 160t37.5 203q0 51 -14 101t-43 89t-73 62.5t-101 23.5q-115 0 -210 -111.5t-134 -328.5 q-4 -23 -14.5 -74t-20.5 -104q-12 -63 -27 -138z" />
<glyph unicode="q" horiz-adv-x="1136" d="M102 373q0 145 51.5 267t142.5 209t216 135t272 48q45 0 91.5 -4t85 -10t68.5 -13.5l46 -11.5l-284 -1466h-152l113 577h-9q-10 -12 -34.5 -33.5t-61.5 -41t-84 -34.5t-102 -15q-90 0 -157.5 34.5t-112 91t-67 126t-22.5 141.5zM264 381q0 -47 12.5 -94t40 -86 t69.5 -62.5t103 -23.5q123 0 215.5 109.5t135.5 332.5l61 317q-8 4 -52 13.5t-126 9.5q-80 0 -161 -34t-147.5 -100.5t-108.5 -162.5t-42 -219z" />
<glyph unicode="r" horiz-adv-x="780" d="M102 0q35 178 64 328q12 63 24.5 126.5t22.5 119t18.5 95.5t12.5 58q16 78 27.5 158t15.5 127h116q16 0 19.5 -6.5t3.5 -14.5q0 -6 -2 -23.5t-5 -37t-6 -36.5t-5 -26h8q12 14 34.5 42t60.5 55.5t94.5 47t133.5 19.5q53 0 96.5 -10t47.5 -12q-4 -29 -12.5 -58.5 t-12.5 -52.5q-6 -20 -20 -20q-23 0 -53.5 9t-88.5 9q-129 0 -218 -101.5t-126 -293.5q-4 -16 -9 -47t-13 -70t-16.5 -82t-16.5 -86q-20 -100 -43 -217h-152z" />
<glyph unicode="s" horiz-adv-x="751" d="M-20 8q4 16 11 50t15 59q10 29 31 28q27 0 75 -14t146 -14q113 0 181.5 48t68.5 116q0 92 -139 157l-64 29q-37 18 -72.5 40.5t-64.5 53.5t-47.5 72t-18.5 94q0 78 34 135.5t89.5 95t127 56t145.5 18.5q119 0 181 -13t73 -18q-4 -16 -11.5 -48.5t-13.5 -51.5 q-6 -25 -14 -34t-19 -9q-16 0 -69.5 19.5t-147.5 19.5q-90 0 -152.5 -41t-62.5 -115q0 -43 28.5 -75.5t102.5 -67.5l88 -43q80 -37 132.5 -99.5t52.5 -146.5q0 -82 -37 -143.5t-96.5 -103.5t-137.5 -62t-159 -20q-98 0 -172 12t-84 16z" />
<glyph unicode="t" horiz-adv-x="710" d="M102 883l25 129h186l45 223h152l-45 -223h307l-24 -129h-308q-27 -133 -47 -240q-10 -45 -18 -89t-14.5 -80t-11.5 -59.5t-5 -27.5q-4 -20 -13 -64t-9 -81q0 -70 45 -98.5t100 -28.5q45 0 74.5 9t46.5 9q18 0 18 -18q0 -8 -2 -23.5t-5 -33t-5 -34t-4 -22.5 q-18 -6 -57.5 -14t-92.5 -8q-133 0 -202.5 67.5t-69.5 171.5q0 35 8 79t12 69q2 8 7.5 34.5t12.5 64.5t15 83t19 92q23 109 47 242h-187z" />
<glyph unicode="u" horiz-adv-x="1157" d="M123 279q0 25 3 53t8 56t9 51.5t7 33.5q12 66 29.5 157t33.5 177l41 205h152q-25 -133 -48 -246q-10 -47 -19 -95l-16.5 -88t-13.5 -69t-8 -41q-4 -20 -12 -71.5t-8 -94.5q0 -74 50 -133t161 -59q129 0 224 103.5t132 293.5q10 59 26.5 145t32.5 164q18 92 37 191h152 q-35 -178 -64 -324q-12 -61 -24.5 -123.5t-22.5 -115t-17 -89t-10 -51.5q-16 -78 -28 -164t-21 -145h-129q-23 0 -22 18q0 8 3 29t7 41q6 23 12 51h-8q-14 -23 -38.5 -50.5t-62.5 -52t-89.5 -40.5t-118.5 -16q-86 0 -149.5 24.5t-105.5 65.5t-63.5 95t-21.5 114z" />
<glyph unicode="v" horiz-adv-x="925" d="M82 1012h168l149 -805h9l454 805h166l-577 -1012h-160z" />
<glyph unicode="w" horiz-adv-x="1511" d="M123 1012h153l64 -797h8l406 797h155l109 -797h8l383 797h164l-498 -1012h-182l-100 762h-9l-395 -762h-186z" />
<glyph unicode="x" horiz-adv-x="899" d="M-102 0l489 524l-240 488h172l170 -365h9l305 365h178l-416 -482l260 -530h-170l-196 412h-8l-367 -412h-186z" />
<glyph unicode="y" horiz-adv-x="980" d="M-246 -481q2 10 6 26q6 25 25 82q6 25 25 25q12 0 43.5 -7t80.5 -7q82 0 153 48t134 162q16 27 30.5 55.5t29.5 51.5q14 27 30 53l-202 1004h170l143 -799h10l442 799h168q-133 -233 -249 -443q-49 -90 -101.5 -181t-99.5 -176t-86 -155.5t-66 -117.5q-49 -90 -97 -171 t-106.5 -141.5t-135 -96.5t-187.5 -36q-59 0 -103 10.5t-57 14.5z" />
<glyph unicode="z" horiz-adv-x="845" d="M-41 0l27 139l688 746h-514l24 127h703l-27 -135l-688 -746h551l-25 -131h-739z" />
<glyph unicode="{" horiz-adv-x="698" d="M0 410l25 127q117 14 177 78.5t79 160.5l45 234q39 201 136 285.5t238 84.5h80l-24 -127q-125 0 -188.5 -58t-84.5 -165l-49 -258q-6 -35 -23.5 -81t-48 -90t-78.5 -82t-118 -58l-2 -8q47 -16 77.5 -42t49 -57.5t26 -67.5t7.5 -69q0 -20 -4.5 -38.5t-8.5 -35.5l-45 -229 q-4 -16 -8 -46t-4 -54q0 -78 52 -119t140 -41l-24 -127h-51q-51 0 -100.5 15.5t-87.5 47t-61.5 81.5t-23.5 122q0 41 7.5 82t13.5 70l45 227q6 33 6 64q0 72 -39 117.5t-131 56.5z" />
<glyph unicode="|" horiz-adv-x="677" d="M41 -473l362 1853h152l-362 -1853h-152z" />
<glyph unicode="}" horiz-adv-x="733" d="M-164 -473l25 127q127 0 191.5 57.5t84.5 163.5q10 55 17.5 94t13.5 69t10 53.5t10 47.5q6 35 23.5 81t48.5 90t78 82t117 59l2 8q-47 14 -77 40.5t-47.5 58.5t-23.5 66.5t-6 67.5q0 20 2 40t6 36l43 223q4 16 7.5 45t3.5 56q0 78 -51.5 119.5t-137.5 41.5l25 127h51 q49 0 98 -15t87 -47t61.5 -83t23.5 -123q0 -39 -7 -81t-13 -70q-2 -10 -7.5 -36t-11.5 -57.5t-13 -65.5t-11 -61q-6 -35 -6 -65q0 -70 37.5 -116t130.5 -56l-25 -127q-117 -14 -177.5 -79t-78.5 -161l-47 -239q-37 -201 -136.5 -286t-238.5 -85h-82z" />
<glyph unicode="~" horiz-adv-x="1273" d="M164 520q16 12 45 28.5t67.5 32t84 26.5t96.5 11q74 0 128 -19t101 -41.5t96 -42t111 -19.5q37 0 71.5 9t63.5 21.5t50.5 24.5t31.5 18l41 -106q-16 -10 -45 -25.5t-67 -32t-83 -27.5t-96 -11q-72 0 -127 19.5t-104 42t-97.5 41.5t-105.5 19q-39 0 -75 -9t-64.5 -21.5 t-50 -24.5t-31.5 -18z" />
<glyph unicode="&#xa1;" horiz-adv-x="530" d="M0 -438l211 977h119l-168 -977h-162zM236 778l32 160h160l-33 -160h-159z" />
<glyph unicode="&#xa2;" horiz-adv-x="1280" d="M207 455q0 133 44 236.5t117.5 176t170 113.5t200.5 49l41 211h152l-41 -215q74 -10 120 -26.5t62 -26.5q-4 -20 -11 -56t-11 -53q-2 -6 -7.5 -17t-19.5 -11q-6 0 -14.5 4t-14.5 6q-14 8 -67.5 29.5t-141.5 21.5q-92 0 -168.5 -39t-132 -101.5t-86 -141t-30.5 -158.5 q0 -70 20.5 -132.5t59 -108.5t97 -72.5t134.5 -26.5q43 0 75.5 8t58.5 18.5t45.5 18.5t33.5 8q18 0 18 -20q0 -16 -7 -56.5t-13 -66.5q-16 -8 -68.5 -24.5t-138.5 -20.5l-39 -213h-151l41 223q-76 18 -136.5 61t-103.5 104.5t-65.5 137.5t-22.5 160z" />
<glyph unicode="&#xa3;" horiz-adv-x="1124" d="M82 0l27 139q127 66 202.5 193t73.5 301h-176l24 127h152q0 6 -2 24.5t-4 42t-4 49t-2 46.5q0 129 38 220t105.5 148.5t158.5 84t195 26.5q86 0 144.5 -12.5t68.5 -16.5l-41 -135q-10 4 -52 15.5t-120 11.5q-162 0 -243.5 -89.5t-81.5 -244.5q0 -59 5 -106.5t7 -63.5h334 l-25 -127h-311q-6 -98 -33.5 -177t-64.5 -140.5t-79 -107.5t-79 -81h594l-25 -127h-786z" />
<glyph unicode="&#xa4;" horiz-adv-x="1280" d="M92 270l164 131q-43 86 -43 174q0 90 31.5 172t91.5 148l-94 125l123 102l96 -133q102 51 223 51q86 0 150.5 -24.5t111.5 -65.5l158 129l82 -102l-160 -127q47 -88 47 -176q0 -92 -33.5 -176t-95.5 -150l94 -123l-120 -100l-101 129q-94 -47 -213 -47q-90 0 -155.5 25.5 t-112.5 66.5l-160 -129zM348 573q0 -43 14.5 -89t45 -84t81 -62.5t121.5 -24.5q74 0 134.5 30t103.5 80t66.5 114.5t23.5 134.5q0 45 -14.5 92t-46 85t-83 61.5t-122.5 23.5q-70 0 -129.5 -28.5t-102.5 -78t-67.5 -115t-24.5 -139.5z" />
<glyph unicode="&#xa5;" horiz-adv-x="1280" d="M143 250l25 127h281l26 129h-280l24 127h217l-223 747h164l203 -700l489 700h174l-524 -747h246l-25 -127h-307l-27 -129h307l-24 -127h-307l-47 -250h-158l47 250h-281z" />
<glyph unicode="&#xa6;" horiz-adv-x="677" d="M41 -473l156 805h151l-155 -805h-152zM246 578l157 802h152l-158 -802h-151z" />
<glyph unicode="&#xa7;" horiz-adv-x="1081" d="M0 -455l51 144q16 -8 76.5 -29.5t169.5 -21.5q66 0 114 16t78.5 43t45 60.5t14.5 70.5q0 33 -15.5 63.5t-36 58t-41 48t-32.5 31.5q-16 16 -47 43.5t-51 48.5q-29 27 -62 60.5t-59.5 73.5t-44 89t-17.5 111q0 80 30 142t73 109.5t88 79t76 50.5q-33 39 -57.5 92 t-24.5 125q0 76 27.5 139t82 109.5t133 73t183.5 26.5q117 0 189.5 -17.5t96.5 -27.5l-49 -144q-16 8 -76.5 30t-169.5 22q-66 0 -113.5 -16.5t-78.5 -43t-46 -60.5t-15 -71q0 -31 15 -61.5t35.5 -57t42 -48t33.5 -34.5q18 -16 47 -43.5t52 -48.5l61.5 -61.5t59 -72.5 t44 -90t17.5 -112q0 -80 -29.5 -141t-72.5 -107t-89 -78t-77 -52q35 -41 58.5 -94.5t23.5 -125.5q0 -74 -28 -137t-82 -109t-133 -73t-181 -27q-117 0 -190.5 17.5t-98.5 27.5zM307 487q0 -113 117 -221q18 -20 41 -41q16 -16 36.5 -35.5t37.5 -33.5q29 18 62.5 44.5 t63 59.5t50 72t20.5 82q0 110 -117 221q-20 18 -43 39q-18 16 -37.5 34.5t-35.5 34.5q-29 -18 -62.5 -43.5t-63.5 -58.5t-49.5 -72t-19.5 -82z" />
<glyph unicode="&#xa8;" horiz-adv-x="735" d="M82 1221l31 159h159l-30 -159h-160zM461 1221l31 159h161l-32 -159h-160z" />
<glyph unicode="&#xa9;" horiz-adv-x="987" d="M266 1063q0 61 21.5 121.5t64.5 108.5t107.5 78t150.5 30q76 0 131.5 -26.5t92 -67.5t54 -93.5t17.5 -101.5q0 -70 -24.5 -131t-69.5 -107.5t-108.5 -73t-139.5 -26.5q-74 0 -129 24.5t-93 65.5t-56.5 92.5t-18.5 106.5zM324 1065q0 -43 15 -86t46 -76t76 -53.5 t102 -20.5q76 0 130.5 28t88 69t50 90t16.5 92q0 45 -16.5 88t-47 76t-76 52t-102.5 19q-68 0 -121 -24.5t-89 -63t-54 -89t-18 -101.5zM436 1063q0 80 53.5 131t133.5 51q33 0 54 -6t28 -10l-17 -49q-8 4 -27.5 10t-44.5 6q-49 0 -82.5 -36t-33.5 -93q0 -29 18.5 -61.5 t71.5 -32.5q23 0 39 3t22 7l-4 -47q-4 -4 -23.5 -8t-48.5 -4q-72 0 -105.5 45t-33.5 94z" />
<glyph unicode="&#xaa;" horiz-adv-x="978" d="M205 514l18 100h541l-19 -100h-540zM276 913q0 111 94.5 171.5t254.5 60.5h127q0 10 2 18q4 20 4 31q0 43 -38 81t-120 38q-37 0 -66.5 -7.5t-53 -16.5t-40 -16t-24.5 -7q-10 0 -10 12q0 10 5 37t9 43q16 10 63 26.5t121 16.5q68 0 115 -17.5t77.5 -45t45 -62.5t14.5 -70 q0 -29 -4 -52.5t-8 -39.5l-41 -215q-10 -43 -14.5 -88t-8.5 -80h-80q-12 0 -15 4t-3 13q0 4 1 16t3 24q2 14 4 29h-8q-6 -8 -20.5 -24.5t-38 -33t-56 -28.5t-73.5 -12q-51 0 -91.5 16.5t-68 44t-43 62.5t-15.5 71zM381 922q0 -43 34 -79t99 -36q43 0 79 16.5t62.5 45 t44 66.5t25.5 79q0 4 2 10t4 16q2 8 4 23h-121q-129 0 -181 -43t-52 -98z" />
<glyph unicode="&#xab;" horiz-adv-x="1048" d="M123 485l426 412l76 -82l-351 -336l218 -346l-105 -65zM463 485l264 -417l107 65l-218 346l351 336l-76 82z" />
<glyph unicode="&#xac;" horiz-adv-x="1318" d="M123 555l24 127h1049l-111 -573h-157l86 446h-891z" />
<glyph unicode="&#xad;" horiz-adv-x="784" d="M123 432l24 127h494l-25 -127h-493z" />
<glyph unicode="&#xae;" horiz-adv-x="985" d="M266 1063q0 61 21.5 121.5t64.5 108.5t107.5 78t148.5 30q76 0 132.5 -26.5t92 -67.5t53 -93.5t17.5 -101.5q0 -70 -24.5 -131t-69.5 -107.5t-107.5 -73t-138.5 -26.5q-74 0 -129 24.5t-93 65.5t-56.5 92.5t-18.5 106.5zM324 1065q0 -43 15 -86t46 -76t75 -53.5 t103 -20.5q76 0 129 28t87 69t50.5 90t16.5 92q0 45 -16.5 88t-47 76t-75 52t-101.5 19q-68 0 -121 -24.5t-89 -63t-54 -89t-18 -101.5zM463 938l61 311h80q53 0 80 -25.5t27 -58.5q0 -27 -11.5 -44t-24.5 -27.5t-26.5 -14.5t-17.5 -4l49 -137h-57l-45 129h-33l-27 -129h-55 zM551 1108q2 0 8 -1t14 -1q29 0 55.5 13.5t26.5 41.5q0 20 -15 34.5t-46 14.5q-10 0 -15.5 -1t-7.5 -1z" />
<glyph unicode="&#xaf;" horiz-adv-x="638" d="M82 1274l22 106h453l-22 -106h-453z" />
<glyph unicode="&#xb0;" horiz-adv-x="1280" d="M205 1102q0 70 24.5 125t65.5 94t96 59.5t117 20.5q68 0 118 -22.5t82.5 -58.5t48 -81t15.5 -88q0 -74 -25.5 -130t-68.5 -95t-98.5 -58.5t-114.5 -19.5q-72 0 -121 23.5t-80 60.5t-45 82t-14 88zM299 1104q0 -31 11.5 -59.5t34 -52t56 -38t78.5 -14.5q39 0 75 15.5 t62.5 43t43 65.5t16.5 83q0 27 -10.5 55.5t-32 52t-55 39t-80.5 15.5q-41 0 -77 -15.5t-62.5 -43t-43 -65.5t-16.5 -81z" />
<glyph unicode="&#xb1;" horiz-adv-x="1441" d="M82 0l22 125h1051l-22 -125h-1051zM203 627l24 127h445l71 364h158l-72 -364h449l-25 -127h-448l-72 -369h-158l72 369h-444z" />
<glyph unicode="&#xb2;" horiz-adv-x="526" d="M-20 690l14 76q51 47 94 84q37 33 69.5 62.5t43.5 39.5q31 27 63.5 57.5t59 62.5t43 64.5t16.5 65.5q0 43 -37 81t-104 38q-47 0 -81 -17.5t-44 -23.5l-17 68q8 4 51.5 23.5t106.5 19.5q53 0 92 -16.5t64.5 -42t38 -59.5t12.5 -69q0 -45 -18.5 -84t-46 -72.5t-59.5 -62.5 t-56 -53q-16 -14 -47 -44t-62 -59q-37 -35 -78 -73h289l-14 -66h-393z" />
<glyph unicode="&#xb3;" horiz-adv-x="507" d="M0 694l8 68q6 -2 40 -7t65 -5q92 0 146 47t54 104q0 41 -31.5 77t-111.5 36h-61l12 63h65q72 0 125.5 39t53.5 101q0 39 -30 72.5t-97 33.5q-39 0 -74 -13.5t-41 -17.5l-6 68q6 4 44 18.5t91 14.5q49 0 86 -14.5t61.5 -39t35.5 -54.5t11 -60q0 -43 -15 -74t-37.5 -52.5 t-49.5 -33.5t-49 -16v-9q10 -2 26.5 -10t33 -25.5t28.5 -42t12 -61.5q0 -49 -21.5 -90t-59.5 -69.5t-90 -44t-111 -15.5q-45 0 -76 5t-37 7z" />
<glyph unicode="&#xb4;" horiz-adv-x="466" d="M242 1079l223 301h184l-305 -301h-102z" />
<glyph unicode="&#xb5;" horiz-adv-x="1343" d="M41 -508l295 1520h151q-25 -131 -47 -244q-10 -47 -19 -95l-16.5 -88t-13.5 -69t-8 -41q-2 -10 -5 -29.5t-6 -43t-5 -48t-2 -45.5q0 -76 49 -134t159 -58q129 0 224.5 103.5t132.5 293.5q10 59 27.5 145t33.5 164q18 92 37 189h152q-35 -178 -64 -324 q-12 -61 -24.5 -122.5t-22.5 -114t-17.5 -89t-9.5 -51.5q-16 -78 -29.5 -165t-21.5 -146h-129q-20 0 -20 20q0 8 3 28t7 40q4 23 10 51h-8q-14 -23 -38.5 -50.5t-61.5 -52t-88.5 -40.5t-118.5 -16q-80 0 -141.5 21.5t-102.5 57.5l-110 -567h-152z" />
<glyph unicode="&#xb6;" horiz-adv-x="1015" d="M0 936q0 96 39 177t109.5 140.5t171 93t223.5 33.5h452l-22 -116h-131l-316 -1618h-145l315 1618h-196l-316 -1618h-145l192 989q-29 8 -68.5 25.5t-75.5 52.5t-61.5 89t-25.5 134z" />
<glyph unicode="&#xb7;" horiz-adv-x="561" d="M164 414l33 159h159l-32 -159h-160z" />
<glyph unicode="&#xb8;" horiz-adv-x="534" d="M82 -428q23 4 63.5 18.5t81.5 38t71 58t30 80.5q0 27 -22.5 53t-82.5 26h-61l74 154h98l-53 -82q4 4 32 4q63 0 101.5 -40t38.5 -95q0 -57 -33 -105.5t-82 -84t-107.5 -58t-111.5 -26.5z" />
<glyph unicode="&#xb9;" horiz-adv-x="387" d="M41 1243l4 68q55 4 108.5 26.5t77.5 53.5h74l-135 -701h-78l117 602q-29 -12 -72 -27.5t-96 -21.5z" />
<glyph unicode="&#xba;" horiz-adv-x="1032" d="M205 512l18 100h559l-18 -100h-559zM252 1020q0 82 24.5 151.5t71.5 120.5t113.5 80t150.5 29q78 0 134.5 -26.5t92 -69.5t53 -96.5t17.5 -108.5q0 -84 -25.5 -153.5t-72.5 -121t-112.5 -79t-147.5 -27.5t-138.5 27.5t-92 70.5t-52 96.5t-16.5 106.5zM354 1018 q0 -35 11.5 -73t35 -68.5t61.5 -51t93 -20.5q57 0 103.5 24.5t79 65.5t50 94t17.5 109q0 37 -11.5 74.5t-35 69.5t-62.5 51.5t-94 19.5q-53 0 -98 -23.5t-79 -63.5t-52.5 -93.5t-18.5 -114.5z" />
<glyph unicode="&#xbb;" horiz-adv-x="1050" d="M82 156l78 -80l426 409l-264 420l-105 -67l217 -344zM424 156l352 338l-219 344l107 67l264 -420l-428 -409z" />
<glyph unicode="&#xbc;" horiz-adv-x="1378" d="M61 0h101l1093 1380h-100zM205 1243v68q57 4 110.5 26.5t77.5 53.5h74l-135 -701h-80l119 602q-27 -12 -69 -27.5t-97 -21.5zM694 268l365 422h119l-86 -436h127l-13 -64h-127l-37 -190h-77l36 190h-301zM770 254h244l71 360h-8z" />
<glyph unicode="&#xbd;" horiz-adv-x="1396" d="M61 0l1094 1380h100l-1093 -1380h-101zM209 1243v68q55 4 107.5 26.5t78.5 53.5h74l-135 -701h-82l121 602q-29 -12 -70 -27.5t-94 -21.5zM788 0l15 76q49 47 92 84q35 33 70 62.5t45 39.5q37 35 69.5 65.5t57 60.5t39 60.5t14.5 63.5q0 43 -36 81t-105 38 q-47 0 -80 -17.5t-43 -23.5l-17 67q6 4 47 23.5t109 19.5q55 0 94 -16t64.5 -42t38 -59.5t12.5 -68.5q0 -45 -18.5 -84t-46 -72.5t-59.5 -62.5t-58 -53q-16 -14 -46 -44t-61 -59q-37 -35 -78 -73h287l-12 -66h-394z" />
<glyph unicode="&#xbe;" horiz-adv-x="1533" d="M205 692l8 68q6 -2 40 -7t64 -5q92 0 146.5 47t54.5 104q0 41 -31.5 77t-111.5 36h-62l13 63h65q72 0 125 38t53 101q0 39 -29.5 73t-97.5 34q-39 0 -73.5 -13.5t-40.5 -17.5l-6 68q6 4 43.5 18.5t91.5 14.5q49 0 86 -14.5t61.5 -39t35.5 -54.5t11 -60q0 -43 -15 -74 t-38 -52.5t-49.5 -33.5t-48.5 -16v-9q10 -2 26.5 -10t32.5 -25.5t28.5 -42t12.5 -61.5q0 -49 -21.5 -90t-59.5 -69.5t-90 -44t-112 -15.5q-45 0 -76.5 5t-35.5 7zM215 0h100l1096 1380h-100zM860 268l365 422h116l-84 -436h125l-12 -64h-125l-37 -190h-78l37 190h-301z M936 254h244l69 360h-8z" />
<glyph unicode="&#xbf;" horiz-adv-x="819" d="M0 -152q0 59 16.5 104.5t41 82.5t55 65.5t61.5 55.5q14 12 35.5 29.5t32.5 27.5q27 20 61.5 50t68.5 66t59.5 78t31.5 89q0 10 4 26q2 8 2 15h158q0 -6 -2 -15q-4 -16 -4 -26q-12 -78 -42 -136.5t-64 -102.5t-68.5 -73.5t-59.5 -48.5q-31 -25 -69.5 -54.5t-72.5 -64 t-56.5 -74.5t-22.5 -83q0 -35 16.5 -68t51 -58.5t89 -41t130.5 -15.5q35 0 70.5 6.5t65 13.5t51.5 14t30 11l-45 -141q-23 -8 -87.5 -24.5t-154.5 -16.5q-96 0 -168 29t-119 73t-71.5 99t-24.5 108zM506 780l31 160h159l-30 -160h-160z" />
<glyph unicode="&#xc0;" horiz-adv-x="1200" d="M-102 0l782 1380h170l248 -1380h-170l-56 340h-614l-188 -340h-172zM328 467h526l-121 729h-8zM487 1808h172l170 -301h-100z" />
<glyph unicode="&#xc1;" horiz-adv-x="1200" d="M-102 0l788 1380h164l248 -1380h-170l-54 340h-616l-186 -340h-174zM328 467h526l-121 729h-8zM723 1507l223 301h184l-305 -301h-102z" />
<glyph unicode="&#xc2;" horiz-adv-x="1200" d="M-102 0l786 1380h166l248 -1380h-170l-56 338h-614l-186 -338h-174zM328 465h524l-121 729h-8zM541 1507l239 301h160l125 -301h-84l-131 193l-209 -193h-100z" />
<glyph unicode="&#xc3;" horiz-adv-x="1200" d="M-102 0l786 1380h166l248 -1380h-170l-56 338h-614l-186 -338h-174zM328 465h524l-121 729h-8zM467 1659q10 6 30.5 22.5t49 33t68.5 28.5t92 12q39 0 69.5 -11t59 -25.5t58.5 -26t71 -11.5q29 0 55.5 9.5t46.5 19.5q23 12 43 31l49 -68q-16 -14 -37.5 -31.5t-50.5 -33 t-66.5 -25.5t-84.5 -10q-41 0 -72 11t-59.5 25.5t-60.5 26t-71 11.5q-53 0 -85.5 -22.5t-53.5 -39.5z" />
<glyph unicode="&#xc4;" horiz-adv-x="1200" d="M-102 0l786 1380h166l248 -1380h-170l-56 338h-614l-186 -338h-174zM328 465h524l-121 729h-8zM520 1597l31 160h160l-31 -160h-160zM899 1597l31 160h160l-31 -160h-160z" />
<glyph unicode="&#xc5;" horiz-adv-x="1200" d="M-102 0l786 1380h166l248 -1380h-170l-56 338h-614l-186 -338h-174zM328 465h524l-121 729h-8zM588 1602q0 41 16.5 80.5t47 70.5t72.5 49.5t93 18.5q45 0 80 -15.5t57.5 -41t34.5 -58.5t12 -68q0 -41 -16 -79.5t-47 -69.5t-73 -49.5t-93 -18.5q-90 0 -137 56.5 t-47 124.5zM684 1612q0 -39 25.5 -69t74.5 -30t85 36t36 83q0 35 -24.5 66t-73.5 31q-59 0 -91 -39t-32 -78z" />
<glyph unicode="&#xc6;" horiz-adv-x="1789" d="M-164 0l1194 1380h760l-25 -127h-536l-94 -479h510l-25 -127h-510l-100 -516h540l-24 -131h-699l66 336h-571l-287 -336h-199zM432 465h486l141 731h-8z" />
<glyph unicode="&#xc7;" horiz-adv-x="1179" d="M123 596q0 188 61.5 337.5t168 253t249.5 159t309 55.5q55 0 112.5 -7.5t106 -16.5t83 -19t49.5 -17l-62 -145q-33 16 -112.5 42t-194.5 26q-102 0 -207.5 -39t-194 -120t-143.5 -206t-55 -295q0 -98 31.5 -186t90 -155.5t142.5 -106.5t188 -39q51 0 97.5 9t81 21.5 t55 22.5t25.5 12l6 -143q-6 -4 -73 -27.5t-171 -29.5l-51 -82q8 4 33 4q63 0 101 -39t38 -96t-33 -105.5t-82 -84.5t-107.5 -58.5t-111.5 -26.5l-37 60q23 4 64 18t81.5 37.5t70.5 58.5t30 80q0 27 -21.5 53.5t-83.5 26.5h-61l74 154q-127 10 -228.5 63t-172 137 t-108.5 190.5t-38 223.5z" />
<glyph unicode="&#xc8;" horiz-adv-x="1085" d="M123 0l268 1380h694l-26 -127h-537l-92 -479h510l-25 -127h-509l-101 -516h541l-25 -131h-698zM508 1808h172l170 -301h-100z" />
<glyph unicode="&#xc9;" horiz-adv-x="1103" d="M123 0l268 1380h694l-26 -127h-537l-92 -479h510l-25 -127h-509l-101 -516h541l-25 -131h-698zM696 1507l224 301h184l-305 -301h-103z" />
<glyph unicode="&#xca;" horiz-adv-x="1085" d="M123 0l268 1380h694l-26 -127h-537l-92 -479h510l-25 -127h-509l-101 -516h541l-25 -131h-698zM504 1507l239 301h160l125 -301h-84l-131 193l-209 -193h-100z" />
<glyph unicode="&#xcb;" horiz-adv-x="1101" d="M123 0l268 1380h694l-26 -127h-537l-92 -479h510l-25 -127h-509l-101 -516h541l-25 -131h-698zM532 1597l31 160h160l-31 -160h-160zM911 1597l31 160h160l-31 -160h-160z" />
<glyph unicode="&#xcc;" horiz-adv-x="669" d="M123 0l268 1380h156l-268 -1380h-156zM207 1808h172l170 -301h-100z" />
<glyph unicode="&#xcd;" horiz-adv-x="669" d="M123 0l268 1380h158l-268 -1380h-158zM399 1507l224 301h184l-305 -301h-103z" />
<glyph unicode="&#xce;" horiz-adv-x="669" d="M123 0l268 1380h158l-268 -1380h-158zM236 1507l239 301h160l125 -301h-84l-131 193l-209 -193h-100z" />
<glyph unicode="&#xcf;" horiz-adv-x="669" d="M123 0l268 1380h158l-268 -1380h-158zM231 1597l31 160h160l-31 -160h-160zM610 1597l31 160h160l-31 -160h-160z" />
<glyph unicode="&#xd0;" horiz-adv-x="1507" d="M123 0l127 647h-115l25 127h114l117 606h316q176 0 304 -46t211 -127t122.5 -190.5t39.5 -236.5q0 -129 -46 -267t-148.5 -252t-267 -187.5t-404.5 -73.5h-395zM311 143q10 -2 71.5 -9t133.5 -7q174 0 306 56.5t220 148.5t132.5 207.5t44.5 236.5q0 100 -32 188.5 t-97.5 153t-167 101t-238.5 36.5q-18 0 -42 -1t-47.5 -3t-43 -3t-27.5 -3l-90 -471h406l-25 -127h-405z" />
<glyph unicode="&#xd1;" horiz-adv-x="1595" d="M123 0l268 1380h205l489 -1155h11l223 1155h154l-269 -1380h-190l-502 1184h-8l-230 -1184h-151zM629 1659q10 6 30.5 22.5t49 33t68.5 28.5t91 12q39 0 70 -11t59.5 -25.5t58 -26t70.5 -11.5q29 0 55.5 9.5t47.5 19.5q23 12 43 31l49 -68q-16 -14 -37.5 -31.5t-50.5 -33 t-67 -25.5t-85 -10q-41 0 -71.5 11t-59 25.5t-60.5 26t-71 11.5q-53 0 -86 -22.5t-53 -39.5z" />
<glyph unicode="&#xd2;" horiz-adv-x="1536" d="M123 557q0 193 59.5 349.5t158.5 267t229.5 170t271.5 59.5q156 0 265.5 -52.5t177 -135t98 -185t30.5 -205.5q0 -195 -59.5 -351.5t-159.5 -266t-231.5 -168.5t-274.5 -59q-133 0 -237.5 43t-177 119.5t-111.5 182t-39 232.5zM287 555q0 -98 29.5 -179t84 -138.5 t128 -89t161.5 -31.5q125 0 227.5 55t176 151.5t114.5 224.5t41 275q0 100 -30.5 182t-85 140.5t-129 89.5t-162.5 31q-117 0 -217.5 -52.5t-176 -145.5t-118.5 -224t-43 -289zM571 1808h172l170 -301h-100z" />
<glyph unicode="&#xd3;" horiz-adv-x="1536" d="M123 557q0 193 59.5 349.5t158.5 267t229.5 170t271.5 59.5q156 0 265.5 -52.5t177 -135t98 -185t30.5 -205.5q0 -195 -59.5 -351.5t-159.5 -266t-231.5 -168.5t-274.5 -59q-133 0 -237.5 43t-177 119.5t-111.5 182t-39 232.5zM287 555q0 -98 29.5 -179t84 -138.5 t128 -89t161.5 -31.5q125 0 227.5 55t176 151.5t114.5 224.5t41 275q0 100 -30.5 182t-85 140.5t-129 89.5t-162.5 31q-117 0 -217.5 -52.5t-176 -145.5t-118.5 -224t-43 -289zM799 1507l223 301h184l-305 -301h-102z" />
<glyph unicode="&#xd4;" horiz-adv-x="1536" d="M123 557q0 193 59.5 349.5t158.5 267t229.5 170t271.5 59.5q156 0 265.5 -52.5t177 -135t98 -185t30.5 -205.5q0 -195 -59.5 -351.5t-159.5 -266t-231.5 -168.5t-274.5 -59q-133 0 -237.5 43t-177 119.5t-111.5 182t-39 232.5zM287 555q0 -98 29.5 -179t84 -138.5 t128 -89t161.5 -31.5q125 0 227.5 55t176 151.5t114.5 224.5t41 275q0 100 -30.5 182t-85 140.5t-129 89.5t-162.5 31q-117 0 -217.5 -52.5t-176 -145.5t-118.5 -224t-43 -289zM584 1507l239 301h160l125 -301h-84l-131 193l-209 -193h-100z" />
<glyph unicode="&#xd5;" horiz-adv-x="1536" d="M123 557q0 193 59.5 349.5t158.5 267t229.5 170t271.5 59.5q156 0 265.5 -52.5t177 -135t98 -185t30.5 -205.5q0 -195 -59.5 -351.5t-159.5 -266t-231.5 -168.5t-274.5 -59q-133 0 -237.5 43t-177 119.5t-111.5 182t-39 232.5zM287 555q0 -98 29.5 -179t84 -138.5 t128 -89t161.5 -31.5q125 0 227.5 55t176 151.5t114.5 224.5t41 275q0 100 -30.5 182t-85 140.5t-129 89.5t-162.5 31q-117 0 -217.5 -52.5t-176 -145.5t-118.5 -224t-43 -289zM526 1659q10 6 31 22.5t49.5 33t68.5 28.5t91 12q39 0 69.5 -11t59.5 -25.5t58.5 -26 t70.5 -11.5q29 0 55.5 9.5t46.5 19.5q23 12 43 31l50 -68q-16 -14 -38 -31.5t-50.5 -33t-66.5 -25.5t-85 -10q-41 0 -71.5 11t-59.5 25.5t-60.5 26t-70.5 11.5q-53 0 -86 -22.5t-53 -39.5z" />
<glyph unicode="&#xd6;" horiz-adv-x="1536" d="M123 557q0 193 59.5 349.5t158.5 267t229.5 170t271.5 59.5q156 0 265.5 -52.5t177 -135t98 -185t30.5 -205.5q0 -195 -59.5 -351.5t-159.5 -266t-231.5 -168.5t-274.5 -59q-133 0 -237.5 43t-177 119.5t-111.5 182t-39 232.5zM287 555q0 -98 29.5 -179t84 -138.5 t128 -89t161.5 -31.5q125 0 227.5 55t176 151.5t114.5 224.5t41 275q0 100 -30.5 182t-85 140.5t-129 89.5t-162.5 31q-117 0 -217.5 -52.5t-176 -145.5t-118.5 -224t-43 -289zM598 1597l31 160h159l-30 -160h-160zM977 1597l31 160h159l-30 -160h-160z" />
<glyph unicode="&#xd7;" horiz-adv-x="1220" d="M123 297l385 321l-252 314l127 106l250 -313l377 317l88 -112l-375 -316l270 -333l-127 -107l-272 334l-381 -320z" />
<glyph unicode="&#xd8;" horiz-adv-x="1536" d="M123 557q0 193 59.5 349.5t158.5 267t229 170t272 59.5q125 0 223 -35l123 221l127 -45l-131 -235q123 -86 176 -217t53 -267q0 -195 -59.5 -351.5t-159.5 -266t-231.5 -168.5t-274.5 -59q-117 0 -215 34l-123 -221l-125 45l129 234q-111 76 -171 200.5t-60 284.5z M287 555q0 -113 39 -201t104 -145l567 1028q-73 29 -153 29q-117 0 -218.5 -52.5t-176 -145.5t-118.5 -224t-44 -289zM539 143q67 -26 153 -26q123 0 225.5 55t176 151.5t114.5 224.5t41 275q0 115 -37.5 203t-105.5 148z" />
<glyph unicode="&#xd9;" horiz-adv-x="1507" d="M184 420q0 90 12.5 159.5t22.5 116.5l133 684h158l-137 -708q-4 -14 -10.5 -41t-12.5 -60.5t-10 -73.5t-4 -79q0 -135 87 -218t234 -83q98 0 170 31.5t124.5 88t85 134.5t50.5 172l162 837h156l-162 -837q-25 -121 -69 -224.5t-114.5 -178t-172 -117.5t-240.5 -43 q-113 0 -200 33.5t-145 93t-88 139.5t-30 174zM608 1808h172l170 -301h-100z" />
<glyph unicode="&#xda;" horiz-adv-x="1507" d="M184 420q0 90 12.5 159.5t22.5 116.5l133 684h158l-137 -708q-4 -14 -10.5 -41t-12.5 -60.5t-10 -73.5t-4 -79q0 -135 87 -218t234 -83q98 0 170 31.5t124.5 88t85 134.5t50.5 172l162 837h156l-162 -837q-25 -121 -69 -224.5t-114.5 -178t-172 -117.5t-240.5 -43 q-113 0 -200 33.5t-145 93t-88 139.5t-30 174zM834 1507l223 301h184l-305 -301h-102z" />
<glyph unicode="&#xdb;" horiz-adv-x="1507" d="M184 420q0 90 12.5 159.5t22.5 116.5l133 684h158l-137 -708q-4 -14 -10.5 -41t-12.5 -60.5t-10 -73.5t-4 -79q0 -135 87 -218t234 -83q98 0 170 31.5t124.5 88t85 134.5t50.5 172l162 837h156l-162 -837q-25 -121 -69 -224.5t-114.5 -178t-172 -117.5t-240.5 -43 q-113 0 -200 33.5t-145 93t-88 139.5t-30 174zM649 1507l240 301h160l125 -301h-84l-132 193l-208 -193h-101z" />
<glyph unicode="&#xdc;" horiz-adv-x="1507" d="M184 420q0 90 12.5 159.5t22.5 116.5l133 684h158l-137 -708q-4 -14 -10.5 -41t-12.5 -60.5t-10 -73.5t-4 -79q0 -135 87 -218t234 -83q98 0 170 31.5t124.5 88t85 134.5t50.5 172l162 837h156l-162 -837q-25 -121 -69 -224.5t-114.5 -178t-172 -117.5t-240.5 -43 q-113 0 -200 33.5t-145 93t-88 139.5t-30 174zM637 1597l31 160h159l-30 -160h-160zM1016 1597l31 160h159l-30 -160h-160z" />
<glyph unicode="&#xdd;" horiz-adv-x="1028" d="M123 1380h162l209 -700h8l475 700h174l-610 -872l-99 -508h-157l98 508zM571 1507l224 301h184l-305 -301h-103z" />
<glyph unicode="&#xde;" horiz-adv-x="1196" d="M123 0l268 1380h158l-51 -258h127q135 0 226 -34.5t144.5 -90t76 -125t22.5 -141.5q0 -117 -46.5 -207t-127 -151.5t-191 -93t-237.5 -31.5q-16 0 -41 1t-49.5 2t-45 3t-26.5 2l-49 -256h-158zM352 369q12 -4 49 -5.5t78 -1.5q102 0 186.5 27t143.5 76t92 117.5t33 154.5 q0 57 -22.5 106.5t-66.5 86.5t-108.5 57.5t-146.5 20.5q-27 0 -67 -2t-48 -2z" />
<glyph unicode="&#xdf;" horiz-adv-x="1157" d="M82 0l199 1022q25 129 72.5 221t112 150.5t145.5 86t171 27.5q94 0 162 -26.5t111 -66.5t62.5 -89t19.5 -94q0 -53 -14.5 -93t-39 -72t-57.5 -57.5t-72 -45.5q-8 -4 -34.5 -19.5t-38.5 -23.5q-47 -29 -79 -65t-32 -81q0 -39 22.5 -68.5t61.5 -58.5l96 -69 q74 -53 105.5 -119t31.5 -123q0 -92 -37.5 -158.5t-99 -110.5t-141.5 -65.5t-164 -21.5q-78 0 -139.5 9t-77.5 15q4 29 10 58.5t15 58.5q4 12 8 21.5t18 9.5q18 0 59.5 -17.5t108.5 -17.5q76 0 130 16.5t90 42t52.5 59t16.5 70.5q0 55 -27.5 93t-68.5 67l-82 59 q-18 12 -43 31.5t-46.5 47.5t-37 66t-15.5 87q0 55 18.5 97t47.5 76t64.5 60.5t72.5 46.5l55 31q59 33 84 73t25 83q0 25 -11 52.5t-38 52t-68 39.5t-100 15q-117 0 -206 -86t-122 -249l-205 -1047h-151z" />
<glyph unicode="&#xe0;" d="M102 375q0 139 50.5 260t141.5 209t218 138t281 50q49 0 97 -5t86 -12t64.5 -13.5t36.5 -8.5q-33 -172 -61 -315q-12 -61 -24.5 -121.5t-23 -111t-17.5 -87.5t-9 -49q-16 -94 -28.5 -182t-16.5 -127h-121q-18 0 -23 10t-5 21q0 8 2 24.5t6 32.5q4 20 10 43h-8 q-4 -4 -22.5 -27.5t-55.5 -51t-90 -50t-123 -22.5q-84 0 -151.5 29.5t-114.5 81.5t-73 125t-26 159zM262 389q0 -55 16.5 -105.5t47 -87t77 -58t105.5 -21.5q121 0 205 110.5t127 327.5q4 23 14 74t20 104q12 63 27 137q-14 4 -55 15.5t-98 11.5q-96 0 -183.5 -37 t-155 -103.5t-107.5 -159.5t-40 -208zM508 1507h172l170 -301h-100z" />
<glyph unicode="&#xe1;" d="M102 375q0 139 50.5 260t141.5 209t218 138t281 50q49 0 97 -5t86 -12t64.5 -13.5t36.5 -8.5q-33 -172 -61 -315q-12 -61 -24.5 -121.5t-23 -111t-17.5 -87.5t-9 -49q-16 -94 -28.5 -182t-16.5 -127h-121q-18 0 -23 10t-5 21q0 8 2 24.5t6 32.5q4 20 10 43h-8 q-4 -4 -22.5 -27.5t-55.5 -51t-90 -50t-123 -22.5q-84 0 -151.5 29.5t-114.5 81.5t-73 125t-26 159zM262 389q0 -55 16.5 -105.5t47 -87t77 -58t105.5 -21.5q121 0 205 110.5t127 327.5q4 23 14 74t20 104q12 63 27 137q-14 4 -55 15.5t-98 11.5q-96 0 -183.5 -37 t-155 -103.5t-107.5 -159.5t-40 -208zM637 1206l223 301h184l-305 -301h-102z" />
<glyph unicode="&#xe2;" d="M102 375q0 139 50.5 260t141.5 209t218 138t281 50q49 0 97 -5t86 -12t64.5 -13.5t36.5 -8.5q-33 -172 -61 -315q-12 -61 -24.5 -121.5t-23 -111t-17.5 -87.5t-9 -49q-16 -94 -28.5 -182t-16.5 -127h-121q-18 0 -23 10t-5 21q0 8 2 24.5t6 32.5q4 20 10 43h-8 q-4 -4 -22.5 -27.5t-55.5 -51t-90 -50t-123 -22.5q-84 0 -151.5 29.5t-114.5 81.5t-73 125t-26 159zM262 389q0 -55 16.5 -105.5t47 -87t77 -58t105.5 -21.5q121 0 205 110.5t127 327.5q4 23 14 74t20 104q12 63 27 137q-14 4 -55 15.5t-98 11.5q-96 0 -183.5 -37 t-155 -103.5t-107.5 -159.5t-40 -208zM551 1206l240 301h159l125 -301h-84l-131 193l-209 -193h-100z" />
<glyph unicode="&#xe3;" d="M102 375q0 139 50.5 260t141.5 209t218 138t281 50q49 0 97 -5t86 -12t64.5 -13.5t36.5 -8.5q-33 -172 -61 -315q-12 -61 -24.5 -121.5t-23 -111t-17.5 -87.5t-9 -49q-16 -94 -28.5 -182t-16.5 -127h-121q-18 0 -23 10t-5 21q0 8 2 24.5t6 32.5q4 20 10 43h-8 q-4 -4 -22.5 -27.5t-55.5 -51t-90 -50t-123 -22.5q-84 0 -151.5 29.5t-114.5 81.5t-73 125t-26 159zM262 389q0 -55 16.5 -105.5t47 -87t77 -58t105.5 -21.5q121 0 205 110.5t127 327.5q4 23 14 74t20 104q12 63 27 137q-14 4 -55 15.5t-98 11.5q-96 0 -183.5 -37 t-155 -103.5t-107.5 -159.5t-40 -208zM379 1348q10 6 30.5 22t49 32.5t68.5 29t91 12.5q39 0 70 -11.5t59.5 -25.5t58.5 -25.5t71 -11.5q29 0 55 9.5t47 19.5q23 12 43 31l49 -68q-16 -14 -37.5 -31.5t-50.5 -33t-66.5 -25.5t-85.5 -10q-41 0 -71.5 11t-59 25.5t-60.5 25.5 t-71 11q-53 0 -85.5 -22.5t-53.5 -38.5z" />
<glyph unicode="&#xe4;" d="M102 375q0 139 50.5 260t141.5 209t218 138t281 50q49 0 97 -5t86 -12t64.5 -13.5t36.5 -8.5q-33 -172 -61 -315q-12 -61 -24.5 -121.5t-23 -111t-17.5 -87.5t-9 -49q-16 -94 -28.5 -182t-16.5 -127h-121q-18 0 -23 10t-5 21q0 8 2 24.5t6 32.5q4 20 10 43h-8 q-4 -4 -22.5 -27.5t-55.5 -51t-90 -50t-123 -22.5q-84 0 -151.5 29.5t-114.5 81.5t-73 125t-26 159zM262 389q0 -55 16.5 -105.5t47 -87t77 -58t105.5 -21.5q121 0 205 110.5t127 327.5q4 23 14 74t20 104q12 63 27 137q-14 4 -55 15.5t-98 11.5q-96 0 -183.5 -37 t-155 -103.5t-107.5 -159.5t-40 -208zM496 1276l30 160h160l-31 -160h-159zM874 1276l31 160h160l-31 -160h-160z" />
<glyph unicode="&#xe5;" d="M102 375q0 139 50.5 260t141.5 209t218 138t281 50q49 0 97 -5t86 -12t64.5 -13.5t36.5 -8.5q-33 -172 -61 -315q-12 -61 -24.5 -121.5t-23 -111t-17.5 -87.5t-9 -49q-16 -94 -28.5 -182t-16.5 -127h-121q-18 0 -23 10t-5 21q0 8 2 24.5t6 32.5q4 20 10 43h-8 q-4 -4 -22.5 -27.5t-55.5 -51t-90 -50t-123 -22.5q-84 0 -151.5 29.5t-114.5 81.5t-73 125t-26 159zM262 389q0 -55 16.5 -105.5t47 -87t77 -58t105.5 -21.5q121 0 205 110.5t127 327.5q4 23 14 74t20 104q12 63 27 137q-14 4 -55 15.5t-98 11.5q-96 0 -183.5 -37 t-155 -103.5t-107.5 -159.5t-40 -208zM627 1305q0 41 16 80.5t47 70.5t73 49.5t93 18.5q45 0 80 -15.5t57.5 -41t34.5 -58.5t12 -68q0 -41 -16 -79.5t-47 -69.5t-73 -49.5t-93 -18.5q-90 0 -137 56.5t-47 124.5zM723 1315q0 -39 25.5 -68.5t74.5 -29.5t85 35.5t36 82.5 q0 35 -24.5 66t-73.5 31q-59 0 -91 -39t-32 -78z" />
<glyph unicode="&#xe6;" horiz-adv-x="1777" d="M61 268q0 137 113 221t348 84h264q4 29 8.5 61t4.5 66q0 39 -13.5 74t-43 62.5t-74.5 44t-107 16.5q-57 0 -103 -11.5t-82 -24.5t-60.5 -24.5t-39.5 -11.5q-10 0 -12 6.5t-2 12.5q0 8 2 23.5t4 34t5 35.5t8 30q27 14 98.5 39.5t187.5 25.5q135 0 220 -45t126 -110 q66 72 156 113.5t203 41.5q121 0 201.5 -34.5t130 -90t71 -123t21.5 -133.5q0 -63 -13.5 -123.5t-17.5 -76.5h-737q0 -59 21.5 -119t64.5 -107t108.5 -77.5t153.5 -30.5q61 0 103 10t71 22.5t46 22.5t30 10q16 0 16 -16q0 -10 -2 -27.5t-5 -38t-7 -41t-6 -32.5 q-20 -8 -97 -27.5t-174 -19.5q-162 0 -265 65.5t-157 165.5h-10q-6 -16 -32.5 -54t-77 -78t-126 -69.5t-182.5 -29.5q-86 0 -150.5 25.5t-106.5 66.5t-62.5 92t-20.5 104zM221 279q0 -76 55.5 -119t151.5 -43q70 0 125 21.5t95 59.5t65 89t35 108q0 4 2 12.5t4 18.5t4 23 h-213q-96 0 -158.5 -14.5t-99.5 -39t-51.5 -55.5t-14.5 -61zM938 573h596q4 10 7 34t3 50q0 39 -16.5 82t-50 78t-82.5 57.5t-117 22.5q-88 0 -149.5 -33t-101.5 -81t-61.5 -104t-27.5 -106z" />
<glyph unicode="&#xe7;" horiz-adv-x="950" d="M102 455q0 141 50.5 248.5t132.5 181t188 110.5t219 37t184.5 -24.5t94.5 -34.5q-2 -10 -5 -25.5t-6.5 -32t-6.5 -32t-5 -23.5q-2 -6 -7 -16t-19 -10q-6 0 -15.5 4t-13.5 8q-14 8 -67.5 28.5t-141.5 20.5q-92 0 -169 -38t-132 -100.5t-86 -141t-31 -158.5 q0 -72 19.5 -133.5t58.5 -108.5t97.5 -73.5t133.5 -26.5q43 0 77 8t59.5 18.5t44 18.5t32.5 8q18 0 19 -18q0 -8 -2 -23.5t-4 -34t-6 -37t-7 -30.5q-16 -8 -67 -23.5t-129 -21.5l-53 -82q8 4 32 4q66 0 104 -40t38 -95q0 -57 -33 -105.5t-82 -84.5t-108.5 -58.5 t-112.5 -26.5l-35 59q23 4 63.5 18.5t81.5 38t71 58.5t30 80q0 27 -22.5 53.5t-82.5 26.5h-61l74 154q-90 8 -163 49t-124 105.5t-79 146t-28 174.5z" />
<glyph unicode="&#xe8;" horiz-adv-x="1112" d="M102 473q0 109 34 210t99.5 179t158.5 124t214 46q119 0 200 -34.5t130 -90t70.5 -123t21.5 -133.5q0 -31 -4 -63.5t-8 -61t-9 -49t-8 -26.5h-739q0 -59 21.5 -119t65.5 -107t109.5 -77.5t153.5 -30.5q61 0 102.5 10t70 22.5t47 22.5t30.5 10q14 0 15 -16 q0 -10 -2.5 -27.5t-5.5 -38t-7 -41t-6 -32.5q-20 -8 -97 -27.5t-173 -19.5q-129 0 -220.5 43t-149.5 112.5t-86 157.5t-28 180zM272 573h596q4 10 7.5 33t3.5 51q0 39 -16.5 82t-49.5 78t-83 57.5t-116 22.5q-88 0 -149.5 -33t-102 -82t-62.5 -105.5t-28 -103.5zM375 1507 h172l170 -301h-101z" />
<glyph unicode="&#xe9;" horiz-adv-x="1112" d="M102 473q0 109 34 210t99.5 179t158.5 124t214 46q119 0 200 -34.5t130 -90t70.5 -123t21.5 -133.5q0 -31 -4 -63.5t-8 -61t-9 -49t-8 -26.5h-739q0 -59 21.5 -119t65.5 -107t109.5 -77.5t153.5 -30.5q61 0 102.5 10t70 22.5t47 22.5t30.5 10q14 0 15 -16 q0 -10 -2.5 -27.5t-5.5 -38t-7 -41t-6 -32.5q-20 -8 -97 -27.5t-173 -19.5q-129 0 -220.5 43t-149.5 112.5t-86 157.5t-28 180zM272 573h596q4 10 7.5 33t3.5 51q0 39 -16.5 82t-49.5 78t-83 57.5t-116 22.5q-88 0 -149.5 -33t-102 -82t-62.5 -105.5t-28 -103.5zM557 1206 l223 301h185l-306 -301h-102z" />
<glyph unicode="&#xea;" horiz-adv-x="1112" d="M102 473q0 109 34 210t99.5 179t158.5 124t214 46q119 0 200 -34.5t130 -90t70.5 -123t21.5 -133.5q0 -31 -4 -63.5t-8 -61t-9 -49t-8 -26.5h-739q0 -59 21.5 -119t65.5 -107t109.5 -77.5t153.5 -30.5q61 0 102.5 10t70 22.5t47 22.5t30.5 10q14 0 15 -16 q0 -10 -2.5 -27.5t-5.5 -38t-7 -41t-6 -32.5q-20 -8 -97 -27.5t-173 -19.5q-129 0 -220.5 43t-149.5 112.5t-86 157.5t-28 180zM272 573h596q4 10 7.5 33t3.5 51q0 39 -16.5 82t-49.5 78t-83 57.5t-116 22.5q-88 0 -149.5 -33t-102 -82t-62.5 -105.5t-28 -103.5zM406 1206 l239 301h160l125 -301h-84l-131 193l-209 -193h-100z" />
<glyph unicode="&#xeb;" horiz-adv-x="1112" d="M102 473q0 109 34 210t99.5 179t158.5 124t214 46q119 0 200 -34.5t130 -90t70.5 -123t21.5 -133.5q0 -31 -4 -63.5t-8 -61t-9 -49t-8 -26.5h-739q0 -59 21.5 -119t65.5 -107t109.5 -77.5t153.5 -30.5q61 0 102.5 10t70 22.5t47 22.5t30.5 10q14 0 15 -16 q0 -10 -2.5 -27.5t-5.5 -38t-7 -41t-6 -32.5q-20 -8 -97 -27.5t-173 -19.5q-129 0 -220.5 43t-149.5 112.5t-86 157.5t-28 180zM272 573h596q4 10 7.5 33t3.5 51q0 39 -16.5 82t-49.5 78t-83 57.5t-116 22.5q-88 0 -149.5 -33t-102 -82t-62.5 -105.5t-28 -103.5zM358 1276 l31 160h160l-31 -160h-160zM737 1276l31 160h160l-31 -160h-160z" />
<glyph unicode="&#xec;" horiz-adv-x="475" d="M82 0l197 1012h151l-197 -1012h-151zM90 1507h172l170 -301h-100z" />
<glyph unicode="&#xed;" horiz-adv-x="475" d="M82 0l197 1012h151l-197 -1012h-151zM301 1206l223 301h185l-306 -301h-102z" />
<glyph unicode="&#xee;" horiz-adv-x="475" d="M82 0l197 1012h151l-197 -1012h-151zM119 1206l239 301h160l125 -301h-84l-131 193l-209 -193h-100z" />
<glyph unicode="&#xef;" horiz-adv-x="475" d="M82 0l197 1012h153l-196 -1012h-154zM131 1276l31 160h160l-31 -160h-160zM510 1276l31 160h159l-30 -160h-160z" />
<glyph unicode="&#xf0;" horiz-adv-x="1292" d="M102 446q0 123 38 229.5t111 185.5t176 125t232 46q109 0 184 -37t122 -86l10 6q-4 70 -32 151t-75 153l-221 -127l-51 92l201 121q-41 41 -86 69q-10 6 -11 17q0 10 10.5 26.5t24 33.5t27.5 32.5t22 23.5q35 -18 79 -52t75 -69l195 117l57 -94l-182 -106 q20 -31 44.5 -78t47 -116t38 -161t15.5 -213q0 -152 -30.5 -288t-100.5 -240.5t-182.5 -165.5t-276.5 -61q-125 0 -212 41.5t-142 109.5t-81 151t-26 164zM262 440q0 -55 17.5 -112.5t55.5 -104.5t97.5 -77.5t142.5 -30.5q92 0 163 39t119 102t73.5 144t25.5 165 q0 57 -17 116.5t-55 107t-98.5 78t-144.5 30.5q-86 0 -156.5 -37t-120 -99.5t-76 -145.5t-26.5 -175z" />
<glyph unicode="&#xf1;" horiz-adv-x="1177" d="M102 0q33 178 62 324q12 61 24.5 123.5t21.5 114.5t16 89t12 51q16 78 29.5 164t21.5 146h129q23 0 22 -19q0 -6 -4 -25.5t-8 -41.5q-6 -25 -10 -54h8q14 23 38.5 50.5t61.5 52t89.5 41t119.5 16.5q76 0 139.5 -24.5t107.5 -65.5t68.5 -95t24.5 -114q0 -25 -3 -53.5 t-8 -56t-9 -51t-6 -33.5q-14 -66 -32 -157t-34 -177q-20 -98 -39 -205h-151q25 133 47 246q8 47 18 94t17.5 87t13.5 69.5t8 42.5q4 20 12.5 71.5t8.5 94.5q0 76 -53.5 134t-157.5 58q-129 0 -224.5 -103.5t-132.5 -293.5q-12 -59 -27.5 -145.5t-31.5 -164.5 q-18 -92 -37 -190h-152zM381 1352q10 6 30.5 22.5t49 32.5t68.5 28.5t92 12.5q39 0 69.5 -11.5t59 -25.5t58.5 -25.5t71 -11.5q29 0 55.5 9.5t46.5 19.5q23 12 43 31l49 -68q-16 -14 -37.5 -31.5t-50.5 -33t-66.5 -25.5t-84.5 -10q-41 0 -72 11t-59.5 25.5t-60.5 25.5 t-71 11q-53 0 -85.5 -22.5t-53.5 -38.5z" />
<glyph unicode="&#xf2;" horiz-adv-x="1218" d="M102 446q0 123 38 229.5t111 185.5t175 125t231 46q119 0 206 -41t143.5 -107.5t83 -150.5t26.5 -168q0 -125 -40 -231.5t-111.5 -185t-174 -123.5t-227.5 -45t-212 41.5t-142 109.5t-81 150.5t-26 164.5zM262 440q0 -55 17.5 -112.5t54.5 -104.5t96 -77.5t145 -30.5 q90 0 161 39t120 102t74.5 144t25.5 165q0 57 -17 116.5t-56 107t-98.5 78t-145.5 30.5t-155.5 -37t-119 -99.5t-76 -145.5t-26.5 -175zM360 1507h172l170 -301h-100z" />
<glyph unicode="&#xf3;" horiz-adv-x="1218" d="M102 446q0 123 38 229.5t111 185.5t175 125t231 46q119 0 206 -41t143.5 -107.5t83 -150.5t26.5 -168q0 -125 -40 -231.5t-111.5 -185t-174 -123.5t-227.5 -45t-212 41.5t-142 109.5t-81 150.5t-26 164.5zM262 440q0 -55 17.5 -112.5t54.5 -104.5t96 -77.5t145 -30.5 q90 0 161 39t120 102t74.5 144t25.5 165q0 57 -17 116.5t-56 107t-98.5 78t-145.5 30.5t-155.5 -37t-119 -99.5t-76 -145.5t-26.5 -175zM569 1206l224 301h184l-305 -301h-103z" />
<glyph unicode="&#xf4;" horiz-adv-x="1218" d="M102 446q0 123 38 229.5t111 185.5t175 125t231 46q119 0 206 -41t143.5 -107.5t83 -150.5t26.5 -168q0 -125 -40 -231.5t-111.5 -185t-174 -123.5t-227.5 -45t-212 41.5t-142 109.5t-81 150.5t-26 164.5zM262 440q0 -55 17.5 -112.5t54.5 -104.5t96 -77.5t145 -30.5 q90 0 161 39t120 102t74.5 144t25.5 165q0 57 -17 116.5t-56 107t-98.5 78t-145.5 30.5t-155.5 -37t-119 -99.5t-76 -145.5t-26.5 -175zM375 1206l239 301h160l125 -301h-84l-131 193l-209 -193h-100z" />
<glyph unicode="&#xf5;" horiz-adv-x="1218" d="M102 446q0 123 38 229.5t111 185.5t175 125t231 46q119 0 206 -41t143.5 -107.5t83 -150.5t26.5 -168q0 -125 -40 -231.5t-111.5 -185t-174 -123.5t-227.5 -45t-212 41.5t-142 109.5t-81 150.5t-26 164.5zM262 440q0 -55 17.5 -112.5t54.5 -104.5t96 -77.5t145 -30.5 q90 0 161 39t120 102t74.5 144t25.5 165q0 57 -17 116.5t-56 107t-98.5 78t-145.5 30.5t-155.5 -37t-119 -99.5t-76 -145.5t-26.5 -175zM334 1346q10 6 30.5 22t49 32.5t68.5 29t91 12.5q39 0 70 -11.5t59.5 -25.5t58.5 -25.5t70 -11.5q29 0 55.5 9t47.5 20q23 12 43 30 l49 -67q-16 -14 -37.5 -31.5t-50.5 -33t-66.5 -25.5t-85.5 -10q-41 0 -71.5 11t-59 25.5t-60.5 25.5t-71 11q-53 0 -85.5 -22.5t-53.5 -38.5z" />
<glyph unicode="&#xf6;" horiz-adv-x="1218" d="M102 446q0 123 38 229.5t111 185.5t175 125t231 46q119 0 206 -41t143.5 -107.5t83 -150.5t26.5 -168q0 -125 -40 -231.5t-111.5 -185t-174 -123.5t-227.5 -45t-212 41.5t-142 109.5t-81 150.5t-26 164.5zM262 440q0 -55 17.5 -112.5t54.5 -104.5t96 -77.5t145 -30.5 q90 0 161 39t120 102t74.5 144t25.5 165q0 57 -17 116.5t-56 107t-98.5 78t-145.5 30.5t-155.5 -37t-119 -99.5t-76 -145.5t-26.5 -175zM412 1276l30 160h160l-31 -160h-159zM791 1276l30 160h160l-31 -160h-159z" />
<glyph unicode="&#xf7;" horiz-adv-x="1441" d="M164 555l24 127h1049l-25 -127h-1048zM539 215l30 160h160l-31 -160h-159zM664 848l30 160h160l-31 -160h-159z" />
<glyph unicode="&#xf8;" horiz-adv-x="1218" d="M102 446q0 123 38 229.5t111 185.5t176 125t232 46q47 0 90.5 -7t79.5 -19l127 217l119 -39l-137 -236q92 -68 135 -171t43 -212q0 -125 -40 -231.5t-111.5 -185t-174 -123.5t-227.5 -45q-49 0 -91 7t-81 19l-125 -217l-121 39l138 233q-96 70 -138.5 175.5t-42.5 209.5z M262 440q0 -63 24.5 -130.5t78.5 -119.5l397 687q-49 20 -121 20q-86 0 -155.5 -37t-120 -99.5t-77 -145.5t-26.5 -175zM457 135q27 -10 55 -15t63 -5q92 0 163 39t119 102t73.5 144t25.5 165q0 68 -23.5 135.5t-76.5 118.5z" />
<glyph unicode="&#xf9;" horiz-adv-x="1136" d="M102 279q0 25 3.5 53t8.5 56t9 51.5t6 33.5q12 66 29.5 157t34.5 177l40 205h152q-25 -133 -47 -246q-10 -47 -19.5 -95t-16.5 -88t-13 -69t-8 -41q-4 -20 -12.5 -71.5t-8.5 -94.5q0 -74 50 -133t161 -59q129 0 224.5 103.5t131.5 293.5q10 59 26.5 145t33.5 164 q18 92 37 191h151q-35 -178 -63 -324q-12 -61 -24.5 -123.5l-23 -115t-17.5 -89t-9 -51.5q-16 -78 -28.5 -164t-20.5 -145h-129q-23 0 -23 18q0 8 3 29t8 41q6 23 12 51h-8q-14 -23 -39 -50.5t-63 -52t-89 -40.5t-119 -16q-86 0 -149.5 24.5t-105.5 65.5t-63.5 95t-21.5 114 zM369 1507h172l170 -301h-101z" />
<glyph unicode="&#xfa;" horiz-adv-x="1136" d="M102 279q0 25 3.5 53t8.5 56t9 51.5t6 33.5q12 66 29.5 157t34.5 177l40 205h152q-25 -133 -47 -246q-10 -47 -19.5 -95t-16.5 -88t-13 -69t-8 -41q-4 -20 -12.5 -71.5t-8.5 -94.5q0 -74 50 -133t161 -59q129 0 224.5 103.5t131.5 293.5q10 59 26.5 145t33.5 164 q18 92 37 191h151q-35 -178 -63 -324q-12 -61 -24.5 -123.5l-23 -115t-17.5 -89t-9 -51.5q-16 -78 -28.5 -164t-20.5 -145h-129q-23 0 -23 18q0 8 3 29t8 41q6 23 12 51h-8q-14 -23 -39 -50.5t-63 -52t-89 -40.5t-119 -16q-86 0 -149.5 24.5t-105.5 65.5t-63.5 95t-21.5 114 zM584 1206l223 301h184l-305 -301h-102z" />
<glyph unicode="&#xfb;" horiz-adv-x="1136" d="M102 279q0 25 3.5 53t8.5 56t9 51.5t6 33.5q12 66 29.5 157t34.5 177l40 205h152q-25 -133 -47 -246q-10 -47 -19.5 -95t-16.5 -88t-13 -69t-8 -41q-4 -20 -12.5 -71.5t-8.5 -94.5q0 -74 50 -133t161 -59q129 0 224.5 103.5t131.5 293.5q10 59 26.5 145t33.5 164 q18 92 37 191h151q-35 -178 -63 -324q-12 -61 -24.5 -123.5l-23 -115t-17.5 -89t-9 -51.5q-16 -78 -28.5 -164t-20.5 -145h-129q-23 0 -23 18q0 8 3 29t8 41q6 23 12 51h-8q-14 -23 -39 -50.5t-63 -52t-89 -40.5t-119 -16q-86 0 -149.5 24.5t-105.5 65.5t-63.5 95t-21.5 114 zM389 1206l240 301h159l125 -301h-84l-131 193l-209 -193h-100z" />
<glyph unicode="&#xfc;" horiz-adv-x="1136" d="M102 279q0 25 3.5 53t8.5 56t9 51.5t6 33.5q12 66 29.5 157t34.5 177l40 205h152q-25 -133 -47 -246q-10 -47 -19.5 -95t-16.5 -88t-13 -69t-8 -41q-4 -20 -12.5 -71.5t-8.5 -94.5q0 -74 50 -133t161 -59q129 0 224.5 103.5t131.5 293.5q10 59 26.5 145t33.5 164 q18 92 37 191h151q-35 -178 -63 -324q-12 -61 -24.5 -123.5l-23 -115t-17.5 -89t-9 -51.5q-16 -78 -28.5 -164t-20.5 -145h-129q-23 0 -23 18q0 8 3 29t8 41q6 23 12 51h-8q-14 -23 -39 -50.5t-63 -52t-89 -40.5t-119 -16q-86 0 -149.5 24.5t-105.5 65.5t-63.5 95t-21.5 114 zM406 1276l30 160h160l-31 -160h-159zM784 1276l31 160h160l-31 -160h-160z" />
<glyph unicode="&#xfd;" horiz-adv-x="980" d="M-246 -481q2 10 6 26q6 25 25 82q6 25 25 25q12 0 43.5 -7t80.5 -7q82 0 153 48t134 162q16 27 30.5 55.5t29.5 51.5q14 27 30 53l-202 1004h170l143 -799h10l442 799h168q-133 -233 -249 -443q-49 -90 -101.5 -181t-99.5 -176t-86 -155.5t-66 -117.5q-49 -90 -97 -171 t-106.5 -141.5t-135 -96.5t-187.5 -36q-59 0 -103 10.5t-57 14.5zM516 1206l223 301h185l-306 -301h-102z" />
<glyph unicode="&#xfe;" horiz-adv-x="1173" d="M0 -473l377 1939h151l-116 -592h8q8 14 30.5 40t57.5 52.5t83 46t109 19.5q94 0 165 -33.5t116 -89t67.5 -127t22.5 -147.5q0 -152 -48 -272.5t-131 -205.5t-195.5 -131t-239.5 -46q-33 0 -68 3t-64.5 8t-51 9t-27.5 6l-94 -479h-152zM272 141q14 -4 64.5 -15t116.5 -11 q88 0 171 37.5t146.5 105.5t101 160t37.5 203q0 51 -14 101t-43 89t-73 62.5t-101 23.5q-115 0 -209 -111.5t-135 -328.5q-4 -23 -14.5 -74t-20.5 -104q-12 -63 -27 -138z" />
<glyph unicode="&#xff;" horiz-adv-x="980" d="M-246 -481q2 10 6 26q6 25 25 82q6 25 25 25q12 0 43.5 -7t80.5 -7q82 0 153 48t134 162q16 27 30.5 55.5t29.5 51.5q14 27 30 53l-202 1004h170l143 -799h10l442 799h168q-133 -233 -249 -443q-49 -90 -101.5 -181t-99.5 -176t-86 -155.5t-66 -117.5q-49 -90 -97 -171 t-106.5 -141.5t-135 -96.5t-187.5 -36q-59 0 -103 10.5t-57 14.5zM342 1276l31 160h159l-30 -160h-160zM721 1276l31 160h159l-30 -160h-160z" />
<glyph unicode="&#x152;" horiz-adv-x="2068" d="M123 557q0 193 59.5 349.5t158.5 267t229 170t272 59.5q186 0 304 -71.5t183 -180.5l45 231h694l-24 -127h-537l-94 -481h512l-24 -127h-512l-101 -516h541l-25 -131h-698l29 147q-96 -82 -210 -124.5t-237 -42.5q-133 0 -237.5 43t-177 119.5t-111.5 182t-39 232.5z M287 555q0 -98 29.5 -179t84 -138.5t128 -89t161.5 -31.5q125 0 227.5 55t176 151.5t114.5 224.5t41 275q0 100 -30.5 182t-85 140.5t-129 89.5t-162.5 31q-117 0 -217.5 -52.5t-176 -145.5t-118.5 -224t-43 -289z" />
<glyph unicode="&#x153;" horiz-adv-x="1959" d="M102 446q0 123 38 229.5t111 185.5t175 125t231 46q147 0 241.5 -60.5t145.5 -152.5h9q66 96 167 154.5t236 58.5q119 0 200 -35.5t130 -91t70.5 -123t21.5 -131.5q0 -31 -4 -63.5t-8 -61t-9.5 -49t-7.5 -26.5h-737q0 -59 21.5 -119t64.5 -107t108.5 -77.5t153.5 -30.5 q61 0 102.5 10t70 22.5t47 22.5t30.5 10q16 0 16 -16q0 -10 -2 -27.5t-5 -38t-7 -41t-6 -32.5q-23 -8 -98.5 -27.5t-173.5 -19.5q-100 0 -174 22.5t-124.5 57t-81 79.5t-46.5 88h-9q-20 -39 -59 -83t-94 -80.5t-126 -60t-157 -23.5q-125 0 -212 41.5t-142 109.5t-81 151 t-26 164zM262 440q0 -55 17.5 -112.5t55.5 -104.5t97.5 -77.5t142.5 -30.5q90 0 161 39t120 102t74.5 144t25.5 165q0 57 -17 116.5t-56 107t-98.5 78t-145.5 30.5t-155.5 -37t-119 -99.5t-76 -145.5t-26.5 -175zM1122 573h596q2 10 6.5 33t4.5 51q0 39 -16.5 82t-50.5 78 t-83 57.5t-117 22.5q-88 0 -149.5 -33t-101.5 -82t-61.5 -105t-27.5 -104z" />
<glyph unicode="&#x178;" horiz-adv-x="1028" d="M123 1380h162l209 -700h8l475 700h174l-610 -872l-99 -508h-157l98 508zM412 1597l30 160h160l-31 -160h-159zM791 1597l30 160h160l-31 -160h-159z" />
<glyph unicode="&#x2c6;" horiz-adv-x="688" d="M82 1079l242 301h159l123 -301h-84l-131 193l-207 -193h-102z" />
<glyph unicode="&#x2dc;" horiz-adv-x="856" d="M82 1307q10 6 30.5 22.5t49 32.5t68.5 28.5t92 12.5q39 0 69.5 -11.5t59 -25.5t58.5 -25.5t71 -11.5q53 0 91 24.5t54 35.5l49 -68q-16 -14 -37.5 -31.5t-50.5 -33t-66.5 -25.5t-84.5 -10q-41 0 -73 11t-60.5 25.5t-59.5 25.5t-70 11q-53 0 -85.5 -22.5t-53.5 -38.5z" />
<glyph unicode="&#x2000;" horiz-adv-x="910" />
<glyph unicode="&#x2001;" horiz-adv-x="1821" />
<glyph unicode="&#x2002;" horiz-adv-x="910" />
<glyph unicode="&#x2003;" horiz-adv-x="1821" />
<glyph unicode="&#x2004;" horiz-adv-x="607" />
<glyph unicode="&#x2005;" horiz-adv-x="455" />
<glyph unicode="&#x2006;" horiz-adv-x="303" />
<glyph unicode="&#x2007;" horiz-adv-x="303" />
<glyph unicode="&#x2008;" horiz-adv-x="227" />
<glyph unicode="&#x2009;" horiz-adv-x="364" />
<glyph unicode="&#x200a;" horiz-adv-x="101" />
<glyph unicode="&#x2010;" horiz-adv-x="784" d="M123 432l24 127h494l-25 -127h-493z" />
<glyph unicode="&#x2011;" horiz-adv-x="784" d="M123 432l24 127h494l-25 -127h-493z" />
<glyph unicode="&#x2012;" horiz-adv-x="784" d="M123 432l24 127h494l-25 -127h-493z" />
<glyph unicode="&#x2013;" horiz-adv-x="1187" d="M123 432l27 127h894l-26 -127h-895z" />
<glyph unicode="&#x2014;" horiz-adv-x="1552" d="M123 432l27 127h1259l-27 -127h-1259z" />
<glyph unicode="&#x2018;" horiz-adv-x="321" d="M164 1012l31 159q8 45 30.5 80t51 60.5t57 41t51.5 21.5l18 -37q-41 -23 -77.5 -64.5t-49.5 -101.5h78l-30 -159h-160z" />
<glyph unicode="&#x2019;" horiz-adv-x="321" d="M164 1055q41 23 78 64.5t49 101.5h-78l31 159h159l-30 -159q-8 -45 -31 -80t-51.5 -60.5t-58 -41t-50.5 -21.5z" />
<glyph unicode="&#x201a;" horiz-adv-x="362" d="M-41 -166q41 23 78 65t49 101h-78l31 160h160l-31 -160q-8 -45 -30.5 -80t-51.5 -60.5t-58.5 -41t-50.5 -21.5z" />
<glyph unicode="&#x201c;" horiz-adv-x="634" d="M164 1032l31 160q8 45 30.5 80t51 60.5t57 41t51.5 21.5l18 -37q-41 -23 -77.5 -65t-49.5 -101h78l-30 -160h-160zM477 1032h160l31 160h-78q12 59 49 101t78 65l-21 37q-23 -6 -51.5 -21.5t-56 -41t-50 -60.5t-30.5 -80z" />
<glyph unicode="&#x201d;" horiz-adv-x="634" d="M164 1055l18 -37q20 6 50 21.5t58.5 41t51.5 60.5t31 80l30 159h-159l-31 -159h78q-12 -59 -49 -101.5t-78 -64.5zM477 1055q41 23 78 64.5t47 101.5h-78l33 159h160l-33 -159q-10 -49 -32.5 -84t-50.5 -59.5t-56.5 -39t-48.5 -20.5z" />
<glyph unicode="&#x201e;" horiz-adv-x="675" d="M-41 -166l21 -37q20 6 49.5 21.5t57.5 41t50.5 60.5t30.5 80l31 160h-160l-31 -160h78q-12 -59 -49 -101t-78 -65zM272 -166q41 23 78 65t49 101h-77l30 160h160l-31 -160q-8 -45 -30.5 -80t-51 -60.5t-58.5 -41t-50 -21.5z" />
<glyph unicode="&#x2022;" horiz-adv-x="667" d="M164 375l49 250h250l-49 -250h-250z" />
<glyph unicode="&#x2026;" horiz-adv-x="1402" d="M0 0l31 160h159l-30 -160h-160zM524 0l31 160h160l-31 -160h-160zM1049 0l30 160h160l-31 -160h-159z" />
<glyph unicode="&#x202f;" horiz-adv-x="364" />
<glyph unicode="&#x2039;" horiz-adv-x="708" d="M123 485l428 412l76 -82l-353 -336l220 -346l-107 -65z" />
<glyph unicode="&#x203a;" horiz-adv-x="851" d="M154 156l352 338l-217 344l104 67l264 -420l-426 -409z" />
<glyph unicode="&#x205f;" horiz-adv-x="455" />
<glyph unicode="&#x20ac;" horiz-adv-x="1435" d="M82 489l92 127h82q2 86 18 166h-135l92 127h78q43 117 115 208t167 154.5t209.5 96.5t241.5 33q55 0 112.5 -7.5t106 -16.5t84 -19t50.5 -17l-62 -145q-33 16 -112.5 42t-194.5 26q-76 0 -154.5 -21.5t-150.5 -65.5t-133.5 -111t-100.5 -157h717l-55 -127h-705 q-16 -78 -18 -166h651l-55 -127h-584q14 -80 52 -147.5t94.5 -117.5t130 -78.5t164.5 -28.5q55 0 101 9t80 20.5t55.5 21.5t25.5 14v-143q-4 -2 -25.5 -11.5t-59.5 -20.5t-89.5 -19t-110.5 -8q-123 0 -225.5 39.5t-178 109.5t-123.5 163t-65 197h-182z" />
<glyph unicode="&#x2122;" horiz-adv-x="1013" d="M266 1327l10 53h279l-10 -53h-109l-67 -356h-62l70 356h-111zM475 971h62l90 301h8l35 -301h51l143 301h8l-20 -301h61l19 409h-72l-137 -297h-8l-37 297h-70z" />
<glyph unicode="&#xe000;" horiz-adv-x="1013" d="M0 0v1014h1014v-1014h-1014z" />
</font>
</defs>
</svg>
