<?xml version="1.0" standalone="no"?>
<!DOCTYPE svg PUBLIC "-//W3C//DTD SVG 1.1//EN" "http://www.w3.org/Graphics/SVG/1.1/DTD/svg11.dtd" >
<svg xmlns="http://www.w3.org/2000/svg">
<metadata></metadata>
<defs>
<font id="americansans_mediumRgIt" horiz-adv-x="1136" >
<font-face units-per-em="2048" ascent="1536" descent="-512" />
<missing-glyph horiz-adv-x="512" />
<glyph unicode="&#xfb01;" d="M72 0q27 143 55 289q25 125 52.5 272.5t53.5 276.5h-141l35 174h141q0 6 2 14q2 6 3 14.5t3 18.5q39 227 180.5 328.5t381.5 101.5q35 0 73.5 -5t72.5 -11.5t59.5 -12.5t33.5 -8q-4 -14 -10 -38.5t-14 -49.5q-8 -29 -19 -61q-6 -27 -28 -27q-23 0 -78.5 14.5t-126.5 14.5 q-78 0 -130.5 -18.5t-86 -51.5t-52 -78t-26.5 -98l-8 -47h598l-197 -1012h-229l161 838h-368q-25 -129 -53.5 -273.5t-53.5 -271.5q-29 -147 -55 -293h-229z" />
<glyph unicode="&#xfb02;" d="M72 0q27 143 55 289q25 125 52.5 272.5t53.5 276.5h-143l35 174h143l15 78q20 111 70 186.5t122 123.5t163 69.5t196 21.5q61 0 120.5 -9t107.5 -21.5t78.5 -23t37.5 -12.5l-279 -1425h-229l250 1286q-8 4 -44 12.5t-90 8.5q-111 0 -182.5 -53.5t-87.5 -145.5l-18 -96 h207l-35 -174h-207q-25 -129 -53.5 -273.5t-53.5 -271.5q-29 -147 -55 -293h-229z" />
<glyph unicode="&#xfb03;" horiz-adv-x="1794" d="M72 0q29 143 57 289q25 125 52.5 272.5t54.5 276.5h-142l35 174h141q2 8 3 20t6 29q8 57 33.5 132t81 140.5t144.5 110.5t228 45q68 0 108.5 -9.5t57.5 -13.5q-4 -16 -9 -40.5t-12 -47.5q-8 -27 -14 -55q-4 -18 -10 -26.5t-23 -8.5q-10 0 -37.5 8.5t-81.5 8.5 q-59 0 -99 -18.5t-66.5 -48.5t-42 -69t-23.5 -82q-4 -16 -6 -31.5t-8 -43.5h426l12 67q43 219 184.5 314.5t372.5 95.5q33 0 72 -4t73.5 -10.5t60 -12.5t34.5 -10q-4 -16 -10.5 -41t-14.5 -49q-8 -29 -18 -59q-6 -27 -27 -27q-29 0 -81 14.5t-124 14.5q-76 0 -127 -17.5 t-85 -47.5t-53 -71t-28 -88q-4 -16 -5 -28.5t-7 -40.5h598l-197 -1012h-229l164 838h-371q-25 -129 -53.5 -273.5t-52.5 -271.5q-29 -147 -56 -293h-231q29 143 57 289q25 125 52.5 272.5t54.5 276.5h-426q-25 -129 -53.5 -273.5t-53.5 -271.5q-29 -147 -57 -293h-229z" />
<glyph unicode="&#xfb04;" horiz-adv-x="1794" d="M72 0q29 143 57 289q25 125 52.5 272.5t54.5 276.5h-142l35 174h141q2 8 3 21.5t6 29.5q43 223 166.5 324.5t328.5 101.5q49 0 95 -8t63 -15q-4 -14 -10.5 -39.5t-12.5 -50.5q-8 -29 -14 -61q-8 -27 -27 -27q-16 0 -42.5 8.5t-80.5 8.5q-96 0 -155.5 -53.5t-75.5 -164.5 q-4 -16 -6 -31.5t-8 -43.5h426q4 23 7 42t7 36q20 111 70.5 186.5t121 123.5t159 68.5t188.5 20.5q63 0 124.5 -9.5t110.5 -20.5t82 -21.5t39 -12.5l-279 -1425h-229l250 1286q-10 4 -45 11.5t-82 7.5q-117 0 -186.5 -51.5t-89.5 -145.5q-4 -23 -8.5 -45.5t-10.5 -50.5h207 l-35 -174h-207q-25 -129 -53.5 -273.5t-52.5 -271.5q-29 -147 -56 -293h-231l164 838h-426q-25 -129 -53.5 -273.5t-53.5 -271.5q-29 -147 -57 -293h-229z" />
<glyph horiz-adv-x="2048" />
<glyph horiz-adv-x="2048" />
<glyph unicode="&#xd;" horiz-adv-x="737" />
<glyph unicode=" "  horiz-adv-x="512" />
<glyph unicode="&#x09;" horiz-adv-x="512" />
<glyph unicode="&#xa0;" horiz-adv-x="512" />
<glyph unicode="!" horiz-adv-x="626" d="M82 0h237l46 233h-238zM186 403l170 977h230l-211 -977h-189z" />
<glyph unicode="&#x22;" horiz-adv-x="688" d="M164 944l33 436h227l-139 -436h-121zM469 944l33 436h227l-139 -436h-121z" />
<glyph unicode="#" horiz-adv-x="1333" d="M41 377l33 162h250l102 344h-227l32 161h244l103 336h186l-100 -336h215l100 336h188l-102 -336h227l-32 -161h-244l-103 -344h226l-33 -162h-244l-110 -377h-189l113 377h-215l-113 -377h-186l110 377h-231zM512 539h213l102 344h-215z" />
<glyph unicode="$" horiz-adv-x="1155" d="M82 10l55 215q20 -10 95 -30.5t180 -20.5q72 0 130 17.5t100 47t64.5 67.5t22.5 79q0 59 -43 105.5t-121 80.5l-73 35q-57 25 -106.5 58.5t-85.5 76.5t-56.5 97.5t-20.5 122.5q0 176 121 286.5t320 141.5l30 172h193l-31 -162q86 -2 140.5 -11.5t76.5 -15.5l-51 -205 q-12 4 -36.5 10.5t-57.5 11.5t-73 9t-81 4q-135 0 -214 -58.5t-79 -144.5q0 -63 36 -99t91 -60l92 -43q59 -27 111.5 -64t90.5 -84t60.5 -105.5t22.5 -127.5q0 -59 -21.5 -124t-69.5 -122t-125 -103.5t-187 -68.5l-41 -215h-191l37 197q-111 0 -191.5 10t-113.5 20z" />
<glyph unicode="%" horiz-adv-x="1705" d="M164 1008q0 96 28.5 172.5t80 130t121 81t153.5 27.5q70 0 125 -21.5t94 -60.5t59.5 -90t20.5 -112q0 -90 -26.5 -165t-76 -128.5t-120 -84t-160.5 -30.5q-68 0 -123 21.5t-94 58.5t-60.5 88.5t-21.5 112.5zM195 -2l1093 1382h191l-1094 -1382h-190zM354 1022 q0 -61 32 -100t89 -39q39 0 72 18.5t56.5 51t36.5 76.5t13 95q0 59 -31 99.5t-90 40.5q-74 0 -126 -68t-52 -174zM860 258q0 98 29 174t80 129t121.5 81t154.5 28q70 0 124 -21.5t93 -59.5t59.5 -90.5t20.5 -111.5q0 -90 -26.5 -165t-75.5 -128t-120 -83.5t-161 -30.5 q-68 0 -123 20t-94 57t-60.5 88.5t-21.5 112.5zM1053 272q0 -61 30.5 -100t87.5 -39q39 0 73 19.5t57.5 52.5t37 77t13.5 93q0 59 -32 100t-91 41q-74 0 -125 -67.5t-51 -176.5z" />
<glyph unicode="&#x26;" horiz-adv-x="1486" d="M41 332q0 92 41 164.5t96 127t112.5 90.5t90.5 54q-35 51 -70 123t-35 180q0 70 26 130.5t74 104.5t117.5 69.5t159.5 25.5q86 0 147.5 -25.5t101.5 -63.5t58.5 -84t18.5 -89q0 -80 -34 -143.5t-80 -111.5t-97 -81t-84 -51q20 -27 57 -70t79 -89t84 -89t73 -72 q23 29 50.5 66t54 83t49 100t34.5 120h219q-35 -170 -110.5 -302t-147.5 -208q14 -12 46 -41t67 -57q39 -35 86 -72l-190 -146q-39 35 -76 68q-31 29 -62.5 55.5t-48.5 42.5q-10 -8 -47 -34.5t-100.5 -54t-152.5 -50t-206 -22.5q-184 0 -292.5 96t-108.5 256zM276 360 q0 -37 14.5 -72.5t42 -63t69.5 -45t98 -17.5q55 0 102 13t86 31.5t66.5 37t42.5 30.5q-25 25 -68 70t-88 95t-85 99t-60 80q-14 -6 -50 -27.5t-74 -54t-67 -76.5t-29 -100zM502 1075q0 -59 24.5 -103t48.5 -79q27 18 60 39.5t62.5 48.5t49 58.5t19.5 70.5q0 37 -25.5 76 t-91.5 39q-59 0 -103 -38t-44 -112z" />
<glyph unicode="'" horiz-adv-x="380" d="M164 944l33 436h225l-139 -436h-119z" />
<glyph unicode="(" horiz-adv-x="706" d="M123 188q0 205 44 387.5t110.5 334t142.5 271t139 199.5h189q-59 -84 -130 -210t-134.5 -282.5t-105.5 -336.5t-42 -373q0 -115 11 -217t27.5 -187t36 -147.5t38.5 -99.5h-179q-23 39 -48 101.5t-46.5 147.5t-37 188.5t-15.5 223.5z" />
<glyph unicode=")" horiz-adv-x="747" d="M-82 -473q57 84 129 210t134.5 283.5t104.5 340t42 378.5q0 113 -10.5 214.5t-27 184.5t-35.5 144t-38 98h176q20 -39 46 -100t49.5 -144t39 -184.5t15.5 -218.5q0 -211 -45 -395t-112 -338t-142.5 -273.5t-139.5 -199.5h-186z" />
<glyph unicode="*" horiz-adv-x="765" d="M205 1124l69 138l177 -86l14 204h143l-63 -209l205 91l16 -140l-213 -41l113 -151l-134 -84l-69 182l-133 -182l-101 86l172 153z" />
<glyph unicode="+" horiz-adv-x="1349" d="M123 410l35 180h413l82 416h224l-82 -416h411l-35 -180h-411l-80 -416h-223l80 416h-414z" />
<glyph unicode="," horiz-adv-x="503" d="M20 -219q72 41 107 104.5t43 114.5h-113l45 233h238l-39 -196q-12 -59 -37.5 -107.5t-60.5 -85.5t-75 -64.5t-77 -43.5z" />
<glyph unicode="-" horiz-adv-x="892" d="M164 412l33 178h491l-33 -178h-491z" />
<glyph unicode="." horiz-adv-x="466" d="M20 0l46 233h237l-45 -233h-238z" />
<glyph unicode="/" horiz-adv-x="804" d="M-82 0l795 1380h215l-795 -1380h-215z" />
<glyph unicode="0" horiz-adv-x="1280" d="M102 510q0 184 40 347t120 285t197.5 191.5t273.5 69.5q135 0 221 -48t135.5 -124t69 -169t19.5 -183q0 -182 -39 -345t-117 -286t-195.5 -195.5t-277.5 -72.5q-129 0 -215 44t-137.5 117.5t-73 170t-21.5 198.5zM334 483q0 -63 13 -118.5t40 -97.5t68 -65.5t96 -23.5 q80 0 151.5 54.5t125 150.5t85 230.5t31.5 293.5q0 53 -11 106.5t-38 95.5t-69 68.5t-103 26.5q-84 0 -154.5 -57t-123 -155.5t-82 -229.5t-29.5 -279z" />
<glyph unicode="1" horiz-adv-x="700" d="M82 1051v180q55 6 112.5 22.5t107.5 39t92 50t67 58.5h178l-270 -1401h-232l219 1133q-25 -14 -58.5 -27.5t-70.5 -25t-74.5 -19.5t-70.5 -10z" />
<glyph unicode="2" horiz-adv-x="933" d="M-102 0l34 182q86 82 158 150q61 59 119.5 112.5t79.5 73.5q166 160 250 283t84 217q0 78 -55.5 132t-159.5 54q-43 0 -84 -11t-74 -25.5t-56.5 -28t-31.5 -17.5l2 199q6 2 34.5 15.5t73.5 27.5t101.5 26.5t115.5 12.5q100 0 172 -30t119 -78t69.5 -110.5t22.5 -129.5 q0 -82 -29.5 -158t-77.5 -146.5t-109.5 -136t-127.5 -129.5q-29 -29 -79 -78t-99 -98l-121 -121h523l-37 -188h-817z" />
<glyph unicode="3" horiz-adv-x="899" d="M-61 -2l26 199q23 -4 65 -11.5t113 -7.5q66 0 130.5 13.5t115.5 43t83 74.5t32 111q0 88 -67.5 148.5t-213.5 60.5h-71l32 166h64q63 0 126.5 16t113 47t80 76t30.5 104q0 33 -11.5 65t-36 57.5t-66.5 42t-103 16.5q-37 0 -71 -7.5t-61.5 -16.5t-47 -17.5t-27.5 -12.5 l-2 176q45 16 121 39t180 23q92 0 159.5 -25.5t114 -69.5t69 -103.5t22.5 -125.5q0 -98 -41 -164.5t-93.5 -107.5t-102.5 -60.5t-69 -23.5v-8q12 -4 47 -25.5t70 -59.5t62.5 -96.5t27.5 -136.5q0 -104 -45 -182t-123.5 -130t-187.5 -78.5t-236 -26.5q-84 0 -140 8t-68 10z " />
<glyph unicode="4" horiz-adv-x="1220" d="M82 346v197l684 837h319l-165 -845h219l-37 -189h-217l-68 -346h-231l67 346h-571zM303 535h387l125 639h-10z" />
<glyph unicode="5" horiz-adv-x="1015" d="M20 0l31 195q8 -2 54.5 -10.5t152.5 -8.5q78 0 146.5 21.5t118.5 60.5t80 91t30 114q0 45 -17.5 87t-55.5 72.5t-96 49t-140 18.5q-74 0 -116 -8t-65 -12l138 710h714l-37 -188h-483l-67 -342q10 2 37.5 5t43.5 3q92 0 164 -30.5t121 -82t73.5 -119t24.5 -143.5 q0 -115 -46 -208t-130 -159.5t-199.5 -102.5t-252.5 -36q-37 0 -74 3.5t-67.5 7.5t-53 7t-29.5 5z" />
<glyph unicode="6" horiz-adv-x="1214" d="M102 457q0 248 76 427t197 294.5t273.5 170t303.5 54.5q78 0 131.5 -11.5t69.5 -15.5l-59 -192q-16 4 -51 12t-95 8q-145 0 -245.5 -51t-165 -119.5t-97 -138.5t-45.5 -104l6 -3q8 6 32 21.5t58.5 31t82 27t104.5 11.5q104 0 182 -37t129 -94.5t76 -128t25 -136.5 q0 -90 -32 -180t-96.5 -161.5t-162 -116.5t-228.5 -45q-121 0 -210 38.5t-146 105t-85 152.5t-28 181zM346 389q0 -98 60.5 -162.5t166.5 -64.5q66 0 118 26.5t89 67.5t56.5 93t19.5 106q0 47 -15.5 89t-43 73.5t-69.5 50t-93 18.5q-74 0 -129 -28.5t-90 -72.5t-52.5 -96.5 t-17.5 -99.5z" />
<glyph unicode="7" horiz-adv-x="864" d="M20 0q39 104 112 255t160 315.5t181 327.5t178 294h-596l37 188h834l-37 -186q-51 -78 -109.5 -175t-117 -203.5t-117 -219.5t-110.5 -219.5t-95 -203.5t-74 -173h-246z" />
<glyph unicode="8" horiz-adv-x="1222" d="M82 313q0 98 41 168t96 117t110.5 73.5t86.5 37.5q-23 18 -51.5 42.5t-55 61.5t-45 85t-18.5 112q0 80 28.5 150.5t88 124.5t149.5 86t213 32q119 0 199 -28.5t128 -73t68.5 -98.5t20.5 -103q0 -72 -25.5 -129.5t-68.5 -103.5t-100.5 -81.5t-121.5 -62.5 q109 -70 156 -148.5t47 -164.5q0 -92 -38 -171t-106.5 -136.5t-163.5 -90t-212 -32.5q-104 0 -183 25.5t-133.5 70.5t-82 105t-27.5 132zM319 342q0 -37 18.5 -66.5t51.5 -52t76 -35t90 -12.5q104 0 172 53.5t68 130.5q0 59 -42 120t-153 126q-27 -12 -74 -34.5t-93 -55.5 t-80 -76t-34 -98zM475 1038q0 -70 48 -120t116 -93q20 8 64.5 27.5t89.5 51.5t78.5 75t33.5 96q0 57 -52 100.5t-144 43.5q-98 0 -166 -48.5t-68 -132.5z" />
<glyph unicode="9" horiz-adv-x="1232" d="M82 6l59 193l50 -12.5t94 -8.5q145 0 245.5 51.5t165 120t98 138t44.5 104.5l-4 2q-10 -6 -34 -21.5t-58.5 -31t-82 -26.5t-102.5 -11q-106 0 -184 37t-128 94t-75 128t-25 136q0 90 32 180t96.5 162t161.5 117t227 45q123 0 211 -39t145 -105.5t84.5 -152.5t27.5 -180 q0 -250 -75.5 -428.5t-196.5 -294t-272.5 -169.5t-302.5 -54q-78 0 -131.5 11t-69.5 15zM377 928q0 -94 58.5 -163t162.5 -69q76 0 130 29t89 73t52.5 96t17.5 99q0 98 -59.5 163t-168.5 65q-66 0 -118 -27t-88.5 -68t-56 -94t-19.5 -104z" />
<glyph unicode=":" horiz-adv-x="620" d="M61 0l45 233h238l-45 -233h-238zM174 582l45 233h238l-45 -233h-238z" />
<glyph unicode=";" horiz-adv-x="657" d="M61 -219q72 41 107 104.5t43 114.5h-113l45 233h238l-39 -196q-12 -59 -37.5 -107.5t-60.5 -85.5t-75 -64.5t-79 -43.5zM211 582l45 233h238l-45 -233h-238z" />
<glyph unicode="&#x3c;" horiz-adv-x="1079" d="M123 506l760 590l114 -150l-596 -442l420 -453l-168 -143z" />
<glyph unicode="=" horiz-adv-x="1300" d="M82 233l35 179h1011l-34 -179h-1012zM152 600l34 178h1012l-35 -178h-1011z" />
<glyph unicode="&#x3e;" horiz-adv-x="1042" d="M41 51l596 453l-424 442l170 150l537 -590l-766 -598z" />
<glyph unicode="?" horiz-adv-x="806" d="M82 0l45 233h238l-46 -233h-237zM127 1161l57 203q23 10 86.5 24.5t149.5 14.5q102 0 176 -28.5t121 -73t68.5 -97.5t21.5 -100q0 -74 -23.5 -130t-60.5 -100.5t-80 -81t-82 -69.5q-78 -66 -118 -125t-54 -137q-4 -12 -5 -21.5t-3 -17.5t-2 -14h-227l4 20t3 20.5t5 22.5 q16 82 40.5 140.5t53.5 98.5t57.5 66.5t53.5 46.5q27 20 58.5 45t60 53.5t48 61.5t19.5 72q0 20 -12.5 46.5t-39 49.5t-69.5 38t-104 15q-33 0 -67 -5t-61.5 -13t-48 -15.5t-26.5 -9.5z" />
<glyph unicode="@" horiz-adv-x="1712" d="M123 547q0 209 75.5 368.5t201.5 268t290 164t340 55.5q150 0 262.5 -41t188 -109.5t112.5 -157.5t37 -184q0 -123 -41 -224t-109.5 -173t-157.5 -112t-183 -40t-132 39t-38 91q0 10 1 17t3 15h-6q-10 -16 -28.5 -43.5t-48.5 -53.5t-72 -44t-99 -18q-90 0 -151.5 57 t-61.5 160q0 78 34.5 166t101.5 161.5t165 122.5t225 49q35 0 73 -3t71.5 -8t58.5 -10l35 -7q-41 -104 -74 -193q-14 -37 -28.5 -74.5t-27 -70.5t-20.5 -56.5t-12 -33.5q-16 -41 -24.5 -65.5t-8.5 -51.5q0 -29 17.5 -46.5t52.5 -17.5q45 0 96 35t96 98.5t75 151.5t30 195 q0 76 -23.5 147.5t-74 127.5t-128 90t-186.5 34q-170 0 -303 -64.5t-226 -172t-142.5 -247t-49.5 -288.5q0 -100 34 -188.5t97.5 -153t153.5 -102t201 -37.5q45 0 90 12t84 27.5t66.5 30t35.5 18.5l-45 -121q-10 -4 -35.5 -14.5t-63.5 -19.5t-85 -16t-99 -7 q-117 0 -228.5 39.5t-198.5 113.5t-140 178.5t-53 235.5zM686 606q0 -47 28.5 -83t73.5 -36q37 0 67 21.5t53.5 54.5t41 71t29.5 71q8 23 22.5 59.5t28.5 71.5q16 41 33 88q-10 4 -27.5 9t-46.5 5q-68 0 -124 -34t-96 -85t-61.5 -108.5t-21.5 -104.5z" />
<glyph unicode="A" horiz-adv-x="1275" d="M-143 0l792 1380h279l246 -1380h-254l-50 311h-583l-170 -311h-260zM389 498h451l-99 630h-8z" />
<glyph unicode="B" horiz-adv-x="1212" d="M61 0l269 1380h463q115 0 191.5 -29.5t122.5 -76.5t65.5 -103.5t19.5 -111.5q0 -90 -40 -152.5t-91 -101.5t-100.5 -58.5t-65.5 -21.5l-2 -8q20 -4 55 -21.5t69 -51.5t58.5 -86t24.5 -126q0 -86 -40 -164t-116 -137t-183.5 -95t-242.5 -36h-457zM340 188q10 -2 29.5 -5 t41 -5t43 -3t40.5 -1q80 0 145.5 21.5t111.5 57.5t71.5 83t25.5 98q0 80 -65.5 138.5t-213.5 58.5h-143zM461 801h151q74 0 134.5 19.5t103.5 52t65.5 76.5t22.5 93q0 72 -59.5 122t-186.5 50q-68 0 -104.5 -3t-48.5 -5z" />
<glyph unicode="C" horiz-adv-x="1179" d="M82 578q0 190 61.5 341.5t172 259t267 165t347.5 57.5q139 0 221 -22.5t111 -35.5l-68 -206q-29 14 -102.5 39.5t-190.5 25.5q-102 0 -202.5 -44t-178.5 -123t-126 -190.5t-48 -246.5q0 -84 28.5 -160t82 -134t128 -93t165.5 -35q53 0 98 9.5t80 20.5t58.5 22.5 t33.5 17.5l-12 -207q-12 -6 -38 -15.5t-62 -19.5t-82 -17t-97 -7q-133 0 -251 41.5t-206 118.5t-139 187.5t-51 250.5z" />
<glyph unicode="D" horiz-adv-x="1439" d="M61 0l269 1380h405q156 0 272.5 -45t194.5 -125t117 -187.5t39 -231.5q0 -150 -51.5 -292.5t-154.5 -253t-258 -178t-362 -67.5h-471zM342 186q8 -2 56 -5t98 -3q119 0 228.5 40t193 118t135 193.5t51.5 267.5q0 92 -28.5 166.5t-82 128t-129.5 82t-170 28.5 q-59 0 -100 -4t-57 -8z" />
<glyph unicode="E" horiz-adv-x="1034" d="M61 0l269 1380h745l-37 -188h-501l-76 -389h475l-37 -189h-475l-84 -426h506l-35 -188h-750z" />
<glyph unicode="F" horiz-adv-x="1013" d="M61 0l269 1380h745l-37 -188h-501l-76 -389h473l-37 -189h-473l-119 -614h-244z" />
<glyph unicode="G" horiz-adv-x="1404" d="M82 600q0 166 64.5 312.5t178 255t269.5 171t338 62.5t282.5 -23.5t128.5 -34.5l-69 -208q-6 4 -36 15t-77 22.5t-108.5 20.5t-132.5 9q-98 0 -201 -39t-185.5 -115.5t-136 -188t-53.5 -259.5q0 -88 29.5 -165t82 -134t126 -90t163.5 -33q74 0 123.5 11.5t65.5 15.5 l61 319h-243l36 189h488l-127 -654q-12 -6 -47 -19t-87 -26.5t-119 -23.5t-144 -10q-166 0 -291 48t-209 132t-127 197.5t-43 242.5z" />
<glyph unicode="H" horiz-adv-x="1488" d="M61 0l269 1380h243l-112 -577h610l113 577h243l-268 -1380h-244l119 614h-610l-119 -614h-244z" />
<glyph unicode="I" horiz-adv-x="634" d="M61 0l269 1380h243l-268 -1380h-244z" />
<glyph unicode="J" horiz-adv-x="751" d="M-123 0l39 201q8 -4 43 -13.5t80 -9.5q78 0 134.5 44.5t76.5 142.5q2 8 10 56t22.5 120.5t32 164t35.5 183.5q41 217 96 491h244q-47 -236 -86 -438q-16 -86 -33.5 -173t-32 -162t-25.5 -133t-17 -87q-16 -88 -48 -162.5t-84.5 -129t-128 -85t-182.5 -30.5 q-59 0 -110.5 8t-65.5 12z" />
<glyph unicode="K" horiz-adv-x="1206" d="M61 0l269 1380h241l-125 -639l627 639h277l-658 -665l410 -715h-297l-371 676l-131 -676h-242z" />
<glyph unicode="L" horiz-adv-x="944" d="M61 0l269 1380h243l-233 -1192h502l-35 -188h-746z" />
<glyph unicode="M" horiz-adv-x="1759" d="M-61 0l452 1380h275l129 -1077l553 1077h288l-61 -1380h-225l59 1069h-8l-539 -1069h-241l-123 1069h-9l-333 -1069h-217z" />
<glyph unicode="N" horiz-adv-x="1507" d="M61 0l269 1380h309l375 -1056h8l207 1056h217l-268 -1380h-301l-381 1075h-9l-208 -1075h-218z" />
<glyph unicode="O" horiz-adv-x="1525" d="M82 559q0 190 59.5 346t164 266.5t244.5 170t304 59.5q133 0 242.5 -45t186.5 -123t119 -182.5t42 -223.5q0 -195 -57.5 -351.5t-160 -267t-244.5 -169.5t-312 -59q-131 0 -239.5 44t-185.5 121.5t-120 183t-43 230.5zM342 567q0 -84 23.5 -154.5t68.5 -122.5t110.5 -82 t149.5 -30q100 0 190.5 46t156 129t104.5 200t39 260q0 84 -23.5 155.5t-70 124t-112 81t-151.5 28.5q-100 0 -188 -46t-154.5 -130t-104.5 -201t-38 -258z" />
<glyph unicode="P" horiz-adv-x="1175" d="M61 0l269 1380h325q123 0 217.5 -30.5t157 -83t94 -122t31.5 -149.5q0 -96 -36 -185t-110.5 -156.5t-188 -107.5t-267.5 -40q-16 0 -38.5 1t-45.5 2t-41 2t-25 3l-100 -514h-242zM438 692q10 -2 39 -3t64 -1q94 0 162.5 27.5t112.5 70.5t64.5 96.5t20.5 106.5 q0 94 -63.5 155.5t-196.5 61.5q-53 0 -74.5 -1t-29.5 -3z" />
<glyph unicode="Q" horiz-adv-x="1525" d="M82 559q0 190 59.5 346t164 266.5t244.5 170t304 59.5q133 0 242.5 -45t186.5 -123t119 -182.5t42 -223.5q0 -166 -42 -304t-118 -244.5t-182.5 -176t-237.5 -100.5l25 -238h-244l-20 218q-123 8 -222.5 54t-171 123t-110.5 179t-39 221zM342 567q0 -143 66.5 -246.5 t193.5 -132.5l-16 170h241l17 -153q74 29 136 84t107.5 133t71 177t25.5 214q0 84 -23.5 155.5t-70 124t-112 81t-151.5 28.5q-100 0 -188 -46t-154.5 -130t-104.5 -200.5t-38 -258.5z" />
<glyph unicode="R" horiz-adv-x="1232" d="M61 0l269 1380h422q125 0 212 -30.5t139 -81.5t75.5 -118t23.5 -140q0 -115 -43 -194t-101.5 -129t-121 -74.5t-98.5 -32.5l227 -580h-266l-203 547h-186l-105 -547h-244zM444 727q10 0 53.5 -2t90.5 -2q76 0 141.5 19.5t114.5 54t76.5 86t27.5 112.5q0 41 -14 80t-46 69 t-83 47t-125 17q-39 0 -82 -1t-59 -3z" />
<glyph unicode="S" horiz-adv-x="1011" d="M-20 12l55 213q20 -10 95 -30.5t179 -20.5q72 0 130.5 17.5t99.5 47t63.5 67.5t22.5 79q0 117 -162 186l-74 35q-57 25 -106.5 58.5t-85 76.5t-56 98.5t-20.5 123.5q0 102 43 183t120.5 138t185.5 87t237 30q104 0 171.5 -10.5t92.5 -18.5l-53 -205q-12 4 -37 10.5 t-57.5 11.5t-71.5 9t-80 4q-135 0 -215 -58.5t-80 -144.5q0 -63 37 -99t90 -60l92 -43q59 -27 111.5 -63t91.5 -83t61.5 -105.5t22.5 -127.5q0 -72 -31 -148.5t-101.5 -141.5t-184 -106.5t-277.5 -41.5q-111 0 -194 10t-115 22z" />
<glyph unicode="T" horiz-adv-x="999" d="M102 1192l37 188h983l-37 -188h-370l-232 -1192h-241l231 1192h-371z" />
<glyph unicode="U" horiz-adv-x="1456" d="M123 393q0 39 7 79t15 77l162 831h242l-164 -845q-4 -25 -10 -57t-6 -58q0 -49 17 -94t53 -78t87.5 -52.5t118.5 -19.5q78 0 135.5 27.5t97.5 73t64.5 103.5t36.5 120l172 880h244l-174 -886q-20 -109 -66.5 -203t-121.5 -164t-180 -108.5t-245 -38.5q-121 0 -211 32.5 t-151.5 88t-92 131t-30.5 161.5z" />
<glyph unicode="V" horiz-adv-x="1251" d="M123 1380h252l155 -1130h9l596 1130h260l-764 -1380h-289z" />
<glyph unicode="W" horiz-adv-x="1871" d="M143 1380h242l45 -1067h8l486 1067h280l76 -1067h8l461 1067h246l-623 -1380h-291l-67 1118h-8l-496 -1118h-274z" />
<glyph unicode="X" horiz-adv-x="1146" d="M-164 0l590 700l-295 680h266l205 -475l393 475h275l-553 -653l325 -727h-280l-223 516l-420 -516h-283z" />
<glyph unicode="Y" horiz-adv-x="1048" d="M82 1380h252l178 -659l428 659h252l-598 -903l-92 -477h-244l92 477z" />
<glyph unicode="Z" horiz-adv-x="1015" d="M-82 0l35 188l821 1004h-608l37 188h895l-37 -188l-821 -1004h645l-35 -188h-932z" />
<glyph unicode="[" horiz-adv-x="788" d="M20 -473l363 1853h446l-36 -180h-226l-291 -1493h226l-35 -180h-447z" />
<glyph unicode="\" horiz-adv-x="821" d="M184 1380h224l270 -1380h-229z" />
<glyph unicode="]" horiz-adv-x="745" d="M-143 -473l34 180h226l291 1493h-228l37 180h447l-363 -1853h-444z" />
<glyph unicode="^" horiz-adv-x="942" d="M197 801l432 579h202l226 -579h-217l-146 418l-293 -418h-204z" />
<glyph unicode="_" horiz-adv-x="1026" d="M-20 -473l20 111h1047l-21 -111h-1046z" />
<glyph unicode="`" horiz-adv-x="489" d="M82 1380h221l105 -301h-123z" />
<glyph unicode="a" horiz-adv-x="1171" d="M92 389q0 150 51.5 269.5t140.5 202.5t208.5 127t257.5 44q166 0 265 -21.5t115 -25.5q-33 -170 -59 -311q-12 -59 -23.5 -118.5t-21.5 -110t-17.5 -87.5t-9.5 -49q-14 -78 -24 -165t-17 -144h-161q-29 0 -38 11.5t-9 29.5q0 10 1 26.5t5 32.5q4 18 8 37h-4 q-6 -8 -26.5 -33.5t-56.5 -53t-89 -49t-123 -21.5q-94 0 -164 31.5t-116 87t-69.5 130t-23.5 160.5zM336 383q0 -45 11 -86t33.5 -71.5t55.5 -49t78 -18.5q94 0 177 82t118 262q4 18 14.5 71.5t20.5 112.5q12 68 28 150q-10 4 -47 11t-92 7q-82 0 -153.5 -33t-126 -94 t-86 -148t-31.5 -196z" />
<glyph unicode="b" horiz-adv-x="1173" d="M41 27l281 1441h229l-107 -546h11q12 14 33.5 33.5t53 36t77 28.5t106.5 12q90 0 156.5 -31.5t111.5 -84t66.5 -123t21.5 -146.5q0 -113 -35.5 -230.5t-113.5 -215t-201 -159.5t-297 -62q-147 0 -248.5 16t-144.5 31zM299 174q16 -4 54 -12t85 -8q82 0 155 33.5t126 98 t85 155.5t32 208q0 35 -9.5 71t-30 64.5t-53 47t-81.5 18.5q-117 0 -191 -95.5t-106 -248.5z" />
<glyph unicode="c" horiz-adv-x="937" d="M92 440q0 147 48 258t129 185.5t188.5 111.5t226.5 37q51 0 97 -8t82 -19.5t60.5 -23.5t34.5 -18q-8 -37 -18 -80t-14 -62q-2 -6 -6.5 -18t-18.5 -12q-8 0 -12 2t-10 6q-6 2 -23.5 11t-43.5 17.5t-57.5 15.5t-64.5 7q-88 0 -154.5 -35t-111.5 -92t-67.5 -132t-22.5 -155 q0 -55 16.5 -105t49 -87t79.5 -59.5t109 -22.5q49 0 98 15.5t68 21.5q10 4 24.5 10t22.5 6q12 0 12 -14q0 -8 -2 -28.5t-6 -45.5t-8 -50.5t-9 -43.5q-10 -6 -32.5 -14.5t-55 -17.5t-72.5 -15t-83 -6q-113 0 -198 35.5t-141 98t-85 146.5t-29 180z" />
<glyph unicode="d" horiz-adv-x="1183" d="M92 393q0 150 48 268.5t133 201.5t202 126t254 43q70 0 118 -8t60 -12l88 456h230q-57 -305 -107 -553q-20 -104 -40.5 -207.5t-37 -187.5t-28 -141t-13.5 -70q-14 -78 -27.5 -164t-19.5 -145h-186q-23 0 -23 18q0 4 2.5 14.5t2.5 14.5q2 10 4 23.5t6 29.5t6 37h-4 q-14 -23 -40 -49.5t-62.5 -51t-83 -40.5t-101.5 -16q-100 0 -172 37.5t-118 97t-68.5 133.5t-22.5 145zM336 383q0 -47 10 -88t32.5 -71.5t57.5 -48t86 -17.5q102 0 177 82t110 262q4 18 14.5 71.5t20.5 112.5q12 68 28 148q-14 4 -55.5 12t-111.5 8q-72 0 -138.5 -33 t-118 -94t-82 -148t-30.5 -196z" />
<glyph unicode="e" horiz-adv-x="1126" d="M92 416q0 115 38 225.5t108.5 197.5t174 140t232.5 53q106 0 181 -31.5t121 -81t66.5 -110.5t20.5 -119q0 -41 -7 -80t-15 -70.5t-17.5 -54t-11.5 -30.5h-649q-2 -6 -4 -24.5t-2 -37.5q0 -98 71.5 -166.5t210.5 -68.5q33 0 66 6t61.5 14t49 16.5t28.5 12.5t21.5 9t21.5 5 q14 0 14 -16q0 -4 -3 -24.5t-7 -47.5t-8 -54.5t-8 -45.5q-25 -10 -95.5 -31.5t-168.5 -21.5q-117 0 -208 32.5t-153.5 91t-95.5 138.5t-33 174zM367 610h426q2 8 7 31t5 51q0 31 -10.5 61.5t-32 55.5t-56 40t-81.5 15q-70 0 -117 -29.5t-77 -70.5t-44 -84t-20 -70z" />
<glyph unicode="f" horiz-adv-x="673" d="M72 0q27 143 55 289q25 125 52.5 272.5t53.5 276.5h-141l35 174h141l11 59q43 221 167.5 319.5t325.5 98.5q61 0 101 -8t57 -15q-4 -14 -10.5 -38.5t-12.5 -49.5q-8 -29 -16 -61q-6 -29 -29 -29q-10 0 -37.5 8.5t-81.5 8.5q-109 0 -161 -61.5t-70 -153.5l-14 -78h243 l-34 -174h-244q-25 -129 -53.5 -273.5t-53.5 -271.5q-29 -147 -55 -293h-229z" />
<glyph unicode="g" horiz-adv-x="1165" d="M61 -469q2 27 7 49q4 20 6 41t6 35q6 47 47 47q18 0 38.5 -4t50.5 -8t70 -8.5t97 -4.5q45 0 93 11.5t90 39t74 70.5t44 109q4 27 11 57.5t14 59.5q8 33 12 65h-10q-12 -14 -36 -33.5t-55.5 -36t-74.5 -28.5t-96 -12q-92 0 -160 30.5t-114 81.5t-68.5 120t-22.5 146 q0 113 37 232t115.5 217t201.5 161.5t293 63.5q147 0 248.5 -16.5t144.5 -30.5q-43 -215 -82 -414q-16 -86 -33.5 -175t-35 -175t-31.5 -162.5t-24 -136.5q-20 -109 -57.5 -188.5t-100 -132t-153.5 -79t-218 -26.5q-141 0 -225 15.5t-103 19.5zM330 371q0 -35 9 -72 t30.5 -67.5t57.5 -50t87 -19.5q113 0 183.5 95t103.5 249l65 332q-16 4 -54 12t-85 8q-82 0 -154.5 -32.5t-126 -95t-85 -153t-31.5 -206.5z" />
<glyph unicode="h" d="M41 0l287 1468h229l-104 -542h4q10 12 30.5 30.5t53 36t75.5 29.5t101 12q76 0 135 -24.5t99 -64.5t61.5 -90t21.5 -101q0 -49 -7 -95.5t-11 -64.5q-6 -33 -14.5 -76t-17.5 -91t-19.5 -98t-18.5 -98q-23 -113 -45 -231h-229q29 152 53 279q10 53 20.5 106t19.5 97t15 77 t8 45q4 23 8.5 48.5t4.5 54.5q0 66 -42 107.5t-114 41.5q-96 0 -169 -88t-107 -268q-10 -55 -26.5 -140.5t-33.5 -164.5q-18 -94 -37 -195h-231z" />
<glyph unicode="i" horiz-adv-x="518" d="M41 0l197 1012h229l-197 -1012h-229zM276 1241l46 234h237l-45 -234h-238z" />
<glyph unicode="j" horiz-adv-x="532" d="M-307 -483q4 14 10 38.5t14 49.5q8 29 19 61q6 29 26 29q10 0 32 -8.5t65 -8.5q25 0 51.5 7.5t51 26t44 48t29.5 74.5q6 33 19.5 101.5t30.5 157.5t36.5 191.5t40.5 204.5q47 240 102 523h230q-49 -258 -95 -486q-18 -96 -38.5 -196.5t-38 -190.5t-32 -164.5 t-22.5 -121.5q-18 -96 -59 -164t-97.5 -111t-128 -63.5t-153.5 -20.5q-57 0 -89 7t-48 16zM291 1241l45 234h237l-45 -234h-237z" />
<glyph unicode="k" horiz-adv-x="983" d="M41 0l285 1468h229l-172 -884l412 428h270l-465 -463l305 -549h-287l-249 512l-99 -512h-229z" />
<glyph unicode="l" horiz-adv-x="514" d="M41 0l285 1468h229l-285 -1468h-229z" />
<glyph unicode="m" horiz-adv-x="1728" d="M41 0q33 166 61 309q12 61 23.5 123t22 115t18.5 95t12 65q16 86 28.5 168.5t20.5 136.5h183q16 0 20 -5.5t4 -13.5q0 -4 -1 -11t-1 -11q-2 -4 -4 -20.5t-6 -35.5q-4 -23 -8 -47h4q4 10 22.5 37t52 55.5t87 50t129.5 21.5q72 0 120 -22.5t78.5 -53t45 -61.5t20.5 -47 q10 18 33.5 50t62.5 61.5t95.5 51t131.5 21.5q86 0 148.5 -23.5t102.5 -63.5t59.5 -92t19.5 -112q0 -18 -3 -44.5t-8 -53.5t-9 -48.5t-7 -33.5q-4 -18 -10 -53t-14 -78t-18.5 -91t-18.5 -95q-23 -113 -47 -244h-231q27 133 49 246q8 49 18 98t18.5 92t14.5 78t10 53 q6 27 13.5 72t7.5 70q0 63 -35 102t-115 39q-45 0 -85 -22.5t-73.5 -63.5t-58.5 -96.5t-37 -118.5q-4 -25 -11 -61.5t-16.5 -79.5t-18.5 -90.5t-17 -92.5q-23 -106 -43 -225h-230q25 133 47 246q8 49 18.5 98t18.5 92t15.5 78t11.5 53q4 27 12 72t8 70q0 63 -35.5 102 t-113.5 39q-45 0 -85 -22.5t-74 -63.5t-58.5 -96.5t-36.5 -118.5q-4 -25 -11.5 -61.5t-16.5 -79.5t-18 -90.5t-18 -92.5q-23 -106 -43 -225h-231z" />
<glyph unicode="n" d="M41 0q35 178 63 324q12 61 24.5 123.5t22 114.5t16.5 89t11 51q16 78 28.5 164t20.5 146h185q23 0 22 -17q0 -4 -1 -11t-1 -11q-2 -10 -4 -27.5t-6 -34.5q-4 -20 -8 -43h4q2 6 19.5 33t53 56.5t91 52t133.5 22.5t138 -25.5t100 -65.5t60.5 -90t20.5 -99q0 -41 -4 -76 t-8 -51q-6 -33 -15.5 -77t-18.5 -94.5t-19.5 -102.5t-20.5 -103q-23 -119 -47 -248h-231q31 158 55 285q10 55 21.5 108t20.5 99.5t15 79t9 44.5q4 20 7 43t3 46q0 63 -42 106t-114 43q-96 0 -169 -88t-107 -268q-10 -55 -26.5 -140.5t-33.5 -164.5q-18 -94 -39 -193h-229z " />
<glyph unicode="o" horiz-adv-x="1196" d="M92 424q0 129 37 240.5t109.5 193.5t180 128t247.5 46q115 0 197.5 -37t136 -97t79 -136t25.5 -152q0 -137 -37 -252.5t-108.5 -199.5t-180 -131t-250.5 -47q-104 0 -185 31.5t-136 90t-85 140.5t-30 182zM334 422q0 -47 11 -93t37 -83t66.5 -60.5t98.5 -23.5 q68 0 125 31.5t99 90t66.5 138.5t24.5 178q0 104 -55.5 177t-157.5 73q-63 0 -120.5 -28.5t-100.5 -83t-68.5 -134.5t-25.5 -182z" />
<glyph unicode="p" horiz-adv-x="1187" d="M-41 -473q59 309 109 559q20 106 40.5 210.5t37 190.5t27.5 143.5t15 71.5q16 78 28.5 164t21.5 146h184q23 0 22 -19v-8q-4 -10 -6 -29.5t-6 -37.5q-4 -23 -8 -48h4q6 10 24.5 37t54.5 54.5t89 49t129 21.5q98 0 169 -37t115 -94t65.5 -125.5t21.5 -132.5 q0 -121 -36 -239.5t-113 -213t-194.5 -152.5t-283.5 -58q-70 0 -123 8t-65 12l-93 -473h-229zM315 178q8 -4 44.5 -12t93.5 -8q94 0 167.5 39t126 105.5t80 152.5t27.5 178q0 100 -52 160.5t-138 60.5q-43 0 -86 -19.5t-81 -60.5t-69 -106.5t-47 -157.5q-4 -18 -15.5 -72.5 t-21.5 -111.5q-12 -68 -29 -148z" />
<glyph unicode="q" horiz-adv-x="1173" d="M92 360q0 123 43 244t128 216t212 153.5t297 58.5q70 0 132.5 -6t110.5 -14t79.5 -16.5t38.5 -10.5l-283 -1458h-229l110 571h-10l-25.5 -25.5t-52.5 -40t-79 -36.5t-105 -16q-82 0 -149.5 29.5t-116 81.5t-75 121t-26.5 148zM340 373q0 -39 12.5 -77t38 -67.5t63.5 -48 t89 -18.5q98 0 166.5 90t101.5 254l63 332q-12 4 -52 12t-85 8q-96 0 -169.5 -46t-124 -116.5t-77 -156.5t-26.5 -166z" />
<glyph unicode="r" horiz-adv-x="757" d="M41 0q35 178 63 328q12 63 24.5 126.5t23 119t18.5 95.5t12 58q8 39 14.5 81t12.5 81t10 71t8 52h185q23 0 22 -17q0 -4 -1 -10t-1 -10q-4 -18 -8 -49t-8 -47h4q4 6 22.5 30.5t55.5 52t92 49t135 21.5q45 0 75.5 -9t39.5 -13q-4 -23 -10.5 -48.5t-12.5 -49t-10 -42 t-6 -24.5q-4 -10 -8.5 -16.5t-14.5 -6.5q-8 0 -17 2t-20 6q-31 10 -67 11q-49 0 -96.5 -17.5t-87 -57.5t-71.5 -105.5t-50 -159.5q-4 -16 -9.5 -47t-13.5 -70t-16 -82t-17 -86q-20 -100 -41 -217h-231z" />
<glyph unicode="s" horiz-adv-x="792" d="M0 8q2 12 7 33.5t11.5 45.5t11.5 46.5t7 34.5q6 27 31 27q6 0 14 -2.5t16 -4.5q14 -4 59.5 -15t102.5 -11q109 0 162 40t53 91q0 37 -23.5 65.5t-78.5 51.5l-76 30q-104 41 -142 106.5t-38 158.5q0 63 27.5 122.5t81 105.5t130 72.5t176.5 26.5q121 0 184.5 -12t76.5 -16 q-6 -23 -15.5 -61t-19.5 -75q-8 -25 -14.5 -33t-16.5 -8q-14 0 -22 7q-16 4 -61.5 18t-100.5 14q-86 0 -137.5 -35.5t-51.5 -91.5q0 -47 30 -76.5t91 -54.5l62 -24q90 -37 136 -103.5t46 -154.5q0 -72 -30 -135.5t-85 -110.5t-134 -73.5t-177 -26.5q-135 0 -206 12t-87 16z " />
<glyph unicode="t" horiz-adv-x="636" d="M61 838l33 174h144l43 223h229l-43 -223h242l-35 -174h-242q-2 -10 -9 -50t-18.5 -94.5t-22.5 -115t-21.5 -112.5t-17.5 -89t-7 -41q-4 -12 -8 -38t-4 -44q0 -45 28.5 -67.5t75.5 -22.5t74.5 8t42.5 8q18 0 18 -18q0 -14 -2 -25q-2 -29 -6 -53q-4 -23 -6 -45.5t-2 -36.5 q-18 -6 -62.5 -14t-105.5 -8q-154 0 -220.5 64.5t-66.5 176.5q0 27 4 56.5t10 58.5q0 6 7.5 43t17.5 90t22.5 114.5t22.5 116t17.5 93t9.5 45.5h-142z" />
<glyph unicode="u" d="M102 260q0 41 4.5 76t8.5 51q12 66 31.5 170.5t39.5 206.5q23 119 50 248h229q-31 -158 -55 -285q-10 -55 -20.5 -109.5t-20 -99.5t-15.5 -77.5t-8 -45.5q-10 -45 -10 -88q0 -63 41 -106t112 -43q98 0 171 88t108 268q10 55 26.5 139t32.5 164q18 94 37 195h232 q-35 -178 -64 -324q-12 -61 -24.5 -123.5t-22.5 -115t-17 -89t-10 -51.5q-16 -78 -28 -164t-21 -145h-186q-20 0 -21 16q0 4 1.5 11.5t1.5 11.5q2 8 4 26.5t6 34.5q4 20 8 43h-4q-4 -6 -21.5 -32.5t-52.5 -56t-90 -52t-133 -22.5t-138.5 25.5t-100.5 65.5t-60.5 90t-20.5 99 z" />
<glyph unicode="v" horiz-adv-x="987" d="M82 1012h244l108 -742h8l392 742h256l-580 -1012h-244z" />
<glyph unicode="w" horiz-adv-x="1595" d="M102 1012h226l55 -750h14l365 750h250l69 -750h15l352 750h229l-510 -1012h-260l-69 745h-9l-356 -745h-264z" />
<glyph unicode="x" horiz-adv-x="1003" d="M-102 0l483 508l-250 504h256l141 -338l287 338h270l-438 -488l268 -524h-274l-149 346l-310 -346h-284z" />
<glyph unicode="y" horiz-adv-x="964" d="M-246 -483q4 25 13 49q6 23 13 49.5t15 52.5q10 27 27 27q10 0 31.5 -8.5t62.5 -8.5q27 0 57.5 4.5t63.5 20.5t67.5 51t69.5 94q16 27 30.5 53.5t28.5 49.5q14 25 31 51l-180 1010h248l106 -705h8l367 705h254q-135 -236 -252 -445q-51 -90 -102 -182t-99.5 -176 t-87.5 -154.5t-65 -115.5q-51 -88 -101.5 -169t-112 -142.5t-138 -97.5t-183.5 -36q-84 0 -121.5 8.5t-50.5 14.5z" />
<glyph unicode="z" horiz-adv-x="845" d="M-41 0l29 156l573 682h-409l34 174h701l-29 -146l-579 -692h452l-33 -174h-739z" />
<glyph unicode="{" horiz-adv-x="768" d="M20 373l33 164q68 2 112 19t72.5 45t43 62.5t22.5 75.5q6 27 14.5 69t15.5 84t13 74.5t8 43.5q39 197 145.5 283.5t258.5 86.5h51l-33 -178q-82 0 -139 -40t-76 -138q-10 -55 -17 -93t-13.5 -64.5t-10.5 -49t-8 -47.5q-6 -35 -19.5 -83t-41 -93t-72.5 -82t-115 -51 l-2 -12q82 -16 111.5 -69.5t29.5 -111.5q0 -35 -5 -68.5t-9 -60.5q-4 -25 -9 -47t-10 -49t-13.5 -64.5t-18.5 -93.5q-2 -12 -3 -23.5t-1 -21.5q0 -72 39 -103.5t110 -31.5l-34 -178h-52q-125 0 -197.5 59.5t-72.5 188.5q0 29 2 59.5t10 65.5q2 8 8.5 41.5t14.5 75.5l16 84 t15 69q6 37 6 68q0 57 -38 94t-141 41z" />
<glyph unicode="|" horiz-adv-x="614" d="M-41 -473l363 1853h231l-363 -1853h-231z" />
<glyph unicode="}" horiz-adv-x="788" d="M-123 -473l35 178q80 0 138.5 41t76.5 139q10 55 17.5 93t12.5 65t9 49.5t10 46.5q6 35 19.5 83t40 93t71.5 82t117 52l2 12q-84 18 -112.5 70.5t-28.5 115.5q0 35 4 65.5t10 57.5q4 25 8 47.5t9.5 49t12.5 64.5t17 93q6 31 6 53q0 68 -41 96.5t-108 28.5l35 178h51 q127 0 198.5 -58t71.5 -196q0 -53 -12 -116q-2 -10 -8.5 -43t-14.5 -75l-16 -84t-12 -69q-8 -33 -9 -69q0 -55 38 -92t141 -41l-31 -164q-68 -2 -112 -19.5t-72.5 -45t-43 -63.5t-22.5 -75q-6 -27 -14.5 -69t-15.5 -84t-14 -75.5t-9 -41.5q-39 -197 -145.5 -285t-258.5 -88 h-51z" />
<glyph unicode="~" horiz-adv-x="1247" d="M143 623q18 12 47 31.5t68 38t86 31.5t100 13q78 0 129.5 -19.5t92.5 -42t84 -42t104 -19.5q37 0 75 12.5t68.5 29t53 33t32.5 22.5l41 -156q-14 -12 -42.5 -33.5t-68.5 -43t-92.5 -38t-111.5 -16.5q-74 0 -127 19.5t-98 42t-89 42t-102 19.5q-37 0 -69.5 -9.5t-60 -23.5 t-49 -28.5t-36.5 -24.5z" />
<glyph unicode="&#xa1;" horiz-adv-x="602" d="M0 -436l209 975h190l-170 -975h-229zM217 702l45 234h238l-45 -234h-238z" />
<glyph unicode="&#xa2;" horiz-adv-x="1112" d="M123 500q0 133 40 236.5t107.5 177t159.5 117.5t197 56l30 166h199l-33 -172q63 -12 106.5 -29.5t59.5 -27.5q-8 -39 -18 -81t-17 -62q-2 -6 -5 -18.5t-19 -12.5q-8 0 -21 8q-6 2 -23.5 11.5t-43 17.5t-57 15t-66.5 7q-88 0 -154.5 -34.5t-110.5 -91t-66.5 -131 t-22.5 -154.5q0 -55 16 -105.5t49 -88.5t80 -60.5t108 -22.5q49 0 98.5 15.5t67.5 23.5q10 4 24.5 9t20.5 5q14 0 15 -14q0 -6 -2 -26.5t-6.5 -46t-8.5 -51t-8 -44.5q-16 -10 -71.5 -27.5t-126.5 -23.5l-31 -154h-197l33 172q-152 43 -227.5 163t-75.5 278z" />
<glyph unicode="&#xa3;" horiz-adv-x="1085" d="M82 0l29 152q119 63 193.5 170.5t88.5 291.5h-186l37 189h149q-2 16 -4 46t-2 64q0 238 125 363t375 125q33 0 64.5 -3t58 -6t47 -7.5t28.5 -6.5l-55 -196q-8 4 -50 13t-108 9q-129 0 -185 -81t-56 -218q0 -35 2 -62.5t4 -39.5h260l-37 -189h-229q-31 -158 -91.5 -254 t-142.5 -172h508l-37 -188h-786z" />
<glyph unicode="&#xa4;" horiz-adv-x="1273" d="M92 188l154 134q-35 76 -35 161q0 86 29.5 162t81.5 137l-91 119l170 143l95 -126q98 47 196 47q127 0 217 -58l156 137l115 -143l-150 -131q37 -78 37 -168q0 -84 -30.5 -159.5t-84.5 -135.5l88 -119l-170 -143l-92 125q-96 -45 -190 -45q-68 0 -123 15.5t-100 43.5 l-158 -139zM406 512q0 -80 52 -138.5t152 -58.5q47 0 94.5 20.5t84 55.5t59 83t22.5 101q0 80 -51 139.5t-151 59.5q-47 0 -94.5 -19.5t-84 -54t-60 -83t-23.5 -105.5z" />
<glyph unicode="&#xa5;" horiz-adv-x="1189" d="M123 188l37 189h250l20 98v2h-250l35 187h158l-211 716h252l178 -659l428 659h252l-477 -716h166l-35 -187h-254v-2l-21 -98h254l-37 -189h-254l-34 -188h-242l35 188h-250z" />
<glyph unicode="&#xa6;" horiz-adv-x="610" d="M-41 -473l154 801h231l-156 -801h-229zM160 565l157 815h232l-158 -815h-231z" />
<glyph unicode="&#xa7;" horiz-adv-x="987" d="M-61 -457l55 170q10 -4 32.5 -12t51 -16.5t63.5 -14.5t72 -6q113 0 167 52.5t54 115.5q0 53 -40 102.5t-81 90.5q-16 16 -44.5 43.5t-49.5 48.5q-55 53 -100 135t-45 182q0 74 27.5 136.5t68.5 112.5t88 86t86 58q-29 39 -50.5 90.5t-21.5 116.5q0 88 34 157t92.5 116 t136 71.5t163.5 24.5q123 0 195 -18.5t94 -28.5l-55 -172q-23 10 -85 30.5t-136 20.5q-117 0 -168 -52.5t-51 -115.5q0 -53 38.5 -102.5t79.5 -90.5q16 -16 46 -43.5t49 -48.5q57 -53 102 -136t45 -181q0 -74 -27.5 -136.5t-69.5 -112.5t-89.5 -87t-85.5 -59 q29 -37 50 -88.5t21 -116.5q0 -88 -33.5 -156.5t-92 -116t-136.5 -72t-164 -24.5q-123 0 -193.5 18.5t-92.5 28.5zM307 463q0 -121 115 -232l39 -38q25 16 53.5 40.5t51 55t37.5 67.5t15 80q0 121 -114 232l-39 39q-25 -16 -53.5 -41t-51 -55.5t-38 -67.5t-15.5 -80z" />
<glyph unicode="&#xa8;" horiz-adv-x="817" d="M82 1253l41 211h213l-41 -211h-213zM481 1253l41 211h213l-41 -211h-213z" />
<glyph unicode="&#xa9;" horiz-adv-x="802" d="M164 1053q0 84 27.5 149.5t75.5 109.5t113.5 66.5t141.5 22.5q70 0 122 -23.5t87 -62.5t53.5 -89.5t18.5 -103.5q0 -78 -25.5 -141t-73 -109.5t-113 -72t-147.5 -25.5q-68 0 -121 23.5t-87.5 62.5t-53 89t-18.5 104zM225 1049q0 -41 15.5 -80t45 -69t73.5 -47t100 -17 q63 0 115.5 23.5t89 63.5t56 93t19.5 112q0 86 -61 148.5t-172 62.5q-61 0 -113.5 -22.5t-89.5 -61t-57.5 -92t-20.5 -114.5zM338 1057q0 86 52 135t138 49q31 0 49.5 -4t24.5 -8l-14 -47q-8 4 -23.5 9t-42.5 5q-47 0 -86 -38t-39 -97q0 -39 24.5 -67.5t65.5 -28.5 q25 0 41.5 6t20.5 10l-4 -47q-4 -2 -21.5 -7t-40.5 -5q-59 0 -102 35.5t-43 99.5z" />
<glyph unicode="&#xaa;" horiz-adv-x="968" d="M205 461h579l31 153h-579zM283 903q0 43 19.5 88t65.5 82t120.5 61.5t187.5 24.5h57q0 4 2 10q0 4 1 7.5t1 5.5q2 8 2 24q0 41 -37.5 62.5t-93.5 21.5q-61 0 -104 -15t-60 -24q-4 -2 -12 -5t-12 -3q-10 0 -10 10q0 2 1 4.5t1 4.5l6 48t8 48q6 2 24.5 9t47 14.5t63.5 13.5 t74 6q131 0 191.5 -53.5t60.5 -130.5q0 -27 -5 -57t-10 -46q-4 -16 -9 -45t-11 -59.5t-11 -61t-10 -49.5q-10 -43 -14 -89t-8 -81h-125q-16 0 -17 9.5t-1 21.5l8 53h-4q-6 -8 -21.5 -24.5t-40 -32t-57.5 -27.5t-76 -12q-100 0 -146 56t-46 130zM436 920q0 -35 24.5 -65 t71.5 -30q72 0 114 56.5t59 134.5q0 4 2 11t4 15l4 21h-45q-111 0 -172.5 -37t-61.5 -106z" />
<glyph unicode="&#xab;" horiz-adv-x="962" d="M0 485l432 430l105 -98l-349 -342l215 -344l-137 -76zM385 485l432 430l105 -98l-347 -342l213 -344l-137 -76z" />
<glyph unicode="&#xac;" horiz-adv-x="1370" d="M123 416l35 180h1048l-114 -596h-213l79 416h-835z" />
<glyph unicode="&#xad;" horiz-adv-x="892" d="M164 412l33 178h491l-33 -178h-491z" />
<glyph unicode="&#xae;" horiz-adv-x="802" d="M164 1053q0 84 27.5 149.5t75.5 109.5t113.5 66.5t139.5 22.5q70 0 122 -23.5t88 -62.5t54.5 -89t18.5 -104q0 -78 -25.5 -141t-73 -109.5t-113 -72t-147.5 -25.5q-68 0 -121 23.5t-87.5 62.5t-53 89t-18.5 104zM225 1049q0 -41 15.5 -80t45 -69t73.5 -47t100 -17 q63 0 115.5 23.5t89 63.5t56 93t19.5 112q0 86 -61.5 148.5t-171.5 62.5q-61 0 -113.5 -22.5t-89.5 -61t-57.5 -92t-20.5 -114.5zM360 940l62 309h84q51 0 76.5 -23.5t25.5 -56.5q0 -27 -10 -44t-23.5 -28.5t-28 -15.5t-20.5 -6l52 -135h-60l-45 127h-33l-24 -127h-56z M449 1108h22q31 0 55.5 14.5t24.5 42.5q0 18 -14.5 31.5t-42.5 13.5h-27z" />
<glyph unicode="&#xaf;" horiz-adv-x="651" d="M82 1278l35 174h452l-34 -174h-453z" />
<glyph unicode="&#xb0;" horiz-adv-x="847" d="M205 1100q0 66 24.5 121t66.5 95t97.5 62.5t116.5 22.5q63 0 111.5 -21.5t80 -56.5t48 -80t16.5 -92q0 -68 -25.5 -124t-68.5 -95t-100.5 -60.5t-120.5 -21.5q-59 0 -104.5 21.5t-77 56.5t-48 80t-16.5 92zM344 1106q0 -47 33 -83t92 -36q29 0 56.5 11.5t50 33t37 50 t14.5 65.5q0 47 -33 83t-92 36q-29 0 -57.5 -12.5t-51 -34t-36 -50t-13.5 -63.5z" />
<glyph unicode="&#xb1;" horiz-adv-x="1406" d="M82 0l33 174h1050l-32 -174h-1051zM199 616l34 179h414l66 333h223l-66 -333h414l-35 -179h-413l-68 -348h-223l67 348h-413z" />
<glyph unicode="&#xb2;" horiz-adv-x="567" d="M0 690l16 90q43 39 80 74q31 29 59.5 56.5t39.5 37.5q166 160 165 250q0 39 -27.5 65.5t-78.5 26.5q-43 0 -79 -18.5t-44 -22.5l2 101q2 0 16.5 7t37 14t50 13.5t58.5 6.5q49 0 86 -14.5t59.5 -39t33.5 -56.5t11 -64q0 -41 -14 -79t-38.5 -74t-55.5 -68.5t-64 -63.5 q-16 -14 -40.5 -39t-49.5 -49l-59 -60h262l-18 -94h-408z" />
<glyph unicode="&#xb3;" horiz-adv-x="550" d="M20 688l15 100q10 -4 31.5 -7t56.5 -3q33 0 65.5 7.5t58 21.5t41 36.5t15.5 55.5q0 43 -33.5 74t-107.5 31h-35l16 83h31q33 0 64.5 8.5t56 24t40 38t15.5 50.5q0 33 -23.5 61.5t-84.5 28.5q-37 0 -66 -11t-39 -15v88q23 8 61 19.5t89 11.5q92 0 137 -48.5t45 -113.5 q0 -49 -19.5 -83t-46 -54.5t-51 -29.5t-35.5 -11v-4q6 -2 23.5 -12.5t35 -30t31 -48t13.5 -67.5q0 -104 -83 -156.5t-212 -52.5q-41 0 -69.5 4t-35.5 4z" />
<glyph unicode="&#xb4;" horiz-adv-x="466" d="M250 1217l223 301h221l-321 -301h-123z" />
<glyph unicode="&#xb5;" horiz-adv-x="1298" d="M0 -508l295 1520h229q-31 -158 -55 -285q-10 -55 -20.5 -109.5t-19.5 -99.5t-15 -77.5t-8 -45.5q-10 -45 -11 -90q0 -61 42 -105t114 -44q96 0 169 88t107 268q10 55 26.5 140t33.5 165q18 94 37 195h231q-35 -178 -63 -324q-12 -61 -24.5 -123.5l-23 -115t-17.5 -90 t-9 -50.5q-16 -78 -28.5 -165t-20.5 -144h-185q-23 0 -22 16q0 4 1 10.5t1 10.5q2 10 4 27.5t6 33.5q4 20 8 43h-4q-4 -6 -21.5 -32.5t-52 -55t-90 -52.5t-133.5 -24q-45 0 -82 8.5t-69 24.5l-101 -518h-229z" />
<glyph unicode="&#xb6;" horiz-adv-x="1142" d="M0 938q0 78 25.5 157t91 142t177.5 103t284 40h565l-37 -188h-139l-330 -1696h-186l329 1696h-155l-330 -1696h-189l209 1073q-47 12 -102 37t-102.5 69t-79 108.5t-31.5 154.5z" />
<glyph unicode="&#xb7;" horiz-adv-x="610" d="M164 383l45 233h237l-45 -233h-237z" />
<glyph unicode="&#xb8;" horiz-adv-x="544" d="M82 -451q39 6 79 23.5t72.5 42.5t54 55.5t21.5 65.5q0 27 -19.5 46t-72.5 19h-65l96 199h125l-88 -119q20 8 57 8q57 0 89 -37.5t32 -89.5q0 -57 -33 -107t-83 -89t-109.5 -63.5t-112.5 -30.5z" />
<glyph unicode="&#xb9;" horiz-adv-x="440" d="M82 1217v90q53 6 108.5 30.5t79.5 53.5h88l-135 -701h-114l110 567q-25 -14 -65.5 -25t-71.5 -15z" />
<glyph unicode="&#xba;" horiz-adv-x="1019" d="M205 461l31 153h579l-31 -153h-579zM281 1008q0 84 24.5 155.5t71.5 124.5t116.5 84t159.5 31q76 0 129.5 -24.5t88 -63.5t51 -88t16.5 -99q0 -90 -23.5 -164.5t-70.5 -129t-117 -85t-162 -30.5q-135 0 -209.5 79t-74.5 210zM438 1006q0 -31 7.5 -61t24.5 -53.5t44 -38.5 t64 -15q43 0 79.5 20.5t64.5 58t44 90t16 115.5q0 68 -36.5 115t-102.5 47q-82 0 -143.5 -72.5t-61.5 -205.5z" />
<glyph unicode="&#xbb;" horiz-adv-x="1026" d="M0 152l348 344l-215 342l137 77l269 -430l-435 -430zM385 152l350 344l-217 342l137 77l269 -430l-435 -430z" />
<glyph unicode="&#xbc;" horiz-adv-x="1456" d="M102 0l1094 1380h158l-1094 -1380h-158zM256 1217v90q55 6 109.5 30.5t78.5 53.5h88l-135 -701h-114l110 567q-25 -14 -64.5 -25t-72.5 -15zM770 174v98l342 420h158l-82 -424h108l-18 -94h-109l-32 -174h-115l33 174h-285zM881 266h192l62 320h-9z" />
<glyph unicode="&#xbd;" horiz-adv-x="1456" d="M102 0h158l1094 1382h-158zM256 1217v90q55 6 109.5 30.5t80.5 53.5h89l-136 -699h-114l108 565q-23 -14 -63.5 -25t-73.5 -15zM850 0h407l19 94h-262q31 33 59 62q25 25 49.5 49t40.5 39q33 31 63.5 63.5t55.5 68.5t39 73.5t14 78.5q0 33 -11 65t-33.5 56.5t-59.5 38.5 t-86 14q-31 0 -58.5 -6t-50 -13t-37 -14t-16.5 -7l-2 -101q8 4 44 22.5t79 18.5q51 0 78.5 -26.5t27.5 -65.5q0 -90 -166 -250q-10 -10 -38.5 -37.5t-59.5 -56.5q-37 -35 -80 -74z" />
<glyph unicode="&#xbe;" horiz-adv-x="1558" d="M205 0h157l1094 1380h-158zM233 688l13 100q10 -4 32.5 -7t57.5 -3q33 0 65.5 7.5t58 21.5t41 36.5t15.5 55.5q0 43 -33.5 74t-107.5 31h-35l16 81h31q33 0 64.5 8.5t56 24t40 39t15.5 51.5q0 33 -23.5 60.5t-84.5 27.5q-37 0 -67 -10t-38 -14v88q23 8 61 19.5t89 11.5 q92 0 137 -48.5t45 -113.5q0 -49 -19.5 -83t-46 -54.5t-51 -29.5t-35.5 -11v-4q6 -2 23.5 -12.5t35 -30t31 -48t13.5 -67.5q0 -104 -83 -156.5t-212 -52.5q-41 0 -69.5 4t-35.5 4zM772 174h285l-33 -174h115l32 174h109l18 94h-108l82 424h-158l-342 -420v-98zM883 266 l245 320h9l-62 -320h-192z" />
<glyph unicode="&#xbf;" horiz-adv-x="831" d="M0 -156q0 70 26.5 128.5t64.5 105.5t80 84t73 63q68 57 112.5 123t61.5 137q2 12 4 21.5t4 17.5t2 15h225q-2 -10 -4 -21q-2 -10 -4 -20.5t-4 -22.5q-16 -82 -41 -139t-53.5 -97t-57 -67t-53.5 -47q-25 -23 -57.5 -46.5t-60 -52t-47 -61.5t-19.5 -71q0 -23 12 -48.5 t38 -48t69 -38t104 -15.5q33 0 66.5 5t61.5 12.5t48.5 14.5t26.5 11l-57 -203q-23 -10 -86.5 -24.5t-149.5 -14.5q-102 0 -175 29t-120 73t-68.5 97t-21.5 100zM446 700l46 234h237l-45 -234h-238z" />
<glyph unicode="&#xc0;" horiz-adv-x="1275" d="M-143 0l792 1380h279l246 -1380h-254l-52 311h-581l-170 -311h-260zM389 498h451l-101 630h-8zM539 1808h221l106 -301h-125z" />
<glyph unicode="&#xc1;" horiz-adv-x="1275" d="M-143 0l792 1380h279l246 -1380h-254l-52 311h-581l-170 -311h-260zM389 498h451l-101 630h-8zM709 1507l221 301h219l-318 -301h-122z" />
<glyph unicode="&#xc2;" horiz-adv-x="1275" d="M-143 0l792 1380h279l246 -1380h-254l-52 311h-581l-170 -311h-260zM389 498h451l-101 630h-8zM516 1507l244 301h203l129 -301h-152l-104 181l-179 -181h-141z" />
<glyph unicode="&#xc3;" horiz-adv-x="1275" d="M-143 0l792 1380h279l246 -1380h-254l-50 311h-585l-168 -311h-260zM389 498h451l-101 630h-8zM434 1649q12 12 37 34.5t56.5 43t70.5 36t82 15.5q57 0 93 -15.5t65.5 -34t58.5 -34t76 -15.5q45 0 84 21.5t67 48.5l47 -104q-16 -16 -41.5 -39t-57.5 -43.5t-69.5 -35 t-78.5 -14.5q-59 0 -95 15.5t-65 34t-58.5 34t-78.5 15.5q-31 0 -70 -16.5t-78 -51.5z" />
<glyph unicode="&#xc4;" horiz-adv-x="1275" d="M-143 0l792 1380h279l246 -1380h-254l-50 311h-583l-170 -311h-260zM389 498h451l-99 630h-8zM512 1573l41 211h213l-41 -211h-213zM911 1573l41 211h213l-41 -211h-213z" />
<glyph unicode="&#xc5;" horiz-adv-x="1275" d="M-143 0h260l170 311h583l50 -311h254l-246 1380h-279zM389 498l344 630h8l99 -630h-451zM598 1608q0 41 16.5 78.5t45 67.5t67.5 47.5t84 17.5q55 0 93 -15.5t61.5 -41t35 -59.5t11.5 -69q0 -43 -17.5 -82t-46 -68.5t-67.5 -46t-82 -16.5q-55 0 -94 16.5t-63 43t-34 59.5 t-10 68zM717 1614q0 -29 18.5 -54.5t65.5 -25.5q41 0 66.5 28.5t25.5 63.5q0 31 -17.5 56.5t-64.5 25.5q-43 0 -68.5 -29.5t-25.5 -64.5z" />
<glyph unicode="&#xc6;" horiz-adv-x="1792" d="M-102 0l1112 1380h823l-37 -188h-450l-76 -389h424l-37 -189h-424l-84 -426h455l-35 -188h-697l60 311h-471l-262 -311h-301zM610 498h359l116 602h-14z" />
<glyph unicode="&#xc7;" horiz-adv-x="1179" d="M82 578q0 190 61.5 341.5t172 259t267 165t347.5 57.5q139 0 221 -21.5t111 -36.5l-70 -206q-29 14 -102.5 39.5t-190.5 25.5q-102 0 -201.5 -44t-177.5 -123t-126 -190.5t-48 -246.5q0 -84 28.5 -160t82 -134t127 -93t166.5 -35q53 0 98 9.5t80 20.5t58.5 22.5 t33.5 17.5l-12 -207q-23 -10 -83.5 -30.5t-146.5 -26.5l-43 -58q10 4 23.5 6t34.5 2q59 0 89.5 -31.5t30.5 -84.5t-31.5 -104.5t-80.5 -92.5t-108.5 -69.5t-114.5 -34.5l-43 77q39 6 78.5 22.5t72.5 41.5t54.5 55.5t21.5 65.5q0 29 -20.5 48t-73.5 19h-64l66 138 q-123 8 -230.5 54t-187.5 123t-125 182t-45 237z" />
<glyph unicode="&#xc8;" horiz-adv-x="1032" d="M61 0l269 1380h743l-37 -188h-501l-76 -389h475l-37 -189h-475l-84 -426h506l-35 -188h-748zM547 1808h221l106 -301h-122z" />
<glyph unicode="&#xc9;" horiz-adv-x="1032" d="M61 -20l269 1380h743l-37 -189h-499l-76 -389h473l-37 -188h-473l-84 -426h504l-35 -188h-748zM614 1507l224 301h219l-318 -301h-125z" />
<glyph unicode="&#xca;" horiz-adv-x="1032" d="M61 0l269 1380h743l-37 -188h-499l-76 -389h473l-37 -189h-473l-84 -426h504l-35 -188h-748zM432 1507l242 301h205l127 -301h-140l-104 181l-178 -181h-152z" />
<glyph unicode="&#xcb;" horiz-adv-x="1050" d="M61 0l269 1380h743l-37 -188h-499l-76 -389h473l-37 -189h-473l-84 -426h504l-35 -188h-748zM438 1556l41 211h213l-41 -211h-213zM838 1556l41 211h213l-41 -211h-213z" />
<glyph unicode="&#xcc;" horiz-adv-x="634" d="M61 0l269 1380h241l-268 -1380h-242zM213 1808h221l107 -301h-125z" />
<glyph unicode="&#xcd;" horiz-adv-x="634" d="M61 0l269 1380h243l-268 -1380h-244zM414 1507l221 301h221l-319 -301h-123z" />
<glyph unicode="&#xce;" horiz-adv-x="634" d="M61 0l269 1380h241l-268 -1380h-242zM193 1507l243 301h203l129 -301h-150l-106 181l-176 -181h-143z" />
<glyph unicode="&#xcf;" horiz-adv-x="634" d="M61 0l269 1380h243l-268 -1380h-244zM176 1556l41 211h213l-41 -211h-213zM575 1556l41 211h213l-41 -211h-213z" />
<glyph unicode="&#xd0;" horiz-adv-x="1425" d="M20 598l37 188h144l114 594h406q156 0 272.5 -45t194.5 -125t116.5 -188.5t38.5 -233.5q0 -150 -51 -291t-154.5 -251.5t-258 -178t-361.5 -67.5h-471l117 598h-144zM326 186q10 -2 58 -5t97 -3q119 0 228.5 40t193.5 118t135.5 193.5t51.5 267.5q0 92 -29 166.5t-82 128 t-129 82t-170 28.5q-59 0 -100 -4t-58 -8l-78 -404h359l-35 -188h-360z" />
<glyph unicode="&#xd1;" horiz-adv-x="1505" d="M61 0l269 1380h307l375 -1056h10l207 1056h215l-268 -1380h-299l-383 1077h-9l-209 -1077h-215zM551 1661q12 12 36.5 34.5t56.5 43t71 36t82 15.5q57 0 93 -15.5t65.5 -34t58 -33.5t76.5 -15q45 0 83.5 21.5t67.5 47.5l47 -104q-16 -16 -41.5 -39t-57.5 -43.5t-70 -34.5 t-79 -14q-59 0 -95 15t-63.5 33.5t-57 34t-79.5 15.5q-31 0 -70.5 -16.5t-78.5 -51.5z" />
<glyph unicode="&#xd2;" horiz-adv-x="1525" d="M82 559q0 190 59.5 346t164 266.5t244.5 170t304 59.5q133 0 242.5 -45t186.5 -123t119 -182.5t42 -223.5q0 -195 -57.5 -351.5t-160 -267t-244.5 -169.5t-312 -59q-131 0 -239.5 44t-185.5 121.5t-120 183t-43 230.5zM342 567q0 -84 23.5 -154.5t68.5 -122.5t110.5 -82 t149.5 -30q100 0 190.5 46t156 129t104.5 200t39 260q0 84 -23.5 155.5t-70 124t-112 81t-151.5 28.5q-100 0 -188 -46t-154.5 -130t-104.5 -201t-38 -258zM657 1808h222l106 -301h-123z" />
<glyph unicode="&#xd3;" horiz-adv-x="1525" d="M82 559q0 190 59.5 346t164 266.5t244.5 170t304 59.5q133 0 242.5 -45t186.5 -123t119 -182.5t42 -223.5q0 -195 -57.5 -351.5t-160 -267t-244.5 -169.5t-312 -59q-131 0 -239.5 44t-185.5 121.5t-120 183t-43 230.5zM342 567q0 -84 23.5 -154.5t68.5 -122.5t110.5 -82 t149.5 -30q100 0 190.5 46t156 129t104.5 200t39 260q0 84 -23.5 155.5t-70 124t-112 81t-151.5 28.5q-100 0 -188 -46t-154.5 -130t-104.5 -201t-38 -258zM858 1507l221 301h221l-317 -301h-125z" />
<glyph unicode="&#xd4;" horiz-adv-x="1525" d="M82 559q0 190 59.5 346t164 266.5t244.5 170t304 59.5q133 0 242.5 -45t186.5 -123t119 -182.5t42 -223.5q0 -195 -57.5 -351.5t-160 -267t-244.5 -169.5t-312 -59q-131 0 -239.5 44t-185.5 121.5t-120 183t-43 230.5zM342 567q0 -84 23.5 -154.5t68.5 -122.5t110.5 -82 t149.5 -30q100 0 190.5 46t156 129t104.5 200t39 260q0 84 -23.5 155.5t-70 124t-112 81t-151.5 28.5q-100 0 -188 -46t-154.5 -130t-104.5 -201t-38 -258zM590 1507l241 301h205l127 -301h-139l-106 181l-177 -181h-151z" />
<glyph unicode="&#xd5;" horiz-adv-x="1525" d="M82 559q0 190 59.5 346t164 266.5t244.5 170t304 59.5q133 0 242.5 -45t186.5 -123t119 -182.5t42 -223.5q0 -195 -57.5 -351.5t-160 -267t-244.5 -169.5t-312 -59q-131 0 -239.5 44t-185.5 121.5t-120 183t-43 230.5zM342 567q0 -84 23.5 -154.5t68.5 -122.5t110.5 -82 t149.5 -30q100 0 190.5 46t156 129t104.5 200t39 260q0 84 -23.5 155.5t-70 124t-112 81t-151.5 28.5q-100 0 -188 -46t-154.5 -130t-104.5 -201t-38 -258zM578 1649q12 12 36.5 34.5t56 43t70.5 36t80 15.5q57 0 93 -15.5t66 -34t59.5 -34t76.5 -15.5q45 0 84 21.5t68 48.5 l45 -104q-16 -16 -42 -39t-57.5 -43.5t-69.5 -35t-77 -14.5q-59 0 -95 15.5t-64.5 34t-59.5 34t-80 15.5q-29 0 -69 -16.5t-76 -51.5z" />
<glyph unicode="&#xd6;" horiz-adv-x="1525" d="M82 559q0 190 59.5 346t164 266.5t244.5 170t304 59.5q133 0 242.5 -45t186.5 -123t119 -182.5t42 -223.5q0 -195 -57.5 -351.5t-160 -267t-244.5 -169.5t-312 -59q-131 0 -239.5 44t-185.5 121.5t-120 183t-43 230.5zM342 567q0 -84 23.5 -154.5t68.5 -122.5t110.5 -82 t149.5 -30q100 0 190.5 46t156 129t104.5 200t39 260q0 84 -23.5 155.5t-70 124t-112 81t-151.5 28.5q-100 0 -188 -46t-154.5 -130t-104.5 -201t-38 -258zM582 1556l41 211h213l-41 -211h-213zM981 1556l41 211h213l-41 -211h-213z" />
<glyph unicode="&#xd7;" horiz-adv-x="1165" d="M82 213l358 301l-233 291l172 143l233 -291l357 299l114 -143l-356 -297l248 -303l-172 -143l-248 303l-358 -301z" />
<glyph unicode="&#xd8;" horiz-adv-x="1527" d="M82 561q0 190 59.5 346t164 266.5t245.5 170t305 59.5q104 0 197 -29l125 230l149 -50l-135 -243q121 -78 187.5 -203t66.5 -279q0 -195 -57.5 -352.5t-160 -268t-244.5 -169.5t-312 -59q-102 0 -195 28l-112 -205l-148 50l121 219q-121 78 -188.5 203.5t-67.5 285.5z M342 569q0 -92 29.5 -169.5t83.5 -131.5l501 918q-55 18 -127 18q-100 0 -189 -46t-154.5 -130t-104.5 -200.5t-39 -258.5zM573 199q29 -10 58.5 -15.5t64.5 -5.5q100 0 189.5 46t156 130t105.5 201t39 260q0 92 -29 168t-82 129z" />
<glyph unicode="&#xd9;" horiz-adv-x="1497" d="M143 393q0 39 7.5 79t15.5 77l162 831h241l-163 -845q-4 -25 -10.5 -57t-6.5 -58q0 -49 17.5 -94t53.5 -78t87 -52.5t119 -19.5q78 0 135 27.5t97 73t64.5 103.5t36.5 120l172 880h244l-174 -886q-20 -109 -66.5 -203t-121 -164t-180 -108.5t-244.5 -38.5 q-121 0 -211 32.5t-151.5 88t-92.5 131t-31 161.5zM631 1808h221l106 -301h-122z" />
<glyph unicode="&#xda;" horiz-adv-x="1497" d="M143 393q0 39 7.5 79t15.5 77l162 831h241l-163 -845q-4 -25 -10.5 -57t-6.5 -58q0 -49 17.5 -94t53.5 -78t87 -52.5t119 -19.5q78 0 135 27.5t97 73t64.5 103.5t36.5 120l172 880h244l-174 -886q-20 -109 -66.5 -203t-121 -164t-180 -108.5t-244.5 -38.5 q-121 0 -211 32.5t-151.5 88t-92.5 131t-31 161.5zM831 1507l222 301h221l-318 -301h-125z" />
<glyph unicode="&#xdb;" horiz-adv-x="1497" d="M143 393q0 39 7.5 79t15.5 77l162 831h241l-163 -845q-4 -25 -10.5 -57t-6.5 -58q0 -49 17.5 -94t53.5 -78t87 -52.5t119 -19.5q78 0 135 27.5t97 73t64.5 103.5t36.5 120l172 880h244l-174 -886q-20 -109 -66.5 -203t-121 -164t-180 -108.5t-244.5 -38.5 q-121 0 -211 32.5t-151.5 88t-92.5 131t-31 161.5zM612 1507l242 301h205l127 -301h-139l-107 181l-176 -181h-152z" />
<glyph unicode="&#xdc;" horiz-adv-x="1497" d="M143 393q0 39 7.5 79t15.5 77l162 831h241l-163 -845q-4 -25 -10.5 -57t-6.5 -58q0 -49 17.5 -94t53.5 -78t87 -52.5t119 -19.5q78 0 135 27.5t97 73t64.5 103.5t36.5 120l172 880h244l-174 -886q-20 -109 -66.5 -203t-121 -164t-180 -108.5t-244.5 -38.5 q-121 0 -211 32.5t-151.5 88t-92.5 131t-31 161.5zM602 1556l41 211h213l-41 -211h-213zM1001 1556l41 211h213l-41 -211h-213z" />
<glyph unicode="&#xdd;" horiz-adv-x="1048" d="M82 1380h252l178 -659l428 659h252l-600 -903l-92 -477h-242l92 477zM557 1507l223 301h219l-317 -301h-125z" />
<glyph unicode="&#xde;" horiz-adv-x="1126" d="M61 0l269 1380h241l-47 -250h82q125 0 218.5 -30.5t155.5 -82.5t94 -122t32 -150q0 -96 -36 -185t-110.5 -156.5t-188 -107.5t-267.5 -40q-16 0 -39 1t-45.5 2t-41 2t-24.5 3l-51 -264h-242zM389 442q10 -2 39 -3t64 -1q94 0 162.5 28t112.5 71t64.5 96t20.5 106 q0 94 -63.5 155.5t-196.5 61.5q-53 0 -74.5 -1t-28.5 -3z" />
<glyph unicode="&#xdf;" horiz-adv-x="1206" d="M41 0l192 991q31 152 86.5 251t130 158.5t165 83t192.5 23.5q88 0 154.5 -26.5t111.5 -68.5t68.5 -93t23.5 -98q0 -98 -48 -153.5t-120 -102.5q-16 -10 -38.5 -24.5t-38.5 -25.5q-45 -29 -75 -65.5t-30 -83.5q0 -37 16.5 -61.5t53.5 -53.5l59 -47q68 -51 120 -118.5 t52 -157.5q0 -72 -28.5 -134.5t-87 -110.5t-144.5 -75.5t-203 -27.5q-39 0 -76.5 3t-69.5 6t-54.5 7t-30.5 8q2 14 6 34.5t8 43t8.5 44t8.5 36.5q6 25 20 24q8 0 14.5 -4t16.5 -8q25 -8 61.5 -15t83.5 -7q104 0 167 42t63 107q0 39 -21.5 77t-73.5 79l-67 49 q-18 14 -42 34.5t-45.5 48t-36.5 64.5t-15 82q0 94 40.5 160t112.5 113q14 8 35.5 21t32.5 22q47 31 89 65.5t42 87.5t-38 94t-130 41q-229 0 -289 -303l-203 -1036h-229z" />
<glyph unicode="&#xe0;" horiz-adv-x="1171" d="M92 389q0 150 51.5 269.5t140.5 202.5t208.5 127t257.5 44q166 0 265 -21.5t115 -25.5q-33 -170 -59 -311q-12 -59 -23.5 -118.5t-21.5 -110t-17.5 -87.5t-9.5 -49q-14 -78 -24 -165t-17 -144h-161q-29 0 -38 11.5t-9 29.5q0 10 1 26.5t5 32.5q4 18 8 37h-4 q-6 -8 -26.5 -33.5t-56.5 -53t-89 -49t-123 -21.5q-94 0 -164 31.5t-116 87t-69.5 130t-23.5 160.5zM336 383q0 -45 11 -86t33.5 -71.5t55.5 -49t78 -18.5q94 0 177 82t118 262q4 18 14.5 71.5t20.5 112.5q12 68 28 150q-10 4 -47 11t-92 7q-82 0 -153.5 -33t-126 -94 t-86 -148t-31.5 -196zM516 1518h221l105 -301h-125z" />
<glyph unicode="&#xe1;" horiz-adv-x="1171" d="M92 389q0 150 51.5 269.5t140.5 202.5t208.5 127t257.5 44q166 0 265 -21.5t115 -25.5q-33 -170 -59 -311q-12 -59 -23.5 -118.5t-21.5 -110t-17.5 -87.5t-9.5 -49q-14 -78 -24 -165t-17 -144h-161q-29 0 -38 11.5t-9 29.5q0 10 1 26.5t5 32.5q4 18 8 37h-4 q-6 -8 -26.5 -33.5t-56.5 -53t-89 -49t-123 -21.5q-94 0 -164 31.5t-116 87t-69.5 130t-23.5 160.5zM336 383q0 -45 11 -86t33.5 -71.5t55.5 -49t78 -18.5q94 0 177 82t118 262q4 18 14.5 71.5t20.5 112.5q12 68 28 150q-10 4 -47 11t-92 7q-82 0 -153.5 -33t-126 -94 t-86 -148t-31.5 -196zM680 1217l225 301h219l-319 -301h-125z" />
<glyph unicode="&#xe2;" horiz-adv-x="1171" d="M92 389q0 150 51.5 269.5t140.5 202.5t208.5 127t257.5 44q166 0 265 -21.5t115 -25.5q-33 -170 -59 -311q-12 -59 -23.5 -118.5t-21.5 -110t-17.5 -87.5t-9.5 -49q-14 -78 -24 -165t-17 -144h-161q-29 0 -38 11.5t-9 29.5q0 10 1 26.5t5 32.5q4 18 8 37h-4 q-6 -8 -26.5 -33.5t-56.5 -53t-89 -49t-123 -21.5q-94 0 -164 31.5t-116 87t-69.5 130t-23.5 160.5zM336 383q0 -45 11 -86t33.5 -71.5t55.5 -49t78 -18.5q94 0 177 82t118 262q4 18 14.5 71.5t20.5 112.5q12 68 28 150q-10 4 -47 11t-92 7q-82 0 -153.5 -33t-126 -94 t-86 -148t-31.5 -196zM489 1217l244 301h205l125 -301h-139l-107 180l-176 -180h-152z" />
<glyph unicode="&#xe3;" horiz-adv-x="1171" d="M92 389q0 150 51.5 269.5t140.5 202.5t208.5 127t257.5 44q166 0 265 -21.5t115 -25.5q-33 -170 -59 -311q-12 -59 -23.5 -118.5t-21.5 -110t-17.5 -87.5t-9.5 -49q-14 -78 -24 -165t-17 -144h-161q-29 0 -38 11.5t-9 29.5q0 10 1 26.5t5 32.5q4 18 8 37h-4 q-6 -8 -26.5 -33.5t-56.5 -53t-89 -49t-123 -21.5q-94 0 -164 31.5t-116 87t-69.5 130t-23.5 160.5zM336 383q0 -45 11 -86t33.5 -71.5t55.5 -49t78 -18.5q94 0 177 82t118 262q4 18 14.5 71.5t20.5 112.5q12 68 28 150q-10 4 -47 11t-92 7q-82 0 -153.5 -33t-126 -94 t-86 -148t-31.5 -196zM389 1350q12 14 33.5 35.5t50.5 40t63.5 31.5t75.5 13q57 0 96.5 -17t72 -37.5t64.5 -38t75 -17.5q49 0 92 26.5t69 55.5l49 -113q-14 -16 -34.5 -37.5t-47 -40t-62.5 -32t-81 -13.5q-59 0 -97 17.5t-69.5 39t-64.5 39t-78 17.5q-49 0 -88 -25.5 t-70 -56.5z" />
<glyph unicode="&#xe4;" horiz-adv-x="1171" d="M92 389q0 150 51.5 269.5t140.5 202.5t208.5 127t257.5 44q166 0 265 -21.5t115 -25.5q-33 -170 -59 -311q-12 -59 -23.5 -118.5t-21.5 -110t-17.5 -87.5t-9.5 -49q-14 -78 -24 -165t-17 -144h-161q-29 0 -38 11.5t-9 29.5q0 10 1 26.5t5 32.5q4 18 8 37h-4 q-6 -8 -26.5 -33.5t-56.5 -53t-89 -49t-123 -21.5q-94 0 -164 31.5t-116 87t-69.5 130t-23.5 160.5zM336 383q0 -45 11 -86t33.5 -71.5t55.5 -49t78 -18.5q94 0 177 82t118 262q4 18 14.5 71.5t20.5 112.5q12 68 28 150q-10 4 -47 11t-92 7q-82 0 -153.5 -33t-126 -94 t-86 -148t-31.5 -196zM475 1264l41 211h213l-41 -211h-213zM874 1264l41 211h213l-41 -211h-213z" />
<glyph unicode="&#xe5;" horiz-adv-x="1171" d="M92 389q0 150 51.5 269.5t140.5 202.5t208.5 127t257.5 44q166 0 265 -21.5t115 -25.5q-33 -170 -59 -311q-12 -59 -23.5 -118.5t-21.5 -110t-17.5 -87.5t-9.5 -49q-14 -78 -24 -165t-17 -144h-161q-29 0 -38 11.5t-9 29.5q0 10 1 26.5t5 32.5q4 18 8 37h-4 q-6 -8 -26.5 -33.5t-56.5 -53t-89 -49t-123 -21.5q-94 0 -164 31.5t-116 87t-69.5 130t-23.5 160.5zM336 383q0 -45 11 -86t33.5 -71.5t55.5 -49t78 -18.5q94 0 177 82t118 262q4 18 14.5 71.5t20.5 112.5q12 68 28 150q-10 4 -47 11t-92 7q-82 0 -153.5 -33t-126 -94 t-86 -148t-31.5 -196zM580 1327q0 41 16 79t45 67.5t68 47t84 17.5q55 0 93 -15.5t61.5 -41t34.5 -59t11 -68.5q0 -43 -17.5 -82t-46 -68.5t-67.5 -46t-82 -16.5q-55 0 -94 16.5t-62.5 43t-33.5 59t-10 67.5zM698 1333q0 -29 18.5 -54.5t65.5 -25.5q41 0 66.5 29t25.5 64 q0 31 -17 56t-64 25q-43 0 -69 -29.5t-26 -64.5z" />
<glyph unicode="&#xe6;" horiz-adv-x="1728" d="M61 266q0 63 25 126t86 112t166.5 78.5t265.5 29.5h139q2 14 7 29q2 10 4 22.5t4 18.5q2 12 4 26.5t2 24.5q0 59 -58.5 93t-144.5 34q-47 0 -88 -7t-73.5 -16.5t-55 -18.5t-35.5 -15q-8 -4 -18 -8t-19 -4q-14 0 -14 14v12q2 14 5 34.5t7 42t7.5 41t5.5 32.5q6 2 35.5 13 t72.5 22.5t97.5 20.5t113.5 9q117 0 196 -28.5t126 -79.5q66 53 146.5 81.5t176.5 28.5q106 0 181 -31.5t121 -81t66.5 -110.5t20.5 -119q0 -41 -7 -80t-15 -70.5t-17.5 -54t-11.5 -30.5h-649q-2 -6 -4 -25.5t-2 -36.5q0 -98 71.5 -166.5t210.5 -68.5q33 0 66 6t61.5 14 t49 16.5t30.5 12.5q6 4 19.5 9t21.5 5q14 0 15 -16q0 -4 -2.5 -24.5t-6.5 -47t-8 -53.5t-8 -45q-27 -10 -97.5 -32.5t-168.5 -22.5q-150 0 -255.5 52t-164.5 146h-2q-10 -14 -35 -47t-69 -66.5t-110.5 -60t-158.5 -26.5q-80 0 -141.5 23.5t-103.5 63t-62.5 91t-20.5 108.5z M297 281q0 -55 35 -94.5t106 -39.5q111 0 177.5 76t93.5 199v9t2 11q2 8 4 15h-125q-133 0 -213 -44t-80 -132zM969 612h426q4 8 8 31t4 51q0 31 -10.5 61.5t-32 55.5t-56 40t-81.5 15q-70 0 -117 -29.5t-76.5 -70.5t-44 -84t-20.5 -70z" />
<glyph unicode="&#xe7;" horiz-adv-x="937" d="M92 442q0 147 47 258t128 186t188.5 111.5t226.5 36.5q51 0 97 -8t82 -20.5t60.5 -23.5t36.5 -17q-8 -37 -19 -80t-15 -62q-2 -6 -6.5 -18t-18.5 -12q-6 0 -11 2t-11 6q-4 2 -21.5 10t-43.5 16.5t-58.5 15.5t-65.5 7q-88 0 -153.5 -35t-109.5 -91t-66.5 -131t-22.5 -155 q0 -55 16.5 -105t48 -87t79.5 -59.5t110 -22.5q49 0 98 15.5t68 21.5q8 4 23.5 9t21.5 5q14 0 14 -14q0 -6 -3 -26.5t-6 -46.5t-8 -51.5t-7 -43.5q-16 -8 -67.5 -24.5t-119.5 -24.5l-45 -60q10 4 23.5 6t33.5 2q57 0 89 -30.5t32 -79.5q0 -59 -32.5 -111.5t-83 -93.5 t-109.5 -68.5t-113 -33.5l-41 75q39 8 79 25.5t73 42.5t54.5 54.5t21.5 64.5q0 27 -20.5 47t-73.5 20h-64l66 140q-98 8 -174 47t-126.5 100.5t-76 141t-25.5 169.5z" />
<glyph unicode="&#xe8;" horiz-adv-x="1126" d="M92 416q0 115 38 225.5t108.5 197.5t174 140t232.5 53q106 0 181 -31.5t121 -81t66.5 -110.5t20.5 -119q0 -41 -7 -80t-15 -70.5t-17.5 -54t-11.5 -30.5h-649q-2 -6 -4 -24.5t-2 -37.5q0 -98 71.5 -166.5t210.5 -68.5q33 0 66 6t61.5 14t49 16.5t28.5 12.5t21.5 9t21.5 5 q14 0 14 -16q0 -4 -3 -24.5t-7 -47.5t-8 -54.5t-8 -45.5q-25 -10 -95.5 -31.5t-168.5 -21.5q-117 0 -208 32.5t-153.5 91t-95.5 138.5t-33 174zM367 610h426q2 8 7 31t5 51q0 31 -10.5 61.5t-32 55.5t-56 40t-81.5 15q-70 0 -117 -29.5t-77 -70.5t-44 -84t-20 -70zM465 1518 h221l105 -301h-125z" />
<glyph unicode="&#xe9;" horiz-adv-x="1177" d="M92 416q0 115 38 225.5t108.5 197.5t174 140t232.5 53q106 0 181 -31.5t121 -81t66.5 -110.5t20.5 -119q0 -41 -7 -80t-15 -70.5t-17.5 -54t-11.5 -30.5h-649q-2 -6 -4 -24.5t-2 -37.5q0 -98 71.5 -166.5t210.5 -68.5q33 0 66 6t61.5 14t49 16.5t28.5 12.5t21.5 9t21.5 5 q14 0 14 -16q0 -4 -3 -24.5t-7 -47.5t-8 -54.5t-8 -45.5q-25 -10 -95.5 -31.5t-168.5 -21.5q-117 0 -208 32.5t-153.5 91t-95.5 138.5t-33 174zM367 610h426q2 8 7 31t5 51q0 31 -10.5 61.5t-32 55.5t-56 40t-81.5 15q-70 0 -117 -29.5t-77 -70.5t-44 -84t-20 -70zM643 1217 l223 301h219l-319 -301h-123z" />
<glyph unicode="&#xea;" horiz-adv-x="1126" d="M92 416q0 115 38 225.5t108.5 197.5t174 140t232.5 53q106 0 181 -31.5t121 -81t66.5 -110.5t20.5 -119q0 -41 -7 -80t-15 -70.5t-17.5 -54t-11.5 -30.5h-649q-2 -6 -4 -24.5t-2 -37.5q0 -98 71.5 -166.5t210.5 -68.5q33 0 66 6t61.5 14t49 16.5t28.5 12.5t21.5 9t21.5 5 q14 0 14 -16q0 -4 -3 -24.5t-7 -47.5t-8 -54.5t-8 -45.5q-25 -10 -95.5 -31.5t-168.5 -21.5q-117 0 -208 32.5t-153.5 91t-95.5 138.5t-33 174zM367 610h426q2 8 7 31t5 51q0 31 -10.5 61.5t-32 55.5t-56 40t-81.5 15q-70 0 -117 -29.5t-77 -70.5t-44 -84t-20 -70zM430 1217 l246 301h203l127 -301h-140l-106 180l-176 -180h-154z" />
<glyph unicode="&#xeb;" horiz-adv-x="1161" d="M92 416q0 115 38 225.5t108.5 197.5t174 140t232.5 53q106 0 181 -31.5t121 -81t66.5 -110.5t20.5 -119q0 -41 -7 -80t-15 -70.5t-17.5 -54t-11.5 -30.5h-649q-2 -6 -4 -24.5t-2 -37.5q0 -98 71.5 -166.5t210.5 -68.5q33 0 66 6t61.5 14t49 16.5t28.5 12.5t21.5 9t21.5 5 q14 0 14 -16q0 -4 -3 -24.5t-7 -47.5t-8 -54.5t-8 -45.5q-25 -10 -95.5 -31.5t-168.5 -21.5q-117 0 -208 32.5t-153.5 91t-95.5 138.5t-33 174zM367 610h426q2 8 7 31t5 51q0 31 -10.5 61.5t-32 55.5t-56 40t-81.5 15q-70 0 -117 -29.5t-77 -70.5t-44 -84t-20 -70zM416 1264 l41 211h213l-41 -211h-213zM815 1264l41 211h213l-41 -211h-213z" />
<glyph unicode="&#xec;" horiz-adv-x="518" d="M41 0l197 1012h229l-197 -1012h-229zM145 1518h222l104 -301h-125z" />
<glyph unicode="&#xed;" horiz-adv-x="518" d="M41 0l197 1012h229l-197 -1012h-229zM322 1217l223 301h221l-322 -301h-122z" />
<glyph unicode="&#xee;" horiz-adv-x="518" d="M41 0l197 1012h229l-197 -1012h-229zM106 1217l246 301h203l127 -301h-150l-106 180l-176 -180h-144z" />
<glyph unicode="&#xef;" horiz-adv-x="518" d="M41 0l197 1012h229l-197 -1012h-229zM96 1264l41 211h213l-41 -211h-213zM496 1264l41 211h213l-41 -211h-213z" />
<glyph unicode="&#xf0;" horiz-adv-x="1212" d="M92 401q0 115 33 219.5t99.5 184.5t170 127t244.5 47q63 0 108.5 -11.5t77 -26.5t50 -30.5t28.5 -23.5h6q-10 55 -31.5 123.5t-52.5 128.5l-200 -84l-52 143l158 70q-8 6 -22.5 18t-24.5 23q-10 8 -16 15t-6 17t7 21.5t17 21.5q23 27 43.5 48.5t42.5 50.5q31 -20 70 -51 t82 -80l215 92l53 -144l-178 -77q45 -80 75.5 -191.5t30.5 -253.5q0 -141 -31.5 -284.5t-104.5 -257t-191.5 -185t-294.5 -71.5q-86 0 -160 26.5t-128 79.5t-86 132t-32 183zM330 406q0 -45 10 -89.5t34.5 -78t64 -55t96.5 -21.5q55 0 106 28.5t90 82t62.5 128t23.5 166.5 q0 43 -11 84t-36 74t-61.5 52.5t-87.5 19.5q-66 0 -119 -30t-92 -82t-59.5 -124t-20.5 -155z" />
<glyph unicode="&#xf1;" d="M41 0q35 178 63 324q12 61 24.5 123.5t22 114.5t16.5 89t11 51q16 78 28.5 164t20.5 146h185q23 0 22 -17q0 -4 -1 -11t-1 -11q-2 -10 -4 -27.5t-6 -34.5q-4 -20 -8 -43h4q2 6 19.5 33t53 56.5t91 52t133.5 22.5t138 -25.5t100 -65.5t60.5 -90t20.5 -99q0 -41 -4 -76 t-8 -51q-6 -33 -15.5 -77t-18.5 -94.5t-19.5 -102.5t-20.5 -103q-23 -119 -47 -248h-231q31 158 55 285q10 55 21.5 108t20.5 99.5t15 79t9 44.5q4 20 7 43t3 46q0 63 -42 106t-114 43q-96 0 -169 -88t-107 -268q-10 -55 -26.5 -140.5t-33.5 -164.5q-18 -94 -39 -193h-229z M301 1341q12 14 36.5 36t56.5 43.5t71 37t82 15.5q57 0 93 -15.5t64.5 -34t58.5 -34t77 -15.5q45 0 83 20.5t66 47.5l45 -105q-16 -16 -40.5 -38.5t-56.5 -42t-69 -34t-77 -14.5q-59 0 -95.5 15.5t-64 34t-57 34t-78.5 15.5q-31 0 -72 -17.5t-78 -52.5z" />
<glyph unicode="&#xf2;" horiz-adv-x="1196" d="M92 424q0 129 37 240.5t109.5 193.5t180 128t247.5 46q115 0 197.5 -37t136 -97t79 -136t25.5 -152q0 -137 -37 -252.5t-108.5 -199.5t-180 -131t-250.5 -47q-104 0 -185 31.5t-136 90t-85 140.5t-30 182zM334 422q0 -47 11 -93t37 -83t66.5 -60.5t98.5 -23.5 q68 0 125 31.5t99 90t66.5 138.5t24.5 178q0 104 -55.5 177t-157.5 73q-63 0 -120.5 -28.5t-100.5 -83t-68.5 -134.5t-25.5 -182zM483 1518h219l107 -301h-125z" />
<glyph unicode="&#xf3;" horiz-adv-x="1198" d="M92 424q0 129 37 240.5t109.5 193.5t180 128t247.5 46q115 0 197.5 -37t136 -97t79 -136t25.5 -152q0 -137 -37 -252.5t-108.5 -199.5t-180 -131t-250.5 -47q-104 0 -185 31.5t-136 90t-85 140.5t-30 182zM334 422q0 -47 11 -93t37 -83t66.5 -60.5t98.5 -23.5 q68 0 125 31.5t99 90t66.5 138.5t24.5 178q0 104 -55.5 177t-157.5 73q-63 0 -120.5 -28.5t-100.5 -83t-68.5 -134.5t-25.5 -182zM662 1217l225 301h219l-320 -301h-124z" />
<glyph unicode="&#xf4;" horiz-adv-x="1196" d="M92 424q0 129 37 240.5t109.5 193.5t180 128t247.5 46q115 0 197.5 -37t136 -97t79 -136t25.5 -152q0 -137 -37 -252.5t-108.5 -199.5t-180 -131t-250.5 -47q-104 0 -185 31.5t-136 90t-85 140.5t-30 182zM334 422q0 -47 11 -93t37 -83t66.5 -60.5t98.5 -23.5 q68 0 125 31.5t99 90t66.5 138.5t24.5 178q0 104 -55.5 177t-157.5 73q-63 0 -120.5 -28.5t-100.5 -83t-68.5 -134.5t-25.5 -182zM451 1217l243 301h205l125 -301h-139l-105 180l-178 -180h-151z" />
<glyph unicode="&#xf5;" horiz-adv-x="1204" d="M92 424q0 129 37 240.5t109.5 193.5t180 128t247.5 46q115 0 197.5 -37t136 -97t79 -136t25.5 -152q0 -137 -37 -252.5t-108.5 -199.5t-180 -131t-250.5 -47q-104 0 -185 31.5t-136 90t-85 140.5t-30 182zM334 422q0 -47 11 -93t37 -83t66.5 -60.5t98.5 -23.5 q68 0 125 31.5t99 90t66.5 138.5t24.5 178q0 104 -55.5 177t-157.5 73q-63 0 -120.5 -28.5t-100.5 -83t-68.5 -134.5t-25.5 -182zM377 1341q14 14 37.5 36t56.5 43.5t71 37t81 15.5q57 0 93 -15.5t65.5 -34t58 -34t75.5 -15.5q45 0 84 20.5t68 47.5l45 -105 q-16 -16 -40.5 -38.5t-57.5 -42t-70 -34t-78 -14.5q-59 0 -95 15.5t-63.5 34t-57 34t-79.5 15.5q-31 0 -71.5 -17.5t-75.5 -52.5z" />
<glyph unicode="&#xf6;" horiz-adv-x="1196" d="M92 424q0 129 37 240.5t109.5 193.5t180 128t247.5 46q115 0 197.5 -37t136 -97t79 -136t25.5 -152q0 -137 -37 -252.5t-108.5 -199.5t-180 -131t-250.5 -47q-104 0 -185 31.5t-136 90t-85 140.5t-30 182zM334 422q0 -47 11 -93t37 -83t66.5 -60.5t98.5 -23.5 q68 0 125 31.5t99 90t66.5 138.5t24.5 178q0 104 -55.5 177t-157.5 73q-63 0 -120.5 -28.5t-100.5 -83t-68.5 -134.5t-25.5 -182zM391 1264l41 211h213l-41 -211h-213zM791 1264l40 211h213l-40 -211h-213z" />
<glyph unicode="&#xf7;" horiz-adv-x="1349" d="M123 412l35 178h1048l-35 -178h-1048zM459 37l45 233h237l-45 -233h-237zM592 731l45 234h237l-45 -234h-237z" />
<glyph unicode="&#xf8;" horiz-adv-x="1196" d="M92 422q0 131 37 242.5t109.5 193.5t180 128t247.5 46q72 0 137 -16l121 207l147 -49l-129 -224q86 -61 124 -152t38 -188q0 -137 -37 -252.5t-108.5 -199.5t-179 -131t-251.5 -47q-72 0 -141 16l-125 -217l-147 49l135 233q-78 59 -118 151.5t-40 209.5zM336 422 q0 -41 8 -83t29 -77l336 580q-14 4 -29 6t-31 2q-63 0 -119.5 -28.5t-99.5 -83t-68.5 -134.5t-25.5 -182zM479 172q35 -10 68 -10q68 0 125 31.5t100 90t66.5 138.5t23.5 178q0 94 -43 160z" />
<glyph unicode="&#xf9;" d="M102 260q0 41 4.5 76t8.5 51q12 66 31.5 170.5t39.5 206.5q23 119 50 248h229q-31 -158 -55 -285q-10 -55 -20.5 -109.5t-20 -99.5t-15.5 -77.5t-8 -45.5q-10 -45 -10 -88q0 -63 41 -106t112 -43q98 0 171 88t108 268q10 55 26.5 139t32.5 164q18 94 37 195h232 q-35 -178 -64 -324q-12 -61 -24.5 -123.5t-22.5 -115t-17 -89t-10 -51.5q-16 -78 -28 -164t-21 -145h-186q-20 0 -21 16q0 4 1.5 11.5t1.5 11.5q2 8 4 26.5t6 34.5q4 20 8 43h-4q-4 -6 -21.5 -32.5t-52.5 -56t-90 -52t-133 -22.5t-138.5 25.5t-100.5 65.5t-60.5 90t-20.5 99 zM422 1518h219l104 -301h-122z" />
<glyph unicode="&#xfa;" d="M102 260q0 41 4.5 76t8.5 51q12 66 31.5 170.5t39.5 206.5q23 119 50 248h229q-31 -158 -55 -285q-10 -55 -20.5 -109.5t-20 -99.5t-15.5 -77.5t-8 -45.5q-10 -45 -10 -88q0 -63 41 -106t112 -43q98 0 171 88t108 268q10 55 26.5 139t32.5 164q18 94 37 195h232 q-35 -178 -64 -324q-12 -61 -24.5 -123.5t-22.5 -115t-17 -89t-10 -51.5q-16 -78 -28 -164t-21 -145h-186q-20 0 -21 16q0 4 1.5 11.5t1.5 11.5q2 8 4 26.5t6 34.5q4 20 8 43h-4q-4 -6 -21.5 -32.5t-52.5 -56t-90 -52t-133 -22.5t-138.5 25.5t-100.5 65.5t-60.5 90t-20.5 99 zM602 1217l223 301h219l-319 -301h-123z" />
<glyph unicode="&#xfb;" d="M102 260q0 41 4.5 76t8.5 51q12 66 31.5 170.5t39.5 206.5q23 119 50 248h229q-31 -158 -55 -285q-10 -55 -20.5 -109.5t-20 -99.5t-15.5 -77.5t-8 -45.5q-10 -45 -10 -88q0 -63 41 -106t112 -43q98 0 171 88t108 268q10 55 26.5 139t32.5 164q18 94 37 195h232 q-35 -178 -64 -324q-12 -61 -24.5 -123.5t-22.5 -115t-17 -89t-10 -51.5q-16 -78 -28 -164t-21 -145h-186q-20 0 -21 16q0 4 1.5 11.5t1.5 11.5q2 8 4 26.5t6 34.5q4 20 8 43h-4q-4 -6 -21.5 -32.5t-52.5 -56t-90 -52t-133 -22.5t-138.5 25.5t-100.5 65.5t-60.5 90t-20.5 99 zM424 1217l246 301h204l125 -301h-139l-106 180l-176 -180h-154z" />
<glyph unicode="&#xfc;" d="M102 260q0 41 4.5 76t8.5 51q12 66 31.5 170.5t39.5 206.5q23 119 50 248h229q-31 -158 -55 -285q-10 -55 -20.5 -109.5t-20 -99.5t-15.5 -77.5t-8 -45.5q-10 -45 -10 -88q0 -63 41 -106t112 -43q98 0 171 88t108 268q10 55 26.5 139t32.5 164q18 94 37 195h232 q-35 -178 -64 -324q-12 -61 -24.5 -123.5t-22.5 -115t-17 -89t-10 -51.5q-16 -78 -28 -164t-21 -145h-186q-20 0 -21 16q0 4 1.5 11.5t1.5 11.5q2 8 4 26.5t6 34.5q4 20 8 43h-4q-4 -6 -21.5 -32.5t-52.5 -56t-90 -52t-133 -22.5t-138.5 25.5t-100.5 65.5t-60.5 90t-20.5 99 zM381 1264l41 211h213l-41 -211h-213zM780 1264l41 211h213l-41 -211h-213z" />
<glyph unicode="&#xfd;" horiz-adv-x="1169" d="M-246 -483q6 25 15 49q6 23 13 49.5t15 54.5q8 25 27 25q10 0 31.5 -7t62.5 -7q27 0 57.5 4t63.5 20t67.5 50t69.5 93q16 27 30.5 54.5t29.5 50.5q14 27 30 51l-180 1008h248l104 -703h8l367 703h254q-133 -236 -250 -445q-49 -90 -101 -181t-99.5 -175t-87.5 -154.5 t-66 -115.5q-51 -90 -101.5 -170t-111 -141.5t-137 -97.5t-183.5 -36q-86 0 -124.5 8.5t-51.5 12.5zM438 1518h221l105 -301h-123z" />
<glyph unicode="&#xfe;" horiz-adv-x="1187" d="M-41 -471l379 1941h229l-106 -546h4q16 18 39.5 37.5t55.5 36t73 26.5t92 10q98 0 169 -38t115 -95t65.5 -125.5t21.5 -130.5q0 -121 -36 -239.5t-112 -213t-194.5 -152.5t-282.5 -58q-72 0 -125 7t-63 11l-93 -471h-231zM315 178q8 -2 44.5 -11t95.5 -9q94 0 167.5 39 t125 105.5t79 152.5t27.5 178q0 102 -51 162.5t-137 60.5q-43 0 -86 -19.5t-82 -60.5t-69 -107.5t-48 -158.5q-4 -18 -15.5 -72.5t-21.5 -111.5q-12 -68 -29 -148z" />
<glyph unicode="&#xff;" horiz-adv-x="964" d="M-246 -483q4 25 13 49q6 23 13 49.5t15 54.5q8 25 27 25q10 0 31.5 -7t62.5 -7q27 0 57.5 4t63.5 20t67.5 50t69.5 93q16 27 30.5 54.5t28.5 50.5q14 27 31 51l-180 1008h248l106 -703h8l367 703h254q-133 -236 -250 -445q-49 -90 -101 -181t-100.5 -175t-88.5 -154.5 t-66 -115.5q-51 -90 -101.5 -170t-111 -141.5t-137 -97.5t-181.5 -36q-86 0 -124.5 8.5t-51.5 12.5zM293 1264l41 211h213l-41 -211h-213zM692 1264l41 211h213l-41 -211h-213z" />
<glyph unicode="&#x152;" horiz-adv-x="2017" d="M82 559q0 193 59.5 348.5t164 265t245.5 169t305 59.5q135 0 243.5 -45t186.5 -123l29 147h743l-37 -188h-501l-76 -389h475l-37 -189h-475l-82 -426h506l-37 -188h-747l14 78q-86 -47 -182.5 -72.5t-206.5 -25.5q-131 0 -239.5 44t-186.5 121.5t-121 184t-43 229.5z M344 569q0 -84 23.5 -155.5t68.5 -123.5t110.5 -82t149.5 -30q100 0 189.5 46t156 130t105.5 201t39 260q0 84 -23.5 155.5t-69.5 123t-113 80t-151 28.5q-100 0 -188 -46t-154.5 -130t-104.5 -199.5t-38 -257.5z" />
<glyph unicode="&#x153;" horiz-adv-x="1882" d="M92 424q0 129 37 240.5t109.5 193.5t180 128t247.5 46q129 0 216 -45t140 -117q72 74 166 118t213 44q106 0 181 -31.5t121 -81t66.5 -110.5t20.5 -119q0 -41 -6 -80t-15.5 -70.5t-17.5 -54t-12 -30.5h-647q-2 -6 -5.5 -24.5t-3.5 -37.5q0 -98 72 -166.5t211 -68.5 q33 0 65.5 6t61.5 14t49.5 16.5t30.5 12.5q6 4 19.5 9t21.5 5q14 0 14 -16q0 -4 -2 -24.5t-6 -47.5t-8 -53.5t-8 -44.5q-27 -10 -97.5 -32.5t-169.5 -22.5q-135 0 -234 43t-161 116q-72 -76 -175 -117.5t-239 -41.5q-104 0 -185 31.5t-136 90t-85 140.5t-30 182zM334 422 q0 -47 11 -93t37 -83t66.5 -60.5t98.5 -23.5q68 0 125 31.5t99 90t66.5 138.5t24.5 178q0 106 -55.5 178t-157.5 72q-63 0 -120.5 -28.5t-100.5 -83t-68.5 -134.5t-25.5 -182zM1124 610h424q4 8 8.5 31t4.5 51q0 31 -10.5 61.5t-32 55.5t-56.5 40t-82 15q-70 0 -116.5 -29.5 t-75.5 -70.5t-44.5 -84t-19.5 -70z" />
<glyph unicode="&#x178;" horiz-adv-x="1048" d="M82 1380h252l178 -659l428 659h252l-598 -903l-92 -477h-244l92 477zM373 1667q0 59 39 97t92 38q61 0 90 -34.5t29 -75.5q0 -59 -39 -97.5t-92 -38.5q-59 0 -89 35t-30 76zM772 1667q0 59 39 97t92 38q61 0 90 -34.5t29 -75.5q0 -59 -39 -97.5t-92 -38.5q-59 0 -89 35 t-30 76z" />
<glyph unicode="&#x2c6;" horiz-adv-x="737" d="M82 1217l244 301h204l125 -301h-139l-104 180l-179 -180h-151z" />
<glyph unicode="&#x2dc;" horiz-adv-x="899" d="M82 1366q12 12 36.5 34.5t56.5 43t71 36t82 15.5q57 0 93 -15.5t64.5 -34t58 -33.5t77.5 -15q45 0 83.5 21.5t67.5 47.5l45 -104q-16 -16 -40.5 -39t-56.5 -43t-70 -34.5t-77 -14.5q-59 0 -95 15.5t-64.5 33.5t-59 33.5t-80.5 15.5q-29 0 -69.5 -16.5t-75.5 -50.5z" />
<glyph unicode="&#x2000;" horiz-adv-x="909" />
<glyph unicode="&#x2001;" horiz-adv-x="1819" />
<glyph unicode="&#x2002;" horiz-adv-x="909" />
<glyph unicode="&#x2003;" horiz-adv-x="1819" />
<glyph unicode="&#x2004;" horiz-adv-x="606" />
<glyph unicode="&#x2005;" horiz-adv-x="454" />
<glyph unicode="&#x2006;" horiz-adv-x="303" />
<glyph unicode="&#x2007;" horiz-adv-x="303" />
<glyph unicode="&#x2008;" horiz-adv-x="227" />
<glyph unicode="&#x2009;" horiz-adv-x="363" />
<glyph unicode="&#x200a;" horiz-adv-x="101" />
<glyph unicode="&#x2010;" horiz-adv-x="892" d="M164 412l33 178h491l-33 -178h-491z" />
<glyph unicode="&#x2011;" horiz-adv-x="892" d="M164 412l33 178h491l-33 -178h-491z" />
<glyph unicode="&#x2012;" horiz-adv-x="892" d="M164 412l33 178h491l-33 -178h-491z" />
<glyph unicode="&#x2013;" horiz-adv-x="1296" d="M164 412l33 178h895l-33 -178h-895z" />
<glyph unicode="&#x2014;" horiz-adv-x="1660" d="M164 412l33 178h1259l-33 -178h-1259z" />
<glyph unicode="&#x2018;" horiz-adv-x="483" d="M205 905l39 197q12 59 37.5 107t60.5 85t75 64.5t77 44.5l30 -45q-72 -41 -106.5 -104.5t-42.5 -114.5h112l-45 -234h-237z" />
<glyph unicode="&#x2019;" horiz-adv-x="442" d="M123 928q72 41 106.5 104.5t42.5 114.5h-112l45 233h237l-39 -196q-12 -59 -37.5 -107.5t-60.5 -85.5t-75 -64.5t-76 -43.5z" />
<glyph unicode="&#x201a;" horiz-adv-x="503" d="M20 -219q72 41 107 104.5t43 114.5h-113l45 233h238l-39 -196q-12 -59 -37.5 -107.5t-60.5 -85.5t-75 -64.5t-79 -43.5z" />
<glyph unicode="&#x201c;" horiz-adv-x="903" d="M205 905l39 197q12 59 37.5 107t60.5 85t75 64.5t77 44.5l30 -45q-72 -41 -106.5 -104.5t-42.5 -114.5h112l-45 -234h-237zM625 905l39 197q12 59 37.5 107t60.5 85t75 64.5t78 44.5l29 -45q-72 -41 -106.5 -104.5t-42.5 -114.5h112l-45 -234h-237z" />
<glyph unicode="&#x201d;" horiz-adv-x="862" d="M123 928q74 41 108.5 104.5t40.5 114.5h-112l45 233h237l-36 -196q-12 -59 -39 -107.5t-62 -85.5t-75 -64.5t-76 -43.5zM543 928q74 41 108.5 104.5t40.5 114.5h-112l45 233h237l-37 -196q-12 -59 -38.5 -107.5t-61.5 -85.5t-75 -64.5t-77 -43.5z" />
<glyph unicode="&#x201e;" horiz-adv-x="927" d="M20 -219q74 41 109 104.5t41 114.5h-113l45 233h238l-37 -196q-12 -59 -38.5 -107.5t-61.5 -85.5t-75 -64.5t-77 -43.5zM444 -219q74 41 109 104.5t41 114.5h-113l45 233h238l-37 -196q-12 -59 -38.5 -107.5t-61.5 -85.5t-75 -64.5t-77 -43.5z" />
<glyph unicode="&#x2022;" horiz-adv-x="702" d="M164 340l59 309h316l-62 -309h-313z" />
<glyph unicode="&#x2026;" horiz-adv-x="1402" d="M20 0l46 233h237l-45 -233h-238zM487 0l45 233h238l-45 -233h-238zM956 0l45 233h238l-45 -233h-238z" />
<glyph unicode="&#x202f;" horiz-adv-x="363" />
<glyph unicode="&#x2039;" horiz-adv-x="579" d="M0 485l432 430l107 -98l-349 -342l216 -344l-140 -76z" />
<glyph unicode="&#x203a;" horiz-adv-x="641" d="M0 152l348 344l-215 342l137 77l269 -430l-435 -430z" />
<glyph unicode="&#x205f;" horiz-adv-x="454" />
<glyph unicode="&#x20ac;" horiz-adv-x="1456" d="M82 428l137 188h57q4 86 19 162h-145l137 189h69q98 207 296 320.5t470 113.5q141 0 223 -22.5t111 -35.5l-70 -206q-29 14 -102 39.5t-190 25.5q-123 0 -240 -62.5t-197 -172.5h578l-98 -189h-572q-10 -39 -17 -79t-7 -83h512l-99 -188h-381q43 -111 139.5 -182.5 t229.5 -71.5q53 0 98 9.5t80 21.5t58.5 23.5t33.5 17.5l-10 -209q-25 -10 -100.5 -33.5t-177.5 -23.5q-115 0 -218.5 30.5t-186.5 88t-142.5 141.5t-83.5 188h-211z" />
<glyph unicode="&#x2122;" horiz-adv-x="968" d="M164 1313l14 67h309l-14 -67h-111l-65 -342h-88l65 342h-110zM418 971l139 409h105l34 -297h9l145 297h119l-19 -409h-84l17 301h-9l-149 -301h-90l-35 301h-8l-88 -301h-86z" />
<glyph unicode="&#xe000;" horiz-adv-x="1013" d="M0 0v1014h1014v-1014h-1014z" />
</font>
</defs>
</svg>
