<?xml version="1.0" standalone="no"?>
<!DOCTYPE svg PUBLIC "-//W3C//DTD SVG 1.1//EN" "http://www.w3.org/Graphics/SVG/1.1/DTD/svg11.dtd" >
<svg xmlns="http://www.w3.org/2000/svg">
<metadata></metadata>
<defs>
<font id="americansans_mediumregular" horiz-adv-x="1273" >
<font-face units-per-em="2048" ascent="1536" descent="-512" />
<missing-glyph horiz-adv-x="512" />
<glyph unicode="&#xfb01;" horiz-adv-x="1148" d="M41 838v174h141v67q0 221 121 324.5t352 103.5q35 0 74 -5t75 -11t62.5 -12t34.5 -9q-2 -14 -4 -38.5t-4 -49.5q-2 -29 -4 -61q0 -29 -21 -29q-23 0 -82 15.5t-131 15.5q-74 0 -122 -20.5t-74.5 -54.5t-36.5 -78t-10 -89v-69h594v-1012h-230v838h-364v-838h-230v838h-141 z" />
<glyph unicode="&#xfb02;" horiz-adv-x="1150" d="M41 838v174h143v78q0 221 122 319t360 98q59 0 117.5 -7t106.5 -16t79.5 -17.5t38.5 -10.5v-1456h-230v1303q-10 4 -50 12t-89 8q-98 0 -160.5 -57.5t-62.5 -157.5v-96h207v-174h-207v-838h-232v838h-143z" />
<glyph unicode="&#xfb03;" horiz-adv-x="1785" d="M41 838v174h139v78q0 221 105.5 319t306.5 98q61 0 103 -8t61 -14q-2 -14 -4 -39t-4 -49q-4 -29 -7 -62q0 -29 -20 -28q-10 0 -38 8t-81 8q-109 0 -150.5 -61.5t-41.5 -153.5v-96h409v67q0 221 122 324.5t353 103.5q33 0 73 -5t76 -11t62.5 -12t34.5 -9q-2 -14 -4 -38.5 t-4 -49.5q-2 -29 -4 -61q-4 -29 -23 -29q-23 0 -81 15.5t-130 15.5q-74 0 -122 -20.5t-74.5 -54.5t-36.5 -78t-10 -89v-69h591v-1012h-229v838h-362v-838h-232v838h-409v-838h-230v838h-139z" />
<glyph unicode="&#xfb04;" horiz-adv-x="1785" d="M41 838v174h139v78q0 221 106.5 319t307.5 98q61 0 103 -8t61 -14q-2 -14 -4 -39t-4 -49q-4 -29 -7 -62q0 -29 -20 -28q-10 0 -39 8t-82 8t-90 -16.5t-59.5 -45t-32.5 -68.5t-10 -85v-96h409v78q0 213 119 315t334 102q63 0 126.5 -7t116 -16t87 -17.5t40.5 -10.5v-1456 h-229v1303q-10 4 -44 12t-85 8q-115 0 -174 -61.5t-59 -153.5v-96h206v-174h-206v-838h-232v838h-409v-838h-230v838h-139z" />
<glyph horiz-adv-x="2048" />
<glyph horiz-adv-x="2048" />
<glyph unicode="&#xd;" horiz-adv-x="737" />
<glyph unicode=" "  horiz-adv-x="512" />
<glyph unicode="&#x09;" horiz-adv-x="512" />
<glyph unicode="&#xa0;" horiz-adv-x="512" />
<glyph unicode="!" horiz-adv-x="559" d="M188 1380h242l-33 -974h-176zM190 0v233h238v-233h-238z" />
<glyph unicode="&#x22;" horiz-adv-x="737" d="M102 1380h228l-54 -436h-120zM408 1380h227l-53 -436h-121z" />
<glyph unicode="#" d="M76 377v162h250l36 344h-227v161h244l37 336h186l-35 -336h215l35 336h189l-37 -336h227v-161h-244l-37 -344h226v-162h-244l-39 -377h-188l41 377h-215l-41 -377h-187l39 377h-231zM514 539h213l37 344h-215z" />
<glyph unicode="$" horiz-adv-x="1191" d="M164 1012q0 135 90 235.5t264 134.5v179h193v-162q76 0 139 -8.5t86 -16.5l-14 -207q-23 8 -89.5 21.5t-150.5 13.5q-74 0 -125 -15.5t-83 -40t-46 -57t-14 -67.5q0 -74 45 -114t114 -68l138 -58q59 -25 116.5 -56.5t101.5 -77.5t71.5 -107.5t27.5 -143.5 q0 -147 -84 -249.5t-233 -143.5v-221h-193v197q-117 0 -195.5 10t-113.5 20l12 215q29 -10 91.5 -29.5t179.5 -19.5q147 0 218.5 51.5t71.5 141.5q0 76 -55 122t-143 80l-131 54q-57 25 -109.5 56.5t-92.5 77.5t-63.5 108.5t-23.5 144.5z" />
<glyph unicode="%" horiz-adv-x="1734" d="M123 1073q0 72 18.5 135.5t58.5 110.5t102.5 73.5t152.5 26.5q166 0 247.5 -96t81.5 -250q0 -72 -19.5 -134t-59 -109.5t-102 -75t-148.5 -27.5q-162 0 -247 90t-85 256zM311 1073q0 -92 36 -141t108 -49q70 0 105.5 52t35.5 138t-34.5 138.5t-106.5 52.5 q-74 0 -109 -52.5t-35 -138.5zM352 0l826 1380h190l-825 -1380h-191zM950 324q0 72 18.5 135t58.5 110t102.5 74t152.5 27q166 0 248 -95.5t82 -250.5q0 -72 -19.5 -134.5t-59.5 -109.5t-102.5 -73.5t-148.5 -26.5q-162 0 -247 89t-85 255zM1137 324q0 -90 36.5 -140.5 t108.5 -50.5q70 0 105.5 52.5t35.5 138.5t-34.5 139t-106.5 53q-76 0 -110.5 -53t-34.5 -139z" />
<glyph unicode="&#x26;" horiz-adv-x="1486" d="M123 377q0 82 30.5 143.5t75.5 107.5t93.5 78.5t85.5 55.5q-59 66 -103.5 146.5t-44.5 193.5q0 51 22.5 104.5t66.5 96.5t109.5 70.5t151.5 27.5q76 0 137.5 -22.5t105.5 -62.5t68.5 -92.5t24.5 -113.5q0 -74 -23.5 -131t-60.5 -101t-79 -76t-78 -57q27 -29 71.5 -71.5 t91.5 -88.5t93.5 -88t76.5 -67q35 53 72 148.5t43 222.5h219q-2 -80 -19.5 -154t-42 -137.5t-54 -116.5t-56.5 -92q18 -14 51 -38.5t69 -51.5t70.5 -51.5t55.5 -38.5l-162 -146q-49 35 -94 68q-39 29 -78 57.5t-59 44.5q-18 -14 -55 -41.5t-97.5 -55.5t-143.5 -48t-190 -20 q-74 0 -152.5 22.5t-143 70.5t-106.5 123.5t-42 180.5zM350 381q0 -90 66.5 -154.5t181.5 -64.5t189.5 35.5t113.5 68.5q-39 31 -90 79t-103.5 99.5t-99.5 100.5t-80 84q-16 -10 -45.5 -30.5t-58.5 -51.5t-51.5 -73t-22.5 -93zM473 1083q0 -33 11.5 -62.5t27.5 -55t35.5 -48 t36.5 -40.5q25 18 51.5 40.5t48 48t34.5 57.5t13 71v6q0 47 -31.5 86t-101.5 39q-55 0 -90 -41t-35 -101z" />
<glyph unicode="'" horiz-adv-x="430" d="M102 1380h226l-54 -436h-118z" />
<glyph unicode="(" horiz-adv-x="739" d="M205 455q0 158 27.5 299t67.5 260t87 212t88 154h182q-35 -61 -76.5 -157.5t-76.5 -216t-58.5 -260t-23.5 -291.5q0 -152 23.5 -292t58.5 -261t77 -217.5t76 -157.5h-182q-41 61 -88 154.5t-87 212t-67.5 260t-27.5 301.5z" />
<glyph unicode=")" horiz-adv-x="739" d="M82 -473q35 61 76 157.5t76.5 217.5t59 261t23.5 292t-23.5 292t-59 259.5t-76.5 216t-76 157.5h182q39 -61 87 -154t88 -212t68 -260.5t28 -298.5q0 -160 -28 -301.5t-68 -260t-88 -212t-87 -154.5h-182z" />
<glyph unicode="*" horiz-adv-x="806" d="M123 1124l43 138l192 -86l-26 204h143l-22 -209l188 91l43 -140l-205 -41l142 -151l-117 -84l-105 182l-98 -182l-117 86l142 153z" />
<glyph unicode="+" d="M113 412v178h413v411h224v-411h411v-178h-411v-412h-224v412h-413z" />
<glyph unicode="," horiz-adv-x="483" d="M123 0v233h237v-196q0 -59 -17 -107.5t-45 -85.5t-61.5 -64.5t-68.5 -43.5l-39 45q63 41 86 104.5t21 114.5h-113z" />
<glyph unicode="-" horiz-adv-x="819" d="M164 412v178h491v-178h-491z" />
<glyph unicode="." horiz-adv-x="483" d="M123 0v233h237v-233h-237z" />
<glyph unicode="/" horiz-adv-x="823" d="M41 0l526 1380h215l-526 -1380h-215z" />
<glyph unicode="0" d="M123 690q0 143 24.5 272.5t84 226.5t157.5 154.5t248 57.5q98 0 175 -34t133 -90t96 -130t63.5 -153t35 -157.5t11.5 -146.5q0 -129 -30.5 -256t-93 -228.5t-160 -163.5t-230.5 -62q-143 0 -241.5 53t-159 148t-87 225t-26.5 284zM360 690q0 -252 59.5 -382t217.5 -130 q129 0 203.5 133t74.5 379q0 29 -2 77t-11 105.5t-26.5 116t-49 106.5t-78 77.5t-111.5 29.5q-84 0 -137.5 -36t-84 -102.5t-43 -160.5t-12.5 -213z" />
<glyph unicode="1" horiz-adv-x="729" d="M0 1231q55 6 108.5 22.5t99.5 39t82 50t56 58.5h178v-1401h-231v1133q-20 -14 -52 -27.5t-67 -25t-71.5 -19.5t-67.5 -10z" />
<glyph unicode="2" horiz-adv-x="980" d="M41 0v182q70 80 129 148q51 59 98 113.5t64 74.5q133 158 186 265.5t53 191.5q0 41 -13 82t-42 72.5t-73 52t-105 20.5q-49 0 -90 -10t-74 -23.5t-54.5 -27t-33.5 -21.5l-35 199q4 2 29.5 15.5t69 27.5t101.5 26.5t128 12.5q104 0 185 -33t136.5 -88t84 -128t28.5 -153 q0 -139 -64.5 -263t-170.5 -251q-25 -29 -65 -78t-81 -98q-47 -57 -96 -121h522v-188h-817z" />
<glyph unicode="3" horiz-adv-x="909" d="M41 1339q41 16 114.5 39t190.5 23q88 0 163 -24.5t130 -70.5t86 -113t31 -151q0 -78 -30 -133t-67.5 -91t-75.5 -54.5t-55 -24.5v-6q23 -8 66 -29.5t86 -61.5t74.5 -101.5t31.5 -149.5q0 -92 -33.5 -168t-100 -130t-165 -83.5t-225.5 -29.5q-84 0 -133 8t-61 10l-13 199 q23 -4 75 -12.5t124 -8.5q131 0 214 58.5t83 164.5q0 47 -17.5 89t-55.5 73t-99.5 49.5t-149.5 18.5h-69v166h63q63 0 118.5 16t96.5 45t63.5 71t22.5 93q0 37 -13 72.5t-42 63.5t-72 44.5t-102 16.5q-39 0 -75 -8.5t-64.5 -18.5t-49 -20.5t-26.5 -14.5z" />
<glyph unicode="4" d="M109 522l532 858h305v-848h217v-188h-217v-344h-229v344h-570zM330 532h387v639h-8z" />
<glyph unicode="5" horiz-adv-x="1091" d="M164 193q6 -2 30.5 -4.5t55.5 -4.5t64.5 -4t60.5 -2q68 0 125 17.5t100 51.5t67.5 83t24.5 110q0 113 -89 181.5t-249 68.5q-74 0 -121 -8t-69 -12v710h715v-188h-486v-344q10 4 43 7t76 3q96 0 173 -33.5t131 -91t83 -134.5t29 -163q0 -102 -37 -186t-108.5 -144.5 t-175 -93t-238.5 -32.5q-25 0 -56.5 1t-60.5 3t-51.5 4t-28.5 4z" />
<glyph unicode="6" d="M150 565q0 217 58 376t155.5 260.5t225.5 150.5t267 49q59 0 102 -5t60 -7l-23 -207q-16 6 -56 13t-91 7q-94 0 -165 -26.5t-120 -67.5t-81.5 -92t-52 -100.5t-29 -90.5t-11.5 -61l6 -2q6 6 26.5 24.5t57.5 38t89 36t120 16.5q92 0 172 -29t138.5 -84t92 -137t33.5 -189 q0 -31 -7 -77t-26.5 -97t-53 -102t-87 -91t-128 -65.5t-177.5 -25.5q-162 0 -260 59t-150.5 148t-68.5 191.5t-16 186.5zM395 422q0 -59 19.5 -106.5t53.5 -81t80 -52t99 -18.5q55 0 100.5 19.5t79 54t52 82t18.5 102.5q0 59 -19.5 107.5t-53 82t-80 52t-97.5 18.5 q-53 0 -98 -18.5t-80 -52t-54.5 -82t-19.5 -107.5z" />
<glyph unicode="7" horiz-adv-x="935" d="M0 1192v188h834v-186q-37 -78 -76 -175t-77 -203.5t-75 -219.5t-67.5 -219.5t-56 -203.5t-40.5 -173h-245q20 104 63 255t98.5 315.5t117 327.5t120.5 294h-596z" />
<glyph unicode="8" horiz-adv-x="1173" d="M123 330q0 82 32.5 144.5t78 107.5t89.5 73.5t66 44.5q-29 16 -69.5 43t-78.5 67t-64.5 94t-26.5 128t26.5 140.5t79.5 117.5t136 81t194 30q123 0 207 -29t134 -74t71.5 -102t21.5 -113q0 -49 -10.5 -92t-37 -85t-75.5 -85t-125 -94q145 -84 212 -169t67 -200 q0 -78 -31 -146.5t-92.5 -119.5t-153.5 -81.5t-215 -30.5q-90 0 -169 21.5t-138 64.5t-94 108.5t-35 155.5zM352 348q0 -43 19.5 -74.5t53.5 -53t79 -33t96 -11.5q109 0 165 49t56 121q0 70 -56 130.5t-196 133.5q-23 -14 -59.5 -37.5t-71.5 -56.5t-60.5 -75t-25.5 -93z M371 1057q0 -43 17.5 -76t48 -61.5t70.5 -54t83 -50.5q18 10 52 31.5t68.5 52.5t60.5 70t26 84q0 78 -59.5 121t-153.5 43q-92 0 -152.5 -46.5t-60.5 -113.5z" />
<glyph unicode="9" d="M150 942q0 31 7 77t25.5 97t52 102.5t87 91.5t128 65.5t177.5 25.5q109 0 187.5 -27.5t134 -74t90 -106.5t53 -126t25.5 -131.5t7 -122.5q0 -219 -58 -375.5t-155.5 -259t-225.5 -150.5t-267 -48q-61 0 -104.5 5t-59.5 7l25 205q16 -4 56 -11.5t91 -7.5q94 0 163.5 26.5 t120 67.5t82 92.5t51 99.5t29 89t11.5 61l-6 2q-4 -4 -25 -22.5t-57.5 -38.5t-89.5 -36.5t-121 -16.5q-92 0 -172 28.5t-138.5 85t-91 138.5t-32.5 188zM375 956q0 -59 19.5 -106t54 -81t79.5 -52.5t99 -18.5q51 0 97 17.5t80 51.5t54.5 82t20.5 107q0 119 -73 190t-179 71 q-55 0 -101.5 -19.5t-80 -54.5t-52 -83t-18.5 -104z" />
<glyph unicode=":" horiz-adv-x="483" d="M123 0v233h237v-233h-237zM123 582v233h237v-233h-237z" />
<glyph unicode=";" horiz-adv-x="483" d="M123 0v233h237v-196q0 -59 -17 -107.5t-45 -85.5t-61.5 -64.5t-68.5 -43.5l-39 45q63 41 86 104.5t21 114.5h-113zM123 582v233h237v-233h-237z" />
<glyph unicode="&#x3c;" horiz-adv-x="1009" d="M123 506l637 590l127 -133l-494 -459l492 -469l-125 -127z" />
<glyph unicode="=" d="M111 223v178h1052v-178h-1052zM111 600v178h1052v-178h-1052z" />
<glyph unicode="&#x3e;" horiz-adv-x="1009" d="M123 963l127 133l637 -590l-637 -598l-125 127l491 469z" />
<glyph unicode="?" horiz-adv-x="937" d="M123 1159l18 203q35 12 102.5 25.5t149.5 13.5q117 0 198 -34t130 -83t71.5 -107.5t22.5 -107.5q0 -72 -15.5 -122t-41 -88t-57 -68.5t-62.5 -63.5q-33 -33 -55.5 -61.5t-38 -59.5t-22.5 -65.5t-7 -79.5v-53h-221v63q0 78 16.5 135.5t40 99.5t48 67.5t40.5 41.5 q25 25 48.5 47.5t42 48t29.5 55t11 64.5q0 76 -55 124t-166 48q-78 0 -140.5 -16.5t-86.5 -26.5zM297 0v233h238v-233h-238z" />
<glyph unicode="@" horiz-adv-x="1837" d="M164 682q0 156 65.5 288t180 228t271.5 150.5t339 54.5q154 0 274.5 -47t205.5 -125t129 -177.5t44 -203.5q0 -117 -37 -207t-97 -152.5t-135 -95.5t-149 -33q-49 0 -84.5 15.5t-59.5 39t-35 51.5t-11 54h-6q-4 -12 -20.5 -38.5t-46 -52t-70.5 -46t-97 -20.5 q-45 0 -88 15t-75.5 47t-53 81t-20.5 119q0 100 37 184t98 144.5t142 93t171 32.5q37 0 73 -4t66.5 -8t52 -9t32.5 -7q-18 -106 -35 -195q-14 -76 -26.5 -144.5t-16.5 -90.5q-4 -16 -8.5 -43t-4.5 -43q0 -43 18.5 -68t61.5 -25t85 31t76 85t54.5 129t20.5 163 q0 74 -21.5 157t-78 152.5t-153.5 114.5t-249 45q-117 0 -229.5 -43t-201.5 -128t-143.5 -209t-54.5 -286q0 -147 44 -257.5t124 -183.5t190.5 -108.5t243.5 -35.5q61 0 114.5 9t94.5 21.5t70 23.5t39 15l14 -96q-39 -18 -129 -40.5t-244 -22.5q-360 0 -555.5 178 t-195.5 524zM766 627q0 -139 113 -140q37 0 63.5 21.5t46 54.5t31.5 71t18 71q4 23 10.5 59.5t12.5 71.5q8 41 16 86q-10 4 -28.5 10t-47.5 6q-41 0 -82.5 -21.5t-75.5 -62.5t-55.5 -98.5t-21.5 -128.5z" />
<glyph unicode="A" horiz-adv-x="1357" d="M20 0l525 1380h278l514 -1380h-264l-108 311h-584l-111 -311h-250zM446 498h451l-221 630h-8z" />
<glyph unicode="B" horiz-adv-x="1177" d="M164 0v1380h481q135 0 221 -31.5t134.5 -81.5t66.5 -110.5t18 -118.5q0 -86 -30.5 -141t-70.5 -88t-78 -47t-52 -19v-8q29 -4 74 -23.5t87 -57.5t71.5 -98t29.5 -146q0 -82 -26.5 -156t-86 -130t-152.5 -90t-228 -34h-459zM408 188q10 -2 28.5 -3t40 -2t43 -1h39.5 q154 0 230.5 58.5t76.5 167.5q0 98 -69.5 160.5t-237.5 62.5h-151v-443zM408 801h153q135 0 207 50t72 157q0 98 -65.5 152t-213.5 54q-55 0 -102 -2t-51 -2v-409z" />
<glyph unicode="C" horiz-adv-x="1177" d="M82 690q0 137 36 265t120 227.5t220 159t339 59.5q59 0 111.5 -7.5t93 -16.5t70.5 -18t44 -16l-29 -206q-18 8 -49.5 19t-73.5 21.5t-89.5 17.5t-96.5 7q-88 0 -168 -31.5t-139 -95t-95 -160t-36 -225.5q0 -80 21.5 -169t71.5 -165.5t134 -127t211 -50.5q55 0 106.5 9.5 t92.5 20.5t70.5 22.5t39.5 15.5l29 -207q-12 -4 -43 -13.5t-75 -19.5t-96 -18t-105 -8q-193 0 -328 54t-221 150.5t-126 225.5t-40 280z" />
<glyph unicode="D" horiz-adv-x="1390" d="M164 0v1380h452q156 0 284 -46t218 -134t140.5 -216t50.5 -294q0 -143 -42 -269t-127 -219t-215 -147.5t-309 -54.5h-452zM408 186q10 -2 58 -5t97 -3q244 0 369 136.5t125 375.5q0 254 -133 383t-361 129q-59 0 -99 -4t-56 -6v-1006z" />
<glyph unicode="E" horiz-adv-x="1015" d="M164 0v1380h745v-188h-501v-389h475v-189h-475v-426h505v-188h-749z" />
<glyph unicode="F" horiz-adv-x="1011" d="M164 0v1380h745v-188h-501v-389h473v-189h-473v-614h-244z" />
<glyph unicode="G" horiz-adv-x="1368" d="M82 690q0 137 42 265t130 227.5t224 159t325 59.5q178 0 273 -22.5t124 -32.5l-29 -209q-4 2 -28.5 12t-68.5 22.5t-108.5 21.5t-146.5 9q-100 0 -187 -34.5t-151.5 -100.5t-102.5 -161t-38 -216q0 -111 34 -205t95 -161.5t147 -106.5t191 -39q98 0 145 8.5t60 12.5v415 h-221v189h464v-744q-12 -6 -46.5 -18t-92 -26.5t-134.5 -24.5t-173 -10q-193 0 -330 59t-225 157.5t-130 226.5t-42 267z" />
<glyph unicode="H" horiz-adv-x="1425" d="M164 0v1380h244v-577h610v577h244v-1380h-244v614h-610v-614h-244z" />
<glyph unicode="I" horiz-adv-x="571" d="M164 0v1380h244v-1380h-244z" />
<glyph unicode="J" horiz-adv-x="708" d="M0 0v201q10 -4 46 -13.5t81 -9.5q80 0 127 48t47 139v1015h244v-970q0 -88 -17.5 -166t-58.5 -136.5t-111.5 -93t-177.5 -34.5q-66 0 -115 8t-65 12z" />
<glyph unicode="K" horiz-adv-x="1224" d="M164 0v1380h242v-639l501 639h277l-527 -665l547 -715h-297l-501 676v-676h-242z" />
<glyph unicode="L" horiz-adv-x="950" d="M164 0v1380h244v-1192h501v-188h-745z" />
<glyph unicode="M" horiz-adv-x="1759" d="M61 0l195 1380h285l329 -1077l344 1077h277l207 -1380h-238l-141 1049h-8l-318 -1049h-264l-311 1049h-8l-123 -1049h-226z" />
<glyph unicode="N" horiz-adv-x="1443" d="M164 0v1380h309l582 -1056h8v1056h217v-1380h-301l-590 1075h-8v-1075h-217z" />
<glyph unicode="O" horiz-adv-x="1488" d="M82 690q0 166 47 297t133 223.5t208.5 141.5t274.5 49q158 0 281 -52.5t208 -145.5t129 -224t44 -289t-44 -289t-129 -224t-208 -145t-281 -52q-150 0 -272.5 48t-209.5 139t-134 223t-47 300zM340 690q0 -119 28.5 -214t81 -160.5t128 -101.5t167.5 -36t167 36 t127.5 102.5t81 160.5t28.5 213q0 121 -29.5 216t-83 161t-127 100.5t-164.5 34.5q-90 0 -164.5 -33.5t-128 -99t-83 -161t-29.5 -218.5z" />
<glyph unicode="P" horiz-adv-x="1126" d="M164 0v1380h409q119 0 210 -33.5t153.5 -91t95.5 -135.5t33 -166q0 -213 -134 -330.5t-374 -117.5q-16 0 -38.5 1l-45 2t-41 3t-24.5 2v-514h-244zM408 694q10 -2 38.5 -3t63.5 -1q154 0 228.5 70.5t74.5 189.5q0 123 -78 189.5t-225 66.5q-53 0 -74.5 -1t-27.5 -3v-508z " />
<glyph unicode="Q" horiz-adv-x="1486" d="M82 690q0 166 46 297t132 223.5t209 141.5t274 49q158 0 281 -52.5t208 -145.5t129 -224t44 -289q0 -125 -27.5 -233.5t-82 -196.5t-134.5 -150.5t-184 -95.5l74 -250h-244l-64 216q-150 0 -271.5 48t-208.5 139t-134 223t-47 300zM338 690q0 -219 93 -352t253 -156 l-53 176h243l41 -141q111 53 172.5 175t61.5 298q0 121 -29.5 216t-83 161t-128 100.5t-165.5 34.5q-90 0 -164.5 -33.5t-128 -99t-83 -161t-29.5 -218.5z" />
<glyph unicode="R" horiz-adv-x="1214" d="M164 0v1380h457q240 0 365.5 -112.5t125.5 -298.5q0 -109 -37 -181.5t-85 -116.5t-93 -64.5t-63 -26.5l340 -580h-281l-307 549h-180v-549h-242zM406 729q6 0 21 -1t35.5 -2t43.5 -2t39 -1q162 0 238.5 68.5t76.5 177.5q0 104 -74.5 171.5t-240.5 67.5q-49 0 -90 -2 t-49 -2v-475z" />
<glyph unicode="S" horiz-adv-x="1030" d="M82 1016q0 82 35 153.5t101.5 122.5t164.5 81t227 30q80 0 149.5 -8.5t94.5 -16.5l-12 -209q-25 10 -91.5 22.5t-150.5 12.5q-74 0 -125 -15t-83 -40t-46 -57.5t-14 -67.5q0 -72 45 -113t115 -69l137 -58q59 -25 116.5 -56.5t102.5 -77.5t72.5 -107.5t27.5 -143.5 q0 -96 -37 -174t-105.5 -132t-165.5 -83.5t-216 -29.5q-111 0 -186.5 11t-110.5 21l12 215q29 -10 91.5 -29.5t179.5 -19.5q147 0 218.5 51.5t71.5 141.5q0 76 -55 122t-143 80l-131 56q-57 23 -109.5 55.5t-92.5 78.5t-63.5 107.5t-23.5 145.5z" />
<glyph unicode="T" horiz-adv-x="1064" d="M41 1192v188h983v-188h-371v-1192h-241v1192h-371z" />
<glyph unicode="U" horiz-adv-x="1417" d="M164 496v884h244v-880q0 -160 80.5 -241t220.5 -81q82 0 140 27.5t93 72t51.5 102.5t16.5 120v880h243v-884q0 -117 -33.5 -212.5t-101 -163t-170 -104t-239.5 -36.5q-147 0 -251 39.5t-169.5 109.5t-95 164t-29.5 203z" />
<glyph unicode="V" horiz-adv-x="1312" d="M20 1380h263l376 -1130h9l374 1130h250l-495 -1380h-289z" />
<glyph unicode="W" horiz-adv-x="1974" d="M61 1380h252l254 -1067h8l277 1067h281l284 -1067h8l252 1067h236l-354 -1380h-291l-285 1118h-8l-279 -1118h-274z" />
<glyph unicode="X" horiz-adv-x="1247" d="M20 0l455 700l-428 680h277l299 -475l299 475h264l-426 -653l467 -727h-291l-322 516l-321 -516h-273z" />
<glyph unicode="Y" horiz-adv-x="1150" d="M20 1380h263l307 -659l299 659h241l-421 -903v-477h-244v477z" />
<glyph unicode="Z" horiz-adv-x="1054" d="M61 0v188l625 1004h-608v188h895v-188l-625 -1004h645v-188h-932z" />
<glyph unicode="[" horiz-adv-x="733" d="M205 -473v1853h446v-180h-221v-1493h221v-180h-446z" />
<glyph unicode="\" horiz-adv-x="802" d="M20 1380h224l538 -1380h-229z" />
<glyph unicode="]" horiz-adv-x="733" d="M82 -293h221v1493h-221v180h446v-1853h-446v180z" />
<glyph unicode="^" horiz-adv-x="942" d="M41 801l319 579h203l338 -579h-217l-225 418l-213 -418h-205z" />
<glyph unicode="_" horiz-adv-x="1040" d="M-4 -362h1048v-111h-1048v111z" />
<glyph unicode="`" horiz-adv-x="466" d="M41 1475h221l164 -301h-123z" />
<glyph unicode="a" horiz-adv-x="1015" d="M61 307q0 100 50.5 168t130.5 110t179 59.5t197 17.5h58v32q0 92 -60.5 129t-156.5 37q-94 0 -163 -23.5t-91 -33.5q-8 -4 -17.5 -8t-17.5 -4q-14 0 -15 8t-3 12q0 14 -1 35.5t-2.5 44t-2.5 43.5t-1 33q14 6 46 16t76 21.5t98.5 19.5t113.5 8q215 0 320.5 -93t105.5 -275 v-404q0 -66 5 -136.5t14 -123.5h-193q-25 0 -30 13.5t-7 31.5l-6 84h-8q-12 -18 -34.5 -44t-58.5 -49.5t-87 -39.5t-121 -16q-72 0 -130.5 24.5t-100.5 68.5t-64.5 104.5t-22.5 129.5zM293 311q0 -66 42 -115t120 -49q51 0 93 23t69.5 62.5t43 93t15.5 114.5v74h-51 q-332 0 -332 -203z" />
<glyph unicode="b" horiz-adv-x="1136" d="M143 29v1439h230v-596h8q14 25 39.5 52.5t61.5 51t85 40t115 16.5q193 0 288 -122t95 -357q0 -111 -30.5 -214t-96.5 -183t-172.5 -128t-255.5 -48q-129 0 -222 17t-145 32zM373 176q35 -12 78 -17t81 -5q57 0 109.5 16t93.5 59t65.5 117t24.5 186q0 37 -4 90.5 t-24.5 104.5t-60 87t-111.5 36q-61 0 -108.5 -31t-79 -80t-48 -110.5t-16.5 -122.5v-330z" />
<glyph unicode="c" horiz-adv-x="905" d="M72 506q0 244 124.5 385t370.5 141q47 0 90 -8t78 -19.5t60.5 -22.5t38.5 -17q0 -39 -2.5 -81t-4.5 -63q0 -6 -2 -18t-16 -12q-6 0 -11 2t-12 6q-6 2 -25.5 11t-46 17.5t-60 15.5t-66.5 7q-150 0 -213.5 -92t-63.5 -252q0 -164 64.5 -254t210.5 -90q66 0 116 17.5 t66 25.5t25.5 12t15.5 5q14 0 18 -23q2 -18 4.5 -66.5t2.5 -85.5q-12 -6 -36 -17.5t-58.5 -22.5t-79 -19t-95.5 -8q-111 0 -202 32.5t-155.5 98t-100 164t-35.5 231.5z" />
<glyph unicode="d" horiz-adv-x="1146" d="M72 459q0 129 36.5 234.5t106.5 181t169 116.5t222 41q70 0 107 -8t49 -12v456h231v-1159q0 -78 3 -164t8 -145h-185q-27 0 -26 27q-2 10 -2 29.5v41.5v56h-9q-12 -23 -34.5 -53.5t-59.5 -57.5t-89 -45t-126 -18q-131 0 -210 49t-122 121.5t-56 156.5t-13 152zM311 471 q0 -61 8.5 -117.5t31 -99.5t65.5 -69.5t110 -26.5q45 0 88 20.5t76 62.5t52.5 106.5t19.5 154.5v332q-16 4 -52 12t-106 8q-143 0 -218 -95t-75 -288z" />
<glyph unicode="e" horiz-adv-x="1036" d="M72 504q0 119 31.5 217t91 166.5t144 106.5t193.5 38q125 0 208 -41t133.5 -104.5t71 -140t20.5 -148.5q0 -12 -1 -33.5l-2 -43t-3.5 -40t-2.5 -26.5h-649q0 -61 19.5 -115.5t58.5 -94.5t98.5 -63.5t137.5 -23.5q84 0 143 20.5t76 28.5q10 4 19 9t18 5q16 0 18 -22 q0 -10 2 -29.5t3 -43.5t2 -48.5t1 -42.5q-14 -6 -44 -15.5t-69.5 -18.5t-89 -15t-102.5 -6q-270 0 -398 135t-128 389zM311 610h424q0 4 1 11.5t1 13.5q0 33 -9 73t-31.5 74.5t-63.5 58t-103 23.5q-70 0 -112.5 -28.5t-66 -68.5t-32 -83t-8.5 -74z" />
<glyph unicode="f" horiz-adv-x="714" d="M41 838v174h141v59q0 221 105.5 319.5t306.5 98.5q61 0 103 -8t59 -15q-2 -14 -4 -38.5t-4 -49.5q-2 -29 -5 -61q0 -29 -20 -29q-10 0 -39 8.5t-82 8.5q-109 0 -149.5 -61.5t-40.5 -153.5v-78h243v-174h-243v-838h-230v838h-141z" />
<glyph unicode="g" horiz-adv-x="1089" d="M72 -199q0 51 18.5 91t46 68t58 45.5t57.5 25.5q-12 4 -31.5 14t-37 27.5t-30 44t-12.5 65.5q0 41 15.5 71t37 48t44 29.5t36.5 15.5q-25 8 -56.5 28.5t-59 56.5t-46 88t-18.5 124q0 80 30 150.5t87 124t140 84t192 30.5q45 0 85 -5t81 -15h340q0 -23 -1 -57.5t-6 -65.5 q-4 -35 -21 -41t-38 -6h-90q18 -12 44 -56.5t26 -111.5q0 -82 -28 -149.5t-83 -117t-136 -77t-188 -27.5q-63 0 -114 10q-18 -4 -39 -21.5t-21 -45.5q0 -39 28 -62.5t103 -23.5h195q180 0 266 -74t86 -207q0 -80 -37 -150.5t-104.5 -122.5t-163.5 -83t-217 -31 q-219 0 -328.5 81t-109.5 228zM291 -168q0 -80 64.5 -122t170.5 -42q139 0 210 52.5t71 132.5q0 57 -45 96t-156 39h-153h-30.5t-29.5 2q-14 -6 -32.5 -19.5t-34 -33t-25.5 -46t-10 -59.5zM313 664q0 -98 54.5 -151.5t162.5 -53.5q100 0 157.5 52.5t57.5 150.5t-55 152 t-158 54q-106 0 -162.5 -57t-56.5 -147z" />
<glyph unicode="h" horiz-adv-x="1144" d="M143 0v1468h230v-571h8q45 61 110.5 98t172.5 37q84 0 147 -26.5t105 -70.5t63.5 -102.5t21.5 -121.5v-711h-229v645q0 61 -13.5 101t-36 64t-52 34t-60.5 10q-45 0 -88 -21.5t-75.5 -66.5t-53 -111.5t-20.5 -156.5v-498h-230z" />
<glyph unicode="i" horiz-adv-x="524" d="M143 1241v234h238v-234h-238zM147 0v1012h230v-1012h-230z" />
<glyph unicode="j" horiz-adv-x="546" d="M-123 -483q2 14 3 38.5t5 49.5q2 29 6 61q0 29 21 29q10 0 33.5 -8.5t66.5 -8.5q25 0 50.5 7.5t47 26t36 48t14.5 74.5v1178h229v-1159q0 -96 -26.5 -164t-75.5 -111t-117 -63.5t-150 -20.5q-57 0 -91.5 7t-51.5 16zM158 1241v234h237v-234h-237z" />
<glyph unicode="k" horiz-adv-x="1007" d="M143 0v1468h230v-884l327 428h271l-375 -463l412 -549h-287l-348 512v-512h-230z" />
<glyph unicode="l" horiz-adv-x="516" d="M143 0v1468h230v-1468h-230z" />
<glyph unicode="m" horiz-adv-x="1744" d="M143 1012h179q23 0 26.5 -9.5t3.5 -19.5v-68q0 -27 2 -57h8q4 10 21.5 39t53.5 58.5t90.5 53t134.5 23.5q68 0 117.5 -19.5t84.5 -48t56.5 -60.5t31.5 -56q10 23 34 54.5t60.5 60t90 49t125.5 20.5q68 0 129 -18.5t108 -58.5t75 -103.5t28 -155.5v-696h-230v614 q0 43 -5 85t-21.5 76t-50 54.5t-89.5 20.5q-55 0 -95 -27.5t-65.5 -72.5t-39 -104.5t-13.5 -123.5v-522h-229v639q0 117 -46 164t-124 47q-55 0 -95 -29.5t-65.5 -76t-38 -105.5t-12.5 -117v-522h-229v707q0 86 -3.5 168.5t-7.5 136.5z" />
<glyph unicode="n" horiz-adv-x="1157" d="M143 1012h183q27 0 26 -27v-74q0 -25 2 -53h8q45 78 116 126t194 48q84 0 147.5 -26.5t106.5 -70.5t65.5 -102.5t22.5 -121.5v-711h-232v645q0 61 -13 101t-35.5 64t-52.5 34t-60 10q-45 0 -88.5 -21.5t-76 -66.5t-53 -111.5t-20.5 -156.5v-498h-229v702q0 78 -4.5 164 t-6.5 146z" />
<glyph unicode="o" horiz-adv-x="1126" d="M72 506q0 98 25.5 192.5t84 169t151.5 119.5t230 45q125 0 217 -40t153.5 -110.5t91.5 -167t30 -208.5q0 -104 -28 -200.5t-87 -168t-152.5 -114.5t-224.5 -43q-229 0 -360 137t-131 389zM309 506q0 -55 11.5 -115.5t40 -112t77.5 -84t125 -32.5q117 0 184.5 91t67.5 253 q0 74 -16.5 137.5t-48 109.5t-79 71.5t-108.5 25.5q-117 0 -185.5 -88t-68.5 -256z" />
<glyph unicode="p" horiz-adv-x="1148" d="M143 1012h183q27 0 26 -27v-74q0 -25 2 -53h8q12 23 36 53.5t61 57t90 45t125 18.5q131 0 211 -49t123 -122t56 -156.5t13 -151.5q0 -129 -38 -234.5t-106.5 -181.5t-167.5 -116.5t-222 -40.5q-70 0 -108 8t-50 12v-473h-229v1175q0 78 -4.5 164t-8.5 146zM385 178 q16 -4 52 -12t106 -8q143 0 219 95t76 288q0 61 -8.5 117.5t-32 99.5t-66.5 69.5t-110 26.5q-45 0 -87 -20.5t-75 -62.5t-53.5 -106.5t-20.5 -154.5v-332z" />
<glyph unicode="q" horiz-adv-x="1136" d="M72 461q0 111 30.5 214t96 182t171 127t257.5 48q129 0 223 -17.5t143 -29.5v-1458h-229v612h-8q-14 -25 -39 -52.5t-62 -51t-86 -39.5t-114 -16q-193 0 -288 122.5t-95 358.5zM311 479q0 -35 5.5 -89t24.5 -105.5t59 -87t112 -35.5q63 0 110.5 30.5t79 80t47 110.5 t15.5 123v332q-35 12 -78 16t-82 4q-55 0 -108.5 -16.5t-94.5 -59.5t-65.5 -116.5t-24.5 -186.5z" />
<glyph unicode="r" horiz-adv-x="796" d="M143 1012h181q20 0 24 -8.5t4 -18.5v-25.5t1 -38t1 -38v-25.5h8q2 6 15.5 34t44.5 59.5t83 56t130 24.5q47 0 78.5 -9t42.5 -13q0 -23 -1 -48.5t-3 -49t-3 -42t-1 -24.5q0 -23 -17 -23q-10 0 -19.5 3t-19.5 8q-27 8 -69 8q-45 0 -88 -17.5t-77 -57.5t-54.5 -105.5 t-20.5 -159.5v-502h-229v727q0 39 -1 81t-3.5 80t-4.5 70.5t-2 53.5z" />
<glyph unicode="s" horiz-adv-x="806" d="M72 731q0 76 32.5 132.5t87 94t124 56t141.5 18.5q92 0 153.5 -8t77.5 -12q-2 -23 -3 -63t-5 -79q-4 -25 -8 -33t-15 -8q-10 0 -15 2.5l-9 4.5q-16 6 -58.5 18t-97.5 12q-90 0 -132 -34.5t-42 -81.5q0 -53 32 -82t101 -56l107 -41q33 -12 68.5 -33.5t65.5 -54t49 -78 t19 -100.5q0 -90 -37.5 -152.5t-99 -100.5t-139.5 -55t-158 -17q-92 0 -149.5 7t-73.5 11q0 12 1 33.5t2 46t2 48.5t3 38q4 27 23 26q6 0 16 -2t17 -4q16 -4 63 -13t104 -9q98 0 144.5 35.5t46.5 83.5q0 35 -26.5 67.5t-100.5 61.5l-115 43q-29 10 -62.5 29.5t-63 52t-50 81 t-20.5 115.5z" />
<glyph unicode="t" horiz-adv-x="706" d="M41 838v174h139v223h232v-223h241v-174h-241v-539q0 -137 127 -137q47 0 73.5 9t40.5 9q20 0 21 -28q2 -33 4 -62q2 -25 4 -49.5t4 -38.5q-16 -6 -58.5 -14t-103.5 -8q-96 0 -162.5 25.5t-106.5 72.5t-57.5 112.5t-17.5 145.5v502h-139z" />
<glyph unicode="u" horiz-adv-x="1157" d="M143 301v711h230v-645q0 -61 13 -101.5t36.5 -64t52.5 -33.5t60 -10q45 0 88 21.5t75.5 66.5t53 111.5t20.5 156.5v498h229v-703q0 -78 4.5 -164t8.5 -145h-183q-27 0 -26 27q0 10 -1 29.5t-1 41.5v56h-8q-45 -78 -117 -126t-195 -48q-84 0 -147.5 26.5t-106.5 70.5 t-64.5 102.5t-21.5 121.5z" />
<glyph unicode="v" horiz-adv-x="1048" d="M20 1012h254l254 -742h9l245 742h246l-383 -1012h-244z" />
<glyph unicode="w" horiz-adv-x="1656" d="M41 1012h235l203 -750h15l217 750h250l217 -750h14l205 750h219l-313 -1012h-261l-213 745h-8l-213 -745h-264z" />
<glyph unicode="x" horiz-adv-x="1058" d="M20 0l386 508l-349 504h277l209 -338l219 338h250l-342 -488l368 -524h-295l-215 346l-243 -346h-265z" />
<glyph unicode="y" horiz-adv-x="1064" d="M20 -483q2 25 5 49q2 23 3 49.5t5 52.5q4 27 20 27q10 0 35 -8.5t66 -8.5q27 0 57.5 4.5t59 20.5t56 51t52.5 94q10 27 19.5 53.5t19.5 49.5q10 25 20 51l-377 1010h258l244 -705h8l230 705h243q-86 -236 -163 -445q-33 -90 -68 -182t-65.5 -176t-57 -154.5t-43.5 -115.5 q-35 -88 -68.5 -169t-83 -142.5t-119 -97.5t-175.5 -36q-86 0 -126 8.5t-55 14.5z" />
<glyph unicode="z" horiz-adv-x="862" d="M61 0v156l441 682h-410v174h701v-146l-445 -692h453v-174h-740z" />
<glyph unicode="{" horiz-adv-x="796" d="M102 375v162q66 2 107 19t64.5 45t31.5 62.5t8 75.5v271q0 197 89.5 283.5t240.5 86.5h51v-178q-80 0 -129 -40t-49 -138v-254q0 -35 -4 -82t-22.5 -92t-56.5 -82t-105 -51v-12q68 -14 105.5 -51.5t56 -83.5t22.5 -94t4 -83v-256q0 -98 49 -138t129 -40v-178h-51 q-152 0 -241 87t-89 284v272q0 41 -8 77t-31.5 63.5t-64.5 44t-107 20.5z" />
<glyph unicode="|" horiz-adv-x="528" d="M164 -473v1853h201v-1853h-201z" />
<glyph unicode="}" horiz-adv-x="798" d="M102 -295q80 0 130.5 40t50.5 138v256q0 35 4 83t22.5 94t56 83t105.5 52v10q-68 14 -105.5 51t-56 83t-22.5 93t-4 82v254q0 98 -50.5 138t-130.5 40v178h54q76 0 136 -21.5t103 -65.5t66.5 -114.5t23.5 -168.5v-271q0 -41 8.5 -75.5t31 -62.5t64.5 -45t107 -19v-162 q-66 -4 -107.5 -20.5t-64 -44t-31 -63.5t-8.5 -77v-272q0 -98 -23.5 -169t-66.5 -115t-103.5 -65.5t-135.5 -21.5h-54v178z" />
<glyph unicode="~" horiz-adv-x="1241" d="M123 623q14 12 39.5 31.5t61.5 38t81 31.5t98 13q78 0 132.5 -19.5t100.5 -42t92 -42t108 -19.5q37 0 71.5 12.5t63 29t48 33t28.5 22.5l71 -156q-12 -12 -35.5 -33.5t-60.5 -43t-86 -38t-109 -16.5q-74 0 -130 19.5t-105 42t-97.5 42t-105.5 19.5q-37 0 -67.5 -9.5 t-56 -23.5t-44 -28.5t-31.5 -24.5z" />
<glyph unicode="&#xa1;" horiz-adv-x="372" d="M27 700v234h237v-234h-237zM31 -436l32 975h164l33 -975h-229z" />
<glyph unicode="&#xa2;" horiz-adv-x="1089" d="M164 571q0 215 94 349.5t285 166.5v166h196v-161q68 -12 118 -33t69 -31q0 -18 -1 -41.5t-2 -46t-2 -42t-1 -30.5q0 -6 -2.5 -18t-16.5 -12q-8 0 -13 2t-11 6q-6 2 -24.5 11t-46.5 17.5t-60.5 15.5t-67.5 7q-74 0 -126 -24.5t-85 -67.5t-48.5 -103.5t-15.5 -130.5 q0 -145 64.5 -235t210.5 -90q66 0 116 17.5t66 23.5q33 16 41 16q15 1 19 -22q0 -10 1 -31t2 -45.5l2 -49t1 -42.5q-18 -10 -66.5 -31t-120.5 -31v-164h-196v166q-176 31 -277.5 159t-101.5 359z" />
<glyph unicode="&#xa3;" horiz-adv-x="1073" d="M164 0v150q104 66 150 153.5t46 202.5q0 35 -1 64.5t-3 43.5h-188v189h151q-10 33 -27.5 102.5t-17.5 145.5q0 94 32 160.5t87.5 108.5t133 61.5t169.5 19.5q23 0 53.5 -2t61.5 -5t54.5 -6.5t33.5 -5.5l-16 -196q-10 2 -56.5 9t-105.5 7q-102 0 -150.5 -52t-48.5 -132 q0 -29 5 -60.5t11.5 -62.5t12.5 -55.5t10 -36.5h262v-189h-231q0 -158 -41 -254t-109 -172h508v-188h-786z" />
<glyph unicode="&#xa4;" d="M164 184l129 127q-70 104 -70 230q0 127 70 231l-129 127l141 141l131 -135q92 51 203 51q109 0 201 -51l129 135l141 -141l-125 -125q33 -51 51.5 -109t18.5 -124q0 -63 -18.5 -122t-51.5 -110l125 -125l-141 -141l-129 135q-45 -25 -95.5 -39t-105.5 -14t-106.5 14.5 t-96.5 38.5l-131 -135zM410 541q0 -47 18 -88t49 -72t73 -49.5t89 -18.5t89 18.5t72.5 49.5t49 72t18.5 88t-18.5 89t-49 72.5t-72.5 49t-89 18.5t-89 -18.5t-73 -49t-49 -72.5t-18 -89z" />
<glyph unicode="&#xa5;" d="M82 1380h262l307 -659l299 659h242l-336 -716h166v-187h-254v-2v-98h254v-189h-254v-188h-242v188h-250v189h250v98v2h-250v187h158z" />
<glyph unicode="&#xa6;" horiz-adv-x="528" d="M164 350h201v-823h-201v823zM164 559v821h201v-821h-201z" />
<glyph unicode="&#xa7;" horiz-adv-x="976" d="M82 469q0 68 19.5 123t48 99t62.5 78t64 58q-47 47 -79.5 105.5t-32.5 134.5q0 160 106.5 248t278.5 88q96 0 169 -18.5t99 -28.5l-24 -172q-23 10 -87.5 30.5t-142.5 20.5q-98 0 -142 -48t-44 -108q0 -31 14.5 -59.5t36 -54t49 -49t55.5 -44.5l113 -90q39 -31 76 -66.5 t66.5 -77.5t48 -94t18.5 -116q0 -68 -19.5 -123t-48 -99t-63.5 -77.5t-66 -58.5q49 -47 82 -105.5t33 -134.5q0 -160 -106.5 -248t-280.5 -88q-94 0 -167 18.5t-99 28.5l22 172q12 -6 35 -14t53.5 -16.5t67.5 -14.5t74 -6q98 0 143 48t45 108q0 29 -14.5 56.5t-37 53t-51 50 t-55.5 47.5q-18 16 -53 43.5t-59 46.5q-37 31 -75 66.5t-66.5 77.5t-47 93t-18.5 117zM305 508q0 -78 40 -144.5t124 -134.5l47 -39q47 41 81 94.5t34 104.5q0 78 -40 144.5t-124 132.5l-49 41q-47 -41 -80 -94.5t-33 -104.5z" />
<glyph unicode="&#xa8;" horiz-adv-x="735" d="M61 1092v211h213v-211h-213zM461 1092v211h213v-211h-213z" />
<glyph unicode="&#xa9;" horiz-adv-x="874" d="M123 1087q0 63 24.5 121t67.5 101t100 67.5t123 24.5q63 0 120.5 -24.5t100.5 -67.5t68 -100.5t25 -121.5q0 -66 -25 -123t-68 -99t-100 -66.5t-121 -24.5q-66 0 -123 24.5t-100 66.5t-67.5 99.5t-24.5 122.5zM184 1087q0 -53 20.5 -98t54.5 -80t80 -54t99 -19 q51 0 97.5 19t81 54t54 80t19.5 98q0 51 -19.5 97.5t-54 81t-81 54t-97.5 19.5q-53 0 -99 -19.5t-80 -54t-54.5 -80.5t-20.5 -98zM289 1083q0 63 36.5 112.5t127.5 49.5q29 0 47 -5t24 -9l-6 -49q-8 4 -27.5 9t-41.5 5q-41 0 -70 -26.5t-29 -86.5q0 -18 5 -37.5t16.5 -36 t30 -26.5t47.5 -10q25 0 45 4t24 8l6 -47q-4 -4 -25.5 -9t-45.5 -5q-86 0 -125 46t-39 113z" />
<glyph unicode="&#xaa;" horiz-adv-x="792" d="M102 930q0 66 33 109.5t85 70.5t116.5 38t128.5 11h37v21q0 59 -39 83.5t-103 24.5q-59 0 -104 -14t-61 -23q-4 -2 -10.5 -5t-10.5 -3q-10 0 -11 5t-1 9q0 8 -1 22.5l-2 29t-1 28v21.5q16 8 77.5 25.5t139.5 17.5q276 0 276 -242v-260q0 -45 4 -90t9 -80h-119 q-16 0 -20.5 9.5t-4.5 19.5l-4 55h-8q-8 -12 -23.5 -28.5t-39 -32t-57.5 -25.5t-79 -10q-92 0 -149.5 60.5t-57.5 152.5zM111 461v153h579v-153h-579zM252 932q0 -43 27.5 -75t78.5 -32q68 0 106 56.5t38 134.5v47h-33q-217 0 -217 -131z" />
<glyph unicode="&#xab;" horiz-adv-x="1071" d="M102 485l351 430l131 -88l-283 -342l283 -344l-131 -86zM487 485l351 430l131 -88l-281 -342l281 -344l-131 -86z" />
<glyph unicode="&#xac;" d="M113 412v178h1048v-590h-223v412h-825z" />
<glyph unicode="&#xad;" horiz-adv-x="819" d="M164 412v178h491v-178h-491z" />
<glyph unicode="&#xae;" horiz-adv-x="872" d="M123 1087q0 63 24.5 121t66.5 101t99 67.5t123 24.5t123 -24.5t99 -67.5t67 -100.5t25 -121.5q0 -66 -25 -123t-67 -99t-99 -66.5t-123 -24.5t-123 24.5t-99 66.5t-66.5 99.5t-24.5 122.5zM184 1087q0 -53 19.5 -98t54.5 -80t80 -54t98 -19q51 0 97.5 19t81 54t54 80 t19.5 98q0 51 -19.5 97.5t-54 81t-81 54t-97.5 19.5q-53 0 -98 -19.5t-80 -54t-54.5 -80.5t-19.5 -98zM344 938v311h92q53 0 82 -25.5t29 -66.5q0 -25 -8.5 -40t-18.5 -24.5t-20.5 -13.5t-14.5 -4l76 -137h-63l-70 129h-29v-129h-55zM399 1108q2 0 8.5 -1t14.5 -1 q70 0 70 53q0 51 -70 51q-10 0 -15.5 -1t-7.5 -1v-100z" />
<glyph unicode="&#xaf;" horiz-adv-x="534" d="M41 1206v174h453v-174h-453z" />
<glyph unicode="&#xb0;" d="M82 1124q0 57 21.5 107.5t58.5 88.5t87 59.5t107 21.5t107.5 -21.5t88.5 -59.5t59.5 -88.5t21.5 -107.5t-21.5 -107t-59.5 -87t-88 -58.5t-108 -21.5q-57 0 -107 21.5t-87 58.5t-58.5 87t-21.5 107zM217 1124q0 -57 41 -98t98 -41q59 0 99.5 41t40.5 98q0 59 -40.5 99.5 t-99.5 40.5q-57 0 -98 -40t-41 -100z" />
<glyph unicode="&#xb1;" d="M111 0v174h1050v-174h-1050zM111 606v178h413v334h224v-334h413v-178h-413v-348h-224v348h-413z" />
<glyph unicode="&#xb2;" horiz-adv-x="530" d="M41 690v92q35 39 63 74q25 29 48.5 56.5t33.5 37.5q66 80 92.5 133.5t26.5 94.5t-27.5 77.5t-87.5 36.5q-49 0 -82.5 -16t-44.5 -25l-18 99q4 4 49 22.5t117 18.5q104 0 159.5 -59.5t55.5 -139.5q0 -70 -32 -132.5t-85 -125.5q-12 -16 -32.5 -41t-40.5 -49 q-23 -29 -48 -60h261v-94h-408z" />
<glyph unicode="&#xb3;" horiz-adv-x="516" d="M61 1360q23 10 59 20.5t93 10.5q90 0 148.5 -47.5t58.5 -131.5q0 -39 -14.5 -66.5t-34 -44t-39 -25.5t-27.5 -11v-8q12 -4 33.5 -14.5t43 -31t37 -51t15.5 -73.5q0 -92 -66.5 -149.5t-195.5 -57.5q-41 0 -65.5 4t-30.5 6l-6 98q10 -4 36.5 -6t61.5 -2q66 0 107.5 29 t41.5 82q0 47 -35.5 81t-125.5 34h-35v81h31q66 0 108.5 31t42.5 82q0 39 -27.5 68.5t-87.5 29.5q-41 0 -70.5 -13t-37.5 -17z" />
<glyph unicode="&#xb4;" horiz-adv-x="466" d="M41 1174l164 301h221l-262 -301h-123z" />
<glyph unicode="&#xb5;" d="M201 -506v1518h231v-643q0 -121 49 -166t113 -45q45 0 88 21.5t76 66.5t52 111.5t19 156.5v498h232v-703q0 -78 3 -164t7 -145h-184q-27 0 -27 27q0 10 -1 29.5t-1 41.5v56h-6q-45 -78 -115.5 -126t-193.5 -48q-63 0 -113 14v-500h-229z" />
<glyph unicode="&#xb6;" horiz-adv-x="1177" d="M0 963q0 102 35 181t99.5 131t156.5 78.5t205 26.5h559v-188h-142v-1696h-186v1696h-154v-1696h-188v1075q-59 4 -127 27t-125 69t-95 118.5t-38 177.5z" />
<glyph unicode="&#xb7;" horiz-adv-x="647" d="M205 385v233h237v-233h-237z" />
<glyph unicode="&#xb8;" horiz-adv-x="415" d="M41 -459q74 14 132 59.5t58 108.5q0 31 -23.5 56.5t-82.5 25.5h-64l52 174h116l-53 -96q20 8 55 8q66 0 105 -41t39 -104q0 -47 -24.5 -92.5t-63.5 -82t-88 -61t-101 -31.5z" />
<glyph unicode="&#xb9;" horiz-adv-x="385" d="M20 1307q53 6 103.5 30.5t71.5 53.5h88v-701h-115v567q-23 -14 -60.5 -25t-68.5 -15z" />
<glyph unicode="&#xba;" horiz-adv-x="845" d="M102 1059q0 63 16.5 124.5t54.5 109.5t99.5 78t149.5 30q82 0 142.5 -26.5t100.5 -73t59 -109t19 -133.5q0 -68 -18 -130.5t-57 -109.5t-99.5 -74.5t-146.5 -27.5q-147 0 -233.5 89t-86.5 253zM133 461v153h580v-153h-580zM258 1059q0 -37 7 -76t25.5 -71.5t50.5 -54 t81 -21.5q78 0 122 58t44 165q0 98 -42 160.5t-124 62.5q-74 0 -119 -57.5t-45 -165.5z" />
<glyph unicode="&#xbb;" horiz-adv-x="1071" d="M102 141l281 344l-281 342l131 88l351 -430l-351 -430zM487 141l283 344l-283 342l131 88l351 -430l-351 -430z" />
<glyph unicode="&#xbc;" horiz-adv-x="1271" d="M2 1307q55 6 104.5 30.5t69.5 53.5h88v-701h-114v567q-23 -14 -60 -25t-70 -15zM102 0l826 1380h157l-825 -1380h-158zM719 262l262 428h156v-424h108v-94h-108v-172h-115v172h-285zM829 266h193v320h-8z" />
<glyph unicode="&#xbd;" horiz-adv-x="1316" d="M0 1307q55 6 104.5 30.5t69.5 53.5h88v-701h-115v567q-23 -14 -60.5 -25t-68.5 -15zM100 0l826 1380h157l-825 -1380h-158zM848 0v92q35 39 63 74q25 29 48.5 56.5t31.5 37.5q68 78 94.5 132t26.5 95t-27.5 78t-89.5 37q-49 0 -81.5 -16.5t-43.5 -24.5l-18 98 q4 4 49 22.5t115 18.5q104 0 160.5 -59t56.5 -139q0 -72 -33 -133.5t-86 -124.5q-12 -16 -31.5 -41t-40.5 -49q-23 -29 -49 -60h262v-94h-407z" />
<glyph unicode="&#xbe;" horiz-adv-x="1406" d="M82 1360q23 10 58.5 20.5t92.5 10.5q90 0 148.5 -47.5t58.5 -131.5q0 -39 -14 -66.5t-33.5 -44t-39 -25.5t-27.5 -11v-8q12 -4 33.5 -14.5t43 -31t37 -51t15.5 -73.5q0 -92 -66.5 -149.5t-195.5 -57.5q-41 0 -66 4t-31 6l-6 98q10 -4 37 -6t61 -2q66 0 108 29t42 82 q0 47 -36 81t-126 34h-35v81h31q66 0 109 31t43 82q0 39 -28 68.5t-87 29.5q-41 0 -70.5 -13t-38.5 -17zM203 0l825 1380h158l-826 -1380h-157zM819 262l262 428h156v-424h109v-94h-109v-172h-115v172h-284zM930 266h192v320h-8z" />
<glyph unicode="&#xbf;" horiz-adv-x="714" d="M2 -123q0 70 15.5 120t40 89t56 69.5t64.5 63.5q63 63 93 119.5t30 146.5v54h221v-64q0 -80 -15 -136t-38 -96t-48.5 -66.5t-45.5 -45.5q-59 -55 -94 -100t-35 -117q0 -74 55 -123t166 -49q78 0 140.5 17.5t86.5 27.5l-18 -205q-35 -10 -103.5 -23.5t-148.5 -13.5 q-117 0 -198 34t-130 83t-71.5 107.5t-22.5 107.5zM293 702v234h237v-234h-237z" />
<glyph unicode="&#xc0;" horiz-adv-x="1359" d="M20 0l525 1380h278l516 -1380h-264l-110 311h-584l-111 -311h-250zM352 1808h221l164 -301h-125zM446 498h453l-225 630h-8z" />
<glyph unicode="&#xc1;" horiz-adv-x="1359" d="M20 0l525 1380h278l516 -1380h-264l-110 311h-584l-111 -311h-250zM446 498h453l-225 630h-8zM608 1507l164 301h219l-260 -301h-123z" />
<glyph unicode="&#xc2;" horiz-adv-x="1359" d="M20 0l525 1380h278l516 -1380h-264l-110 311h-584l-111 -311h-250zM387 1507l186 301h203l187 -301h-152l-139 181l-144 -181h-141zM446 498h453l-225 630h-8z" />
<glyph unicode="&#xc3;" horiz-adv-x="1357" d="M20 0l525 1380h278l514 -1380h-264l-108 311h-586l-109 -311h-250zM299 1649q10 12 30.5 34.5t48.5 43t63.5 36t78.5 15.5q57 0 96 -15.5t72 -34t64.5 -34t78.5 -15.5q45 0 80 21.5t58 48.5l67 -104q-12 -16 -33.5 -39t-49 -43.5t-62.5 -35t-76 -14.5q-59 0 -98 15.5 t-71 34t-64.5 34t-81.5 15.5q-31 0 -68 -16.5t-67 -51.5zM446 498h451l-223 630h-8z" />
<glyph unicode="&#xc4;" horiz-adv-x="1357" d="M20 0l525 1380h278l514 -1380h-264l-108 311h-584l-111 -311h-250zM369 1577v211h213v-211h-213zM446 498h451l-221 630h-8zM768 1577v211h213v-211h-213z" />
<glyph unicode="&#xc5;" horiz-adv-x="1357" d="M20 0l525 1380h278l514 -1380h-264l-108 311h-584l-111 -311h-250zM446 498h451l-221 630h-8zM467 1616q0 43 16.5 80t44 64.5t64.5 43t78 15.5q86 0 145 -58.5t59 -144.5t-59 -144.5t-145 -58.5q-41 0 -78 15.5t-64.5 43t-44 64.5t-16.5 80zM584 1616q0 -35 25.5 -60.5 t60.5 -25.5q37 0 62.5 25.5t25.5 60.5q0 37 -25.5 62.5t-62.5 25.5q-35 0 -60.5 -25.5t-25.5 -62.5z" />
<glyph unicode="&#xc6;" horiz-adv-x="1753" d="M-20 0l890 1380h777v-188h-451v-389h424v-189h-424v-426h455v-188h-697v311h-471l-202 -311h-301zM596 498h358v602h-8z" />
<glyph unicode="&#xc7;" horiz-adv-x="1175" d="M82 690q0 137 36 265t118.5 227.5t220 159t340.5 59.5q59 0 110 -7.5t92 -16.5t71 -18t44 -16l-29 -206q-18 6 -49.5 17t-72.5 22.5t-89.5 18.5t-97.5 7q-88 0 -167 -31.5t-139 -95t-95 -160t-35 -225.5q0 -80 21.5 -169t71.5 -165.5t134 -127t209 -50.5q55 0 107.5 9.5 t93.5 20.5t69.5 22.5t38.5 15.5l29 -209q-10 -4 -42 -13.5t-75 -19.5t-95 -17t-105 -7h-9l-26 -56q20 8 55 8q66 0 106 -42t40 -107q0 -47 -25 -92t-64.5 -82t-90 -62.5t-101.5 -31.5l-57 75q37 8 71.5 23.5t61 38t43 50.5t16.5 58q0 31 -24.5 57.5t-83.5 26.5h-64l39 140 q-162 16 -275.5 76.5t-186 153.5t-106.5 215t-34 261z" />
<glyph unicode="&#xc8;" horiz-adv-x="1013" d="M164 0v1380h743v-188h-501v-389h475v-189h-475v-426h505v-188h-747zM299 1808h221l164 -301h-123z" />
<glyph unicode="&#xc9;" horiz-adv-x="1013" d="M164 0v1380h743v-188h-499v-389h473v-189h-473v-426h503v-188h-747zM471 1528l166 301h219l-260 -301h-125z" />
<glyph unicode="&#xca;" horiz-adv-x="1013" d="M164 0v1380h743v-188h-499v-389h473v-189h-473v-426h503v-188h-747zM242 1507l184 301h205l184 -301h-149l-140 181l-143 -181h-141z" />
<glyph unicode="&#xcb;" horiz-adv-x="1013" d="M164 0v1380h743v-188h-499v-389h473v-189h-473v-426h503v-188h-747zM238 1577v211h213v-211h-213zM637 1577v211h213v-211h-213z" />
<glyph unicode="&#xcc;" horiz-adv-x="571" d="M-33 1808h221l164 -301h-125zM166 0v1380h242v-1380h-242z" />
<glyph unicode="&#xcd;" horiz-adv-x="571" d="M164 0v1380h244v-1380h-244zM223 1507l164 301h221l-262 -301h-123z" />
<glyph unicode="&#xce;" horiz-adv-x="571" d="M-2 1507l186 301h203l186 -301h-149l-141 181l-142 -181h-143zM166 0v1380h242v-1380h-242z" />
<glyph unicode="&#xcf;" horiz-adv-x="571" d="M-20 1577v211h213v-211h-213zM160 0v1380h243v-1380h-243zM379 1577v211h213v-211h-213z" />
<glyph unicode="&#xd0;" horiz-adv-x="1411" d="M41 600v188h143v592h453q156 0 284 -46t218 -134t140 -216t50 -294q0 -143 -42 -269t-127 -219t-215 -147.5t-308 -54.5h-453v600h-143zM428 186q10 -2 58.5 -5t97.5 -3q244 0 368.5 136.5t124.5 375.5q0 254 -133 383t-360 129q-59 0 -99.5 -4t-56.5 -6v-404h360v-188 h-360v-414z" />
<glyph unicode="&#xd1;" horiz-adv-x="1441" d="M164 0v1380h307l582 -1056h10v1056h215v-1380h-299l-592 1077h-8v-1077h-215zM332 1661q10 12 30.5 34.5t48 43t63.5 36t79 15.5q57 0 96 -15.5t72 -34t64.5 -33.5t78.5 -15q45 0 80 21.5t57 47.5l68 -104q-12 -16 -33.5 -39t-49.5 -43.5t-62.5 -34.5t-75.5 -14 q-59 0 -98 15t-71 33.5t-64.5 34t-82.5 15.5q-31 0 -67.5 -16.5t-67.5 -51.5z" />
<glyph unicode="&#xd2;" horiz-adv-x="1486" d="M82 690q0 166 46 297t132 223.5t208.5 141.5t274.5 49q158 0 281 -52.5t208 -145.5t129 -224t44 -289t-44 -289t-128 -224t-207 -145t-283 -52q-150 0 -271.5 48t-208.5 139t-134 223t-47 300zM338 690q0 -119 28.5 -214t81 -160.5t128 -101.5t167.5 -36t167 36 t128.5 102.5t82 160.5t28.5 213q0 123 -29.5 218.5t-83 161t-128 99t-165.5 33.5q-90 0 -164.5 -33.5t-128 -99t-83 -161t-29.5 -218.5zM422 1808h221l164 -301h-123z" />
<glyph unicode="&#xd3;" horiz-adv-x="1486" d="M82 690q0 166 46 297t132 223.5t208.5 141.5t274.5 49q158 0 281 -52.5t208 -145.5t129 -224t44 -289t-44 -289t-128 -224t-207 -145t-283 -52q-150 0 -271.5 48t-208.5 139t-134 223t-47 300zM338 690q0 -119 28.5 -214t81 -160.5t128 -101.5t167.5 -36t167 36 t128.5 102.5t82 160.5t28.5 213q0 123 -29.5 218.5t-83 161t-128 99t-165.5 33.5q-90 0 -164.5 -33.5t-128 -99t-83 -161t-29.5 -218.5zM680 1507l164 301h221l-260 -301h-125z" />
<glyph unicode="&#xd4;" horiz-adv-x="1488" d="M82 690q0 166 47 297t133 223.5t207.5 141.5t273.5 49q160 0 283 -52.5t208 -145.5t129 -224t44 -289t-44 -289t-129 -224t-208 -145t-283 -52q-150 0 -271.5 48t-208.5 139t-134 223t-47 300zM340 690q0 -119 28.5 -214t81 -160.5t127 -101.5t166.5 -36t167 36 t128.5 102.5t82 160.5t28.5 213q0 123 -29.5 218.5t-83 161t-128 99t-165.5 33.5q-90 0 -163.5 -33.5t-127 -99t-83 -161t-29.5 -218.5zM461 1507l184 301h205l184 -301h-149l-142 181l-141 -181h-141z" />
<glyph unicode="&#xd5;" horiz-adv-x="1488" d="M82 690q0 166 47 297t133 223.5t207.5 141.5t273.5 49q160 0 283 -52.5t208 -145.5t129 -224t44 -289t-44 -289t-129 -224t-208 -145t-283 -52q-150 0 -271.5 48t-208.5 139t-134 223t-47 300zM340 690q0 -119 28.5 -214t81 -160.5t127 -101.5t166.5 -36t167 36 t128.5 102.5t82 160.5t28.5 213q0 123 -29.5 218.5t-83 161t-128 99t-165.5 33.5q-90 0 -163.5 -33.5t-127 -99t-83 -161t-29.5 -218.5zM373 1649q10 12 30.5 34.5t48 43t63.5 36t77 15.5q57 0 96 -15.5t72 -34t65.5 -34t79.5 -15.5q45 0 80 21.5t57 48.5l66 -104 q-12 -16 -33.5 -39t-49.5 -43.5t-62.5 -35t-73.5 -14.5q-59 0 -98 15.5t-71 34t-65.5 34t-83.5 15.5q-29 0 -66.5 -16.5t-66.5 -51.5z" />
<glyph unicode="&#xd6;" horiz-adv-x="1486" d="M82 690q0 166 46 297t132 223.5t208.5 141.5t274.5 49q158 0 281 -52.5t208 -145.5t129 -224t44 -289t-44 -289t-128 -224t-207 -145t-283 -52q-150 0 -271.5 48t-208.5 139t-134 223t-47 300zM338 690q0 -119 28.5 -214t81 -160.5t128 -101.5t167.5 -36t167 36 t128.5 102.5t82 160.5t28.5 213q0 123 -29.5 218.5t-83 161t-128 99t-165.5 33.5q-90 0 -164.5 -33.5t-128 -99t-83 -161t-29.5 -218.5zM436 1577v211h213v-211h-213zM836 1577v211h213v-211h-213z" />
<glyph unicode="&#xd7;" d="M199 786l157 158l295 -295l291 293l127 -129l-291 -291l295 -293l-158 -157l-294 293l-293 -293l-127 127l293 293z" />
<glyph unicode="&#xd8;" horiz-adv-x="1486" d="M82 690q0 166 47 297t133 223.5t208 141.5t273 49q88 0 158 -15l78 216l156 -50l-76 -217q168 -84 257 -251t89 -394q0 -158 -44 -289t-128 -224t-207 -145t-283 -52q-82 0 -159 16l-68 -193l-158 50l70 194q-164 78 -255 242t-91 401zM338 690q0 -152 45 -262.5 t127 -173.5l332 938q-51 10 -99 10q-90 0 -164.5 -33.5t-128 -99t-83 -161t-29.5 -218.5zM643 190q49 -12 100 -12q92 0 167 36t128.5 102.5t82 160.5t28.5 213q0 154 -46 264.5t-126 171.5z" />
<glyph unicode="&#xd9;" horiz-adv-x="1415" d="M164 496v884h244v-880q0 -160 80.5 -241t220.5 -81q82 0 139 27.5t93 72t51.5 102.5t15.5 120v880h243v-884q0 -117 -32.5 -212.5t-100 -163t-170 -104t-239.5 -36.5q-147 0 -251 39.5t-169.5 109.5t-95 164t-29.5 203zM387 1808h221l164 -301h-123z" />
<glyph unicode="&#xda;" horiz-adv-x="1415" d="M164 496v884h244v-880q0 -160 80.5 -241t220.5 -81q82 0 139 27.5t93 72t51.5 102.5t15.5 120v880h243v-884q0 -117 -32.5 -212.5t-100 -163t-170 -104t-239.5 -36.5q-147 0 -251 39.5t-169.5 109.5t-95 164t-29.5 203zM645 1507l164 301h221l-260 -301h-125z" />
<glyph unicode="&#xdb;" horiz-adv-x="1415" d="M164 496v884h244v-880q0 -160 80.5 -241t220.5 -81q82 0 139 27.5t93 72t51.5 102.5t15.5 120v880h243v-884q0 -117 -32.5 -212.5t-100 -163t-170 -104t-239.5 -36.5q-147 0 -251 39.5t-169.5 109.5t-95 164t-29.5 203zM426 1507l184 301h205l184 -301h-149l-141 181 l-142 -181h-141z" />
<glyph unicode="&#xdc;" horiz-adv-x="1415" d="M164 496v884h244v-880q0 -160 80.5 -241t220.5 -81q82 0 139 27.5t93 72t51.5 102.5t15.5 120v880h243v-884q0 -117 -32.5 -212.5t-100 -163t-170 -104t-239.5 -36.5q-147 0 -251 39.5t-169.5 109.5t-95 164t-29.5 203zM401 1577v211h213v-211h-213zM801 1577v211h213 v-211h-213z" />
<glyph unicode="&#xdd;" horiz-adv-x="1150" d="M20 1380h263l307 -659l299 659h241l-423 -903v-477h-242v477zM471 1507l166 301h219l-260 -301h-125z" />
<glyph unicode="&#xde;" horiz-adv-x="1124" d="M164 0v1380h242v-250h167q119 0 210 -33.5t153.5 -91t94.5 -135t32 -165.5q0 -213 -133 -331t-373 -118q-16 0 -38.5 1t-46 2t-42 3t-24.5 2v-264h-242zM406 444q10 -2 39.5 -3t62.5 -1q154 0 229.5 71t75.5 189q0 123 -79 189.5t-226 66.5q-53 0 -73.5 -1t-28.5 -3v-508 z" />
<glyph unicode="&#xdf;" horiz-adv-x="1214" d="M143 0v991q0 152 39 252t105.5 158.5t157 82t192.5 23.5q115 0 190.5 -27.5t119.5 -71.5t62.5 -99.5t18.5 -108.5q0 -57 -19.5 -98t-49 -72t-63.5 -56.5t-63.5 -50t-49 -52t-19.5 -64.5q0 -49 24.5 -80t81.5 -65l86 -54q106 -63 151.5 -140t45.5 -155q0 -86 -36 -148.5 t-96 -103.5t-136 -61t-156 -20q-78 0 -133 9t-72 15q0 14 -1 35.5t-1 44t1 44.5t1 36q4 23 15 22q8 0 16 -4t18 -8q25 -8 64 -15t84 -7q39 0 74.5 8t63.5 24.5t45.5 42t17.5 60.5q0 55 -31 87t-82 62l-117 72q-25 14 -52.5 36.5t-51 55.5t-38.5 77t-15 99q0 59 19 102.5 t48 76t62.5 59t62.5 55.5t48.5 62.5t19.5 78.5q0 53 -47.5 91t-133.5 38q-111 0 -175 -76.5t-64 -226.5v-1036h-232z" />
<glyph unicode="&#xe0;" horiz-adv-x="1017" d="M61 309q0 100 50.5 168t130.5 109t180 58.5t199 17.5h57v30q0 94 -60.5 131t-156.5 37t-160.5 -22.5t-87.5 -32.5q-6 -4 -19.5 -10.5t-21.5 -6.5q-14 0 -16 9.5t-2 13.5q0 14 -1 35.5t-2 44t-2.5 42.5t-1.5 32q12 6 44 17t77 22.5t98.5 19.5t112.5 8q217 0 322.5 -93 t105.5 -275v-402q0 -68 5.5 -138.5t13.5 -123.5h-189q-27 0 -32 14.5t-5 30.5l-6 86h-8q-12 -18 -35.5 -44t-60.5 -49.5t-89 -40.5t-122 -17q-72 0 -130.5 25.5t-99 69.5t-64.5 104.5t-24 129.5zM176 1518h221l164 -301h-125zM293 313q0 -66 42 -114.5t120 -48.5 q53 0 94 22.5t69.5 62t44 93t15.5 114.5v72h-53q-332 0 -332 -201z" />
<glyph unicode="&#xe1;" horiz-adv-x="1015" d="M61 307q0 100 50.5 168t130.5 109t179 58t197 17h58v33q0 94 -60.5 131t-156.5 37q-94 0 -165 -22.5t-91 -34.5q-6 -4 -15.5 -9.5t-17.5 -5.5q-14 0 -16 9.5t-2 13.5q0 14 -1 35.5t-2.5 44t-2.5 42.5t-1 32q12 6 45 17t77 22.5t98.5 19.5t113.5 8q215 0 320.5 -94 t105.5 -276v-402q0 -68 5 -137.5t14 -122.5h-189q-25 0 -30 14.5t-7 30.5l-6 84h-8q-12 -18 -34.5 -44t-59.5 -49.5t-89 -39.5t-122 -16q-72 0 -130.5 24.5t-100.5 68.5t-64.5 104.5t-22.5 129.5zM291 311q0 -66 43 -115t121 -49q51 0 93 23t69.5 62.5t43 93t15.5 114.5v72 h-53q-332 0 -332 -201zM416 1217l166 301h219l-260 -301h-125z" />
<glyph unicode="&#xe2;" horiz-adv-x="1015" d="M61 309q0 100 50.5 168t130.5 109t179 58.5t197 17.5h58v32q0 94 -60.5 131t-156.5 37q-47 0 -89 -7t-75 -16.5t-56.5 -18.5t-33.5 -15q-6 -4 -16.5 -9t-18.5 -5q-14 0 -15 9t-3 13q0 14 -1 35.5t-2.5 44t-2.5 42.5t-1 32q14 6 46 17t76 22.5t98.5 19.5t113.5 8 q215 0 320.5 -94t105.5 -276v-402q0 -68 5 -138.5t14 -123.5h-189q-25 0 -30 14.5t-7 30.5l-6 86h-8q-12 -18 -34.5 -44t-59.5 -49.5t-89 -39.5t-122 -16q-72 0 -130.5 24.5t-100.5 68.5t-64.5 104.5t-22.5 129.5zM205 1217l184 301h205l184 -301h-149l-142 180l-141 -180 h-141zM293 313q0 -66 42 -114.5t120 -48.5q51 0 93 22.5t69.5 62t43 93t15.5 114.5v72h-51q-332 0 -332 -201z" />
<glyph unicode="&#xe3;" horiz-adv-x="1015" d="M61 309q0 100 50.5 168t130.5 109t179 58.5t197 17.5h58v32q0 94 -60.5 131t-156.5 37q-94 0 -163 -23.5t-91 -33.5q-6 -4 -16.5 -9t-18.5 -5q-14 0 -15 9t-3 13q0 14 -1 35.5t-2.5 44t-2.5 42.5t-1 32q14 6 46 17t76 22.5t98.5 19.5t113.5 8q215 0 320.5 -94t105.5 -276 v-402q0 -68 5 -138.5t14 -123.5h-189q-25 0 -30 14.5t-7 30.5l-6 86h-8q-12 -18 -34.5 -44t-59.5 -49.5t-89 -39.5t-122 -16q-72 0 -130.5 24.5t-100.5 68.5t-64.5 104.5t-22.5 129.5zM137 1341q10 14 30.5 36t48.5 43.5t63.5 37t76.5 15.5q57 0 96.5 -15.5t72 -34t65.5 -34 t80 -15.5q45 0 79.5 20.5t57.5 47.5l65 -105q-12 -16 -32.5 -38.5t-49 -42t-63.5 -34t-74 -14.5q-59 0 -98 15.5t-70.5 34t-65.5 34t-83 15.5q-29 0 -66 -17.5t-67 -52.5zM293 313q0 -66 42 -114.5t120 -48.5q51 0 93 22.5t69.5 62t43 93t15.5 114.5v72h-51 q-332 0 -332 -201z" />
<glyph unicode="&#xe4;" horiz-adv-x="1017" d="M61 309q0 100 50.5 168t130.5 109t180 58.5t199 17.5h57v30q0 94 -60.5 131t-156.5 37t-165 -23.5t-91 -33.5q-6 -4 -15.5 -9.5t-17.5 -5.5q-14 0 -16 9.5t-2 13.5q0 14 -1 35.5t-2 44t-2.5 42.5t-1.5 32q12 6 44 17t77 22.5t98.5 19.5t112.5 8q217 0 322.5 -93 t105.5 -275v-402q0 -68 5.5 -138.5t13.5 -123.5h-189q-27 0 -32 14.5t-5 30.5l-6 86h-8q-12 -18 -35.5 -44t-60.5 -49.5t-89 -40.5t-122 -17q-72 0 -130.5 25.5t-99 69.5t-64.5 104.5t-24 129.5zM188 1253v211h213v-211h-213zM293 313q0 -66 42 -114.5t120 -48.5 q53 0 94 22.5t69.5 62t44 93t15.5 114.5v72h-53q-332 0 -332 -201zM588 1253v211h213v-211h-213z" />
<glyph unicode="&#xe5;" horiz-adv-x="1015" d="M61 307q0 100 50.5 168t130.5 110t179 59.5t197 17.5h58v32q0 92 -60.5 129t-156.5 37q-94 0 -163 -23.5t-91 -33.5q-8 -4 -17.5 -8t-17.5 -4q-14 0 -15 8t-3 12q0 14 -1 35.5t-2.5 44t-2.5 43.5t-1 33q14 6 46 16t76 21.5t98.5 19.5t113.5 8q215 0 320.5 -93t105.5 -275 v-404q0 -66 5 -136.5t14 -123.5h-193q-25 0 -30 13.5t-7 31.5l-6 84h-8q-12 -18 -34.5 -44t-58.5 -49.5t-87 -39.5t-121 -16q-72 0 -130.5 24.5t-100.5 68.5t-64.5 104.5t-22.5 129.5zM285 1341q0 86 58 144.5t144 58.5t144.5 -58.5t58.5 -144.5t-58.5 -144t-144.5 -58 t-144 58t-58 144zM293 311q0 -66 42 -115t120 -49q51 0 93 23t69.5 62.5t43 93t15.5 114.5v74h-51q-332 0 -332 -203zM401 1341q0 -35 26 -60.5t60 -25.5q37 0 62.5 26t25.5 60q0 37 -25.5 63t-62.5 26q-35 0 -60.5 -26t-25.5 -63z" />
<glyph unicode="&#xe6;" horiz-adv-x="1640" d="M61 287q0 88 46.5 149.5t124 100t179 57t210.5 18.5h57v82q0 92 -60.5 129t-156.5 37t-165 -23.5t-91 -33.5q-6 -4 -15.5 -8t-17.5 -4q-14 0 -16 8t-2 12q0 14 -1 35.5t-2 44t-2.5 43t-1.5 33.5q12 6 44 16t77 21.5t98.5 19.5t112.5 8q240 0 344 -117q121 117 314 117 q125 0 207.5 -41t133 -104.5t71 -140t20.5 -148.5q0 -12 -1 -33.5l-2 -43t-3 -40t-2 -24.5h-650q0 -61 19.5 -116.5t58.5 -95.5t97.5 -63.5t138.5 -23.5q84 0 142 20.5t75 28.5q12 4 21.5 9t17.5 5q16 0 18 -22q0 -10 1 -29.5t2 -43.5t2 -48.5t1 -42.5q-14 -6 -42.5 -15.5 t-68.5 -18.5t-89.5 -15t-102.5 -6q-324 0 -448 200h-6q-10 -16 -35 -50t-69 -67.5t-109.5 -58t-155.5 -24.5q-152 0 -235 82.5t-83 224.5zM293 291q0 -25 8 -50.5t27.5 -46t50.5 -34t76 -13.5t85 21.5t70.5 56.5t49 79t18.5 91v62h-53q-158 0 -245 -37t-87 -129zM915 612 h424v23q0 33 -8 73t-31.5 74.5t-63.5 58t-101 23.5q-70 0 -113 -27.5t-66.5 -67.5t-32 -83t-8.5 -74z" />
<glyph unicode="&#xe7;" horiz-adv-x="905" d="M72 506q0 246 123.5 386t371.5 140q47 0 90 -8t78 -19.5t60.5 -22.5t38.5 -17q-2 -39 -4.5 -81t-2.5 -63q-2 -6 -3 -18t-15 -12q-8 0 -13 2t-12 6q-6 2 -25.5 11t-46 17.5t-60.5 15.5t-66 7q-147 0 -212 -92t-65 -252q0 -162 65.5 -251t211.5 -89q66 0 115 16.5t65 24.5 t25.5 12t15.5 4q18 0 18 -22q2 -10 3 -27.5t2 -39t1 -43.5v-40q-20 -10 -81.5 -35.5t-149.5 -31.5l-31 -58q20 8 56 8q68 0 106.5 -42t38.5 -107q0 -47 -24.5 -92t-64.5 -82t-90 -62.5t-102 -31.5l-57 75q37 8 72 23.5t61.5 38t43 50.5t16.5 58q0 31 -23.5 57.5t-85.5 26.5 h-63l39 140q-193 20 -306.5 148t-113.5 372z" />
<glyph unicode="&#xe8;" horiz-adv-x="1036" d="M72 504q0 119 31.5 217t91 166.5t144 106.5t193.5 38q125 0 208 -41t133.5 -104.5t71 -140t20.5 -148.5q0 -12 -1 -33.5l-2 -43t-3.5 -40t-2.5 -26.5h-649q0 -61 19.5 -115.5t58.5 -94.5t98.5 -63.5t137.5 -23.5q84 0 143 20.5t76 28.5q10 4 19 9t18 5q16 0 18 -22 q0 -10 2 -29.5t3 -43.5t2 -48.5t1 -42.5q-14 -6 -44 -15.5t-69.5 -18.5t-89 -15t-102.5 -6q-270 0 -398 135t-128 389zM225 1518h221l164 -301h-125zM311 610h424q0 4 1 11.5t1 13.5q0 33 -9 73t-31.5 74.5t-63.5 58t-103 23.5q-70 0 -112.5 -28.5t-66 -68.5t-32 -83 t-8.5 -74z" />
<glyph unicode="&#xe9;" horiz-adv-x="1036" d="M72 504q0 121 31.5 219t91 166.5t144 106.5t193.5 38q125 0 208 -41t133.5 -104.5t71 -140t20.5 -148.5q0 -12 -1 -33.5l-2 -43t-3.5 -40t-2.5 -26.5h-647q0 -61 19.5 -115.5t58.5 -94.5t97.5 -63.5t138.5 -23.5q82 0 141 18.5t76 28.5q10 6 19 11t18 5q16 0 18 -22 q4 -23 6 -75t2 -91q-29 -10 -112.5 -31.5t-192.5 -21.5q-270 0 -398 134t-128 388zM311 610h424q2 4 2 11.5v13.5q0 33 -9 74t-31.5 75.5t-63.5 58t-103 23.5q-70 0 -111.5 -28.5t-65 -68.5t-33 -84t-9.5 -75zM463 1217l164 301h219l-260 -301h-123z" />
<glyph unicode="&#xea;" horiz-adv-x="1036" d="M72 504q0 119 31.5 217t91 166.5t144 106.5t193.5 38q125 0 208 -41t133.5 -104.5t71 -140t20.5 -148.5q0 -12 -1 -33.5l-2 -43t-3.5 -40t-2.5 -26.5h-649q0 -61 19.5 -115.5t58.5 -94.5t98.5 -63.5t137.5 -23.5q84 0 143 20.5t76 28.5q10 4 19 9t18 5q16 0 18 -22 q0 -10 2 -29.5t3 -43.5t2 -48.5t1 -42.5q-14 -6 -44 -15.5t-69.5 -18.5t-89 -15t-102.5 -6q-270 0 -398 135t-128 389zM250 1217l186 301h203l186 -301h-149l-141 180l-142 -180h-143zM311 610h424q0 4 1 11.5t1 13.5q0 33 -9 73t-31.5 74.5t-63.5 58t-103 23.5 q-70 0 -112.5 -28.5t-66 -68.5t-32 -83t-8.5 -74z" />
<glyph unicode="&#xeb;" horiz-adv-x="1036" d="M72 504q0 119 31.5 217t91 166.5t144 106.5t193.5 38q125 0 208 -41t133.5 -104.5t71 -140t20.5 -148.5q0 -12 -1 -33.5l-2 -43t-3.5 -40t-2.5 -26.5h-649q0 -61 19.5 -115.5t58.5 -94.5t98.5 -63.5t137.5 -23.5q84 0 143 20.5t76 28.5q10 4 19 9t18 5q16 0 18 -22 q0 -10 2 -29.5t3 -43.5t2 -48.5t1 -42.5q-14 -6 -44 -15.5t-69.5 -18.5t-89 -15t-102.5 -6q-270 0 -398 135t-128 389zM231 1253v211h213v-211h-213zM311 610h424q0 4 1 11.5t1 13.5q0 33 -9 73t-31.5 74.5t-63.5 58t-103 23.5q-70 0 -112.5 -28.5t-66 -68.5t-32 -83 t-8.5 -74zM631 1253v211h213v-211h-213z" />
<glyph unicode="&#xec;" horiz-adv-x="524" d="M-39 1518h221l164 -301h-125zM152 0v1012h229v-1012h-229z" />
<glyph unicode="&#xed;" horiz-adv-x="524" d="M143 0v1012h230v-1012h-230zM188 1217l164 301h221l-262 -301h-123z" />
<glyph unicode="&#xee;" horiz-adv-x="524" d="M-25 1217l187 301h203l186 -301h-150l-141 180l-141 -180h-144zM145 0v1012h230v-1012h-230z" />
<glyph unicode="&#xef;" horiz-adv-x="524" d="M-43 1253v211h213v-211h-213zM145 0v1012h230v-1012h-230zM356 1253v211h213v-211h-213z" />
<glyph unicode="&#xf0;" horiz-adv-x="1126" d="M72 481q0 92 25.5 182.5t84 161t152.5 113.5t229 43q98 0 176 -25q-18 53 -40.5 96.5t-47.5 82.5l-178 -86l-72 149l142 68q-14 12 -26.5 23t-24.5 20q-12 10 -21.5 17t-9.5 22q0 10 5 18t13 18l68 99q35 -18 82 -49t100 -80l191 90l71 -150l-147 -69q41 -53 79 -127 t67.5 -163t47 -191.5t17.5 -213.5q0 -119 -28 -219t-87 -174t-152.5 -115.5t-224.5 -41.5q-229 0 -360 131t-131 370zM311 481q0 -53 11.5 -109.5t40 -102.5t77.5 -75.5t123 -29.5q117 0 184.5 82t67.5 235q0 141 -62.5 229.5t-189.5 88.5q-115 0 -183.5 -79t-68.5 -239z " />
<glyph unicode="&#xf1;" horiz-adv-x="1157" d="M143 1012h181q27 0 26 -29v-72q0 -25 2 -53h10q45 78 116 126t194 48q84 0 147.5 -26.5t106.5 -70.5t65.5 -103.5t22.5 -122.5v-709h-232v643q0 121 -49 166t-112 45q-45 0 -88.5 -21.5t-76 -66.5t-53 -111.5t-20.5 -156.5v-498h-229v702q0 76 -4.5 163t-6.5 147z M221 1341q10 14 30.5 36t48.5 43.5t63.5 37t78.5 15.5q57 0 95 -15.5t71 -34t66 -34t80 -15.5q45 0 79.5 20.5t57.5 47.5l65 -105q-12 -16 -32.5 -38.5t-48 -42t-62.5 -34t-76 -14.5q-59 0 -98 15.5t-70.5 34t-64.5 34t-82 15.5q-31 0 -68 -17.5t-67 -52.5z" />
<glyph unicode="&#xf2;" horiz-adv-x="1126" d="M72 506q0 98 25.5 192.5t84 168t151.5 119.5t230 46q125 0 217 -41t153.5 -111.5t91.5 -167t30 -206.5q0 -104 -28 -200.5t-87 -168t-152.5 -114.5t-224.5 -43q-229 0 -360 137t-131 389zM254 1518h219l166 -301h-125zM311 506q0 -55 11.5 -116.5t40 -112t76.5 -83 t124 -32.5q117 0 184.5 90t67.5 254q0 74 -16.5 136.5t-48 108.5t-79 72.5t-108.5 26.5q-115 0 -183.5 -88t-68.5 -256z" />
<glyph unicode="&#xf3;" horiz-adv-x="1126" d="M72 506q0 98 25.5 192.5t84 168t152.5 119.5t229 46q125 0 217 -41t153.5 -111.5t91.5 -167t30 -206.5q0 -104 -28 -200.5t-87 -168t-152.5 -114.5t-224.5 -43q-229 0 -360 137t-131 389zM311 506q0 -55 11.5 -116.5t40 -112t77.5 -83t123 -32.5q117 0 184.5 90t67.5 254 q0 74 -15.5 136.5t-47 108.5t-79 72.5t-110.5 26.5q-115 0 -183.5 -88t-68.5 -256zM492 1217l165 301h220l-261 -301h-124z" />
<glyph unicode="&#xf4;" horiz-adv-x="1126" d="M72 506q0 98 25.5 192.5t84 168t152.5 119.5t229 46q125 0 217 -41t153.5 -111.5t91.5 -167t30 -206.5q0 -104 -28 -200.5t-87 -168t-152.5 -114.5t-224.5 -43q-229 0 -360 137t-131 389zM281 1217l184 301h205l184 -301h-149l-140 180l-143 -180h-141zM311 506 q0 -55 11.5 -116.5t40 -112t77.5 -83t123 -32.5q117 0 184.5 90t67.5 254q0 74 -15.5 136.5t-47 108.5t-79 72.5t-110.5 26.5q-115 0 -183.5 -88t-68.5 -256z" />
<glyph unicode="&#xf5;" horiz-adv-x="1126" d="M72 508q0 98 25.5 192.5t84 168t151.5 119.5t230 46q125 0 217 -41t153.5 -111.5t91.5 -167t30 -206.5q0 -104 -28 -200.5t-87 -168t-152.5 -114.5t-224.5 -43q-229 0 -360 137t-131 389zM213 1341q12 14 31.5 36t48.5 43.5t63.5 37t77.5 15.5q57 0 96 -15.5t72 -34 t64.5 -34t78.5 -15.5q45 0 81 20.5t59 47.5l65 -105q-12 -16 -33.5 -38.5t-49 -42t-62.5 -34t-76 -14.5q-59 0 -98 15.5t-71 34t-64.5 34t-81.5 15.5q-31 0 -68 -17.5t-65 -52.5zM311 508q0 -55 11.5 -116.5t40 -112t76.5 -83t124 -32.5q117 0 184.5 90t67.5 254 q0 74 -16.5 136.5t-48 108.5t-79 72.5t-108.5 26.5q-115 0 -183.5 -88t-68.5 -256z" />
<glyph unicode="&#xf6;" horiz-adv-x="1126" d="M72 506q0 98 25.5 192.5t84 168t152.5 119.5t229 46q125 0 217 -41t153.5 -111.5t91.5 -167t30 -206.5q0 -104 -28 -200.5t-87 -168t-152.5 -114.5t-224.5 -43q-229 0 -360 137t-131 389zM254 1253v211h213v-211h-213zM311 506q0 -55 11.5 -116.5t40 -112t77.5 -83 t123 -32.5q117 0 184.5 90t67.5 254q0 74 -15.5 136.5t-47 108.5t-79 72.5t-110.5 26.5q-115 0 -183.5 -88t-68.5 -256zM653 1253v211h213v-211h-213z" />
<glyph unicode="&#xf7;" d="M113 412v178h1048v-178h-1048zM514 719v233h238v-233h-238zM516 35v233h238v-233h-238z" />
<glyph unicode="&#xf8;" horiz-adv-x="1126" d="M72 506q0 98 25.5 192.5t84 169t151.5 119.5t230 45q61 0 109 -8l76 199l157 -47l-80 -207q117 -66 173.5 -187.5t56.5 -275.5q0 -104 -28 -200.5t-87 -168t-152.5 -114.5t-224.5 -43q-57 0 -114 10l-82 -211l-156 49l84 217q-109 63 -166 179t-57 282zM311 506 q0 -63 14.5 -132t53.5 -122l229 594q-10 2 -21.5 3t-23.5 1q-115 0 -183.5 -88t-68.5 -256zM506 168q27 -6 57 -6q117 0 184.5 91t67.5 253q0 82 -19.5 149.5t-58.5 114.5z" />
<glyph unicode="&#xf9;" horiz-adv-x="1155" d="M143 303v709h230v-643q0 -121 49 -166t113 -45q45 0 88 22.5t75.5 66.5t53 110.5t20.5 156.5v498h229v-703q0 -39 1.5 -81t2.5 -83t3 -77.5t4 -67.5h-183q-27 0 -26 29q0 10 -1 29.5t-1 41.5v56h-8q-43 -78 -115 -127t-195 -49q-84 0 -147.5 26.5t-106.5 70.5 t-64.5 102.5t-21.5 123.5zM229 1518h220l163 -301h-123z" />
<glyph unicode="&#xfa;" horiz-adv-x="1157" d="M143 303v709h230v-643q0 -61 13 -101.5t36.5 -65t53.5 -34.5t61 -10q45 0 88 22.5t75.5 66.5t52 110.5t19.5 156.5v498h229v-703q0 -39 1.5 -81t3.5 -83t4 -77.5t4 -67.5h-183q-25 0 -26 29q0 10 -1 29.5t-1 41.5v56h-8q-45 -78 -117 -127t-195 -49q-84 0 -147.5 26.5 t-106.5 70.5t-64.5 102.5t-21.5 123.5zM469 1217l164 301h219l-260 -301h-123z" />
<glyph unicode="&#xfb;" horiz-adv-x="1157" d="M143 303v709h230v-643q0 -61 13 -101.5t36.5 -65t53.5 -34.5t61 -10q45 0 88 22.5t75.5 66.5t52 110.5t19.5 156.5v498h229v-703q0 -39 1.5 -81t3.5 -83t4 -77.5t4 -67.5h-183q-25 0 -26 29q0 10 -1 29.5t-1 41.5v56h-8q-45 -78 -117 -127t-195 -49q-84 0 -147.5 26.5 t-106.5 70.5t-64.5 102.5t-21.5 123.5zM291 1217l186 301h205l184 -301h-149l-142 180l-141 -180h-143z" />
<glyph unicode="&#xfc;" horiz-adv-x="1155" d="M143 303v709h230v-643q0 -121 49 -166t113 -45q45 0 88 22.5t75.5 66.5t53 110.5t20.5 156.5v498h229v-703q0 -39 1.5 -81t2.5 -83t3 -77.5t4 -67.5h-183q-27 0 -26 29q0 10 -1 29.5t-1 41.5v56h-8q-43 -78 -115 -127t-195 -49q-84 0 -147.5 26.5t-106.5 70.5 t-64.5 102.5t-21.5 123.5zM258 1253v211h213v-211h-213zM657 1253v211h213v-211h-213z" />
<glyph unicode="&#xfd;" horiz-adv-x="1067" d="M20 -483q2 25 5 49q2 23 4 49.5t6 54.5q2 25 20 25q10 0 35 -7t66 -7q27 0 56.5 4t59 20t57 50t52.5 93q10 27 19.5 54.5t19.5 50.5l20 51l-377 1008h259l241 -703h8l232 703h244q-86 -236 -164 -445q-33 -90 -68 -181t-65.5 -175t-57 -154.5t-43.5 -115.5 q-35 -90 -68.5 -170t-82.5 -141.5t-119 -97.5t-176 -36q-86 0 -127 8.5t-56 12.5zM416 1217l166 301h219l-260 -301h-125z" />
<glyph unicode="&#xfe;" horiz-adv-x="1136" d="M143 -471v1939h230v-569h8q16 23 39.5 47.5t57.5 44t79 31.5t105 12q131 0 210.5 -49t122.5 -123t56.5 -156.5t13.5 -150.5q0 -129 -37 -234.5t-106.5 -181.5t-169 -116.5t-222.5 -40.5q-70 0 -106.5 7t-50.5 11v-471h-230zM373 178q16 -4 52.5 -12t106.5 -8 q143 0 218 96t75 287q0 61 -8 117.5t-30.5 100.5t-65.5 70.5t-111 26.5q-45 0 -88 -20.5t-75.5 -62.5t-53 -107.5t-20.5 -155.5v-332z" />
<glyph unicode="&#xff;" horiz-adv-x="1064" d="M20 -483q2 25 5 49q2 23 3 49.5t5 54.5q2 25 20 25q12 0 36 -7t65 -7q27 0 57.5 4t59 20t56 50t52.5 93q10 27 19.5 54.5t19.5 50.5l20 51l-377 1008h258l244 -703h8l230 703h243q-86 -236 -163 -445q-33 -90 -67 -181t-65.5 -175t-57 -154.5t-44.5 -115.5 q-35 -90 -68.5 -170t-81.5 -141.5t-119 -97.5t-175 -36q-86 0 -127 8.5t-56 12.5zM258 1253v211h213v-211h-213zM657 1253v211h213v-211h-213z" />
<glyph unicode="&#x152;" horiz-adv-x="1998" d="M82 690q0 166 46 297t132 223.5t209 141.5t274 49q123 0 225.5 -32t180.5 -91v102h743v-188h-499v-389h473v-189h-473v-426h503v-188h-747v100q-78 -59 -180.5 -89.5t-225.5 -30.5q-150 0 -271.5 48t-208.5 139t-134 223t-47 300zM338 690q0 -119 28.5 -214t81 -160.5 t128 -101.5t167.5 -36t167 36t128.5 102.5t82 160.5t28.5 213q0 121 -29.5 216t-83 161t-128 100.5t-165.5 34.5q-90 0 -164.5 -33.5t-128 -99t-83 -161t-29.5 -218.5z" />
<glyph unicode="&#x153;" horiz-adv-x="1779" d="M72 506q0 98 25.5 192.5t84 169t152.5 119.5t229 45q125 0 217 -39t154 -110q59 72 145 110.5t197 38.5q125 0 208 -41t133 -104.5t70.5 -140t20.5 -148.5q0 -12 -1 -33.5l-2 -43t-3 -40t-2 -26.5h-647q0 -61 19.5 -115.5t58 -94.5t97 -63.5t138.5 -23.5q82 0 141.5 20.5 t75.5 28.5q10 4 19.5 9t17.5 5q16 0 18 -22q0 -10 2 -29.5t3.5 -43.5t2.5 -48.5t1 -42.5q-14 -6 -44 -15.5t-70 -18.5t-89 -15t-103 -6q-141 0 -242.5 37.5t-166.5 111.5q-59 -70 -149.5 -109.5t-219.5 -39.5q-229 0 -360 137t-131 389zM311 506q0 -55 11.5 -115.5t40 -112 t77.5 -84t123 -32.5q117 0 185.5 91t68.5 253q0 74 -16.5 137.5t-48 109.5t-78.5 71.5t-111 25.5q-115 0 -183.5 -88t-68.5 -256zM1055 610h424q2 4 2 25q0 33 -9.5 73t-32 74.5t-63.5 58t-102 23.5q-70 0 -112 -28.5t-65.5 -68.5t-32.5 -83t-9 -74z" />
<glyph unicode="&#x178;" horiz-adv-x="1150" d="M20 1380h263l307 -659l299 659h241l-421 -903v-477h-244v477zM289 1577v211h213v-211h-213zM688 1577v211h213v-211h-213z" />
<glyph unicode="&#x2c6;" horiz-adv-x="655" d="M41 1174l184 301h205l184 -301h-149l-139 180l-144 -180h-141z" />
<glyph unicode="&#x2dc;" horiz-adv-x="819" d="M41 1346q10 12 29.5 34.5t48 43t64.5 36t79 15.5q57 0 96 -15.5t72 -34t65.5 -34t79.5 -15.5q45 0 80 21.5t58 48.5l65 -105q-12 -16 -32.5 -38.5t-49 -43t-63.5 -35t-74 -14.5q-59 0 -98 15.5t-71 34t-65.5 34t-82.5 15.5q-29 0 -67 -16.5t-66 -51.5z" />
<glyph unicode="&#x2000;" horiz-adv-x="914" />
<glyph unicode="&#x2001;" horiz-adv-x="1829" />
<glyph unicode="&#x2002;" horiz-adv-x="914" />
<glyph unicode="&#x2003;" horiz-adv-x="1829" />
<glyph unicode="&#x2004;" horiz-adv-x="609" />
<glyph unicode="&#x2005;" horiz-adv-x="457" />
<glyph unicode="&#x2006;" horiz-adv-x="304" />
<glyph unicode="&#x2007;" horiz-adv-x="304" />
<glyph unicode="&#x2008;" horiz-adv-x="228" />
<glyph unicode="&#x2009;" horiz-adv-x="365" />
<glyph unicode="&#x200a;" horiz-adv-x="101" />
<glyph unicode="&#x2010;" horiz-adv-x="819" d="M164 412v178h491v-178h-491z" />
<glyph unicode="&#x2011;" horiz-adv-x="819" d="M164 412v178h491v-178h-491z" />
<glyph unicode="&#x2012;" horiz-adv-x="819" d="M164 412v178h491v-178h-491z" />
<glyph unicode="&#x2013;" horiz-adv-x="1222" d="M164 412v178h895v-178h-895z" />
<glyph unicode="&#x2014;" horiz-adv-x="1587" d="M164 412v178h1259v-178h-1259z" />
<glyph unicode="&#x2018;" horiz-adv-x="442" d="M102 901v197q0 59 17.5 107t45.5 85t61.5 64.5t68.5 44.5l39 -45q-33 -20 -54.5 -48t-34 -57.5t-16.5 -59.5t-2 -54h113v-234h-238z" />
<glyph unicode="&#x2019;" horiz-adv-x="460" d="M106 1147v233h238v-196q0 -59 -17.5 -107.5t-45 -85.5t-61.5 -64.5t-68 -43.5l-39 45q63 41 85.5 104.5t20.5 114.5h-113z" />
<glyph unicode="&#x201a;" horiz-adv-x="483" d="M123 0v233h237v-196q0 -59 -17 -107.5t-45 -85.5t-61.5 -64.5t-68.5 -43.5l-39 45q63 41 86 104.5t21 114.5h-113z" />
<glyph unicode="&#x201c;" horiz-adv-x="862" d="M102 901v197q0 59 17.5 107t45.5 85t61.5 64.5t68.5 44.5l39 -45q-33 -20 -54.5 -48t-34 -57.5t-16.5 -59.5t-2 -54h113v-234h-238zM522 901v197q0 59 17.5 107t45 85t61.5 64.5t69 44.5l39 -45q-33 -20 -54.5 -48t-34 -57.5t-16.5 -59.5t-2 -54h113v-234h-238z" />
<glyph unicode="&#x201d;" horiz-adv-x="862" d="M102 1147v233h238v-196q0 -59 -17.5 -107.5t-45 -85.5t-61.5 -64.5t-69 -43.5l-38 45q63 41 85.5 104.5t20.5 114.5h-113zM522 1147v233h238v-196q0 -59 -17.5 -107.5t-45 -85.5t-61.5 -64.5t-69 -43.5l-39 45q63 41 86 104.5t21 114.5h-113z" />
<glyph unicode="&#x201e;" horiz-adv-x="907" d="M123 0v233h237v-196q0 -59 -17 -107.5t-45 -85.5t-61.5 -64.5t-68.5 -43.5l-39 45q63 41 86 104.5t21 114.5h-113zM547 0v233h237v-196q0 -59 -17 -107.5t-45 -85.5t-61.5 -64.5t-68.5 -43.5l-39 45q63 41 86 104.5t20 114.5h-112z" />
<glyph unicode="&#x2022;" horiz-adv-x="722" d="M205 344v309h313v-309h-313z" />
<glyph unicode="&#x2026;" horiz-adv-x="1419" d="M123 0v233h237v-233h-237zM590 0v233h237v-233h-237zM1059 0v233h237v-233h-237z" />
<glyph unicode="&#x202f;" horiz-adv-x="365" />
<glyph unicode="&#x2039;" horiz-adv-x="688" d="M102 485l351 430l133 -88l-283 -342l283 -344l-133 -86z" />
<glyph unicode="&#x203a;" horiz-adv-x="829" d="M174 141l281 344l-281 342l131 88l350 -430l-350 -430z" />
<glyph unicode="&#x205f;" horiz-adv-x="457" />
<glyph unicode="&#x20ac;" horiz-adv-x="1396" d="M123 428l100 188h62q-2 18 -2 37v37v45.5t4 44.5h-164l100 187h99q29 92 82 172t135 138t195.5 91t262.5 33q59 0 110.5 -7.5t92.5 -16.5t70.5 -18t44.5 -16l-64 -194q-47 16 -120.5 34.5t-153.5 18.5q-121 0 -221.5 -57.5t-159.5 -177.5h598l-61 -187h-588 q-4 -23 -4 -45v-45v-35.5t4 -38.5h534l-59 -188h-426q23 -51 56.5 -97t80.5 -80t107.5 -53.5t138.5 -19.5q55 0 107.5 9.5t93.5 20.5t69.5 22.5t38.5 15.5l29 -207q-10 -4 -42 -13.5t-75 -19.5t-95 -18t-106 -8q-147 0 -260.5 32.5t-197.5 92t-138.5 141.5t-83.5 182h-194z " />
<glyph unicode="&#x2122;" horiz-adv-x="1097" d="M123 1313v67h309v-67h-110v-342h-89v342h-110zM442 971l60 409h114l95 -297h8l86 297h108l62 -409h-84l-41 301h-8l-92 -301h-91l-92 301h-8l-31 -301h-86z" />
<glyph unicode="&#xe000;" horiz-adv-x="1013" d="M0 0v1014h1014v-1014h-1014z" />
</font>
</defs>
</svg>
