<?xml version="1.0" standalone="no"?>
<!DOCTYPE svg PUBLIC "-//W3C//DTD SVG 1.1//EN" "http://www.w3.org/Graphics/SVG/1.1/DTD/svg11.dtd" >
<svg xmlns="http://www.w3.org/2000/svg">
<metadata></metadata>
<defs>
<font id="americansansbold_italic" horiz-adv-x="1630" >
<font-face units-per-em="2048" ascent="1536" descent="-512" />
<missing-glyph horiz-adv-x="471" />
<glyph unicode="&#xfb01;" horiz-adv-x="1282" d="M102 791l43 221h183l4 24q2 10 4 20.5t4 20.5q47 229 182 329.5t367 100.5q111 0 185.5 -20.5t90.5 -26.5q-4 -12 -11 -37.5t-15 -54.5q-8 -33 -21 -68q-6 -18 -14 -27t-29 -9q-8 0 -26.5 5t-45 10t-59.5 10t-65 5q-68 0 -114 -16t-77 -47t-49 -74t-29 -96 q-2 -10 -3 -17.5t-3 -15.5t-2 -16h639l-199 -1012h-272l154 791h-365q-25 -129 -52.5 -267.5t-49.5 -255.5q-27 -137 -54 -268h-272q25 129 51 266q23 117 49.5 256.5t53.5 268.5h-183z" />
<glyph unicode="&#xfb02;" horiz-adv-x="1282" d="M102 791l43 221h181l12 75q41 215 184.5 317.5t368.5 102.5q76 0 146.5 -7t128 -16t98.5 -18.5t59 -15.5l-283 -1450h-272l246 1276q-16 4 -60.5 11t-87.5 7q-113 -2 -172 -55t-78 -145l-16 -82h164l-45 -221h-162l-151 -791h-277q25 129 51 266q23 117 50.5 256.5 t52.5 268.5h-181z" />
<glyph unicode="&#xfb03;" horiz-adv-x="1947" d="M102 791l43 221h183l14 78q20 106 67.5 184t113 130t145.5 77.5t166 25.5q82 0 127 -10t49 -12q-4 -14 -11.5 -40t-15.5 -54q-8 -33 -18 -68q-4 -16 -10.5 -28.5t-24.5 -12.5q-16 0 -40 6t-77 6q-74 0 -126 -46t-66 -134l-19 -102h391q2 12 4 22t3 19.5t4 19.5 q41 221 180 327.5t370 106.5q111 0 184.5 -18.5t94.5 -28.5l-12.5 -37.5t-16.5 -54.5q-10 -33 -20 -68q-4 -18 -13.5 -27t-29.5 -9q-8 0 -26.5 5t-45.5 10t-59.5 10t-65.5 5q-127 0 -186.5 -58t-81.5 -177q-2 -10 -3 -18.5t-3 -14.5q-2 -8 -4 -14h641l-199 -1012h-272 l153 791h-364q-25 -129 -52.5 -267.5t-50.5 -255.5q-27 -137 -53 -268h-272q25 129 51 266q23 117 49.5 256.5t52.5 268.5h-391q-25 -129 -52.5 -267.5t-49.5 -255.5q-27 -137 -54 -268h-272q25 129 51 266q23 117 49.5 256.5t53.5 268.5h-183z" />
<glyph unicode="&#xfb04;" horiz-adv-x="1959" d="M113 791l43 221h182l14 75q41 211 171 315.5t313 104.5q80 0 128 -9t56 -13q-4 -14 -11.5 -40t-15.5 -54q-8 -33 -18 -70q-4 -16 -10.5 -27.5t-24.5 -11.5q-16 0 -39.5 6t-77.5 6q-76 0 -126 -45t-66 -133l-19 -104h392l10 63q80 432 557 432q78 0 153.5 -8t135 -18.5 t98.5 -19.5t43 -11l-283 -1450h-272l246 1276q-6 4 -53.5 11t-96.5 7q-106 0 -168.5 -54t-79.5 -146l-16 -82h164l-45 -221h-162l-154 -791h-274l154 791h-392l-155 -791h-273l154 791h-182z" />
<glyph horiz-adv-x="2048" />
<glyph horiz-adv-x="2048" />
<glyph unicode="&#xd;" horiz-adv-x="737" />
<glyph unicode=" "  horiz-adv-x="471" />
<glyph unicode="&#x09;" horiz-adv-x="471" />
<glyph unicode="&#xa0;" horiz-adv-x="471" />
<glyph unicode="!" horiz-adv-x="704" d="M164 0h248l47 248h-248zM256 406l152 974h297l-236 -974h-213z" />
<glyph unicode="&#x22;" horiz-adv-x="704" d="M205 1012h121l114 368h-207zM512 1012l29 368h204l-114 -368h-119z" />
<glyph unicode="#" horiz-adv-x="1376" d="M61 379l33 162h223l103 344h-201l33 162h219l100 335h215l-102 -335h215l102 335h213l-100 -335h201l-33 -162h-217l-102 -344h198l-33 -162h-217l-112 -379h-213l110 379h-213l-112 -379h-215l112 379h-207zM532 541h216l102 344h-215z" />
<glyph unicode="$" horiz-adv-x="1214" d="M41 29l68 235q27 -10 108.5 -31.5t210.5 -21.5q154 0 222.5 53t68.5 123q0 63 -48 106.5t-120 73.5l-94 43q-49 23 -95.5 55.5t-81 75.5t-55 98.5t-20.5 121.5q0 172 113.5 287.5t312.5 144.5l31 170h212l-30 -164q115 -6 173 -20.5t75 -20.5l-70 -242q-23 10 -92.5 30.5 t-184.5 20.5q-63 0 -106 -15t-70.5 -37.5t-40 -50.5t-12.5 -54q0 -35 14.5 -60.5t38 -44t50 -32t51.5 -25.5l88 -39q51 -23 98 -55.5t84 -75.5t58.5 -100.5t21.5 -128.5q0 -82 -27.5 -157t-83 -135.5t-140.5 -103.5t-202 -61l-39 -207h-213l39 195q-147 4 -220 22t-93 27z " />
<glyph unicode="%" horiz-adv-x="1736" d="M205 1018q0 82 27.5 154.5t77.5 128t123 87t163 31.5q82 0 143.5 -24.5t101.5 -65.5t59.5 -92t19.5 -107q0 -80 -27 -153.5t-76 -128.5t-120.5 -88t-161.5 -33t-153 24.5t-102.5 65.5t-57 93.5t-17.5 107.5zM252 0l1094 1380h190l-1092 -1380h-192zM414 1030 q0 -59 34.5 -99t92.5 -40q72 0 121 59.5t49 163.5q0 55 -33 98t-92 43q-78 0 -125 -63.5t-47 -161.5zM899 268q0 82 27.5 156t78 128t122 86t161.5 32q84 0 145.5 -24.5t101.5 -64.5t59.5 -92.5t19.5 -105.5q0 -82 -26.5 -154.5t-76 -128t-121 -88t-161.5 -32.5t-152.5 24.5 t-102.5 65.5t-57.5 93t-17.5 105zM1108 281q0 -59 35 -98.5t92 -39.5q72 0 121 59.5t49 162.5q0 55 -33 98t-92 43q-80 0 -126 -63.5t-46 -161.5z" />
<glyph unicode="&#x26;" horiz-adv-x="1699" d="M205 371q0 106 42 176.5t98 116t112.5 69t85.5 33.5q-18 23 -37 49.5t-35 62t-26.5 81t-10.5 102.5q0 66 26.5 127t77 108t122 76t159.5 29q102 0 174 -25.5t116 -65.5t64.5 -91.5t20.5 -100.5q0 -86 -38 -150.5t-88 -108.5t-103.5 -71.5t-83.5 -42.5q23 -29 55.5 -64.5 t69 -73.5t74.5 -75.5t71 -68.5q27 35 52.5 77t47 87t37 90t23.5 86h266q-16 -82 -49 -158t-70 -140.5t-74.5 -114.5t-62.5 -81q14 -14 46 -39.5t63 -54.5q37 -33 77 -70l-207 -174q-37 33 -71 64q-29 27 -58.5 52.5t-46.5 41.5q-16 -14 -53 -40t-92 -50.5t-126 -41.5 t-157 -17q-100 0 -189 26.5t-156.5 77.5t-106.5 123t-39 164zM496 379q0 -35 15 -70t44 -62.5t73 -45t99 -17.5q78 0 139.5 32t102.5 60q-27 25 -69 68t-87 90t-85.5 92t-63.5 76q-16 -6 -45 -20.5t-56.5 -40t-47 -65.5t-19.5 -97zM709 1075q0 -53 18 -96t37 -72 q72 39 127 88t55 117q0 33 -26.5 66.5t-85.5 33.5q-53 0 -89 -35.5t-36 -101.5z" />
<glyph unicode="'" horiz-adv-x="399" d="M205 1012l28 368h207l-114 -368h-121z" />
<glyph unicode="(" horiz-adv-x="794" d="M123 180q0 209 43 392.5t107.5 336t139 272t136.5 199.5h246q-59 -82 -132 -204.5t-135.5 -279.5t-105.5 -343t-43 -395q0 -113 12 -212.5t30.5 -180t39 -142t37.5 -96.5h-228q-20 39 -45.5 101.5t-48 145.5t-38 185t-15.5 221z" />
<glyph unicode=")" horiz-adv-x="794" d="M-82 -473q57 82 130 205t137.5 280.5t107.5 344t43 393.5q0 113 -12.5 212t-31 180t-39 142.5t-38.5 95.5h227q20 -39 46 -101t48.5 -145t38 -185.5t15.5 -221.5q0 -209 -43 -392t-107.5 -336t-138.5 -272.5t-135 -199.5h-248z" />
<glyph unicode="*" horiz-adv-x="768" d="M205 1124l69 138l177 -86l14 204h145l-63 -209l203 91l18 -140l-215 -41l113 -151l-134 -84l-69 182l-133 -182l-101 84l172 155z" />
<glyph unicode="+" horiz-adv-x="1374" d="M123 422l39 207h385l80 407h276l-80 -407h387l-39 -207h-387l-77 -397h-277l78 397h-385z" />
<glyph unicode="," horiz-adv-x="536" d="M0 -193q47 29 89 79.5t54 113.5h-106l47 246h248q-6 -31 -13 -60q-4 -25 -9 -52.5t-9 -47.5q-16 -86 -49 -142.5t-71 -93t-78 -57t-70 -33.5z" />
<glyph unicode="-" horiz-adv-x="917" d="M123 422l39 207h633l-39 -207h-633z" />
<glyph unicode="." horiz-adv-x="561" d="M61 0l48 248h247l-47 -248h-248z" />
<glyph unicode="/" horiz-adv-x="976" d="M41 0l797 1380h262l-795 -1380h-264z" />
<glyph unicode="0" horiz-adv-x="1349" d="M123 506q0 94 15.5 197.5t48 204t82.5 189.5t122 156.5t165 107.5t210 40q129 0 217 -50.5t142.5 -128t78 -173t23.5 -187.5q0 -188 -51.5 -349t-139.5 -279.5t-205.5 -186t-250.5 -67.5q-113 0 -199 45t-143.5 119.5t-86 169t-28.5 192.5zM381 504q0 -57 11 -111.5 t39 -96.5t70.5 -67.5t108.5 -25.5q68 0 132.5 50t114.5 140t81 212t31 267q0 51 -9.5 105.5t-33 98.5t-65.5 73t-107 29q-80 0 -148.5 -46.5t-119 -133.5t-78 -211.5t-27.5 -282.5z" />
<glyph unicode="1" horiz-adv-x="755" d="M82 1024l8 207q55 6 111.5 22.5t107.5 39t93 51t67 57.5h205l-271 -1401h-258l215 1114q-27 -16 -61.5 -30.5t-72.5 -27t-75.5 -21.5t-68.5 -11z" />
<glyph unicode="2" horiz-adv-x="980" d="M-82 0l41 213q82 74 152 139q31 27 60.5 54.5t56 52t47 43t30.5 28.5q82 80 144.5 142.5t105.5 117t64.5 104.5t21.5 103q0 27 -11.5 58.5t-37 58.5t-66.5 44.5t-100 17.5q-45 0 -85 -9.5t-71.5 -21.5t-54 -24.5t-33.5 -20.5l-59 219q14 8 44 22.5t75 27.5t105.5 22.5 t137.5 9.5q106 0 188.5 -33t136.5 -86t82 -118.5t28 -133.5q0 -96 -34 -175t-85 -144.5t-110.5 -122t-108.5 -105.5q-29 -29 -73 -71.5t-85 -83.5l-100 -101h481l-43 -227h-844z" />
<glyph unicode="3" horiz-adv-x="937" d="M-82 20l27 228q10 -4 35.5 -11.5t61.5 -14.5t78 -13t83 -6q57 0 115.5 15t104.5 46t74.5 75t28.5 103q0 25 -11 53.5t-36.5 52t-69.5 40t-112 16.5h-127l41 211h63q68 0 130.5 15.5t109.5 43t74.5 65.5t27.5 81q0 27 -12 54.5t-38.5 50t-68.5 38t-100 15.5 q-41 0 -77.5 -7.5t-67.5 -17.5t-51.5 -20.5t-28.5 -16.5l-57 207q14 8 42.5 21.5t71.5 25.5t100.5 21.5t131.5 9.5q102 0 180 -27.5t130 -76t79 -111t27 -129.5q0 -92 -37 -155.5t-84 -104.5t-92.5 -61.5t-61.5 -26.5l-2 -9q14 -6 46 -22t62.5 -49t54 -85t23.5 -130 q0 -104 -43 -185.5t-119.5 -136.5t-185 -83.5t-239.5 -28.5q-51 0 -98.5 5t-84 12t-63.5 13t-35 10z" />
<glyph unicode="4" horiz-adv-x="1175" d="M41 584l684 796h354l-161 -829h217l-43 -227h-218l-63 -324h-258l63 324h-557zM270 553h389l113 580h-8z" />
<glyph unicode="5" horiz-adv-x="1071" d="M41 16l37 226q25 -8 87 -23.5t150 -15.5q78 0 143.5 17.5t112.5 50t73 78.5t26 106q0 37 -16.5 71.5t-52.5 60t-94 42t-142 16.5q-78 0 -130.5 -8t-74.5 -12l147 755h744l-45 -227h-484l-59 -309q4 4 29.5 9t60.5 5q92 0 165 -31.5t122 -84t75.5 -119t26.5 -138.5 q0 -111 -44 -203t-127 -159.5t-202.5 -105t-271.5 -37.5q-117 0 -173 13t-77 21q-2 0 -2 1t-2 1h-2z" />
<glyph unicode="6" horiz-adv-x="1232" d="M123 489q0 246 62.5 419t168 282.5t242.5 160t287 50.5q127 0 199.5 -21.5t88.5 -27.5l-67 -209q-18 8 -71.5 24.5t-149.5 16.5q-139 0 -230.5 -50.5t-143.5 -118t-73.5 -133t-21.5 -96.5l6 -4q6 6 26.5 21.5t57.5 32t90 30t125 13.5q90 0 160.5 -32t120 -87t75 -128 t25.5 -155q0 -84 -31 -173t-95.5 -160.5t-161.5 -117.5t-228 -46q-123 0 -210 43t-143.5 114.5t-82 163.5t-25.5 188zM385 408q0 -35 12.5 -73t37 -68.5t62.5 -50t91 -19.5q61 0 108 21.5t81 57t51.5 83t17.5 96.5q0 37 -12.5 73.5t-38 66.5t-63.5 49.5t-89 19.5 q-55 0 -102 -19.5t-82 -53.5t-54.5 -81t-19.5 -102z" />
<glyph unicode="7" horiz-adv-x="854" d="M0 0q55 147 129 301t160 303.5t178 288.5t182 260h-590l45 227h832l-41 -217q-86 -111 -172 -250t-165 -290.5t-149.5 -311t-125.5 -311.5h-283z" />
<glyph unicode="8" horiz-adv-x="1161" d="M41 315q0 90 41 158t97.5 115t114.5 76.5t93 44.5q-16 10 -47 32.5t-60.5 62.5t-52 96t-22.5 134q0 80 32.5 147.5t93 116t148.5 76t199 27.5q117 0 200 -30t137 -76t79.5 -103t25.5 -111q0 -82 -33.5 -142t-84 -102t-107.5 -70t-102 -46q16 -10 52 -37t72.5 -69 t64.5 -99t28 -131q0 -86 -33 -159.5t-99.5 -129t-166 -86t-230.5 -30.5q-104 0 -186 25.5t-138.5 69.5t-86 105t-29.5 135zM315 352q0 -63 52.5 -109t144.5 -46q45 0 87 12t74 35.5t50 55.5t18 69q0 41 -14 72.5t-37.5 58t-53.5 48t-63 42.5q-31 -10 -74.5 -28.5 t-84.5 -47.5t-70 -68.5t-29 -93.5zM467 1032q0 -41 14.5 -72.5t36 -55t46 -40t42.5 -28.5q31 12 74 29.5t82 44t65.5 62.5t26.5 83q0 51 -43 96t-147 45q-86 0 -141.5 -47t-55.5 -117z" />
<glyph unicode="9" horiz-adv-x="1251" d="M82 29l68 209q20 -10 71 -25.5t150 -15.5q139 0 229 50t142.5 116.5t73 133t22.5 97.5l-7 4q-6 -6 -26.5 -21.5t-57 -32t-90 -29.5t-125.5 -13q-90 0 -160.5 31.5t-118.5 87t-73.5 128t-25.5 154.5q0 84 30.5 172t94 160t161 118t230.5 46q123 0 210 -43t142 -114 t80.5 -163t25.5 -188q0 -246 -62 -419t-166.5 -282.5t-242 -159.5t-286.5 -50q-127 0 -201 20t-88 29zM406 926q0 -37 12 -74t37.5 -67.5t64.5 -50t90 -19.5q55 0 102.5 19.5t82 53t54 82t19.5 103.5q0 35 -12 71.5t-36.5 67.5t-62.5 50.5t-91 19.5q-61 0 -109.5 -21.5 t-82.5 -56.5t-51 -82t-17 -96z" />
<glyph unicode=":" horiz-adv-x="659" d="M102 0l48 248h247l-47 -248h-248zM199 504l49 248h248l-50 -248h-247z" />
<glyph unicode=";" horiz-adv-x="681" d="M102 -193q47 29 89 79.5t55 113.5h-107l47 246h248q-6 -31 -12 -60q-4 -25 -10.5 -52.5t-10.5 -47.5q-16 -86 -47.5 -142.5t-69.5 -93t-78 -57t-71 -33.5zM221 504l49 248h248l-49 -248h-248z" />
<glyph unicode="&#x3c;" horiz-adv-x="933" d="M123 524l596 488l112 -138l-438 -352l293 -352l-151 -121z" />
<glyph unicode="=" horiz-adv-x="1456" d="M123 223h1053l38 207h-1052zM199 618l41 207h1052l-41 -207h-1052z" />
<glyph unicode="&#x3e;" horiz-adv-x="913" d="M82 156l438 352l-293 352l152 121l412 -475l-596 -488z" />
<glyph unicode="?" horiz-adv-x="862" d="M246 0l47 248h248l-49 -248h-246zM289 1137l35 225q18 6 82.5 21.5t168.5 15.5q117 0 200 -30t136.5 -78t78 -106.5t24.5 -113.5q0 -72 -26.5 -129t-63.5 -100t-77 -75l-65 -52q-78 -66 -132 -124.5t-70 -137.5q-4 -12 -5.5 -20.5t-3.5 -14.5q-2 -8 -2 -12h-247l4 20 t3 20.5t5 22.5q14 74 39.5 130t56.5 97t61.5 71t55.5 48q31 23 59.5 47.5t52 51t38 55t14.5 59.5q0 25 -12.5 49.5t-39 46t-68.5 34.5t-102 13q-72 0 -131 -15t-69 -19z" />
<glyph unicode="@" horiz-adv-x="2060" d="M287 610q0 166 63.5 310.5t181 250t284.5 167t374 61.5q184 0 317 -51.5t220.5 -131t128 -177t40.5 -191.5q0 -109 -37.5 -199t-103 -154.5t-155 -99.5t-191.5 -35q-59 0 -98 13.5t-62.5 33t-34 43t-12.5 42.5h-8q-6 -12 -20.5 -34t-40 -43.5t-64.5 -37t-94 -15.5 q-94 0 -160.5 66t-66.5 178q0 113 41.5 202t111.5 148.5t157 91t177 31.5q98 0 163.5 -12t84.5 -16q-25 -78 -47 -148q-20 -59 -41 -121.5t-33 -103.5q-14 -43 -25.5 -77t-11.5 -66q0 -33 25.5 -50.5t62.5 -17.5q55 0 107.5 29.5t92.5 82t64.5 123t24.5 152.5 q0 74 -30 151.5t-95.5 142t-168.5 106.5t-249 42q-121 0 -242.5 -48t-218 -137t-157 -215t-60.5 -284q0 -115 39 -210t113 -165.5t177 -109.5t232 -39q55 0 102.5 8t86.5 20.5t65.5 25t38.5 18.5l-22 -127q-14 -6 -37 -15.5t-60.5 -17.5t-93 -14t-135.5 -6q-141 0 -269 45 t-223.5 128t-151.5 199.5t-56 257.5zM944 627q0 -49 21.5 -84t74.5 -35q33 0 58.5 19.5t45 48t34 63.5t24.5 63q6 20 16.5 53t20.5 66q10 37 25 78q-8 4 -24.5 9t-41.5 5q-43 0 -88 -20.5t-82 -57t-60.5 -90t-23.5 -118.5z" />
<glyph unicode="A" horiz-adv-x="1368" d="M-123 0l793 1380h327l248 -1380h-280l-54 305h-577l-172 -305h-285zM453 512h421l-94 588h-8z" />
<glyph unicode="B" horiz-adv-x="1294" d="M61 0l269 1380h487q123 0 203 -32.5t128 -83t66.5 -108.5t18.5 -107q0 -96 -38 -157t-88 -96.5t-99.5 -50t-71.5 -16.5l-2 -6q25 -6 59.5 -25.5t67.5 -54.5t56.5 -87t23.5 -124q0 -92 -36 -171t-107.5 -137t-178 -91t-248.5 -33h-510zM377 223q18 -4 57 -5t74 -1 q164 0 248 65.5t84 159.5q0 37 -13.5 70t-44 57.5t-79 39t-117.5 14.5h-133zM494 825h133q139 0 221 52.5t82 146.5q0 70 -51.5 118t-165.5 48q-25 0 -50.5 -1t-47 -1t-36 -1t-16.5 -1z" />
<glyph unicode="C" horiz-adv-x="1280" d="M102 635q0 141 48.5 279.5t147.5 246t250.5 174t360.5 66.5q102 0 180 -12.5t131.5 -27.5t83 -29.5t37.5 -18.5l-118 -238q-12 8 -40 23.5t-70 30t-96 25.5t-122 11q-106 0 -196.5 -40t-155 -112.5t-100 -171t-35.5 -214.5q0 -78 27.5 -152t80.5 -131t130 -93t177 -36 t168 23.5t86 33.5l29 -241q-23 -8 -114 -29.5t-224 -21.5q-176 0 -301 53t-207 142t-120 208t-38 252z" />
<glyph unicode="D" horiz-adv-x="1503" d="M61 0l269 1380h399q180 0 307 -51t208 -139t119 -203t38 -242q0 -141 -57.5 -275t-165 -238.5t-265 -168t-356.5 -63.5h-496zM399 233q8 -2 43 -5t82 -3q143 0 252 46t179.5 122t106.5 174.5t36 200.5q0 84 -25.5 154.5t-75 123t-119 81t-157.5 28.5q-53 0 -91 -3t-55 -7 z" />
<glyph unicode="E" horiz-adv-x="1126" d="M61 0l269 1380h817l-45 -227h-524l-64 -326h498l-45 -229h-498l-72 -371h529l-43 -227h-822z" />
<glyph unicode="F" horiz-adv-x="1105" d="M61 0l269 1380h817l-45 -227h-524l-64 -326h498l-45 -229h-498l-115 -598h-293z" />
<glyph unicode="G" horiz-adv-x="1556" d="M102 649q0 158 59.5 295t168 238.5t263.5 160t343 58.5q111 0 196 -10.5t142 -24.5t90 -26.5t39 -14.5l-94 -248q-8 6 -38 20.5t-79 30t-116.5 26.5t-149.5 11q-115 0 -209 -42t-163 -113.5t-106.5 -170t-37.5 -208.5q0 -90 27.5 -166t81.5 -131t134 -87t185 -32 q25 0 50 3t49 6t42 6t27 6l69 362h-237l45 229h530l-151 -780q-16 -6 -56.5 -17.5t-95.5 -22.5t-121.5 -19t-140.5 -8q-178 0 -317.5 47t-234.5 134t-144.5 211t-49.5 277z" />
<glyph unicode="H" horiz-adv-x="1529" d="M61 0l269 1380h293l-109 -553h553l109 553h292l-268 -1380h-293l115 598h-553l-115 -598h-293z" />
<glyph unicode="I" horiz-adv-x="684" d="M61 0l269 1380h293l-269 -1380h-293z" />
<glyph unicode="J" horiz-adv-x="868" d="M-82 6l45 234q8 -4 47 -14.5t96 -10.5q80 0 142 49t78 139q2 8 10 54.5t22.5 117t31 157.5t34.5 177q41 209 92 471h291q-47 -231 -84 -428q-16 -84 -32.5 -168t-31 -157.5t-25.5 -131t-16 -85.5q-14 -88 -46.5 -166t-88 -136.5t-136.5 -93t-191 -34.5q-98 0 -160 11 t-78 15z" />
<glyph unicode="K" horiz-adv-x="1243" d="M61 0l269 1380h282l-125 -639l547 639h332l-600 -684l403 -696h-335l-363 655l-127 -655h-283z" />
<glyph unicode="L" horiz-adv-x="956" d="M61 0l269 1380h293l-226 -1153h477l-43 -227h-770z" />
<glyph unicode="M" horiz-adv-x="1869" d="M-41 0l469 1380h344l111 -966h8l479 966h356l-61 -1380h-272l47 993h-8l-506 -993h-260l-113 993h-8l-322 -993h-264z" />
<glyph unicode="N" horiz-adv-x="1599" d="M61 0l269 1380h354l385 -968h8l189 968h272l-268 -1380h-340l-395 999h-9l-192 -999h-273z" />
<glyph unicode="O" d="M102 598q0 78 17.5 169t54.5 180t97.5 171t147.5 144.5t201 100.5t261 38q170 0 291.5 -54.5t200.5 -142.5t117 -196.5t38 -216.5q0 -86 -17.5 -179.5t-56.5 -183.5t-99.5 -171t-146.5 -143.5t-199.5 -98t-254.5 -35.5q-160 0 -281 50t-204 134t-125 196.5t-42 237.5z M408 606q0 -80 22.5 -150.5t66.5 -123.5t109.5 -85t151.5 -32q121 0 209 55.5t144 138.5t84 181t28 184q0 82 -23.5 152.5t-68 124t-107.5 84t-143 30.5q-125 0 -215.5 -54t-147.5 -137t-83.5 -181.5t-26.5 -186.5z" />
<glyph unicode="P" horiz-adv-x="1265" d="M61 0l269 1380h370q119 0 213.5 -28.5t159 -80.5t98 -125t33.5 -161q0 -111 -37 -202t-111.5 -156.5t-188 -101.5t-267.5 -36q-16 0 -39.5 1.5t-46 3.5t-40 4t-23.5 2l-97 -500h-293zM492 709q10 -2 45.5 -3t64.5 -1q66 0 121 19t95 52t61.5 78t21.5 98q0 37 -13.5 75 t-42 67.5t-73.5 49t-110 19.5q-25 0 -50.5 -1t-31.5 -1z" />
<glyph unicode="Q" d="M102 598q0 78 17.5 169t54.5 180t97.5 171t147.5 144.5t200.5 100.5t261.5 38q170 0 291.5 -54.5t200.5 -142.5t117 -196t38 -217q0 -115 -33 -242t-104.5 -240.5t-188.5 -198.5t-282 -116l24 -230h-246l-22 220q-141 12 -247.5 65t-179.5 136t-110 189.5t-37 223.5z M408 606q0 -66 15 -126t46 -110.5t77 -86t105 -54.5l-12 129h244l12 -120q84 29 146.5 89t102.5 135t59.5 156.5t19.5 155.5q0 82 -23.5 152.5t-68 124t-107.5 84t-143 30.5q-125 0 -215.5 -54t-147.5 -137t-83.5 -181.5t-26.5 -186.5z" />
<glyph unicode="R" horiz-adv-x="1314" d="M61 0l273 1380h420q141 0 236 -34.5t153.5 -91t84 -128t25.5 -147.5q0 -113 -34.5 -186.5t-80.5 -117.5t-92.5 -64.5t-70.5 -28.5l215 -582h-311l-177 535h-243l-103 -535h-295zM502 756q10 -2 53 -5t100 -3q70 0 126.5 17t97.5 47t63.5 70t22.5 87q0 86 -54.5 141 t-185.5 55q-43 0 -86 -2t-59 -4z" />
<glyph unicode="S" horiz-adv-x="1093" d="M-20 29l67 235q27 -10 109 -30.5t213 -20.5q154 0 221 52t67 122q0 63 -48 106.5t-120 73.5l-94 43q-49 23 -95 56.5t-81 76.5t-55.5 97.5t-20.5 120.5q0 98 39 180t111 139t173 89t226 32q160 0 241 -18.5t99 -24.5l-71 -242q-23 10 -92.5 30.5t-184.5 20.5 q-63 0 -106 -15t-71 -37.5t-40 -50.5t-12 -54q0 -35 14 -60.5t37.5 -44t50.5 -32l51 -25.5l88 -39q51 -23 98.5 -54.5t84 -75.5t58 -100.5t21.5 -129.5q0 -94 -36.5 -179.5t-112.5 -150t-191.5 -102t-273.5 -37.5q-174 0 -258 20t-106 29z" />
<glyph unicode="T" horiz-adv-x="1026" d="M102 1163l43 217h983l-43 -217h-346l-225 -1163h-291l226 1163h-347z" />
<glyph unicode="U" horiz-adv-x="1527" d="M143 416q0 63 13.5 120.5t23.5 108.5q2 12 9.5 50t18.5 92.5t24.5 120t25.5 130.5q31 156 66 342h290q-37 -190 -67 -348q-12 -68 -25.5 -133t-25 -120.5t-18.5 -94.5t-9 -51q-10 -51 -19.5 -100.5t-9.5 -90.5q0 -102 66.5 -164.5t181.5 -62.5q86 0 142.5 27.5t92 72.5 t55 103.5t32.5 120.5l164 841h292l-172 -884q-23 -117 -68.5 -212.5t-119.5 -163t-179.5 -104t-248.5 -36.5q-131 0 -230.5 35.5t-167 96t-102.5 139.5t-35 165z" />
<glyph unicode="V" horiz-adv-x="1398" d="M164 1380h301l137 -1093h12l557 1093h310l-742 -1380h-372z" />
<glyph unicode="W" horiz-adv-x="2041" d="M184 1380h267l47 -1069h8l469 1069h350l68 -1034h10l428 1034h272l-600 -1380h-329l-80 1063h-9l-464 -1063h-363z" />
<glyph unicode="X" horiz-adv-x="1314" d="M-102 0l591 700l-323 680h323l197 -452l363 452h327l-551 -653l344 -727h-329l-211 500l-383 -500h-348z" />
<glyph unicode="Y" horiz-adv-x="1271" d="M143 1380h308l178 -665l444 665h301l-655 -960l-82 -420h-291l80 420z" />
<glyph unicode="Z" horiz-adv-x="1122" d="M-41 0l37 184l756 969h-576l43 227h944l-37 -188l-751 -965h614l-43 -227h-987z" />
<glyph unicode="[" horiz-adv-x="841" d="M0 -473l362 1853h480l-43 -217h-221l-277 -1421h221l-43 -215h-479z" />
<glyph unicode="\" horiz-adv-x="929" d="M330 1380h268l270 -1380h-274z" />
<glyph unicode="]" horiz-adv-x="837" d="M-82 -473l41 215h221l275 1421h-222l43 217h480l-361 -1853h-477z" />
<glyph unicode="^" horiz-adv-x="1030" d="M217 801l432 579h271l204 -579h-256l-118 352l-267 -352h-266z" />
<glyph unicode="_" horiz-adv-x="1040" d="M-94 -473l20 111h1047l-21 -111h-1046z" />
<glyph unicode="`" horiz-adv-x="548" d="M350 1380h221l105 -301h-125z" />
<glyph unicode="a" horiz-adv-x="1181" d="M72 393q0 145 49 262t138 200t211 128t267 45q72 0 136.5 -6t117.5 -13.5t92 -15.5t58 -14q-33 -168 -60 -307q-12 -59 -23 -118.5t-20.5 -109t-16.5 -86.5t-9 -49q-10 -47 -18.5 -94t-14.5 -90t-10 -76t-4 -49h-213q-25 0 -32 11.5t-7 27.5v18.5t2 20.5t4 22h-8 q-12 -14 -30.5 -34.5t-48.5 -40t-74 -32.5t-107 -13q-84 0 -153 30.5t-120 86t-78.5 131t-27.5 165.5zM350 416q0 -43 10.5 -83t34 -71t59 -48t85.5 -17q86 0 143 67.5t86 220.5q4 16 14.5 67.5t20.5 106.5q12 63 26 140q-16 4 -47.5 11t-85.5 7q-68 0 -130 -28.5t-110 -81 t-77 -127t-29 -164.5z" />
<glyph unicode="b" horiz-adv-x="1210" d="M51 29l281 1441h276l-102 -520h8q4 4 21.5 18.5t46 29t69.5 25.5t94 11q96 0 170 -36.5t123 -95t75 -134.5t26 -152q0 -145 -43 -262.5t-126 -200.5t-205 -128t-282 -45q-152 0 -268.5 17t-163.5 32zM362 209q29 -10 67 -14.5t73 -4.5q57 0 117.5 27t110.5 77t82 122.5 t32 165.5q0 45 -10.5 88t-32 75.5t-58.5 52t-88 19.5q-98 0 -151 -77.5t-80 -217.5z" />
<glyph unicode="c" horiz-adv-x="987" d="M72 457q0 123 48 229.5t132 183t196.5 120.5t241.5 44q68 0 122 -8t95 -18.5t66.5 -19.5t34.5 -13q-2 -12 -8.5 -37t-12.5 -52.5t-12 -54t-10 -43.5q-4 -12 -9.5 -21t-21.5 -9q-14 0 -31.5 9t-44.5 20.5t-66.5 20.5t-97.5 9q-59 0 -117.5 -23.5t-105.5 -66.5 t-75.5 -106.5t-28.5 -143.5q0 -61 18 -112.5t54 -88t86 -58t112 -21.5q35 0 65.5 7t55 16t43 17.5t28.5 8.5q12 0 18.5 -7.5t6.5 -17.5t-4 -37.5t-9 -58.5t-11.5 -59.5t-8.5 -40.5q-18 -8 -87.5 -26.5t-178.5 -18.5q-117 0 -207 37.5t-151.5 102t-93 151.5t-31.5 186z" />
<glyph unicode="d" horiz-adv-x="1214" d="M72 432q0 135 51 247t137 190.5t198.5 121.5t235.5 43q33 0 66 -3t59.5 -7t46 -7t25.5 -5l90 458h274q-57 -305 -106 -552q-20 -104 -41 -208t-37 -188t-27.5 -141t-13.5 -72q-16 -78 -28.5 -164t-20.5 -145h-217q-35 0 -35 35q0 6 1 18.5t3 24.5q2 14 4 31h-8 q-4 -6 -22.5 -28t-52 -44.5t-83 -39.5t-114.5 -17q-96 0 -168 37.5t-120 100t-72.5 144.5t-24.5 170zM367 428q0 -45 10 -87t33.5 -73.5t58.5 -51t84 -19.5q78 0 142.5 67.5t92.5 218.5q4 16 13.5 67.5t19.5 106.5q12 63 27 140q-10 4 -52.5 12t-97.5 8q-63 0 -122.5 -28.5 t-105.5 -80t-74.5 -123t-28.5 -157.5z" />
<glyph unicode="e" horiz-adv-x="1159" d="M72 471q0 133 47 237.5t123.5 177t177 110.5t209.5 38q121 0 208 -35.5t142 -91t81.5 -124t26.5 -134.5q0 -70 -12 -123t-16 -69h-694q0 -49 14 -96.5t46 -85t84 -60t128 -22.5q49 0 87 10t66.5 22.5t48 22.5t33.5 10q29 0 29 -31q0 -16 -4 -45.5t-10 -61.5t-11.5 -58.5 t-7.5 -34.5q-29 -10 -102.5 -28.5t-190.5 -18.5t-211 38.5t-158.5 106.5t-99 157t-34.5 189zM383 614h416q0 8 2 22.5t2 31.5q0 25 -9.5 53.5t-29 53t-53 40.5t-82.5 16q-78 0 -125 -29.5t-72.5 -67.5t-36 -74t-12.5 -46z" />
<glyph unicode="f" horiz-adv-x="825" d="M102 788l45 224h181q2 16 6 30q4 12 6 25.5t4 24.5q43 221 172 319t330 98q84 0 136 -11t69 -17q-4 -14 -12.5 -41t-16.5 -54q-8 -31 -21 -65q-4 -16 -11 -27.5t-23 -11.5t-46 7t-83 7q-100 0 -151.5 -59t-70.5 -156q-2 -10 -4 -21l-4 -22q-2 -12 -4 -26h264l-43 -224 h-264q-25 -129 -52.5 -266t-49.5 -254q-27 -137 -51 -268h-277q25 129 51 264q23 117 49.5 256t53.5 268h-183z" />
<glyph unicode="g" horiz-adv-x="1193" d="M20 -461q4 29 9 55q4 23 7 47.5t7 41.5q12 59 53 59q18 0 37 -4t46.5 -9t68.5 -9.5t104 -4.5q49 0 99.5 11.5t93.5 38t75.5 67.5t45.5 102q10 51 16 89q4 23 8 40h-8q-4 -4 -20.5 -18t-44 -28.5t-67.5 -25.5t-93 -11q-92 0 -163 33.5t-120 90t-74.5 130t-25.5 155.5 q0 152 49 270.5t138 200.5t213 125t271 43q59 0 120 -5t114 -12t96 -16.5t68 -15.5q-39 -203 -76 -391q-16 -80 -32.5 -164t-32 -164t-28.5 -150.5t-24 -121.5q-23 -117 -62.5 -208t-108 -154.5t-170 -96.5t-249.5 -33q-145 0 -225 17.5t-115 25.5zM352 424q0 -45 10.5 -86 t32 -73t57 -50t89.5 -18q98 0 151 78t80 217l59 307q-29 10 -66.5 14t-72.5 4q-57 0 -117.5 -26.5t-109.5 -76.5t-81 -124t-32 -166z" />
<glyph unicode="h" horiz-adv-x="1202" d="M51 0l285 1470h276l-100 -520h8q4 4 20.5 18.5t46 29t72.5 25.5t99 11q90 0 156.5 -28.5t109.5 -73.5t64.5 -101.5t21.5 -113.5q0 -39 -5 -78t-13 -80q-16 -86 -36 -183t-36 -181q-20 -98 -37 -195h-274q25 135 47 248q8 47 18 95t17.5 88t13.5 69.5t8 42.5q6 29 11 62.5 t5 62.5q0 61 -40.5 107t-122.5 46q-98 0 -153.5 -75.5t-78.5 -192.5q-4 -16 -10 -48t-14.5 -74t-18.5 -90t-18 -95q-23 -113 -47 -246h-275z" />
<glyph unicode="i" horiz-adv-x="577" d="M51 0l197 1012h274l-196 -1012h-275zM287 1221l55 276h276l-55 -276h-276z" />
<glyph unicode="j" horiz-adv-x="606" d="M-328 -481q4 14 10.5 41.5t14.5 56.5q8 33 18 70q4 16 10.5 26.5t26.5 10.5q14 0 44 -8.5t71 -8.5q76 0 125 43t65 129q6 33 19.5 100.5t31 153.5t37 184.5t37.5 196.5q45 229 97 498h276q-51 -252 -94 -475q-18 -96 -38 -193.5t-36 -186.5t-31.5 -164t-23.5 -122 q-74 -379 -453 -379q-94 0 -142 10.5t-65 16.5zM315 1219l56 278h276l-53 -278h-279z" />
<glyph unicode="k" horiz-adv-x="1069" d="M51 0l287 1470h276l-172 -886l371 428h317l-425 -473l278 -539h-307l-244 532l-104 -532h-277z" />
<glyph unicode="l" horiz-adv-x="571" d="M51 0l285 1468h276l-284 -1468h-277z" />
<glyph unicode="m" horiz-adv-x="1802" d="M41 0q33 166 59 309q12 61 23.5 123t23 115t19.5 95t12 65q16 88 28.5 170t18.5 135h211q37 0 37 -33q0 -8 -2 -23.5t-6 -31.5q-4 -20 -8 -43h8q6 10 23.5 35.5t50 51t81 46t113.5 20.5q82 0 134.5 -23.5t84 -52t46 -57.5l18.5 -37q6 12 26.5 40t58.5 56.5t95 51 t139 22.5q98 0 169 -30.5t117 -77.5t67.5 -104.5t21.5 -110.5q0 -27 -2 -52.5t-8 -59.5t-14.5 -77t-20.5 -104q-16 -76 -29.5 -150.5t-25.5 -134.5q-14 -70 -27 -133h-274l98 508q8 41 15.5 86t7.5 86q0 63 -39 102t-109 39q-80 0 -138.5 -66.5t-84.5 -195.5 q-4 -25 -11.5 -61.5t-15.5 -80.5t-18 -92.5t-19 -93.5q-23 -109 -45 -231h-276q16 90 35 182q16 78 32.5 166t30.5 160q8 41 16.5 84t8.5 88q0 53 -33 96t-109 43q-98 0 -153.5 -75.5t-77.5 -192.5q-4 -14 -10 -45t-13.5 -72t-17.5 -89t-18 -97q-23 -113 -48 -248h-276z" />
<glyph unicode="n" horiz-adv-x="1191" d="M41 0q35 176 63 324q12 61 24.5 123.5t22 114.5t16.5 90t11 53q16 78 28.5 162.5t20.5 144.5h211q23 0 30 -11.5t7 -19.5t-3 -24.5t-7 -32.5q-4 -20 -8 -43h10q4 8 22.5 33.5t52 52t84 47t119.5 20.5q90 0 157 -28.5t111 -73.5t65.5 -101.5t21.5 -111.5q0 -49 -7.5 -94 t-15.5 -80q-16 -82 -33.5 -176.5t-33.5 -175.5q-18 -96 -37 -193h-277q18 102 39 201q16 84 33.5 175t32.5 156q6 33 12 72t6 66q0 57 -33.5 104t-115.5 47q-78 0 -151 -72.5t-101 -226.5q-10 -57 -27.5 -144t-34.5 -173l-41 -205h-274z" />
<glyph unicode="o" horiz-adv-x="1206" d="M72 434q0 123 40 232.5t115.5 191.5t184 130t245.5 48q119 0 209 -37.5t149.5 -100t89.5 -145.5t30 -171q0 -123 -40 -232.5t-116 -191.5t-184.5 -130t-245.5 -48q-121 0 -210 37.5t-148.5 100t-89 144.5t-29.5 172zM362 449q0 -47 10.5 -91.5t35 -80t63.5 -57t96 -21.5 q55 0 105.5 29.5t88.5 79.5t60.5 118t22.5 141q0 45 -10.5 90t-35 81t-63.5 57.5t-96 21.5q-55 0 -105.5 -29.5t-88 -80t-60.5 -117.5t-23 -141z" />
<glyph unicode="p" horiz-adv-x="1218" d="M-41 -473q59 311 109 561q20 106 40.5 210.5t37 190.5t27.5 143.5t15 72.5q14 78 27.5 162.5t20.5 144.5h215q35 0 34 -31q0 -10 -2 -23.5t-4 -27.5q-2 -16 -4 -35h8q6 8 23.5 30.5t51.5 47t84 43t122 18.5q104 0 177 -36.5t119 -96t66.5 -134.5t20.5 -153 q0 -145 -51.5 -261.5t-135 -199.5t-191 -128t-220.5 -45q-104 0 -157.5 14t-61.5 18l-94 -485h-277zM369 217q6 -2 44 -11t97 -9q74 0 136.5 30.5t107.5 82.5t70.5 123t25.5 153q0 43 -10.5 84t-32 74.5t-56 54t-83.5 20.5q-96 0 -155.5 -74.5t-82.5 -212.5q-4 -16 -14 -67 t-21 -107q-12 -66 -26 -141z" />
<glyph unicode="q" horiz-adv-x="1198" d="M72 397q0 145 46 263t133 201t214 128t291 45q80 0 149.5 -7t122.5 -16.5t86 -18.5t43 -13l-280 -1452h-277l105 534h-9q-10 -8 -26.5 -22t-43 -27.5t-64.5 -22.5t-89 -9q-98 0 -174 34.5t-126 92t-75.5 133t-25.5 157.5zM365 420q0 -37 8 -76t29.5 -71.5t58.5 -54 t92 -21.5q53 0 93 25.5t67.5 68.5t46 99t31.5 118l57 293q-4 4 -43 14t-98 10q-78 0 -140.5 -31.5t-107.5 -87t-69.5 -129t-24.5 -157.5z" />
<glyph unicode="r" horiz-adv-x="847" d="M41 0q35 178 63 328q12 63 24.5 126.5t23 119t18.5 96.5t12 59q8 39 14.5 80t12.5 80t10 71t8 52h199q25 0 32 -9.5t7 -25.5q0 -18 -6 -57t-10 -60h8q4 8 22.5 37t54 59.5t88 54t126.5 23.5q61 0 102 -13t49 -17q-2 -10 -6 -35t-10 -50.5t-10.5 -48t-6.5 -28.5 q-10 -43 -39 -43q-16 0 -41.5 9t-78.5 9q-49 0 -94.5 -17.5t-84.5 -57.5t-69.5 -105.5t-48.5 -161.5q-6 -33 -21.5 -110.5t-32.5 -159.5q-18 -96 -39 -205h-276z" />
<glyph unicode="s" horiz-adv-x="845" d="M-31 35q2 12 9.5 35.5t14.5 49t14 49.5t11 36q4 14 11.5 22.5t23.5 8.5q12 0 32.5 -7.5t51.5 -15.5t71 -15.5t91 -7.5q92 0 136 32t44 77q0 25 -16.5 49.5t-75.5 52.5l-59 29q-29 12 -66 34.5t-70.5 55.5t-57 78t-23.5 102q0 61 24.5 121t76.5 108t135 76.5t202 28.5 q123 0 195.5 -19.5t101.5 -29.5q-2 -10 -8.5 -31.5t-13.5 -45t-14 -46t-9 -33.5q-8 -23 -16.5 -30.5t-22.5 -7.5q-25 0 -84.5 22.5t-145.5 22.5q-74 0 -105.5 -26t-31.5 -67t31 -66.5t82 -47.5l63 -29q104 -49 148.5 -120.5t44.5 -157.5q0 -72 -32 -134.5t-91 -108.5 t-147 -72.5t-201 -26.5q-135 0 -221 23.5t-103 31.5z" />
<glyph unicode="t" horiz-adv-x="847" d="M102 791l43 221h183l53 280h278l-55 -280h264l-43 -224h-264l-76 -389q-4 -27 -8 -50t-4 -46q0 -106 113 -106q27 0 59.5 7t42.5 7q27 0 27 -29q0 -10 -2 -35.5t-5 -54.5t-7.5 -55.5t-6.5 -36.5q-8 -4 -60.5 -12t-111.5 -8q-84 0 -146.5 22.5t-104.5 61t-62.5 90 t-20.5 108.5q0 47 10.5 96.5t16.5 79.5l70 353h-183z" />
<glyph unicode="u" horiz-adv-x="1191" d="M92 295q0 49 7 93t16 79q16 80 33.5 175t33.5 177q18 96 39 193h275q-18 -102 -39 -201q-16 -84 -35 -175t-31 -157q-6 -33 -12 -71.5t-6 -63.5q0 -29 8 -56.5t25.5 -49t46 -33.5t69.5 -12q39 0 78 18t73 55t61.5 93.5t41.5 132.5q10 55 26.5 142t33.5 173q20 98 41 205 h274q-35 -178 -64 -324q-12 -61 -24 -123.5t-22.5 -115t-17.5 -90t-9 -50.5q-16 -78 -28.5 -164t-20.5 -145h-209q-25 0 -32 11.5t-7 21.5q0 8 2 24.5t6 32.5q4 20 10 43h-8q-6 -8 -23.5 -33.5t-51.5 -52.5t-85 -48.5t-121 -21.5q-90 0 -156.5 29t-110.5 74t-65.5 102.5 t-21.5 112.5z" />
<glyph unicode="v" horiz-adv-x="1060" d="M92 1012h283l108 -744h11l391 744h278l-575 -1012h-314z" />
<glyph unicode="w" d="M92 1012h256l51 -699h15l329 699h304l81 -699h15l317 699h262l-481 -1014h-336l-61 692h-8l-326 -692h-334z" />
<glyph unicode="x" horiz-adv-x="1040" d="M-102 0l475 502l-244 510h295l137 -322l258 322h303l-428 -477l258 -535h-311l-139 330l-283 -330h-321z" />
<glyph unicode="y" horiz-adv-x="1077" d="M-205 -477q8 29 25.5 84t32.5 94q10 29 38 29q16 0 52.5 -9.5t79.5 -9.5q68 0 122 37t113 135q16 25 27.5 47.5t21.5 38.5q10 20 21 35l-228 1008h283l139 -639h10l342 639h295q-137 -233 -256 -443q-51 -90 -104 -182t-100 -176t-87 -155.5t-67 -121.5 q-47 -90 -94 -169.5t-106.5 -139t-140.5 -95.5t-198 -36q-86 0 -145 11.5t-76 17.5z" />
<glyph unicode="z" horiz-adv-x="933" d="M-31 -2l31 158l557 659h-397l39 197h766l-29 -146l-561 -669h436l-39 -199h-803z" />
<glyph unicode="{" horiz-adv-x="882" d="M41 377l31 162q63 0 107 16t73 45t45 64.5t25 76.5l53 267q12 92 48 162.5t89 116.5t121.5 69.5t144.5 23.5h105l-41 -217q-80 0 -138.5 -40t-76.5 -138l-41 -213q-6 -35 -19.5 -83t-41 -94t-72.5 -84t-115 -52l-2 -6q84 -18 112.5 -72.5t28.5 -116.5q0 -20 -3 -45.5 t-6 -49.5t-7 -41t-4 -22q-4 -18 -6 -29t-4.5 -23.5t-6.5 -31t-10 -55.5q-2 -10 -8 -39.5t-6 -54.5q0 -72 40 -101.5t107 -29.5l-41 -215h-92q-59 0 -111.5 14.5t-90.5 45t-60.5 79.5t-22.5 121q0 20 3.5 46t7.5 49.5t8 43t6 31.5l33 174q4 12 9 48t5 65q0 59 -43 96t-133 37 z" />
<glyph unicode="|" horiz-adv-x="647" d="M-33 -473l361 1853h258l-361 -1853h-258z" />
<glyph unicode="}" horiz-adv-x="843" d="M-82 -473l41 215q80 0 138.5 41t76.5 139q10 55 16.5 87t11.5 52.5t8 37t7 42.5q6 35 19.5 82t41 93t71.5 83t116 52l2 10q-76 18 -109.5 71.5t-33.5 112.5q0 41 5 69.5t9 55.5l33 170q2 10 7 38t5 52q0 72 -38 102.5t-107 30.5l41 217h106q127 0 198.5 -61.5 t71.5 -196.5q0 -51 -8 -93t-10 -54l-47 -236q-6 -37 -6 -69q2 -55 43 -94t135 -39l-31 -162q-61 0 -105 -16.5t-74 -45t-46.5 -65.5t-24.5 -76l-55 -274q-35 -180 -142.5 -275.5t-260.5 -95.5h-105z" />
<glyph unicode="~" horiz-adv-x="1466" d="M205 555q16 14 49 37.5t77 46.5t99 38t119 15q80 0 130 -19.5t92 -42t85 -42t105 -19.5q37 0 73.5 12.5t67.5 29t53.5 32.5t32.5 23l74 -164q-12 -14 -43 -39t-75 -48.5t-101.5 -41t-124.5 -17.5q-74 0 -126.5 19.5t-96.5 42t-88 42t-101 19.5q-37 0 -71 -9t-61.5 -22.5 t-49 -29t-33.5 -25.5z" />
<glyph unicode="&#xa1;" horiz-adv-x="702" d="M0 -440h295l143 975h-213zM242 692l49 248h248l-50 -248h-247z" />
<glyph unicode="&#xa2;" horiz-adv-x="1179" d="M164 453q0 115 42 214t115.5 175t173 124t214.5 60l34 180h228l-39 -190q70 -10 112.5 -25.5t53.5 -21.5q-2 -12 -7.5 -37t-11.5 -52.5t-13 -54t-11 -43.5q-4 -10 -9.5 -19t-19.5 -9t-31.5 9t-44 20.5t-66.5 20.5t-98 9q-59 0 -117.5 -23.5t-104.5 -67.5t-74.5 -107.5 t-28.5 -143.5q0 -121 71.5 -199.5t196.5 -78.5q33 0 63.5 7t56 16t44 16.5t29.5 7.5q23 0 22 -23q0 -10 -4 -37.5t-9 -58.5t-10.5 -59.5t-7.5 -41.5q-16 -6 -63 -19t-119 -21l-26 -140h-226l29 152q-84 20 -148.5 63t-107.5 103.5t-65.5 135.5t-22.5 159z" />
<glyph unicode="&#xa3;" horiz-adv-x="1085" d="M0 0l37 186q59 33 108.5 68t86 83t60 110.5t32.5 150.5h-203l39 203h162q-2 18 -8.5 72.5t-6.5 109.5q0 113 46 191.5t120 129t167 74t187 23.5q111 0 177.5 -14.5t80.5 -18.5l-59 -213q-10 4 -61.5 17.5t-128.5 13.5q-106 0 -177 -64.5t-71 -169.5q0 -39 2 -84t6 -67 h258l-39 -203h-231q-14 -74 -33 -126t-43.5 -93t-57 -77t-77.5 -75h495l-43 -227h-825z" />
<glyph unicode="&#xa4;" horiz-adv-x="1349" d="M168 174l178 145q-51 94 -51 201q0 193 117 328l-97 117l174 145l105 -137q88 37 207 37q76 0 137 -16.5t109 -45.5l172 152l135 -168l-162 -135q29 -51 42 -104.5t13 -100.5q0 -98 -33.5 -184t-93.5 -152l88 -106l-174 -148l-98 131q-86 -33 -199 -33q-76 0 -138 17.5 t-112 48.5l-184 -158zM530 539q0 -41 14.5 -80t43 -69t69.5 -48t97 -18q55 0 102 20.5t81 54t53.5 78.5t19.5 96q0 41 -14.5 79t-42 68t-68.5 48t-97 18q-51 0 -97 -17t-82 -50t-57.5 -79t-21.5 -101z" />
<glyph unicode="&#xa5;" horiz-adv-x="1378" d="M123 145l35 189h299l24 121h-299l37 186h189l-218 739h308l178 -665l450 665h293l-501 -739h169l-36 -186h-279l-22 -121h276l-37 -189h-276l-29 -145h-293l29 145h-297z" />
<glyph unicode="&#xa6;" horiz-adv-x="663" d="M-25 -473l156 809h264l-155 -809h-265zM176 561l162 819h264l-162 -819h-264z" />
<glyph unicode="&#xa7;" horiz-adv-x="993" d="M-37 -438l72 205q4 -4 23.5 -15.5t51 -24t73.5 -21.5t89 -9q92 0 136.5 41t44.5 92q0 55 -33 97t-74 83q-16 16 -41.5 43t-46.5 45q-70 70 -112 152t-42 192q0 88 37 154t86 110t98.5 69.5t73.5 37.5q-10 10 -25.5 30.5t-29.5 51.5t-25.5 71t-11.5 93q0 68 30 130 t86 109.5t137 75t183 27.5q80 0 141.5 -8.5t106.5 -19.5t73 -21.5t38 -16.5l-72 -205q-4 2 -23.5 13.5t-52 24t-74.5 22.5t-89 10q-92 0 -135.5 -42t-43.5 -91q0 -59 33 -100t74 -82l86 -86q70 -70 113 -153t43 -193q0 -88 -37 -152.5t-86.5 -109t-98 -70t-75.5 -37.5 q8 -12 24.5 -33.5t31.5 -52.5t26.5 -72t11.5 -90q0 -68 -30 -129t-86 -108.5t-137 -75t-183 -27.5q-160 0 -248 26.5t-111 39.5zM391 459q0 -59 24.5 -107.5t78.5 -99.5l36 -35q51 37 97.5 90t46.5 129q0 59 -25.5 107.5t-79.5 101.5l-37 35q-49 -37 -95 -91t-46 -130z" />
<glyph unicode="&#xa8;" horiz-adv-x="798" d="M307 1163l43 217h217l-43 -217h-217zM725 1163h217l43 217h-217z" />
<glyph unicode="&#xa9;" horiz-adv-x="927" d="M205 1069q0 72 28.5 132.5t75.5 105.5t109.5 69.5t130.5 24.5q76 0 131 -26.5t92 -68.5t55.5 -94.5t18.5 -103.5q0 -72 -29 -132.5t-77 -104.5t-109.5 -68.5t-128.5 -24.5q-70 0 -125 23.5t-93 63.5t-58.5 93.5t-20.5 110.5zM268 1061q0 -43 15.5 -83t45 -70.5t73.5 -50 t102 -19.5q59 0 110.5 21.5t88 59t58 89t21.5 110.5q0 43 -16 84t-46 72t-74 49t-99 18q-61 0 -112.5 -22.5t-88.5 -60t-57.5 -89t-20.5 -108.5zM365 1075q0 33 11 63.5t33.5 55.5t56.5 39t81 14t69.5 -8t26.5 -12l-27 -53q-6 4 -24.5 12t-48.5 8q-47 0 -79 -34t-32 -87 q0 -35 24.5 -63.5t69.5 -28.5q23 0 38.5 5t19.5 7l6 -55q-4 -2 -24.5 -6t-51.5 -4q-78 0 -113.5 44t-35.5 103z" />
<glyph unicode="&#xaa;" horiz-adv-x="886" d="M205 459h579l31 153h-579zM270 920q0 63 28 106t75 68.5t108.5 37t126.5 11.5h123q2 6 2 14v19q0 12 -6 26.5t-21.5 26.5t-42 21.5t-69.5 9.5q-33 0 -61.5 -7.5t-50 -14.5t-37 -14t-23.5 -7q-16 0 -16 16q0 10 2 29.5t5 39t5 37t4 23.5q6 4 63.5 20.5t143.5 16.5 q80 0 134 -19.5t88 -48t48 -63.5t14 -68q0 -31 -5 -62.5t-9 -45.5l-37 -195q-10 -43 -15 -95t-7 -75h-146q-23 0 -22 21v13t2 19t4 23h-8q0 -4 -10.5 -17.5t-32 -30t-56 -28.5t-84.5 -12q-53 0 -93 18.5t-67.5 47t-42 65.5t-14.5 74zM463 926q0 -31 22.5 -57.5t69.5 -26.5 q31 0 56.5 16t44 40t30.5 51.5t16 51.5q0 4 5 21q2 8 2 14h-74q-90 0 -131 -31.5t-41 -78.5z" />
<glyph unicode="&#xab;" horiz-adv-x="1296" d="M82 483l526 455l129 -139l-372 -338l231 -322l-166 -121zM559 483l524 455l131 -139l-374 -338l231 -322l-164 -121z" />
<glyph unicode="&#xac;" horiz-adv-x="1372" d="M123 422l39 207h1046l-116 -604h-275l78 397h-772z" />
<glyph unicode="&#xad;" horiz-adv-x="917" d="M123 422l39 207h633l-39 -207h-633z" />
<glyph unicode="&#xae;" horiz-adv-x="925" d="M205 1065q0 72 28.5 132t75.5 105.5t109.5 70t130.5 24.5q74 0 129 -27t92 -68.5t55.5 -94t18.5 -103.5q0 -72 -29 -132.5t-76 -104.5t-108.5 -68.5t-128.5 -24.5q-72 0 -126 23.5t-93 63.5t-58.5 93.5t-19.5 110.5zM268 1057q0 -43 15.5 -83t44 -71t73 -50t103.5 -19 t110.5 21.5t88 59t58 89t21.5 110.5q0 43 -16 84t-47 71.5t-75 49t-99 18.5q-61 0 -112.5 -22.5t-87.5 -60t-56.5 -89t-20.5 -108.5zM403 936l62 311h94q59 0 82 -26.5t23 -59.5q0 -27 -10.5 -43t-23 -25.5t-24.5 -13.5t-16 -4l49 -139h-68l-43 129h-32l-25 -129h-68z M504 1114q4 -2 11 -2h13q29 0 45.5 13.5t16.5 33.5q0 16 -10.5 28.5t-38.5 12.5q-10 0 -14.5 -1t-6.5 -1z" />
<glyph unicode="&#xaf;" horiz-adv-x="616" d="M315 1204l35 176h453l-35 -176h-453z" />
<glyph unicode="&#xb0;" horiz-adv-x="669" d="M205 1110q0 59 20.5 112.5t59.5 93.5t94 62.5t125 22.5q72 0 122 -24.5t80.5 -61.5t45 -81t14.5 -81q0 -61 -21.5 -114.5t-60.5 -93.5t-94 -62.5t-123 -22.5q-66 0 -115 22.5t-81.5 58.5t-49 81t-16.5 88zM344 1120q0 -47 33 -87t98 -40q66 0 109 44t43 104 q0 49 -32.5 88t-98.5 39q-59 0 -105.5 -40t-46.5 -108z" />
<glyph unicode="&#xb1;" horiz-adv-x="1435" d="M82 0l39 207h1050l-38 -207h-1051zM201 618l41 207h385l63 326h277l-64 -326h389l-41 -207h-389l-63 -327h-277l64 327h-385z" />
<glyph unicode="&#xb2;" horiz-adv-x="563" d="M0 690l20 107q41 37 76 69q29 29 57.5 53.5t39.5 34.5q84 80 126.5 130.5t42.5 103.5q0 29 -24.5 59.5t-83.5 30.5q-45 0 -78 -15.5t-43 -23.5l-31 111q12 8 57.5 24.5t123.5 16.5q55 0 96 -16.5t68.5 -43t41 -60.5t13.5 -67q0 -47 -17.5 -86t-43 -71.5t-55.5 -61.5 t-54 -53l-129 -129h241l-22 -113h-422z" />
<glyph unicode="&#xb3;" horiz-adv-x="561" d="M0 700l14 113q10 -4 49 -13t80 -9q29 0 57.5 8t52 23.5t38 38t14.5 50.5q0 25 -24.5 52.5t-90.5 27.5h-63l20 107h31q70 0 121 28.5t51 73.5q0 27 -25.5 52.5t-84.5 25.5q-41 0 -73 -12.5t-40 -18.5l-29 105q14 8 57.5 23.5t116.5 15.5q104 0 155.5 -51.5t51.5 -120.5 q0 -47 -18.5 -78t-42 -50.5t-46 -29.5t-30.5 -12v-9q8 -4 23.5 -12t31 -24.5t26.5 -42t11 -64.5q0 -104 -81 -160.5t-212 -56.5q-53 0 -92 8t-49 12z" />
<glyph unicode="&#xb4;" horiz-adv-x="548" d="M291 1079l223 301h221l-321 -301h-123z" />
<glyph unicode="&#xb5;" horiz-adv-x="1349" d="M-20 -504l294 1516h275q-20 -102 -39 -201q-16 -84 -33.5 -175t-30.5 -157l-13 -71.5t-7 -63.5q0 -59 34 -105t115 -46q39 0 78 18t73 55t61.5 93.5t41.5 132.5q10 55 27.5 142t34.5 173q18 98 39 205h274q-33 -178 -61 -324q-12 -61 -24.5 -123.5l-23 -115t-17.5 -90 t-9 -50.5q-16 -78 -28.5 -164t-20.5 -145h-211q-23 0 -30 11.5t-7 21.5q0 8 2 24.5t6 32.5q4 20 11 43h-11q-6 -8 -23.5 -33.5t-51 -52.5t-85 -48.5t-120.5 -21.5q-78 0 -148 27l-98 -508h-274z" />
<glyph unicode="&#xb6;" horiz-adv-x="1290" d="M215 989q0 125 48 221.5t138.5 163t219.5 100t290 33.5h508l-37 -188h-141l-330 -1696h-186l330 1696h-156l-330 -1696h-188l194 1002q-41 4 -102 23.5t-118.5 61.5t-98.5 109.5t-41 169.5z" />
<glyph unicode="&#xb7;" horiz-adv-x="622" d="M164 401l47 248h248l-47 -248h-248z" />
<glyph unicode="&#xb8;" horiz-adv-x="503" d="M-6 -430q86 18 151.5 60t65.5 104q0 31 -20.5 52t-67.5 21h-57l92 193h125l-82 -109q12 4 43 5q59 0 95 -43t36 -101q0 -55 -31 -103t-80 -84t-109.5 -58.5t-117.5 -30.5z" />
<glyph unicode="&#xb9;" horiz-adv-x="460" d="M82 1202l4 103q55 6 108.5 30.5t79.5 55.5h105l-135 -701h-129l106 557q-27 -16 -67.5 -28.5t-71.5 -16.5z" />
<glyph unicode="&#xba;" horiz-adv-x="905" d="M205 459l31 155h579l-31 -155h-579zM258 1010q0 80 25.5 150.5t75 123.5t119 84t159.5 31q78 0 136 -24.5t96 -64.5t57.5 -93.5t19.5 -110.5q0 -80 -25.5 -150.5t-74.5 -125t-120 -85t-159 -30.5q-78 0 -136 24.5t-96 65.5t-57.5 94t-19.5 111zM446 1018q0 -29 7.5 -58.5 t23 -52t41 -37t62.5 -14.5t68.5 19.5t56 52.5t39 76t14.5 92q0 31 -7.5 59.5t-22.5 52t-40.5 38t-62.5 14.5t-69 -19.5t-56.5 -53.5t-39 -77t-14.5 -92z" />
<glyph unicode="&#xbb;" horiz-adv-x="1296" d="M82 168l375 340l-234 321l166 121l348 -467l-524 -454zM559 168l373 340l-232 321l166 121l348 -467l-526 -454z" />
<glyph unicode="&#xbc;" horiz-adv-x="1413" d="M190 0l1094 1380h141l-1091 -1380h-144zM350 1200l4 105q57 6 111.5 30.5t79.5 53.5h102l-135 -701h-129l109 557q-27 -16 -67 -28.5t-75 -16.5zM817 291l342 399h178l-82 -416h109l-21 -112h-110l-31 -162h-129l33 162h-279zM932 276h194l58 289h-8z" />
<glyph unicode="&#xbd;" horiz-adv-x="1433" d="M190 0l1094 1380h141l-1091 -1380h-144zM350 1200l4 105q57 6 111.5 30.5t79.5 53.5h102l-135 -701h-129l109 557q-27 -16 -67 -28.5t-75 -16.5zM909 0l21 106q41 37 76 70q29 29 57.5 53.5t38.5 34.5q84 80 127 130t43 104q0 29 -24.5 59.5t-84.5 30.5 q-45 0 -77.5 -15.5t-43.5 -23.5l-30 110q12 8 57 24.5t123 16.5q55 0 96 -16t68.5 -43t41 -60.5t13.5 -66.5q0 -47 -17.5 -86t-43 -71.5t-55 -61.5t-54.5 -53l-129 -129h242l-23 -113h-422z" />
<glyph unicode="&#xbe;" horiz-adv-x="1527" d="M276 700l15 113q10 -4 49 -13t80 -9q29 0 57.5 8t52 23.5t38 38t14.5 50.5q0 25 -25 52.5t-90 27.5h-64l21 107h31q70 0 121 28.5t51 73.5q0 27 -26 52.5t-85 25.5q-41 0 -72.5 -12.5t-40.5 -18.5l-28 105q14 8 57 23.5t117 15.5q104 0 155.5 -51.5t51.5 -120.5 q0 -47 -18.5 -78t-42 -50.5t-46 -29.5t-31.5 -12v-9q8 -4 23.5 -12t31 -24.5t27 -42t11.5 -64.5q0 -104 -81 -160.5t-212 -56.5q-53 0 -92 8t-50 12zM285 0l1093 1380h142l-1092 -1380h-143zM868 291l11 -129h278l-33 -162h129l31 162h111l20 112h-108l82 416h-179zM983 276 l244 289h8l-57 -289h-195z" />
<glyph unicode="&#xbf;" horiz-adv-x="929" d="M0 -176q0 -55 24.5 -113.5t78 -106.5t136.5 -78t199 -30q104 0 169 15.5t81 21.5l37 225q-6 -2 -24.5 -8t-46 -12t-62.5 -10t-70 -4q-59 0 -100 13t-68.5 34.5t-40 46t-12.5 49.5q0 61 51 113.5t113 99.5q25 18 55.5 47t61 71t57.5 98t41 130q2 10 4 21.5t4 21.5l4 20 h-250q0 -4 -2 -12q-2 -10 -6 -35q-16 -80 -75.5 -144.5t-129.5 -117.5q-31 -25 -70.5 -57.5t-75.5 -76.5t-59.5 -99.5t-23.5 -122.5zM471 647l47 248h248l-47 -248h-248z" />
<glyph unicode="&#xc0;" horiz-adv-x="1368" d="M-123 0l793 1380h327l248 -1380h-278l-56 305h-577l-172 -305h-285zM455 512h419l-94 588h-8zM600 1808h221l107 -301h-125z" />
<glyph unicode="&#xc1;" horiz-adv-x="1368" d="M-123 0l793 1380h327l248 -1380h-278l-56 305h-577l-172 -305h-285zM455 512h419l-94 588h-8zM770 1507l223 301h240l-320 -301h-143z" />
<glyph unicode="&#xc2;" horiz-adv-x="1368" d="M-123 0l793 1380h327l248 -1380h-278l-56 305h-577l-172 -305h-285zM455 512h419l-94 588h-8zM551 1507l244 301h202l127 -301h-143l-107 181l-176 -181h-147z" />
<glyph unicode="&#xc3;" horiz-adv-x="1368" d="M-123 0l793 1380h327l248 -1380h-278l-56 305h-577l-172 -305h-285zM446 1659q14 12 42 33.5t64 43t78 38t83 16.5q57 0 93 -15.5t65.5 -34t59.5 -33.5t77 -15q45 0 82.5 20.5t66.5 46.5l70 -104q-16 -14 -45 -36t-65 -42.5t-77 -35.5t-82 -15q-59 0 -95 15t-64.5 33.5 t-58 34t-78.5 15.5q-31 0 -71 -17.5t-77 -52.5zM455 512h419l-94 588h-8z" />
<glyph unicode="&#xc4;" horiz-adv-x="1368" d="M-123 0l793 1380h327l248 -1380h-278l-56 305h-577l-172 -305h-285zM455 512h419l-94 588h-8zM532 1546l41 217h218l-41 -217h-218zM950 1546h217l41 217h-217z" />
<glyph unicode="&#xc5;" horiz-adv-x="1368" d="M-123 0l793 1380h327l248 -1380h-278l-56 305h-577l-172 -305h-285zM455 512h419l-94 588h-8zM629 1597q0 92 58 156t155 64q49 0 87 -15.5t63.5 -41t37.5 -58.5t12 -68q0 -100 -63.5 -159.5t-151.5 -59.5q-49 0 -87 15.5t-62.5 41t-36.5 58.5t-12 67zM745 1606 q0 -29 20.5 -52.5t63.5 -23.5q41 0 68 28.5t27 67.5q0 29 -21.5 53.5t-62.5 24.5q-39 0 -67 -28.5t-28 -69.5z" />
<glyph unicode="&#xc6;" horiz-adv-x="2007" d="M-82 0l1114 1380h996l-46 -227h-524l-63 -326h491l-45 -229h-491l-72 -371h528l-43 -227h-821l59 305h-491l-231 -305h-361zM676 512h364l115 588h-8z" />
<glyph unicode="&#xc7;" horiz-adv-x="1280" d="M102 635q0 141 48.5 279.5t147.5 246t250.5 174t360.5 66.5q102 0 180 -12.5t131.5 -27.5t83 -29.5t37.5 -18.5l-118 -238q-12 8 -40 23.5t-70 30t-96 25.5t-122 11q-106 0 -196.5 -40t-155 -111.5t-100 -171t-35.5 -215.5q0 -78 27.5 -152t80.5 -131t130 -93t177 -36 q49 0 92 7t76 17.5t54.5 19.5t31.5 15l29 -243q-20 -8 -100 -27.5t-197 -23.5l-66 -86q12 4 43 4q59 0 95.5 -43t36.5 -101q0 -55 -31 -103t-80 -84t-108.5 -58.5t-116.5 -30.5l-43 94q43 8 81.5 23.5t68.5 37t48.5 47t18.5 56.5t-21.5 52.5t-68.5 21.5h-58l84 172 q-156 12 -267.5 69.5t-183 145.5t-105.5 200.5t-34 237.5z" />
<glyph unicode="&#xc8;" horiz-adv-x="1126" d="M61 0l269 1380h817l-45 -227h-527l-63 -326h500l-45 -229h-500l-72 -371h531l-43 -227h-822zM639 1808h221l107 -301h-123z" />
<glyph unicode="&#xc9;" horiz-adv-x="1126" d="M61 0l269 1380h817l-45 -227h-527l-63 -326h500l-45 -229h-500l-72 -371h531l-43 -227h-822zM682 1507l223 301h219l-317 -301h-125z" />
<glyph unicode="&#xca;" horiz-adv-x="1126" d="M61 0l269 1380h817l-45 -227h-527l-63 -326h500l-45 -229h-500l-72 -371h531l-43 -227h-822zM485 1507l244 301h205l127 -301h-141l-107 185l-176 -185h-152z" />
<glyph unicode="&#xcb;" horiz-adv-x="1132" d="M61 0l269 1380h817l-45 -227h-527l-63 -326h500l-45 -229h-500l-72 -371h531l-43 -227h-822zM473 1554l43 218h217l-43 -218h-217zM893 1554h217l43 218h-217z" />
<glyph unicode="&#xcc;" horiz-adv-x="684" d="M61 0l269 1382h291l-269 -1382h-291zM244 1808h221l106 -301h-125z" />
<glyph unicode="&#xcd;" horiz-adv-x="684" d="M61 0l269 1380h293l-269 -1380h-293zM436 1507l221 301h222l-320 -301h-123z" />
<glyph unicode="&#xce;" horiz-adv-x="684" d="M61 0l269 1380h293l-269 -1380h-293zM213 1507l244 301h202l129 -301h-141l-106 185l-179 -185h-149z" />
<glyph unicode="&#xcf;" horiz-adv-x="684" d="M61 0l269 1380h293l-269 -1380h-293zM61 0l269 1380h293l-269 -1380h-293zM188 1575l43 217h218l-43 -217h-218zM608 1575h217l43 217h-217z" />
<glyph unicode="&#xd0;" horiz-adv-x="1544" d="M102 0l117 598h-113l46 229h112l107 553h399q180 0 307 -51t208 -139t119 -203t38 -242q0 -143 -57.5 -277t-165 -238.5t-265 -167t-356.5 -62.5h-496zM440 231q8 -2 44 -4t81 -2q143 0 252 46t179.5 122t106.5 173.5t36 199.5q0 84 -26 154.5t-75 123t-118.5 82 t-157.5 29.5q-53 0 -91 -4t-55 -8l-61 -316h303l-45 -229h-303z" />
<glyph unicode="&#xd1;" horiz-adv-x="1599" d="M61 0l269 1380h354l385 -968h10l189 968h270l-268 -1380h-340l-395 1001h-9l-194 -1001h-271zM610 1681q14 12 42 34t64 43.5t78 36.5t85 15q57 0 93 -15t64.5 -33.5t58 -34t76.5 -15.5q45 0 83 21.5t67 46.5l70 -103q-16 -14 -45 -36.5t-65 -43t-77 -36t-82 -15.5 q-59 0 -95 15.5t-63.5 34t-58.5 34t-80 15.5q-31 0 -70.5 -16.5t-76.5 -51.5z" />
<glyph unicode="&#xd2;" d="M102 598q0 78 17.5 169t54.5 180t97.5 171t147.5 144.5t201 100.5t261 38q170 0 291.5 -54.5t200.5 -142.5t117 -196.5t38 -216.5q0 -86 -17.5 -179.5t-56.5 -183.5t-99.5 -171t-146.5 -143.5t-199.5 -98t-254.5 -35.5q-160 0 -281 50t-204 134t-125 196.5t-42 237.5z M408 606q0 -80 22.5 -150.5t66.5 -123.5t109.5 -85t151.5 -32q121 0 209 55.5t144 138.5t84 181t28 184q0 82 -23.5 152.5t-68 124t-107.5 84t-143 30.5q-125 0 -215.5 -54t-147.5 -137t-83.5 -181.5t-26.5 -186.5zM629 1808h219l108 -301h-125z" />
<glyph unicode="&#xd3;" d="M102 598q0 78 17.5 169t54.5 180t97.5 171t147.5 144.5t201 100.5t261 38q170 0 291.5 -54.5t200.5 -142.5t117 -196.5t38 -216.5q0 -86 -17.5 -179.5t-56.5 -183.5t-99.5 -171t-146.5 -143.5t-199.5 -98t-254.5 -35.5q-160 0 -281 50t-204 134t-125 196.5t-42 237.5z M408 606q0 -80 22.5 -150.5t66.5 -123.5t109.5 -85t151.5 -32q121 0 209 55.5t144 138.5t84 181t28 184q0 82 -23.5 152.5t-68 124t-107.5 84t-143 30.5q-125 0 -215.5 -54t-147.5 -137t-83.5 -181.5t-26.5 -186.5zM793 1507l221 301h221l-317 -301h-125z" />
<glyph unicode="&#xd4;" d="M102 598q0 78 17.5 169t54.5 180t97.5 171t147.5 144.5t201 100.5t261 38q170 0 291.5 -54.5t200.5 -142.5t117 -196.5t38 -216.5q0 -86 -17.5 -179.5t-56.5 -183.5t-99.5 -171t-146.5 -143.5t-199.5 -98t-254.5 -35.5q-160 0 -281 50t-204 134t-125 196.5t-42 237.5z M408 606q0 -80 22.5 -150.5t66.5 -123.5t109.5 -85t151.5 -32q121 0 209 55.5t144 138.5t84 181t28 184q0 82 -23.5 152.5t-68 124t-107.5 84t-143 30.5q-125 0 -215.5 -54t-147.5 -137t-83.5 -181.5t-26.5 -186.5zM625 1507l243 301h205l127 -301h-141l-107 185l-176 -185 h-151z" />
<glyph unicode="&#xd5;" d="M102 598q0 78 17.5 169t54.5 180t97.5 171t147.5 144.5t201 100.5t261 38q170 0 291.5 -54.5t200.5 -142.5t117 -196.5t38 -216.5q0 -86 -17.5 -179.5t-56.5 -183.5t-99.5 -171t-146.5 -143.5t-199.5 -98t-254.5 -35.5q-160 0 -281 50t-204 134t-125 196.5t-42 237.5z M408 606q0 -80 22.5 -150.5t66.5 -123.5t109.5 -85t151.5 -32q121 0 209 55.5t144 138.5t84 181t28 184q0 82 -23.5 152.5t-68 124t-107.5 84t-143 30.5q-125 0 -215.5 -54t-147.5 -137t-83.5 -181.5t-26.5 -186.5zM565 1659q14 12 42 33.5t64 43t78 38t82 16.5 q57 0 93.5 -15.5t66 -34t59 -33.5t76.5 -15q45 0 83 20.5t67 46.5l70 -104q-16 -14 -45 -36t-65 -42.5t-77 -35.5t-82 -15q-59 0 -95 15t-64.5 33.5t-58.5 34t-79 15.5q-31 0 -70.5 -17.5t-76.5 -52.5z" />
<glyph unicode="&#xd6;" d="M102 598q0 78 17.5 169t54.5 180t97.5 171t147.5 144.5t201 100.5t261 38q170 0 291.5 -54.5t200.5 -142.5t117 -196.5t38 -216.5q0 -86 -17.5 -179.5t-56.5 -183.5t-99.5 -171t-146.5 -143.5t-199.5 -98t-254.5 -35.5q-160 0 -281 50t-204 134t-125 196.5t-42 237.5z M408 606q0 -80 22.5 -150.5t66.5 -123.5t109.5 -85t151.5 -32q121 0 209 55.5t144 138.5t84 181t28 184q0 82 -23.5 152.5t-68 124t-107.5 84t-143 30.5q-125 0 -215.5 -54t-147.5 -137t-83.5 -181.5t-26.5 -186.5zM608 1554l43 218h217l-43 -218h-217zM1026 1554h217 l43 218h-217z" />
<glyph unicode="&#xd7;" horiz-adv-x="1251" d="M82 223l326 273l-222 274l234 195l219 -273l328 273l141 -174l-328 -275l215 -266l-231 -195l-217 267l-326 -273z" />
<glyph unicode="&#xd8;" horiz-adv-x="1581" d="M102 578q0 115 38 250t125 251.5t231.5 194.5t357.5 78q106 0 197 -25l120 225l175 -57l-129 -240q135 -86 198.5 -220t63.5 -273q0 -123 -40 -260t-129 -254t-231.5 -192.5t-349.5 -75.5q-53 0 -103.5 7t-97.5 19l-110 -199l-172 58l116 213q-129 80 -194.5 212 t-65.5 288zM397 586q0 -88 28 -164t83 -129l448 815q-49 16 -102 16q-121 0 -207 -53t-141 -133t-82 -174t-27 -178zM623 225q55 -16 112 -16q117 0 201 53t139 133t82 174.5t27 178.5q0 90 -30 164.5t-83 127.5z" />
<glyph unicode="&#xd9;" horiz-adv-x="1445" d="M61 416q0 63 13.5 120.5t23.5 108.5q2 12 9.5 50t18.5 92.5t24.5 120t25.5 130.5q31 156 66 342h290q-37 -190 -67 -348q-12 -68 -25.5 -133t-25 -120.5t-18.5 -94.5t-9 -51q-10 -51 -19.5 -100.5t-9.5 -90.5q0 -102 67 -164.5t181 -62.5q86 0 142.5 27.5t92.5 72.5 t55 103.5t32 120.5l164 841h292l-172 -884q-23 -117 -68.5 -212.5t-119.5 -163t-179.5 -104t-248.5 -36.5q-131 0 -230.5 35.5t-167 96t-102.5 139.5t-35 165zM592 1808h221l107 -301h-125z" />
<glyph unicode="&#xda;" horiz-adv-x="1445" d="M61 416q0 63 13.5 120.5t23.5 108.5q2 12 9.5 50t18.5 92.5t24.5 120t25.5 130.5q31 156 66 342h290q-37 -190 -67 -348q-12 -68 -25.5 -133t-25 -120.5t-18.5 -94.5t-9 -51q-10 -51 -19.5 -100.5t-9.5 -90.5q0 -102 67 -164.5t181 -62.5q86 0 142.5 27.5t92.5 72.5 t55 103.5t32 120.5l164 841h292l-172 -884q-23 -117 -68.5 -212.5t-119.5 -163t-179.5 -104t-248.5 -36.5q-131 0 -230.5 35.5t-167 96t-102.5 139.5t-35 165zM774 1507l221 301h222l-320 -301h-123z" />
<glyph unicode="&#xdb;" horiz-adv-x="1445" d="M61 416q0 63 13.5 120.5t23.5 108.5q2 12 9.5 50t18.5 92.5t24.5 120t25.5 130.5q31 156 66 342h290q-37 -190 -67 -348q-12 -68 -25.5 -133t-25 -120.5t-18.5 -94.5t-9 -51q-10 -51 -19.5 -100.5t-9.5 -90.5q0 -102 67 -164.5t181 -62.5q86 0 142.5 27.5t92.5 72.5 t55 103.5t32 120.5l164 841h292l-172 -884q-23 -117 -68.5 -212.5t-119.5 -163t-179.5 -104t-248.5 -36.5q-131 0 -230.5 35.5t-167 96t-102.5 139.5t-35 165zM553 1507l244 301h202l129 -301h-139l-106 185l-178 -185h-152z" />
<glyph unicode="&#xdc;" horiz-adv-x="1445" d="M61 416q0 -86 35 -165t102.5 -139.5t167 -96t230.5 -35.5q143 0 248.5 36.5t179.5 104t119.5 163t68.5 212.5l172 884h-292l-164 -841q-12 -61 -31.5 -120t-55.5 -104t-92.5 -72.5t-142.5 -27.5q-115 0 -181.5 62.5t-66.5 164.5q0 41 9.5 90.5t19.5 100.5q2 12 9 51 t18.5 94.5t25 121t25.5 132.5q31 158 67 348h-290q-35 -186 -66 -342q-12 -66 -25.5 -131t-24.5 -119.5t-18.5 -92.5t-9.5 -50q-10 -51 -23.5 -108.5t-13.5 -120.5zM524 1556l43 218h217l-43 -218h-217zM942 1556h219l43 218h-219z" />
<glyph unicode="&#xdd;" horiz-adv-x="1271" d="M143 1380h308l178 -665l444 665h301l-655 -960l-82 -420h-291l80 420zM637 1507l223 301h219l-317 -301h-125z" />
<glyph unicode="&#xde;" horiz-adv-x="1216" d="M61 0l269 1380h291l-50 -252h80q119 0 213 -28.5t158.5 -80.5t98.5 -126t34 -162q0 -111 -37 -202t-111.5 -156.5t-188 -101t-267.5 -35.5q-16 0 -40 1t-46.5 3t-39.5 4t-24 2l-49 -246h-291zM442 457q10 -2 46 -3t65 -1q66 0 121 19.5t95 52t61.5 77.5t21.5 98 q0 37 -13.5 75t-42 67.5t-73.5 49t-111 19.5q-25 0 -51 -1t-31 -3z" />
<glyph unicode="&#xdf;" horiz-adv-x="1294" d="M51 0l193 991q31 152 91 252t141 158.5t177.5 82t198.5 23.5q106 0 182 -28.5t125 -71.5t71.5 -95t22.5 -100q0 -55 -15 -96t-39.5 -71.5t-55.5 -54t-62 -44.5l-41 -28q-51 -35 -89 -68t-38 -96q0 -66 84 -123l47 -35q90 -61 126 -129t36 -145q0 -74 -38 -136.5 t-103.5 -108.5t-152.5 -71.5t-183 -25.5q-94 0 -162.5 15t-89.5 21q2 16 7 41t10.5 49.5t9.5 48t8 38.5q4 12 12 21t25 9q16 0 59 -18.5t109 -18.5q109 0 160 38t51 95q0 61 -80 117l-72 49q-27 18 -52.5 40t-46 51.5t-32.5 69.5t-12 93q0 94 45 151.5t108 100.5l56 37 q14 10 38.5 26.5t46 36t38 43t16.5 48.5q0 41 -44 77.5t-128 36.5q-115 0 -186.5 -72.5t-94.5 -193.5l-200 -1030h-277z" />
<glyph unicode="&#xe0;" horiz-adv-x="1181" d="M72 393q0 145 49 262t138 200t211 128t267 45q72 0 136.5 -6t117.5 -13.5t92 -15.5t58 -14q-33 -168 -60 -307q-12 -59 -23 -118.5t-20.5 -109t-16.5 -86.5t-9 -49q-10 -47 -18.5 -94t-14.5 -90t-10 -76t-4 -49h-213q-25 0 -32 11.5t-7 27.5v18.5t2 20.5t4 22h-8 q-12 -14 -30.5 -34.5t-48.5 -40t-74 -32.5t-107 -13q-84 0 -153 30.5t-120 86t-78.5 131t-27.5 165.5zM350 416q0 -43 10.5 -83t34 -71t59 -48t85.5 -17q86 0 143 67.5t86 220.5q4 16 14.5 67.5t20.5 106.5q12 63 26 140q-16 4 -47.5 11t-85.5 7q-68 0 -130 -28.5t-110 -81 t-77 -127t-29 -164.5zM516 1520h221l105 -301h-123z" />
<glyph unicode="&#xe1;" horiz-adv-x="1181" d="M72 393q0 145 49 262t138 200t211 128t267 45q72 0 136.5 -6t117.5 -13.5t92 -15.5t58 -14q-33 -168 -60 -307q-12 -59 -23 -118.5t-20.5 -109t-16.5 -86.5t-9 -49q-10 -47 -18.5 -94t-14.5 -90t-10 -76t-4 -49h-213q-25 0 -32 11.5t-7 27.5v18.5t2 20.5t4 22h-8 q-12 -14 -30.5 -34.5t-48.5 -40t-74 -32.5t-107 -13q-84 0 -153 30.5t-120 86t-78.5 131t-27.5 165.5zM350 416q0 -43 10.5 -83t34 -71t59 -48t85.5 -17q86 0 143 67.5t86 220.5q4 16 14.5 67.5t20.5 106.5q12 63 26 140q-16 4 -47.5 11t-85.5 7q-68 0 -130 -28.5t-110 -81 t-77 -127t-29 -164.5zM664 1219l225 301h219l-320 -301h-124z" />
<glyph unicode="&#xe2;" horiz-adv-x="1181" d="M72 393q0 145 49 262t138 200t211 128t267 45q72 0 136.5 -6t117.5 -13.5t92 -15.5t58 -14q-33 -168 -60 -307q-12 -59 -23 -118.5t-20.5 -109t-16.5 -86.5t-9 -49q-10 -47 -18.5 -94t-14.5 -90t-10 -76t-4 -49h-213q-25 0 -32 11.5t-7 27.5v18.5t2 20.5t4 22h-8 q-12 -14 -30.5 -34.5t-48.5 -40t-74 -32.5t-107 -13q-84 0 -153 30.5t-120 86t-78.5 131t-27.5 165.5zM350 416q0 -43 10.5 -83t34 -71t59 -48t85.5 -17q86 0 143 67.5t86 220.5q4 16 14.5 67.5t20.5 106.5q12 63 26 140q-16 4 -47.5 11t-85.5 7q-68 0 -130 -28.5t-110 -81 t-77 -127t-29 -164.5zM475 1219l244 301h205l125 -301h-140l-104 180l-178 -180h-152z" />
<glyph unicode="&#xe3;" horiz-adv-x="1183" d="M72 393q0 145 49 262t138 200t211 128t267 45q72 0 136.5 -6t117.5 -13.5t92 -15.5t58 -14q-33 -168 -60 -307q-12 -59 -23 -118.5t-20.5 -109t-16.5 -86.5t-9 -49q-10 -47 -18.5 -94t-14.5 -90t-10 -76t-4 -49h-213q-25 0 -32 11.5t-7 27.5v18.5t2 20.5t4 22h-8 q-12 -14 -30.5 -34.5t-48.5 -40t-74 -32.5t-107 -13q-84 0 -153 30.5t-120 86t-78.5 131t-27.5 165.5zM350 416q0 -43 10.5 -83t34 -71t59 -48t85.5 -17q86 0 143 67.5t86 220.5q4 16 14.5 67.5t20.5 106.5q12 63 26 140q-16 4 -47.5 11t-85.5 7q-68 0 -130 -28.5t-110 -81 t-77 -127t-29 -164.5zM362 1366q14 12 42 33.5t65 43t78 38t84 16.5q57 0 93 -15.5t64.5 -33.5t58.5 -33.5t77 -15.5q45 0 84 20.5t67 46.5l68 -104q-16 -14 -45 -35.5t-64 -42t-75.5 -36t-84.5 -15.5q-59 0 -95 15.5t-63.5 33.5t-58 33.5t-79.5 15.5q-29 0 -70 -17.5 t-78 -51.5z" />
<glyph unicode="&#xe4;" horiz-adv-x="1181" d="M72 393q0 145 49 262t138 200t211 128t267 45q72 0 136.5 -6t117.5 -13.5t92 -15.5t58 -14q-33 -168 -60 -307q-12 -59 -23 -118.5t-20.5 -109t-16.5 -86.5t-9 -49q-10 -47 -18.5 -94t-14.5 -90t-10 -76t-4 -49h-213q-25 0 -32 11.5t-7 27.5v18.5t2 20.5t4 22h-8 q-12 -14 -30.5 -34.5t-48.5 -40t-74 -32.5t-107 -13q-84 0 -153 30.5t-120 86t-78.5 131t-27.5 165.5zM350 416q0 -43 10.5 -83t34 -71t59 -48t85.5 -17q86 0 143 67.5t86 220.5q4 16 14.5 67.5t20.5 106.5q12 63 26 140q-16 4 -47.5 11t-85.5 7q-68 0 -130 -28.5t-110 -81 t-77 -127t-29 -164.5zM449 1260l43 217h217l-43 -217h-217zM866 1260h217l43 217h-217z" />
<glyph unicode="&#xe5;" horiz-adv-x="1181" d="M72 393q0 145 49 262t138 200t211 128t267 45q72 0 136.5 -6t117.5 -13.5t92 -15.5t58 -14q-33 -168 -60 -307q-12 -59 -23 -118.5t-20.5 -109t-16.5 -86.5t-9 -49q-10 -47 -18.5 -94t-14.5 -90t-10 -76t-4 -49h-213q-25 0 -32 11.5t-7 27.5v18.5t2 20.5t4 22h-8 q-12 -14 -30.5 -34.5t-48.5 -40t-74 -32.5t-107 -13q-84 0 -153 30.5t-120 86t-78.5 131t-27.5 165.5zM350 416q0 -43 10.5 -83t34 -71t59 -48t85.5 -17q86 0 143 67.5t86 220.5q4 16 14.5 67.5t20.5 106.5q12 63 26 140q-16 4 -47.5 11t-85.5 7q-68 0 -130 -28.5t-110 -81 t-77 -127t-29 -164.5zM571 1315q0 92 58.5 155.5t156.5 63.5q49 0 87 -15.5t63 -41t37 -58.5t12 -67q0 -100 -62.5 -159.5t-150.5 -59.5q-49 0 -87 15t-63.5 40.5t-38 58.5t-12.5 68zM690 1323q0 -29 20.5 -52.5t63.5 -23.5q41 0 66.5 29t25.5 67q0 29 -20.5 52.5 t-61.5 23.5t-67.5 -27.5t-26.5 -68.5z" />
<glyph unicode="&#xe6;" horiz-adv-x="1765" d="M20 295q0 90 38 152.5t103.5 101.5t156 56.5t194.5 17.5h213q4 10 7 31.5t3 35.5q0 18 -9 41t-33.5 43.5t-66.5 33.5t-108 13q-51 0 -94 -10t-77 -23.5t-58.5 -23.5t-36.5 -10q-25 0 -25 22q0 16 3 46t7.5 60.5t8.5 57.5t6 37q6 2 32.5 12t68.5 19.5t98.5 17.5t121.5 8 q88 0 149.5 -14t101.5 -33.5t61.5 -39t32.5 -29.5q14 12 40.5 32.5t66.5 39t97.5 31.5t132.5 13q121 0 208 -35.5t142.5 -91t82 -124t26.5 -134.5q0 -72 -12 -125t-16 -69h-695q0 -49 14.5 -96.5t46 -85t84 -60.5t128.5 -23q49 0 87 10.5t66.5 23t48 22.5t33.5 10 q29 0 29 -31q0 -16 -4 -45.5t-10.5 -61.5t-11.5 -58.5t-7 -34.5q-29 -10 -103.5 -27.5t-189.5 -17.5q-145 0 -251.5 57t-172.5 151h-8q-2 -4 -22.5 -36.5t-66.5 -70.5t-122 -69.5t-188 -31.5q-92 0 -159 27.5t-110 72.5t-62.5 101.5t-19.5 113.5zM315 305q0 -47 35 -88 t109 -41q53 0 92 23.5t66.5 58.5t44 78t24.5 84q0 6 4 22l4 17h-116q-133 0 -198 -41t-65 -113zM1010 614h413q2 6 4.5 20.5t2.5 31.5q0 25 -9.5 53.5t-30 54t-54 41.5t-83.5 16q-76 0 -123 -29.5t-73.5 -68.5t-35.5 -74t-11 -45z" />
<glyph unicode="&#xe7;" horiz-adv-x="987" d="M72 455q0 123 48 228t132 183t195.5 122t240.5 44q68 0 122 -8t95 -18.5t66.5 -20.5t34.5 -14q-2 -12 -7.5 -37t-11.5 -52.5t-13 -53t-11 -42.5q-4 -12 -9.5 -21t-19.5 -9t-31.5 9t-44.5 20.5t-66.5 20.5t-97.5 9q-59 0 -117.5 -23.5t-105.5 -67.5t-75.5 -107.5 t-28.5 -143.5q0 -121 72.5 -199.5t197.5 -78.5q33 0 63.5 7t56 16t44 17.5t28.5 8.5t16.5 -7.5t6.5 -17.5t-4 -37.5t-9 -58.5t-10.5 -59.5t-7.5 -40.5q-16 -6 -74.5 -22.5t-146.5 -20.5l-68 -89q6 0 17.5 2.5t25.5 2.5q59 0 96.5 -43t37.5 -101q0 -55 -31 -103t-80 -84 t-109.5 -58.5t-117.5 -30.5l-43 94q86 18 151.5 60t65.5 104q0 31 -20.5 52t-67.5 21h-60l86 175q-100 12 -177 53t-129 104.5t-78.5 144.5t-26.5 171z" />
<glyph unicode="&#xe8;" horiz-adv-x="1159" d="M72 471q0 133 47 237.5t123.5 177t177 110.5t209.5 38q121 0 208 -35.5t142 -91t81.5 -124t26.5 -134.5q0 -70 -12 -123t-16 -69h-694q0 -49 14 -96.5t46 -85t84 -60t128 -22.5q49 0 87 10t66.5 22.5t48 22.5t33.5 10q29 0 29 -31q0 -16 -4 -45.5t-10 -61.5t-11.5 -58.5 t-7.5 -34.5q-29 -10 -102.5 -28.5t-190.5 -18.5t-211 38.5t-158.5 106.5t-99 157t-34.5 189zM383 614h416q0 8 2 22.5t2 31.5q0 25 -9.5 53.5t-29 53t-53 40.5t-82.5 16q-78 0 -125 -29.5t-72.5 -67.5t-36 -74t-12.5 -46zM457 1520h221l104 -301h-123z" />
<glyph unicode="&#xe9;" horiz-adv-x="1159" d="M72 471q0 133 47 237.5t123.5 177t177 110.5t209.5 38q121 0 208 -35.5t142 -91t81.5 -124t26.5 -134.5q0 -70 -12 -123t-16 -69h-694q0 -49 14 -96.5t46 -85t84 -60t128 -22.5q49 0 87 10t66.5 22.5t48 22.5t33.5 10q29 0 29 -31q0 -16 -4 -45.5t-10 -61.5t-11.5 -58.5 t-7.5 -34.5q-29 -10 -102.5 -28.5t-190.5 -18.5t-211 38.5t-158.5 106.5t-99 157t-34.5 189zM383 614h416q0 8 2 22.5t2 31.5q0 25 -9.5 53.5t-29 53t-53 40.5t-82.5 16q-78 0 -125 -29.5t-72.5 -67.5t-36 -74t-12.5 -46zM596 1219l223 301h221l-319 -301h-125z" />
<glyph unicode="&#xea;" horiz-adv-x="1159" d="M72 471q0 133 47 237.5t123.5 177t177 110.5t209.5 38q121 0 208 -35.5t142 -91t81.5 -124t26.5 -134.5q0 -70 -12 -123t-16 -69h-694q0 -49 14 -96.5t46 -85t84 -60t128 -22.5q49 0 87 10t66.5 22.5t48 22.5t33.5 10q29 0 29 -31q0 -16 -4 -45.5t-10 -61.5t-11.5 -58.5 t-7.5 -34.5q-29 -10 -102.5 -28.5t-190.5 -18.5t-211 38.5t-158.5 106.5t-99 157t-34.5 189zM383 614h416q0 8 2 22.5t2 31.5q0 25 -9.5 53.5t-29 53t-53 40.5t-82.5 16q-78 0 -125 -29.5t-72.5 -67.5t-36 -74t-12.5 -46zM391 1219l246 301h203l127 -301h-142l-106 184 l-176 -184h-152z" />
<glyph unicode="&#xeb;" horiz-adv-x="1159" d="M72 471q0 133 47 237.5t123.5 177t177 110.5t209.5 38q121 0 208 -35.5t142 -91t81.5 -124t26.5 -134.5q0 -70 -12 -123t-16 -69h-694q0 -49 14 -96.5t46 -85t84 -60t128 -22.5q49 0 87 10t66.5 22.5t48 22.5t33.5 10q29 0 29 -31q0 -16 -4 -45.5t-10 -61.5t-11.5 -58.5 t-7.5 -34.5q-29 -10 -102.5 -28.5t-190.5 -18.5t-211 38.5t-158.5 106.5t-99 157t-34.5 189zM350 1262l43 217h217l-43 -217h-217zM383 614h416q0 8 2 22.5t2 31.5q0 25 -9.5 53.5t-29 53t-53 40.5t-82.5 16q-78 0 -125 -29.5t-72.5 -67.5t-36 -74t-12.5 -46zM768 1262h219 l43 217h-219z" />
<glyph unicode="&#xec;" horiz-adv-x="577" d="M51 0l197 1012h274l-196 -1012h-275zM158 1520h221l104 -301h-123z" />
<glyph unicode="&#xed;" horiz-adv-x="577" d="M51 0l197 1012h274l-196 -1012h-275zM354 1219l224 301h221l-322 -301h-123z" />
<glyph unicode="&#xee;" horiz-adv-x="577" d="M51 0l197 1012h274l-196 -1012h-275zM135 1219l246 301h205l125 -301h-142l-106 184l-176 -184h-152z" />
<glyph unicode="&#xef;" horiz-adv-x="577" d="M51 0l197 1012h274l-196 -1012h-275zM115 1262l43 217h217l-43 -217h-217zM535 1262h217l43 217h-217z" />
<glyph unicode="&#xf0;" horiz-adv-x="1255" d="M72 434q0 123 41 232.5t113.5 191.5t174 130t224.5 48q76 0 131 -16t93 -36.5t57.5 -39t23.5 -22.5l6 6q-6 61 -23.5 125.5t-44.5 113.5l-137 -75l-55 125l106 61q-10 10 -29.5 26.5t-31.5 26.5q-6 4 -14.5 10.5t-8.5 22.5q0 10 6.5 19.5t18.5 25.5q23 25 55.5 58.5 t55.5 54.5q37 -23 80.5 -55.5t72.5 -65.5l166 98l61 -129l-145 -82q14 -29 32.5 -70.5t35 -101t27 -137.5t10.5 -178q0 -158 -35 -306.5t-111 -263t-194.5 -183t-284.5 -68.5q-121 0 -210 37.5t-148.5 100t-89 144.5t-29.5 172zM362 449q0 -47 10.5 -91.5t35 -80t63.5 -57 t96 -21.5q55 0 105.5 29.5t88.5 79.5t60.5 118t22.5 141q0 45 -10.5 90t-35 81t-63.5 57.5t-96 21.5q-55 0 -105.5 -29.5t-88 -80t-60.5 -117.5t-23 -141z" />
<glyph unicode="&#xf1;" horiz-adv-x="1191" d="M41 0q35 176 63 324q12 61 24.5 123.5t22 114.5t16.5 90t11 53q16 78 28.5 162.5t20.5 144.5h211q23 0 30 -11.5t7 -19.5t-3 -24.5t-7 -32.5q-4 -20 -8 -43h10q4 8 22.5 33.5t52 52t84 47t119.5 20.5q90 0 157 -28.5t111 -73.5t65.5 -101.5t21.5 -111.5q0 -49 -7.5 -94 t-15.5 -80q-16 -82 -33.5 -176.5t-33.5 -175.5q-18 -96 -37 -193h-277q18 102 39 201q16 84 33.5 175t32.5 156q6 33 12 72t6 66q0 57 -33.5 104t-115.5 47q-78 0 -151 -72.5t-101 -226.5q-10 -57 -27.5 -144t-34.5 -173l-41 -205h-274zM319 1368q14 12 42 33.5t64 43t78 37 t85 15.5q57 0 93 -15.5t64.5 -33.5t58.5 -33.5t77 -15.5q45 0 82.5 21.5t66.5 45.5l70 -102q-16 -14 -45 -36.5t-65 -43t-77 -36t-82 -15.5q-59 0 -95 15.5t-63.5 33.5t-58 33.5t-79.5 15.5q-31 0 -71 -16.5t-77 -50.5z" />
<glyph unicode="&#xf2;" horiz-adv-x="1206" d="M72 434q0 -90 29.5 -172t89 -144.5t148.5 -100t210 -37.5q137 0 245.5 48t184.5 130t116 191.5t40 232.5q0 88 -30 171t-89.5 145.5t-149.5 100t-209 37.5q-137 0 -245.5 -48t-184 -130t-115.5 -191.5t-40 -232.5zM362 449q0 74 23 141t60.5 117.5t88 80t105.5 29.5 q57 0 96 -21.5t63.5 -57.5t35 -81t10.5 -90q0 -74 -22.5 -141.5t-60.5 -117.5t-88 -79.5t-106 -29.5q-57 0 -96 21.5t-63.5 57t-35 80t-10.5 91.5zM401 1520h220l104 -301h-123z" />
<glyph unicode="&#xf3;" horiz-adv-x="1206" d="M72 434q0 -90 29.5 -172t89 -144.5t148.5 -100t210 -37.5q137 0 245.5 48t184.5 130t116 191.5t40 232.5q0 88 -30 171t-89.5 145.5t-149.5 100t-209 37.5q-137 0 -245.5 -48t-184 -130t-115.5 -191.5t-40 -232.5zM362 449q0 74 23 141t60.5 117.5t88 80t105.5 29.5 q57 0 96 -21.5t63.5 -57.5t35 -81t10.5 -90q0 -74 -22.5 -141.5t-60.5 -117.5t-88 -79.5t-106 -29.5q-57 0 -96 21.5t-63.5 57t-35 80t-10.5 91.5zM584 1219l223 301h221l-319 -301h-125z" />
<glyph unicode="&#xf4;" horiz-adv-x="1206" d="M72 434q0 -90 29.5 -172t89 -144.5t148.5 -100t210 -37.5q137 0 245.5 48t184.5 130t116 191.5t40 232.5q0 88 -30 171t-89.5 145.5t-149.5 100t-209 37.5q-137 0 -245.5 -48t-184 -130t-115.5 -191.5t-40 -232.5zM362 449q0 74 23 141t60.5 117.5t88 80t105.5 29.5 q57 0 96 -21.5t63.5 -57.5t35 -81t10.5 -90q0 -74 -22.5 -141.5t-60.5 -117.5t-88 -79.5t-106 -29.5q-57 0 -96 21.5t-63.5 57t-35 80t-10.5 91.5zM412 1219l245 301h203l127 -301h-143l-105 184l-178 -184h-149z" />
<glyph unicode="&#xf5;" horiz-adv-x="1206" d="M72 434q0 -90 29.5 -172t89 -144.5t148.5 -100t210 -37.5q137 0 245.5 48t184.5 130t116 191.5t40 232.5q0 88 -30 171t-89.5 145.5t-149.5 100t-209 37.5q-137 0 -245.5 -48t-184 -130t-115.5 -191.5t-40 -232.5zM362 449q0 74 23 141t60.5 117.5t88 80t105.5 29.5 q57 0 96 -21.5t63.5 -57.5t35 -81t10.5 -90q0 -74 -22.5 -141.5t-60.5 -117.5t-88 -79.5t-106 -29.5q-57 0 -96 21.5t-63.5 57t-35 80t-10.5 91.5zM393 1366q14 14 39 35.5t56.5 43t70.5 37t82 15.5q57 0 92 -15.5t63.5 -33.5t58.5 -33.5t77 -15.5q45 0 84 20.5t67 46.5 l45 -104q-16 -16 -40.5 -39t-56.5 -42t-68.5 -33.5t-77.5 -14.5q-59 0 -95 15.5t-65 33.5t-58.5 33.5t-78.5 15.5q-31 0 -71 -17.5t-79 -51.5z" />
<glyph unicode="&#xf6;" horiz-adv-x="1206" d="M72 434q0 -90 29.5 -172t89 -144.5t148.5 -100t210 -37.5q137 0 245.5 48t184.5 130t116 191.5t40 232.5q0 88 -30 171t-89.5 145.5t-149.5 100t-209 37.5q-137 0 -245.5 -48t-184 -130t-115.5 -191.5t-40 -232.5zM362 449q0 74 23 141t60.5 117.5t88 80t105.5 29.5 q57 0 96 -21.5t63.5 -57.5t35 -81t10.5 -90q0 -74 -22.5 -141.5t-60.5 -117.5t-88 -79.5t-106 -29.5q-57 0 -96 21.5t-63.5 57t-35 80t-10.5 91.5zM377 1260l43 217h215l-43 -217h-215zM795 1260h217l43 217h-217z" />
<glyph unicode="&#xf7;" horiz-adv-x="1372" d="M123 422l39 207h1046l-39 -207h-1046zM444 33l48 248h247l-47 -248h-248zM588 778l49 248h248l-49 -248h-248z" />
<glyph unicode="&#xf8;" horiz-adv-x="1204" d="M72 432q0 123 40 232.5t115.5 191.5t184 130t245.5 48q45 0 85 -5t75 -15l123 213l147 -49l-133 -230q92 -63 135.5 -159.5t43.5 -206.5q0 -123 -40 -232.5t-115 -191.5t-183.5 -130t-245.5 -48q-41 0 -76 4t-70 12l-124 -213l-138 63l123 211q-98 63 -145 162.5 t-47 212.5zM362 446q0 -43 9.5 -83.5t29.5 -75.5l301 520q-30 10 -63 10q-55 0 -105.5 -29.5t-88 -81t-60.5 -119t-23 -141.5zM512 205q12 -4 25.5 -6t29.5 -2q55 0 105.5 29.5t88.5 80.5t60.5 119t22.5 141q0 41 -8.5 79t-26.5 73z" />
<glyph unicode="&#xf9;" horiz-adv-x="1191" d="M92 295q0 49 7 93t16 79q16 80 33.5 175t33.5 177q18 96 39 193h275q-18 -102 -39 -201q-16 -84 -35 -175t-31 -157q-6 -33 -12 -71.5t-6 -63.5q0 -29 8 -56.5t25.5 -49t46 -33.5t69.5 -12q39 0 78 18t73 55t61.5 93.5t41.5 132.5q10 55 26.5 142t33.5 173q20 98 41 205 h274q-35 -178 -64 -324q-12 -61 -24 -123.5t-22.5 -115t-17.5 -90t-9 -50.5q-16 -78 -28.5 -164t-20.5 -145h-209q-25 0 -32 11.5t-7 21.5q0 8 2 24.5t6 32.5q4 20 10 43h-8q-6 -8 -23.5 -33.5t-51.5 -52.5t-85 -48.5t-121 -21.5q-90 0 -156.5 29t-110.5 74t-65.5 102.5 t-21.5 112.5zM446 1520h220l106 -301h-125z" />
<glyph unicode="&#xfa;" horiz-adv-x="1191" d="M92 295q0 49 7 93t16 79q16 80 33.5 175t33.5 177q18 96 39 193h275q-18 -102 -39 -201q-16 -84 -35 -175t-31 -157q-6 -33 -12 -71.5t-6 -63.5q0 -29 8 -56.5t25.5 -49t46 -33.5t69.5 -12q39 0 78 18t73 55t61.5 93.5t41.5 132.5q10 55 26.5 142t33.5 173q20 98 41 205 h274q-35 -178 -64 -324q-12 -61 -24 -123.5t-22.5 -115t-17.5 -90t-9 -50.5q-16 -78 -28.5 -164t-20.5 -145h-209q-25 0 -32 11.5t-7 21.5q0 8 2 24.5t6 32.5q4 20 10 43h-8q-6 -8 -23.5 -33.5t-51.5 -52.5t-85 -48.5t-121 -21.5q-90 0 -156.5 29t-110.5 74t-65.5 102.5 t-21.5 112.5zM641 1219l225 301h219l-319 -301h-125z" />
<glyph unicode="&#xfb;" horiz-adv-x="1191" d="M92 295q0 49 7 93t16 79q16 80 33.5 175t33.5 177q18 96 39 193h275q-18 -102 -39 -201q-16 -84 -35 -175t-31 -157q-6 -33 -12 -71.5t-6 -63.5q0 -29 8 -56.5t25.5 -49t46 -33.5t69.5 -12q39 0 78 18t73 55t61.5 93.5t41.5 132.5q10 55 26.5 142t33.5 173q20 98 41 205 h274q-35 -178 -64 -324q-12 -61 -24 -123.5t-22.5 -115t-17.5 -90t-9 -50.5q-16 -78 -28.5 -164t-20.5 -145h-209q-25 0 -32 11.5t-7 21.5q0 8 2 24.5t6 32.5q4 20 10 43h-8q-6 -8 -23.5 -33.5t-51.5 -52.5t-85 -48.5t-121 -21.5q-90 0 -156.5 29t-110.5 74t-65.5 102.5 t-21.5 112.5zM428 1219l246 301h203l127 -301h-140l-106 184l-176 -184h-154z" />
<glyph unicode="&#xfc;" horiz-adv-x="1191" d="M92 295q0 49 7 93t16 79q16 80 33.5 175t33.5 177q18 96 39 193h275q-18 -102 -39 -201q-16 -84 -35 -175t-31 -157q-6 -33 -12 -71.5t-6 -63.5q0 -29 8 -56.5t25.5 -49t46 -33.5t69.5 -12q39 0 78 18t73 55t61.5 93.5t41.5 132.5q10 55 26.5 142t33.5 173q20 98 41 205 h274q-35 -178 -64 -324q-12 -61 -24 -123.5t-22.5 -115t-17.5 -90t-9 -50.5q-16 -78 -28.5 -164t-20.5 -145h-209q-25 0 -32 11.5t-7 21.5q0 8 2 24.5t6 32.5q4 20 10 43h-8q-6 -8 -23.5 -33.5t-51.5 -52.5t-85 -48.5t-121 -21.5q-90 0 -156.5 29t-110.5 74t-65.5 102.5 t-21.5 112.5zM410 1262l43 217h217l-43 -217h-217zM829 1262l43 217h218l-43 -217h-218z" />
<glyph unicode="&#xfd;" horiz-adv-x="1077" d="M-205 -477q8 29 25.5 84t32.5 94q10 29 38 29q16 0 52.5 -9.5t79.5 -9.5q68 0 122 37t113 135q16 25 27.5 47.5t21.5 38.5q10 20 21 35l-228 1008h283l139 -639h10l342 639h295q-137 -233 -256 -443q-51 -90 -104 -182t-100 -176t-87 -155.5t-67 -121.5 q-47 -90 -94 -169.5t-106.5 -139t-140.5 -95.5t-198 -36q-86 0 -145 11.5t-76 17.5zM625 1219l223 301h221l-321 -301h-123z" />
<glyph unicode="&#xfe;" horiz-adv-x="1216" d="M-41 -473l358 1853h277l-86 -446h8q29 31 88.5 65.5t159.5 34.5q102 0 175 -36.5t119 -96t66.5 -134.5t20.5 -153q0 -145 -51.5 -261.5t-135.5 -199.5t-191.5 -128t-219.5 -45q-102 0 -155.5 14t-63.5 18l-95 -485h-274zM369 217q6 -2 44 -11t97 -9q74 0 135.5 30.5 t106.5 82.5t70.5 123t25.5 153q0 43 -10.5 84t-32 73.5t-55 53t-82.5 20.5q-96 0 -155.5 -74.5t-84.5 -210.5q-4 -16 -13 -67t-20 -107q-12 -66 -26 -141z" />
<glyph unicode="&#xff;" horiz-adv-x="1077" d="M-205 -477q8 29 25.5 84t32.5 94q10 29 38 29q16 0 52.5 -9.5t79.5 -9.5q68 0 122 37t113 135q16 25 27.5 47.5t21.5 38.5q10 20 21 35l-228 1008h283l139 -639h10l342 639h295q-137 -233 -256 -443q-51 -90 -104 -182t-100 -176t-87 -155.5t-67 -121.5 q-47 -90 -94 -169.5t-106.5 -139t-140.5 -95.5t-198 -36q-86 0 -145 11.5t-76 17.5zM387 1260l41 215h217l-41 -215h-217zM805 1260l41 215h217l-41 -215h-217z" />
<glyph unicode="&#x152;" horiz-adv-x="2146" d="M102 600q0 119 39 258t130 260t241 202t369 81q147 0 256.5 -40t187.5 -110l27 129h815l-43 -225h-525l-63 -326h492l-46 -229h-491l-72 -371h529l-45 -229h-820l9 49q-72 -33 -156 -51t-184 -18q-158 0 -280 50t-204 134t-124 196.5t-42 239.5zM408 608 q0 -80 22.5 -150.5t66.5 -124.5t109.5 -86t151.5 -32q121 0 209 55.5t144 138.5t84 182t28 185q0 82 -23.5 152.5t-68 123t-107.5 82t-143 29.5q-125 0 -215.5 -54t-147.5 -136t-83.5 -180.5t-26.5 -184.5z" />
<glyph unicode="&#x153;" horiz-adv-x="1923" d="M72 432q0 123 40 232.5t115.5 191.5t184 130t247.5 48q119 0 208 -38t149 -99q78 66 174 101.5t201 35.5q123 0 210 -35.5t142 -91t81.5 -124t26.5 -134.5q0 -72 -13 -125t-17 -69h-693q0 -49 14.5 -96.5t46.5 -85t84 -60.5t128 -23q49 0 86 10.5t65.5 23t49 22.5 t34.5 10q27 0 27 -31q0 -16 -4 -45.5t-9 -61.5t-11.5 -58.5t-8.5 -34.5q-29 -10 -102.5 -27.5t-190.5 -17.5q-123 0 -218 41.5t-161 113.5q-76 -72 -178 -113.5t-231 -41.5q-119 0 -208 36.5t-149.5 100t-90 144.5t-29.5 171zM362 446q0 -47 10.5 -91t35 -79.5t63.5 -57 t96 -21.5q55 0 105.5 29.5t88.5 79.5t60.5 118t22.5 143q0 45 -10.5 90t-35 81t-63.5 57.5t-96 21.5q-55 0 -105.5 -29.5t-88 -81t-60.5 -119t-23 -141.5zM1145 614h416q4 16 4 52q0 25 -9.5 53.5t-29 54t-53 41.5t-82.5 16q-76 0 -123 -29.5t-74 -68.5t-37 -73.5t-12 -45.5 z" />
<glyph unicode="&#x178;" horiz-adv-x="1271" d="M143 1380l283 -960l-80 -420h291l82 420l655 960h-301l-444 -665l-178 665h-308zM508 1548l43 217h217l-43 -217h-217zM926 1548h217l43 217h-217z" />
<glyph unicode="&#x2c6;" horiz-adv-x="737" d="M289 1081l243 299h205l127 -299h-145l-105 185l-178 -185h-147z" />
<glyph unicode="&#x2dc;" horiz-adv-x="899" d="M305 1272q14 12 42 33.5t63.5 43t77.5 37t85 15.5q57 0 93 -15.5t65 -34t58.5 -33.5t76.5 -15q45 0 83 21.5t67 45.5l69 -102q-16 -14 -44.5 -37t-64.5 -43.5t-77 -35.5t-82 -15q-59 0 -95 15t-63.5 33.5t-58.5 34t-80 15.5q-31 0 -70.5 -16.5t-76.5 -51.5z" />
<glyph unicode="&#x2000;" horiz-adv-x="908" />
<glyph unicode="&#x2001;" horiz-adv-x="1817" />
<glyph unicode="&#x2002;" horiz-adv-x="908" />
<glyph unicode="&#x2003;" horiz-adv-x="1817" />
<glyph unicode="&#x2004;" horiz-adv-x="605" />
<glyph unicode="&#x2005;" horiz-adv-x="454" />
<glyph unicode="&#x2006;" horiz-adv-x="302" />
<glyph unicode="&#x2007;" horiz-adv-x="302" />
<glyph unicode="&#x2008;" horiz-adv-x="227" />
<glyph unicode="&#x2009;" horiz-adv-x="363" />
<glyph unicode="&#x200a;" horiz-adv-x="100" />
<glyph unicode="&#x2010;" horiz-adv-x="917" d="M123 422l39 207h633l-39 -207h-633z" />
<glyph unicode="&#x2011;" horiz-adv-x="917" d="M123 422l39 207h633l-39 -207h-633z" />
<glyph unicode="&#x2012;" horiz-adv-x="917" d="M123 422l39 207h633l-39 -207h-633z" />
<glyph unicode="&#x2013;" horiz-adv-x="1179" d="M123 422l39 207h895l-39 -207h-895z" />
<glyph unicode="&#x2014;" horiz-adv-x="1544" d="M123 422l39 207h1259l-39 -207h-1259z" />
<glyph unicode="&#x2018;" horiz-adv-x="538" d="M205 915q6 31 12 60q4 25 10.5 52t10.5 50q16 86 47.5 142.5t70.5 93.5t79 57.5t71 32.5l33 -47q-49 -29 -91 -79t-55 -114h109l-49 -248h-248z" />
<glyph unicode="&#x2019;" horiz-adv-x="495" d="M205 940q47 29 89 79t54 114h-106l47 247h248q-6 -31 -13 -59q-4 -25 -9 -53.5t-9 -48.5q-16 -84 -49 -141.5t-71 -94.5t-78 -56.5t-70 -31.5z" />
<glyph unicode="&#x201a;" horiz-adv-x="538" d="M0 -193q49 29 91 79.5t54 113.5h-108l49 248h248q-6 -31 -12 -60q-4 -25 -10.5 -53.5t-10.5 -48.5q-16 -86 -49 -142.5t-71 -93t-78 -57t-70 -33.5z" />
<glyph unicode="&#x201c;" horiz-adv-x="901" d="M205 915q6 31 12 60q4 25 9.5 52t9.5 50q16 86 48.5 142.5t70.5 93.5t78 57.5t71 32.5l33 -47q-47 -29 -90.5 -79t-55.5 -114h109l-49 -248h-246zM569 915h248l47 248h-106q12 63 54 113.5t89 79.5l-31 47q-31 -12 -71.5 -33.5t-79.5 -58.5t-71 -93.5t-46 -140.5 q-4 -23 -10 -50.5t-10 -51.5q-7 -29 -13 -60z" />
<glyph unicode="&#x201d;" horiz-adv-x="862" d="M205 940l33 -45q31 12 70.5 31.5t77.5 56.5t70.5 94.5t49.5 141.5q4 20 9 48.5t9 53.5q7 28 13 59h-246l-49 -247h108q-12 -63 -55 -113.5t-90 -79.5zM569 940q49 29 91 79t55 114h-107l47 247h248q-6 -31 -12 -59q-4 -25 -10.5 -53.5t-10.5 -48.5q-16 -84 -47.5 -141.5 t-70.5 -94.5t-79 -56.5t-71 -31.5z" />
<glyph unicode="&#x201e;" horiz-adv-x="903" d="M0 -193l33 -47q31 12 70.5 33t78.5 57.5t71 93t48 142.5q4 20 10 49t11 53q6 29 12 60h-248l-47 -248h106q-12 -63 -54 -113.5t-91 -79.5zM367 -193q47 29 90 79.5t55 113.5h-109l50 248h245q-6 -31 -12 -60q-4 -25 -9 -53.5t-9 -48.5q-16 -86 -49 -142.5t-71 -93 t-78 -57t-71 -33.5z" />
<glyph unicode="&#x2022;" horiz-adv-x="802" d="M164 344l78 395h397l-78 -395h-397z" />
<glyph unicode="&#x2026;" horiz-adv-x="1656" d="M61 0l48 248h247l-47 -248h-248zM610 0l47 248h248l-47 -248h-248zM1157 0l47 248h248l-47 -248h-248z" />
<glyph unicode="&#x202f;" horiz-adv-x="363" />
<glyph unicode="&#x2039;" horiz-adv-x="819" d="M82 481l524 455l131 -139l-375 -338l234 -322l-166 -121z" />
<glyph unicode="&#x203a;" horiz-adv-x="964" d="M154 168l374 340l-231 321l166 121l348 -467l-526 -454z" />
<glyph unicode="&#x205f;" horiz-adv-x="454" />
<glyph unicode="&#x20ac;" horiz-adv-x="1533" d="M123 426l98 192h33q0 27 1 62t5 63h-133l96 193h86q39 98 103.5 182t159 147.5t216 99.5t273.5 36q102 0 179 -12.5t130 -27.5t83 -29.5t40 -18.5l-121 -238q-12 8 -39.5 23.5t-69.5 30t-96.5 25.5t-122.5 11q-133 0 -237.5 -61.5t-167.5 -167.5h674l-96 -193h-650 q-4 -31 -7 -62.5t-3 -62.5h596l-96 -192h-449q47 -92 139.5 -151.5t225.5 -59.5q102 0 168.5 23.5t85.5 33.5l28 -241q-23 -8 -113.5 -29.5t-223.5 -21.5q-139 0 -247 33.5t-186.5 93t-130 141.5t-75.5 178h-156z" />
<glyph unicode="&#x2122;" horiz-adv-x="1089" d="M205 1313l14 67h309l-14 -67h-111l-65 -342h-88l65 342h-110zM459 971h86l90 301h8l35 -301h88l149 301h9l-19 -301h84l19 409h-113l-145 -297h-9l-36 297h-103z" />
<glyph unicode="&#xe000;" horiz-adv-x="1013" d="M0 0v1014h1014v-1014h-1014z" />
</font>
</defs>
</svg>
